<svg xmlns="http://www.w3.org/2000/svg" xmlns:xlink="http://www.w3.org/1999/xlink" width="186" height="186" viewBox="0 0 186 186">
  <defs>
    <filter id="Rectangle_783" x="0" y="0" width="186" height="186" filterUnits="userSpaceOnUse">
      <feOffset dy="3" input="SourceAlpha"/>
      <feGaussianBlur stdDeviation="6" result="blur"/>
      <feFlood flood-opacity="0.161"/>
      <feComposite operator="in" in2="blur"/>
      <feComposite in="SourceGraphic"/>
    </filter>
    <clipPath id="clip-path">
      <rect id="Rectangle_782" data-name="Rectangle 782" width="132.641" height="102.912" fill="#3a3b4d"/>
    </clipPath>
  </defs>
  <g id="Group_1814" data-name="Group 1814" transform="translate(-633 -444)">
    <g transform="matrix(1, 0, 0, 1, 633, 444)" filter="url(#Rectangle_783)">
      <rect id="Rectangle_783-2" data-name="Rectangle 783" width="150" height="150" rx="75" transform="translate(18 15)" fill="#f8fafa"/>
    </g>
    <g id="Group_1813" data-name="Group 1813" transform="translate(659.679 483.276)">
      <g id="Group_1812" data-name="Group 1812" transform="translate(0 0)" clip-path="url(#clip-path)">
        <path id="Path_2680" data-name="Path 2680" d="M41.86,46.972a2.08,2.08,0,0,1-1.464-.606L18.981,24.95a2.067,2.067,0,0,1,0-2.926l3.443-3.445A2.069,2.069,0,0,1,25.35,21.5l-1.981,1.981L41.86,41.977,60.35,23.486,41.86,5,35.57,11.285a2.069,2.069,0,0,1-2.926-2.926L40.4.605a2.074,2.074,0,0,1,2.928,0L64.74,22.024a2.068,2.068,0,0,1,0,2.926L43.323,46.366a2.08,2.08,0,0,1-1.464.606" transform="translate(24.46 0)" fill="#3a3b4d"/>
        <path id="Path_2681" data-name="Path 2681" d="M27.751,20.208a2.069,2.069,0,0,1-1.464-3.532L35.05,7.913a2.069,2.069,0,0,1,2.926,2.926L29.215,19.6a2.071,2.071,0,0,1-1.464.606" transform="translate(34.188 9.728)" fill="#31d3f5"/>
        <path id="Path_2682" data-name="Path 2682" d="M36.513,20.208a2.071,2.071,0,0,1-1.464-.606l-8.761-8.763a2.069,2.069,0,0,1,2.926-2.926l8.763,8.763a2.069,2.069,0,0,1-1.464,3.532" transform="translate(34.187 9.728)" fill="#31d3f5"/>
        <path id="Path_2683" data-name="Path 2683" d="M41.86,70.956A2.08,2.08,0,0,1,40.4,70.35L18.979,48.933a2.074,2.074,0,0,1,0-2.928L40.4,24.589a2.131,2.131,0,0,1,2.926,0L64.74,46.005a2.071,2.071,0,0,1,0,2.928L43.321,70.35a2.07,2.07,0,0,1-1.462.606M23.369,47.469,41.86,65.96,60.351,47.469,41.86,28.979Z" transform="translate(24.46 31.957)" fill="#3a3b4d"/>
        <path id="Path_2684" data-name="Path 2684" d="M27.751,44.2a2.069,2.069,0,0,1-1.464-3.532l8.763-8.763a2.069,2.069,0,0,1,2.926,2.926L29.215,43.6a2.071,2.071,0,0,1-1.464.606" transform="translate(34.188 41.671)" fill="#31d3f5"/>
        <path id="Path_2685" data-name="Path 2685" d="M36.513,44.2a2.071,2.071,0,0,1-1.464-.606l-8.761-8.763a2.069,2.069,0,1,1,2.926-2.926l8.763,8.763A2.069,2.069,0,0,1,36.513,44.2" transform="translate(34.187 41.671)" fill="#31d3f5"/>
        <path id="Path_2686" data-name="Path 2686" d="M60.236,61.782a2.08,2.08,0,0,1-1.464-.606L37.355,39.757a2.068,2.068,0,0,1,0-2.926L58.772,15.415a2.071,2.071,0,0,1,2.928,0L66.581,20.3a2.069,2.069,0,0,1-2.926,2.926l-3.42-3.42L41.745,38.3,60.236,56.786,78.726,38.3l-6.5-6.5a2.069,2.069,0,1,1,2.926-2.926l7.959,7.959a2.067,2.067,0,0,1,0,2.926L61.7,61.176a2.076,2.076,0,0,1-1.464.606" transform="translate(48.919 19.712)" fill="#3a3b4d"/>
        <path id="Path_2687" data-name="Path 2687" d="M51.885,38.808a8.863,8.863,0,1,1,8.861-8.863,8.874,8.874,0,0,1-8.861,8.863m0-13.588a4.724,4.724,0,1,0,4.723,4.725,4.73,4.73,0,0,0-4.723-4.725" transform="translate(57.269 28.063)" fill="#31d3f5"/>
        <path id="Path_2688" data-name="Path 2688" d="M23.486,61.768a2.066,2.066,0,0,1-1.464-.606L.605,39.745a2.074,2.074,0,0,1,0-2.928L22.022,15.4a2.131,2.131,0,0,1,2.926,0L46.366,36.817a2.071,2.071,0,0,1,0,2.928L24.947,61.162a2.06,2.06,0,0,1-1.462.606M5,38.281,23.486,56.772,41.977,38.281,23.486,19.791Z" transform="translate(0.001 19.726)" fill="#3a3b4d"/>
        <path id="Path_2689" data-name="Path 2689" d="M15.136,38.808A8.863,8.863,0,1,1,24,29.945a8.873,8.873,0,0,1-8.863,8.863m0-13.588a4.724,4.724,0,1,0,4.723,4.725,4.728,4.728,0,0,0-4.723-4.725" transform="translate(8.35 28.063)" fill="#31d3f5"/>
        <path id="Path_2690" data-name="Path 2690" d="M63.278,28.135H20.445a2.069,2.069,0,1,1,0-4.138H63.278a2.069,2.069,0,0,1,0,4.138" transform="translate(24.46 31.943)" fill="#3a3b4d"/>
        <path id="Path_2691" data-name="Path 2691" d="M29.631,35.619a2.07,2.07,0,0,1-2.07-2.07V20.443a2.07,2.07,0,0,1,4.14,0V33.549a2.07,2.07,0,0,1-2.07,2.07" transform="translate(36.688 24.459)" fill="#3a3b4d"/>
        <path id="Path_2692" data-name="Path 2692" d="M15.824,31.488a2.069,2.069,0,0,1-1.163-3.781L35.217,13.743a2.07,2.07,0,0,1,2.326,3.424L16.985,31.131a2.072,2.072,0,0,1-1.161.357" transform="translate(18.309 17.818)" fill="#3a3b4d"/>
        <path id="Path_2693" data-name="Path 2693" d="M55.177,31.487a2.072,2.072,0,0,1-1.161-.357L33.457,17.167a2.069,2.069,0,0,1,2.324-3.424L56.34,27.706a2.069,2.069,0,0,1-1.163,3.781" transform="translate(43.329 17.819)" fill="#3a3b4d"/>
      </g>
    </g>
  </g>
</svg>
