<svg xmlns="http://www.w3.org/2000/svg" xmlns:xlink="http://www.w3.org/1999/xlink" width="186" height="186" viewBox="0 0 186 186">
  <defs>
    <filter id="Rectangle_783" x="0" y="0" width="186" height="186" filterUnits="userSpaceOnUse">
      <feOffset dy="3" input="SourceAlpha"/>
      <feGaussianBlur stdDeviation="6" result="blur"/>
      <feFlood flood-opacity="0.161"/>
      <feComposite operator="in" in2="blur"/>
      <feComposite in="SourceGraphic"/>
    </filter>
    <clipPath id="clip-path">
      <rect id="Rectangle_939" data-name="Rectangle 939" width="106.694" height="96.687" fill="none"/>
    </clipPath>
  </defs>
  <g id="Group_1849" data-name="Group 1849" transform="translate(-1074 -457)">
    <g transform="matrix(1, 0, 0, 1, 1074, 457)" filter="url(#Rectangle_783)">
      <rect id="Rectangle_783-2" data-name="Rectangle 783" width="150" height="150" rx="75" transform="translate(18 15)" fill="#f8fafa"/>
    </g>
    <g id="Group_1848" data-name="Group 1848" transform="translate(1113.653 498.657)">
      <g id="Group_1847" data-name="Group 1847" transform="translate(0 0)" clip-path="url(#clip-path)">
        <path id="Path_3527" data-name="Path 3527" d="M63.039,34.942a1.817,1.817,0,0,1-1.816-1.816,16.416,16.416,0,0,0-11.646-15.64A1.816,1.816,0,0,1,50.615,14a20.074,20.074,0,0,1,14.24,19.121,1.817,1.817,0,0,1-1.816,1.816" transform="translate(41.839 12.071)" fill="#3a3b4d"/>
        <path id="Path_3528" data-name="Path 3528" d="M19.95,65.148a19.951,19.951,0,0,1,0-39.9,19.631,19.631,0,0,1,6.561,1.12A19.956,19.956,0,0,1,55.27,13.275,23.448,23.448,0,0,1,99.844,23.463a23.281,23.281,0,0,1-.8,6.031A19.934,19.934,0,0,1,96.161,62.77a1.816,1.816,0,0,1-1.715-3.2A16.3,16.3,0,0,0,95.92,31.7a1.816,1.816,0,0,1-.7-2.066,19.816,19.816,0,0,0-37.4-13.1,1.818,1.818,0,0,1-2.723.868A16.312,16.312,0,0,0,29.722,29.121a1.816,1.816,0,0,1-2.606,1.434,16.146,16.146,0,0,0-7.166-1.676,16.319,16.319,0,1,0,0,32.637,1.816,1.816,0,1,1,0,3.632" transform="translate(0 0.001)" fill="#3a3b4d"/>
        <path id="Path_3529" data-name="Path 3529" d="M50.44,36.588H42.608a1.816,1.816,0,1,1,0-3.632H50.44a1.816,1.816,0,1,1,0,3.632" transform="translate(35.35 28.56)" fill="#3a3b4d"/>
        <path id="Path_3530" data-name="Path 3530" d="M46.792,72.216H15.806A1.817,1.817,0,0,1,13.99,70.4V30.055a1.817,1.817,0,0,1,1.816-1.816H46.792a1.817,1.817,0,0,1,1.816,1.816V70.4a1.817,1.817,0,0,1-1.816,1.816M17.622,68.583H44.975V31.871H17.622Z" transform="translate(12.124 24.472)" fill="#31d3f5"/>
        <path id="Path_3531" data-name="Path 3531" d="M54.053,65.646H47.275a1.817,1.817,0,0,1-1.816-1.816v-32.4H23.069a1.815,1.815,0,0,1-1.816-1.816V23.485a1.815,1.815,0,0,1,1.816-1.816H54.053a1.815,1.815,0,0,1,1.816,1.816V63.83a1.816,1.816,0,0,1-1.816,1.816m-4.961-3.632h3.147V25.3H24.885v2.5h22.39a1.817,1.817,0,0,1,1.816,1.816Z" transform="translate(18.418 18.779)" fill="#31d3f5"/>
        <path id="Path_3532" data-name="Path 3532" d="M50.422,68.931H43.644a1.817,1.817,0,0,1-1.816-1.816v-32.4H19.438A1.815,1.815,0,0,1,17.622,32.9V26.77a1.816,1.816,0,0,1,1.816-1.816H50.422a1.817,1.817,0,0,1,1.816,1.816V67.115a1.817,1.817,0,0,1-1.816,1.816M45.46,65.3h3.145V28.586H21.254v2.5h22.39A1.817,1.817,0,0,1,45.46,32.9Z" transform="translate(15.271 21.625)" fill="#31d3f5"/>
        <path id="Path_3533" data-name="Path 3533" d="M37.162,37.231H19.33a1.816,1.816,0,1,1,0-3.632H37.162a1.816,1.816,0,1,1,0,3.632" transform="translate(15.177 29.117)" fill="#31d3f5"/>
        <path id="Path_3534" data-name="Path 3534" d="M37.162,40.949H19.33a1.816,1.816,0,1,1,0-3.632H37.162a1.816,1.816,0,1,1,0,3.632" transform="translate(15.177 32.339)" fill="#31d3f5"/>
        <path id="Path_3535" data-name="Path 3535" d="M37.162,44.667H19.33a1.816,1.816,0,1,1,0-3.632H37.162a1.816,1.816,0,1,1,0,3.632" transform="translate(15.177 35.561)" fill="#31d3f5"/>
        <path id="Path_3536" data-name="Path 3536" d="M58.045,57.492H39.668a1.816,1.816,0,0,1,0-3.632h16.56V25.538a1.816,1.816,0,0,1,3.632,0V55.676a1.817,1.817,0,0,1-1.816,1.816" transform="translate(32.802 20.558)" fill="#31d3f5"/>
        <path id="Path_3537" data-name="Path 3537" d="M47.654,30.5a1.816,1.816,0,0,1-1.284-3.1l3.573-3.571a1.816,1.816,0,0,1,2.568,0L56.08,27.4a1.816,1.816,0,1,1-2.568,2.568l-2.285-2.287-2.288,2.288a1.81,1.81,0,0,1-1.284.532" transform="translate(39.723 20.189)" fill="#31d3f5"/>
      </g>
    </g>
  </g>
</svg>
