<svg xmlns="http://www.w3.org/2000/svg" xmlns:xlink="http://www.w3.org/1999/xlink" width="186" height="186" viewBox="0 0 186 186">
  <defs>
    <filter id="Rectangle_6" x="0" y="0" width="186" height="186" filterUnits="userSpaceOnUse">
      <feOffset dy="3" input="SourceAlpha"/>
      <feGaussianBlur stdDeviation="6" result="blur"/>
      <feFlood flood-opacity="0.161"/>
      <feComposite operator="in" in2="blur"/>
      <feComposite in="SourceGraphic"/>
    </filter>
    <clipPath id="clip-path">
      <rect id="Rectangle_781" data-name="Rectangle 781" width="90.42" height="94.029" fill="#3a3b4d"/>
    </clipPath>
  </defs>
  <g id="Group_1815" data-name="Group 1815" transform="translate(-214 -444)">
    <g transform="matrix(1, 0, 0, 1, 214, 444)" filter="url(#Rectangle_6)">
      <rect id="Rectangle_6-2" data-name="Rectangle 6" width="150" height="150" rx="75" transform="translate(18 15)" fill="#f8fafa"/>
    </g>
    <g id="Group_1811" data-name="Group 1811" transform="translate(265.107 487.374)">
      <g id="Group_1810" data-name="Group 1810" transform="translate(0 0)" clip-path="url(#clip-path)">
        <path id="Path_2665" data-name="Path 2665" d="M8.23,87.551H1.58A1.581,1.581,0,0,1,0,85.971V1.58A1.58,1.58,0,0,1,1.58,0H65.245a1.58,1.58,0,0,1,1.58,1.58V8.056a1.58,1.58,0,0,1-1.58,1.58H9.81V85.971a1.58,1.58,0,0,1-1.58,1.58M3.16,84.391H6.651V8.056a1.581,1.581,0,0,1,1.58-1.58H63.665V3.16H3.16Z" transform="translate(0 0.001)" fill="#3a3b4d"/>
        <path id="Path_2666" data-name="Path 2666" d="M85.889,91.155H5.28A1.58,1.58,0,0,1,3.7,89.574V5.182A1.577,1.577,0,0,1,5.28,3.6H68.943a1.578,1.578,0,0,1,1.58,1.578v8.59a1.58,1.58,0,0,1-3.16,0V6.762H6.86V87.994h79.03a1.581,1.581,0,0,1,0,3.162" transform="translate(2.951 2.875)" fill="#3a3b4d"/>
        <path id="Path_2667" data-name="Path 2667" d="M41.97,13.248H13.891a1.579,1.579,0,1,1,0-3.158H41.97a1.579,1.579,0,1,1,0,3.158" transform="translate(9.817 8.047)" fill="#3a3b4d"/>
        <path id="Path_2668" data-name="Path 2668" d="M34.5,18.672H10.926a1.58,1.58,0,1,1,0-3.16H34.5a1.58,1.58,0,0,1,0,3.16" transform="translate(7.453 12.371)" fill="#3a3b4d"/>
        <path id="Path_2669" data-name="Path 2669" d="M34.5,24.095H10.926a1.58,1.58,0,1,1,0-3.16H34.5a1.58,1.58,0,0,1,0,3.16" transform="translate(7.453 16.695)" fill="#3a3b4d"/>
        <path id="Path_2670" data-name="Path 2670" d="M34.5,29.518H10.926a1.58,1.58,0,1,1,0-3.16H34.5a1.58,1.58,0,0,1,0,3.16" transform="translate(7.453 21.02)" fill="#3a3b4d"/>
        <path id="Path_2671" data-name="Path 2671" d="M62.621,57.64H29.311a3.706,3.706,0,0,1-3.7-3.7V49.334a3.706,3.706,0,0,1,3.7-3.7h33.31a3.706,3.706,0,0,1,3.7,3.7v4.605a3.706,3.706,0,0,1-3.7,3.7m-33.31-8.847a.542.542,0,0,0-.541.541v4.605a.542.542,0,0,0,.541.541h33.31a.542.542,0,0,0,.541-.541V49.334a.542.542,0,0,0-.541-.541Z" transform="translate(20.422 36.39)" fill="#3a3b4d"/>
        <path id="Path_2672" data-name="Path 2672" d="M50.488,57.64H33.353c-1.548,0-2.671-1.557-2.671-3.7V49.334c0-2.144,1.123-3.7,2.671-3.7H50.488c1.548,0,2.671,1.557,2.671,3.7v4.605c0,2.144-1.123,3.7-2.671,3.7M33.9,54.48H49.938A2.211,2.211,0,0,0,50,53.939V49.334a2.211,2.211,0,0,0-.061-.541H33.9a2.211,2.211,0,0,0-.061.541v4.605a2.211,2.211,0,0,0,.061.541" transform="translate(24.467 36.39)" fill="#3a3b4d"/>
        <path id="Path_2673" data-name="Path 2673" d="M60.511,52.718H27.2a3.706,3.706,0,0,1-3.7-3.7V44.412a3.706,3.706,0,0,1,3.7-3.7h33.31a3.706,3.706,0,0,1,3.7,3.7v4.605a3.706,3.706,0,0,1-3.7,3.7M27.2,43.871a.542.542,0,0,0-.541.541v4.605a.542.542,0,0,0,.541.541h33.31a.542.542,0,0,0,.541-.541V44.412a.542.542,0,0,0-.541-.541Z" transform="translate(18.74 32.465)" fill="#3a3b4d"/>
        <path id="Path_2674" data-name="Path 2674" d="M48.379,52.718H31.244c-1.548,0-2.671-1.557-2.671-3.7V44.412c0-2.144,1.123-3.7,2.671-3.7H48.379c1.548,0,2.671,1.557,2.671,3.7v4.605c0,2.144-1.123,3.7-2.671,3.7m-16.585-3.16H47.829a2.2,2.2,0,0,0,.061-.541V44.412a2.222,2.222,0,0,0-.061-.541H31.794a2.222,2.222,0,0,0-.061.541v4.605a2.2,2.2,0,0,0,.061.541" transform="translate(22.785 32.465)" fill="#3a3b4d"/>
        <path id="Path_2675" data-name="Path 2675" d="M63.726,47.8H30.416a3.706,3.706,0,0,1-3.7-3.7V39.49a3.706,3.706,0,0,1,3.7-3.7h33.31a3.7,3.7,0,0,1,3.7,3.7v4.605a3.7,3.7,0,0,1-3.7,3.7m-33.31-8.847a.542.542,0,0,0-.541.541v4.605a.542.542,0,0,0,.541.541h33.31a.543.543,0,0,0,.543-.541V39.49a.543.543,0,0,0-.543-.541Z" transform="translate(21.303 28.54)" fill="#3a3b4d"/>
        <path id="Path_2676" data-name="Path 2676" d="M51.593,47.8H34.458c-1.548,0-2.671-1.557-2.671-3.7V39.49c0-2.144,1.123-3.7,2.671-3.7H51.593c1.548,0,2.671,1.557,2.671,3.7v4.605c0,2.144-1.123,3.7-2.671,3.7m-16.585-3.16H51.043a2.2,2.2,0,0,0,.061-.541V39.49a2.222,2.222,0,0,0-.061-.541H35.008a2.222,2.222,0,0,0-.061.541v4.605a2.2,2.2,0,0,0,.061.541" transform="translate(25.348 28.54)" fill="#3a3b4d"/>
        <path id="Path_2677" data-name="Path 2677" d="M60.763,42.874H27.453a3.706,3.706,0,0,1-3.7-3.7V34.568a3.706,3.706,0,0,1,3.7-3.7h33.31a3.706,3.706,0,0,1,3.7,3.7v4.605a3.706,3.706,0,0,1-3.7,3.7m-33.31-8.847a.542.542,0,0,0-.541.541v4.605a.542.542,0,0,0,.541.541h33.31a.542.542,0,0,0,.541-.541V34.568a.542.542,0,0,0-.541-.541Z" transform="translate(18.941 24.615)" fill="#3a3b4d"/>
        <path id="Path_2678" data-name="Path 2678" d="M48.63,42.874H31.495c-1.548,0-2.671-1.557-2.671-3.7V34.568c0-2.144,1.123-3.7,2.671-3.7H48.63c1.548,0,2.671,1.557,2.671,3.7v4.605c0,2.144-1.123,3.7-2.671,3.7m-16.585-3.16H48.08a2.2,2.2,0,0,0,.061-.541V34.568a2.222,2.222,0,0,0-.061-.541H32.045a2.222,2.222,0,0,0-.061.541v4.605a2.2,2.2,0,0,0,.061.541" transform="translate(22.985 24.615)" fill="#3a3b4d"/>
        <path id="Path_2679" data-name="Path 2679" d="M47.484,42.771h-12.8a1.581,1.581,0,0,1-1.58-1.58V28.046h-4.54a1.58,1.58,0,0,1-1.2-2.606L39.88,10.782a1.579,1.579,0,0,1,2.4,0L54.8,25.44a1.58,1.58,0,0,1-1.2,2.606h-4.54V41.191a1.58,1.58,0,0,1-1.58,1.58m-11.225-3.16H45.9V26.466a1.581,1.581,0,0,1,1.58-1.58h2.693l-9.1-10.646-9.1,10.646h2.693a1.58,1.58,0,0,1,1.58,1.58Z" transform="translate(21.515 8.157)" fill="#31d3f5"/>
      </g>
    </g>
  </g>
</svg>
