<svg xmlns="http://www.w3.org/2000/svg" width="22" height="22" viewBox="0 0 22 22">
  <g id="Group_1622" data-name="Group 1622" transform="translate(-263 -3092)">
    <g id="Rectangle_674" data-name="Rectangle 674" transform="translate(264 3093)" fill="none" stroke="#f2f2f2" stroke-linecap="round" stroke-linejoin="round" stroke-width="1">
      <rect width="20" height="20" rx="3" stroke="none"/>
      <rect x="-0.5" y="-0.5" width="21" height="21" rx="3.5" fill="none"/>
    </g>
    <g id="github-alt" transform="translate(266.476 3096.792)">
      <path id="Path_671" data-name="Path 671" d="M15.049,6.062a7.035,7.035,0,0,1-.411,2.547,3.519,3.519,0,0,1-1.2,1.626,5.672,5.672,0,0,1-1.568.823,9.337,9.337,0,0,1-1.842.372,2.472,2.472,0,0,1,.745,2v3.527H5.33V14.409a6.307,6.307,0,0,1-1.156.118,3.586,3.586,0,0,1-.9-.1,3.075,3.075,0,0,1-.666-.255,1.978,1.978,0,0,1-.47-.333,3.164,3.164,0,0,1-.294-.333,1.019,1.019,0,0,1-.157-.274l-.039-.118a4.551,4.551,0,0,0-.529-.941,2.032,2.032,0,0,0-.49-.509l-.2-.118Q0,11.2,0,11.058t.274-.176H.509a1.967,1.967,0,0,1,.9.314A1.724,1.724,0,0,1,2,11.744l.2.235a2.2,2.2,0,0,0,3.174.9,2.2,2.2,0,0,1,.705-1.45,9.337,9.337,0,0,1-1.842-.372,5.4,5.4,0,0,1-1.548-.823,3.708,3.708,0,0,1-1.2-1.626,6.747,6.747,0,0,1-.431-2.547,4.1,4.1,0,0,1,1.137-2.9,3.878,3.878,0,0,1,.118-2.9.534.534,0,0,0,.314-.02,2.239,2.239,0,0,1,.98.235A8.664,8.664,0,0,1,5.33,1.4a11.583,11.583,0,0,1,2.743-.392,11.984,11.984,0,0,1,2.743.392A7.311,7.311,0,0,1,12.482.5,3.873,3.873,0,0,1,13.521.222l.274.039a3.644,3.644,0,0,1,.118,2.9A4.1,4.1,0,0,1,15.049,6.062Z" transform="translate(0 -0.222)" fill="#f2f2f2"/>
    </g>
  </g>
</svg>
