<svg id="Component_7_2" data-name="Component 7 – 2" xmlns="http://www.w3.org/2000/svg" width="44" height="44" viewBox="0 0 44 44">
  <rect id="Rectangle_3" data-name="Rectangle 3" width="44" height="44" fill="none"/>
  <g id="_56c03f12fd730b429429a100928943c1" data-name="56c03f12fd730b429429a100928943c1" transform="translate(-15.014 -16.014)">
    <path id="Path_751" data-name="Path 751" d="M37.014,22A16.014,16.014,0,1,0,53.027,38.014,16.014,16.014,0,0,0,37.014,22ZM48.73,46.579a17.947,17.947,0,0,0-3.352-1.527,26.247,26.247,0,0,0,.909-6.294H51.5a14.431,14.431,0,0,1-2.771,7.821ZM22.508,38.759h5.232a26.248,26.248,0,0,0,.9,6.3,17.947,17.947,0,0,0-3.352,1.527,14.431,14.431,0,0,1-2.786-7.824Zm2.789-9.31a17.947,17.947,0,0,0,3.352,1.527,26.248,26.248,0,0,0-.909,6.294H22.527A14.431,14.431,0,0,1,25.3,29.448Zm12.461,2.838a26.635,26.635,0,0,0,6.163-.871,24.255,24.255,0,0,1,.875,5.854H37.759Zm0-1.49V23.56C40.1,24,42.186,26.469,43.468,30A24.989,24.989,0,0,1,37.759,30.8Zm-1.49-7.236V30.8A24.989,24.989,0,0,1,30.56,30C31.841,26.469,33.923,24,36.269,23.56Zm0,8.726v4.983H29.23a24.255,24.255,0,0,1,.875-5.854A26.635,26.635,0,0,0,36.269,32.286ZM29.23,38.759h7.039v4.983a26.635,26.635,0,0,0-6.163.871,24.255,24.255,0,0,1-.875-5.854Zm7.039,6.473v7.236c-2.346-.439-4.428-2.909-5.709-6.435a24.989,24.989,0,0,1,5.709-.8Zm1.49,7.236V45.231a24.989,24.989,0,0,1,5.709.8C42.186,49.558,40.1,52.028,37.759,52.467Zm0-8.726V38.759H44.8a24.255,24.255,0,0,1-.875,5.854,26.635,26.635,0,0,0-6.163-.871Zm8.528-6.473a26.247,26.247,0,0,0-.9-6.3,17.946,17.946,0,0,0,3.352-1.527,14.431,14.431,0,0,1,2.8,7.824Zm1.49-8.994a16.453,16.453,0,0,1-2.845,1.277,14.669,14.669,0,0,0-3.024-5.214,14.546,14.546,0,0,1,5.873,3.936Zm-15.66-3.933a14.669,14.669,0,0,0-3.024,5.214,16.453,16.453,0,0,1-2.845-1.277,14.546,14.546,0,0,1,5.869-3.936Zm-5.869,23.41a16.453,16.453,0,0,1,2.845-1.277,14.669,14.669,0,0,0,3.024,5.214,14.546,14.546,0,0,1-5.869-3.936Zm15.664,3.933a14.669,14.669,0,0,0,3.024-5.214,16.453,16.453,0,0,1,2.845,1.277,14.546,14.546,0,0,1-5.869,3.936Z" fill="#f2f2f2"/>
  </g>
</svg>
