<svg id="Group_1630" data-name="Group 1630" xmlns="http://www.w3.org/2000/svg" xmlns:xlink="http://www.w3.org/1999/xlink" width="160" height="45" viewBox="0 0 160 45">
  <defs>
    <clipPath id="clip-path">
      <rect id="Rectangle_680" data-name="Rectangle 680" width="42.269" height="45" fill="none"/>
    </clipPath>
    <clipPath id="clip-path-2">
      <rect id="Rectangle_681" data-name="Rectangle 681" width="160" height="45" fill="none"/>
    </clipPath>
  </defs>
  <g id="Group_1627" data-name="Group 1627">
    <g id="Group_1626" data-name="Group 1626" clip-path="url(#clip-path)">
      <path id="Path_744" data-name="Path 744" d="M33.508,18.463v3.052a13.97,13.97,0,0,0-2.727-.27H19.6A13.916,13.916,0,0,0,5.686,35.166V4.542H19.6A13.916,13.916,0,0,1,33.508,18.463" transform="translate(-5.284 -4.221)" fill="#01faa8"/>
      <path id="Path_745" data-name="Path 745" d="M33.508,240.916V254.57A13.911,13.911,0,1,1,19.6,240.646H30.778a13.969,13.969,0,0,1,2.727.27" transform="translate(-5.284 -223.62)" fill="#07d6f2"/>
      <path id="Path_746" data-name="Path 746" d="M217.176,244.576h-.028v13.643a13.916,13.916,0,0,1-13.912,13.92h13.94a13.782,13.782,0,0,0,0-27.563" transform="translate(-188.867 -227.272)" fill="#0037ff"/>
    </g>
  </g>
  <g id="Group_1629" data-name="Group 1629">
    <g id="Group_1628" data-name="Group 1628" clip-path="url(#clip-path-2)">
      <path id="Path_747" data-name="Path 747" d="M755.187,123.958l-1.316,3.909c-.614,1.841-2.215,2.931-4.806,3.308,2.262.676,3.013,2.066,2.262,4.209l-2.262,6.841c-.85,2.445-3.156,3.646-7.066,3.646h-8.385l4.332-13.283h-4.332l2.871-3.357h2.684l3.866-11.514H749.3c5.371,0,7.3,2.069,5.887,6.242m-9.7,8.629H742.66L739.5,142.3h2.306a3.013,3.013,0,0,0,3.2-2.066l1.651-4.849c.565-1.69.187-2.8-1.179-2.8m2.874-11.3h-1.788l-2.687,7.942h3.252a1.951,1.951,0,0,0,2.073-1.44l1.319-4.058c.515-1.618-.189-2.445-2.169-2.445" transform="translate(-681.81 -109.387)" fill="#f2f2f2"/>
      <path id="Path_748" data-name="Path 748" d="M1161.985,123.763l-6.707,18.475c-.907,2.5-3.532,3.791-7.614,3.791-5.953,0-8.324-2.06-6.86-6.036l6.756-18.475c.908-2.5,3.482-3.791,7.568-3.791,5.95,0,8.319,2.063,6.857,6.036m-4.891-.33c.507-1.363-.252-2.063-2.221-2.063-1.462,0-2.418.516-2.772,1.547l-6.356,17.406c-.5,1.365.252,2.06,2.169,2.06,1.464,0,2.421-.514,2.827-1.544Z" transform="translate(-1059.855 -109.398)" fill="#f2f2f2"/>
      <path id="Path_749" data-name="Path 749" d="M1560.454,145.877c-5.717,0-7.861-2.069-6.331-6.239l7.965-21.915h5.105l-8.015,22.14c-.562,1.615.2,1.962,2.3,1.962h9.427l-1.278,4.052Z" transform="translate(-1443.935 -109.394)" fill="#f2f2f2"/>
      <path id="Path_750" data-name="Path 750" d="M1976.37,123.7h-6.208l-8.661,24.1h-5.218l8.664-24.1h-8.1l1.771-4.063h19.525Z" transform="translate(-1818.141 -111.173)" fill="#f2f2f2"/>
    </g>
  </g>
</svg>
