<svg xmlns="http://www.w3.org/2000/svg" xmlns:xlink="http://www.w3.org/1999/xlink" width="538" height="551" viewBox="0 0 538 551">
  <defs>
    <clipPath id="clip-path">
      <rect id="Rectangle_770" data-name="Rectangle 770" width="538" height="551" transform="translate(0.005 0)" fill="none"/>
    </clipPath>
  </defs>
  <g id="Group_1788" data-name="Group 1788" transform="translate(-0.005)">
    <g id="Group_1787" data-name="Group 1787" clip-path="url(#clip-path)">
      <path id="Path_1664" data-name="Path 1664" d="M1470.552,743.712a.664.664,0,0,1-.626-.445l-4-11.426a44.245,44.245,0,0,1-13.136-.743l-.659,1.365v0l-4.593,9.527a.662.662,0,0,1-.874.315l-17.923-8.208a.663.663,0,0,1-.333-.866l4.957-11.5a44.289,44.289,0,0,1-8.78-9.831l-11.427,3.988a.665.665,0,0,1-.845-.407l-6.687-19.115a.665.665,0,0,1,.408-.846l11.426-3.987a44.2,44.2,0,0,1,.735-13.131l-10.9-5.258a.664.664,0,0,1-.309-.886l6.244-12.954v0l2.543-5.277a.663.663,0,0,1,.886-.31l10.9,5.257a44.207,44.207,0,0,1,9.813-8.752l-4-11.425a.664.664,0,0,1,.408-.846l19.116-6.671a.664.664,0,0,1,.845.407l4,11.426a44.256,44.256,0,0,1,13.135.744l5.252-10.894a.663.663,0,0,1,.886-.31l18.246,8.8a.663.663,0,0,1,.309.886l-5.251,10.895a44.291,44.291,0,0,1,8.763,9.817l11.427-3.988a.665.665,0,0,1,.845.407l6.687,19.115a.664.664,0,0,1-.408.846l-11.426,3.988a44.185,44.185,0,0,1-.736,13.131l10.9,5.258a.663.663,0,0,1,.309.886l-8.789,18.233a.663.663,0,0,1-.886.31l-10.9-5.257a44.193,44.193,0,0,1-9.813,8.753l4,11.425a.665.665,0,0,1-.408.846l-19.116,6.672a.66.66,0,0,1-.219.037m-4.169-13.246a.663.663,0,0,1,.626.444l3.95,11.293,17.863-6.234-3.95-11.291a.665.665,0,0,1,.27-.779,42.87,42.87,0,0,0,10.272-9.161.663.663,0,0,1,.8-.18l10.774,5.2,8.213-17.038-10.775-5.2a.664.664,0,0,1-.36-.741,42.869,42.869,0,0,0,.77-13.744.663.663,0,0,1,.441-.7l11.292-3.941-6.249-17.861-11.293,3.941a.665.665,0,0,1-.778-.269,42.956,42.956,0,0,0-9.172-10.275.663.663,0,0,1-.179-.8l5.189-10.767-17.05-8.222-5.19,10.767a.662.662,0,0,1-.741.36,42.936,42.936,0,0,0-13.75-.779.664.664,0,0,1-.7-.441l-3.95-11.292-17.863,6.234,3.95,11.291a.665.665,0,0,1-.27.779,42.868,42.868,0,0,0-10.272,9.161.663.663,0,0,1-.8.18l-10.774-5.2-2.254,4.676v0l-5.957,12.359,10.774,5.2a.664.664,0,0,1,.36.74,42.894,42.894,0,0,0-.769,13.744.664.664,0,0,1-.441.7L1407.1,696.56l6.249,17.861,11.293-3.941a.665.665,0,0,1,.778.27,42.964,42.964,0,0,0,9.172,10.275.664.664,0,0,1,.191.779l-4.9,11.359,16.741,7.667,4.311-8.943h0l.885-1.835a.661.661,0,0,1,.741-.36,42.929,42.929,0,0,0,13.749.778.666.666,0,0,1,.07,0m-4.549-16.78a26.253,26.253,0,1,1,8.653-1.477,26.123,26.123,0,0,1-8.653,1.477m0-51.085a24.91,24.91,0,1,0,10.793,2.484,24.9,24.9,0,0,0-10.793-2.484" transform="translate(-982.378 -441.182)" fill="#020202"/>
      <path id="Path_1665" data-name="Path 1665" d="M228.544,1347.751l-18.246-8.8-5.478,11.365a43.661,43.661,0,0,0-13.961-.791l-4.17-11.918-19.116,6.671,4.169,11.918a43.593,43.593,0,0,0-10.43,9.3l-11.373-5.484-8.789,18.233,11.373,5.484a43.6,43.6,0,0,0-.781,13.957l-11.919,4.16,6.687,19.115,11.919-4.16a43.679,43.679,0,0,0,9.314,10.433l-5.155,11.955,17.923,8.208,5.478-11.365a43.662,43.662,0,0,0,13.961.791l4.17,11.918,19.116-6.672-4.17-11.918a43.587,43.587,0,0,0,10.43-9.3l11.373,5.484,8.789-18.233-11.373-5.484a43.6,43.6,0,0,0,.781-13.956l11.92-4.16-6.687-19.114-11.919,4.16a43.67,43.67,0,0,0-9.314-10.433Zm-10.132,56.521a25.543,25.543,0,1,1-11.925-34.087,25.528,25.528,0,0,1,11.925,34.087" transform="translate(-97.723 -934.864)" fill="#fff"/>
      <path id="Path_1666" data-name="Path 1666" d="M202.58,1447.869a.664.664,0,0,1-.627-.445l-4-11.426a44.251,44.251,0,0,1-13.136-.744l-5.252,10.895a.662.662,0,0,1-.874.315l-17.923-8.209a.663.663,0,0,1-.333-.866l4.957-11.5a44.259,44.259,0,0,1-8.78-9.831l-11.427,3.988a.665.665,0,0,1-.845-.408l-6.687-19.115a.664.664,0,0,1,.408-.845l11.425-3.988a44.2,44.2,0,0,1,.736-13.13l-10.9-5.258a.664.664,0,0,1-.309-.886l8.789-18.234a.663.663,0,0,1,.886-.309l10.9,5.257a44.207,44.207,0,0,1,9.813-8.753l-4-11.425a.664.664,0,0,1,.408-.846l19.116-6.671a.664.664,0,0,1,.845.407l4,11.426a44.259,44.259,0,0,1,13.136.744l5.252-10.895a.663.663,0,0,1,.886-.309l18.245,8.8a.663.663,0,0,1,.309.886l-5.251,10.895a44.256,44.256,0,0,1,8.763,9.817l11.427-3.988a.665.665,0,0,1,.845.407l6.687,19.115a.665.665,0,0,1-.408.846l-11.426,3.988a44.2,44.2,0,0,1-.735,13.13l10.9,5.258a.663.663,0,0,1,.309.886l-8.789,18.233a.663.663,0,0,1-.886.309l-10.9-5.257a44.2,44.2,0,0,1-9.813,8.753l4,11.425a.665.665,0,0,1-.408.846l-19.116,6.671a.657.657,0,0,1-.219.037m-4.169-13.246a.663.663,0,0,1,.626.444l3.951,11.292,17.862-6.234-3.95-11.291a.665.665,0,0,1,.27-.779,42.872,42.872,0,0,0,10.272-9.161.663.663,0,0,1,.8-.18l10.774,5.2,8.213-17.038-10.775-5.2a.664.664,0,0,1-.36-.74,42.893,42.893,0,0,0,.77-13.744.663.663,0,0,1,.441-.7l11.293-3.941-6.249-17.861-11.294,3.941a.665.665,0,0,1-.778-.27,42.952,42.952,0,0,0-9.172-10.275.663.663,0,0,1-.179-.8l5.189-10.767-17.049-8.222-5.19,10.767a.663.663,0,0,1-.741.359,42.931,42.931,0,0,0-13.75-.778.668.668,0,0,1-.7-.441l-3.95-11.292-17.862,6.234,3.95,11.291a.664.664,0,0,1-.27.778,42.9,42.9,0,0,0-10.272,9.162.663.663,0,0,1-.8.18l-10.774-5.2L140.5,1376.4l10.775,5.2a.665.665,0,0,1,.36.741,42.9,42.9,0,0,0-.77,13.744.663.663,0,0,1-.441.7l-11.292,3.941,6.248,17.862,11.294-3.941a.665.665,0,0,1,.778.27,42.935,42.935,0,0,0,9.172,10.275.663.663,0,0,1,.191.778l-4.9,11.359,16.741,7.667,5.2-10.779a.661.661,0,0,1,.741-.36,42.935,42.935,0,0,0,13.749.778.663.663,0,0,1,.07,0m-4.549-16.781a26.256,26.256,0,1,1,8.654-1.477,26.122,26.122,0,0,1-8.654,1.477m0-51.085a24.91,24.91,0,1,0,10.793,2.484,24.914,24.914,0,0,0-10.793-2.484" transform="translate(-96.183 -933.323)"/>
      <path id="Path_1667" data-name="Path 1667" d="M644.189,2.217l-209.581.041a35.607,35.607,0,0,0-35.625,35.589l.093,473.088a35.607,35.607,0,0,0,35.639,35.575l209.581-.041a35.607,35.607,0,0,0,35.625-35.59l-.093-473.087a35.607,35.607,0,0,0-35.64-35.575" transform="translate(-278.851 -1.549)"/>
      <rect id="Rectangle_762" data-name="Rectangle 762" width="17.545" height="46.393" transform="translate(114.008 61.789)"/>
      <rect id="Rectangle_763" data-name="Rectangle 763" width="8.419" height="44.7" transform="translate(123.134 62.642)" fill="#fff"/>
      <path id="Path_1668" data-name="Path 1668" d="M407.411,251.87a.663.663,0,0,1-.664-.663l-.009-44.7a.664.664,0,0,1,.664-.664l8.419,0a.664.664,0,0,1,.664.663l.008,44.7a.664.664,0,0,1-.664.664Zm.655-44.7.009,43.372h7.091l-.008-43.372Z" transform="translate(-284.272 -143.864)"/>
      <path id="Path_1669" data-name="Path 1669" d="M706.347,2.2l-209.581.041A35.607,35.607,0,0,0,461.14,37.834l.093,473.088A35.607,35.607,0,0,0,496.873,546.5l209.581-.041a35.607,35.607,0,0,0,35.626-35.589l-.093-473.088A35.608,35.608,0,0,0,706.347,2.2" transform="translate(-322.294 -1.54)" fill="#c1c1c1"/>
      <rect id="Rectangle_764" data-name="Rectangle 764" width="280.524" height="391.307" transform="translate(138.803 73.256)" fill="#fff"/>
      <path id="Path_1670" data-name="Path 1670" d="M459.406,633.7a.664.664,0,0,1-.664-.664l-.077-391.307a.664.664,0,0,1,.664-.664l280.525-.055a.664.664,0,0,1,.664.664l.076,391.307a.664.664,0,0,1-.664.664Zm.587-391.307.077,389.98,279.2-.055-.077-389.98Z" transform="translate(-320.564 -168.441)"/>
      <path id="Path_1671" data-name="Path 1671" d="M494.843,545.621a34.873,34.873,0,0,1-25.462-10.85c-6.794-7.116-10.536-16.921-10.538-27.609l-.093-473.678c0-8.395,3.844-16.863,10.551-23.234A36.83,36.83,0,0,1,494.743.041L704.915,0V0h.007c19.176,0,36,15.618,36,33.429l.093,473.678c0,21.929-15.47,38.469-35.994,38.473l-210.172.042ZM704.922,1.327h-.007l-210.172.042a35.506,35.506,0,0,0-24.528,9.843c-6.444,6.121-10.14,14.239-10.138,22.272l.093,473.678c0,10.345,3.614,19.825,10.171,26.692a33.56,33.56,0,0,0,24.5,10.44h.007l210.172-.041c19.766,0,34.67-15.973,34.666-37.146L739.6,33.429c0-17.1-16.207-32.1-34.673-32.1" transform="translate(-320.623)"/>
      <path id="Path_1672" data-name="Path 1672" d="M894.456,57.389a.664.664,0,0,1,0-1.328l60.134-.012a.664.664,0,0,1,0,1.328Z" transform="translate(-624.678 -39.174)"/>
      <path id="Path_1673" data-name="Path 1673" d="M848.865,51.587a5.085,5.085,0,1,1,3.6-1.489,5.091,5.091,0,0,1-3.6,1.489m-3.761-5.08a3.762,3.762,0,0,0,3.76,3.753h0a3.754,3.754,0,1,0,0-7.508h0a3.757,3.757,0,0,0-3.759,3.755" transform="translate(-589.722 -28.952)"/>
      <path id="Path_1674" data-name="Path 1674" d="M1076.516,1139.521l-.529,3.764v.007l-.692,4.9-.909,6.5-.054.366-.651,4.653-12.815,90.484h-59.007l3.232,4.734L956.968,1294.7l1.811-16.766,2.9-26.913,4.646-43,1.146-10.642,1.336-12.324,1.75-16.223.76-7.013,1.105-10.248.36-3.371,1.045-9.658,1.254-11.625.177-1.614,3.567.5,6.111.861,3.039.42Z" transform="translate(-668.832 -786.479)"/>
      <path id="Path_1675" data-name="Path 1675" d="M758.418,1173.015l-1.9,3.947v.007l-.027.047-6.01,12.487-21.012,43.638v.007l-9.611,19.974-1.472,3.059-12.955,26.913-12.208,25.353-40.586,33.532-58.159-70.4,7.373-15.4,49.233-102.822,4.578-9.556v-.007l5.317-11.11,24.573,10.167h.007l15.79,6.545,9.577,3.961,8.152,3.371,24.573,10.174,7.135,2.95.027.014Z" transform="translate(-415.486 -791.643)"/>
      <path id="Path_1676" data-name="Path 1676" d="M920.894,1587.129a.664.664,0,0,1-.6-.952l26.635-55.324a.664.664,0,0,1,1.2.576l-26.635,55.324a.665.665,0,0,1-.6.376" transform="translate(-643.156 -1069.661)"/>
      <path id="Path_1677" data-name="Path 1677" d="M592.939,1270.708a.664.664,0,0,1-.6-.95L653.5,1142.024c.007-.019.014-.037.023-.054l5.317-11.11a.664.664,0,0,1,1.2.573l-5.294,11.062a.585.585,0,0,1-.023.055L593.539,1270.33a.664.664,0,0,1-.6.377" transform="translate(-413.946 -790.102)"/>
      <path id="Path_1678" data-name="Path 1678" d="M735.185,695.966l-46-88.545a69.25,69.25,0,0,0-53.348-36.847l-61.72-7.271L537.6,571.541a133,133,0,0,0-71.808,43.3L372.249,724.233l59.473,56.159,52.353-55.444-2.212,30.462H686.242l-.483-6.234a38.67,38.67,0,0,0,49.425-53.211" transform="translate(-260.168 -393.696)" fill="#fff"/>
      <path id="Path_1679" data-name="Path 1679" d="M430.182,779.515a.663.663,0,0,1-.456-.181l-59.473-56.159a.664.664,0,0,1-.048-.914l93.546-109.392a134.523,134.523,0,0,1,72.167-43.517l36.511-8.239a.658.658,0,0,1,.224-.012l61.721,7.271a69.848,69.848,0,0,1,53.859,37.2l46,88.545,0,0a39.332,39.332,0,0,1-49.272,54.528l.4,5.167a.664.664,0,0,1-.662.715H480.324a.663.663,0,0,1-.661-.712l2.077-28.6-51.074,54.089a.662.662,0,0,1-.463.208h-.019m-58.558-56.871,58.531,55.27,51.9-54.961a.664.664,0,0,1,1.144.5l-2.16,29.75H683.985l-.428-5.519a.664.664,0,0,1,.918-.663,38.008,38.008,0,0,0,48.577-52.3l-46-88.541a68.519,68.519,0,0,0-52.836-36.494l-61.608-7.258-36.4,8.214a133.193,133.193,0,0,0-71.45,43.085Z" transform="translate(-258.628 -392.155)"/>
      <path id="Path_1680" data-name="Path 1680" d="M1185.614,747.034l-.6-1.183a38.013,38.013,0,0,0,16.619-51.125l-46-88.54a68.519,68.519,0,0,0-52.836-36.494l-61.721-7.271a.664.664,0,0,1,.156-1.318l61.721,7.271a69.846,69.846,0,0,1,53.859,37.2l46,88.545a39.386,39.386,0,0,1-17.2,52.915" transform="translate(-727.204 -392.155)"/>
      <path id="Path_1681" data-name="Path 1681" d="M734.765,898.263l-.048,0a.664.664,0,0,1-.614-.71l9.452-130.189a.664.664,0,1,1,1.324.1l-9.452,130.189a.664.664,0,0,1-.661.615" transform="translate(-513.068 -535.885)"/>
      <path id="Path_1682" data-name="Path 1682" d="M1021.518,581.288l17.718,16.642,19.486-38.027-23.154-4.449Z" transform="translate(-713.946 -388.211)" fill="#fff"/>
      <path id="Path_1683" data-name="Path 1683" d="M970.751,583.344l-21.969,15.666,2.992-33.417,15.75-7.176Z" transform="translate(-663.11 -390.281)" fill="#fff"/>
      <path id="Path_1684" data-name="Path 1684" d="M1228.932,887.491a.663.663,0,0,1-.592-.363l-24.988-49.056a.664.664,0,1,1,1.182-.6l24.988,49.056a.664.664,0,0,1-.59.965" transform="translate(-840.981 -585.06)"/>
      <path id="Path_1685" data-name="Path 1685" d="M71.657,657.06a6.614,6.614,0,0,1-9.354-.079l-14.546-14.9-6.165,6.063-3.527-3.587a16.267,16.267,0,0,1-4.586-12.838c.517-7.526,9.635-13.229,15.511-7.252l22.746,23.236a6.614,6.614,0,0,1-.079,9.354" transform="translate(-23.341 -434.704)" fill="#f8fafa"/>
      <path id="Path_1686" data-name="Path 1686" d="M32.636,679.443a6.614,6.614,0,0,1-9.354-.079L16.574,672.5l-6.166,6.062-3.527-3.587A16.266,16.266,0,0,1,2.3,662.14c.517-7.526,9.634-13.229,15.511-7.252l14.908,15.2a6.614,6.614,0,0,1-.079,9.354" transform="translate(-1.547 -455.963)" fill="#f8fafa"/>
      <path id="Path_1687" data-name="Path 1687" d="M95.369,565.287l.588-23.507a21.506,21.506,0,0,1,6.482-14.856l1.114-1.086a7.871,7.871,0,0,0,.138-11.131l-.661-.677a7.872,7.872,0,0,0-11.132-.138l-7.069,6.9a21.5,21.5,0,0,0-6.481,14.878L77.7,562.938,53.833,538.474l-38.6,37.65,22.553,23.12,48.56,50.794,36.365-23.749-30.6-30.853a184.137,184.137,0,0,0,3.252-30.149" transform="translate(-10.649 -357.599)" fill="#f8fafa"/>
      <path id="Path_1688" data-name="Path 1688" d="M174.053,843.063l23.294,24.366,36.365-23.749L212.9,822.7Z" transform="translate(-121.647 -574.99)"/>
      <path id="Path_1689" data-name="Path 1689" d="M107.55,631.179A6.614,6.614,0,0,1,98.2,631.1L79.086,611.524l-6.166,6.063L69.393,614a16.266,16.266,0,0,1-4.585-12.838c.517-7.526,9.634-13.229,15.511-7.252l27.31,27.916a6.614,6.614,0,0,1-.079,9.354" transform="translate(-45.237 -413.345)" fill="#f8fafa"/>
      <path id="Path_1690" data-name="Path 1690" d="M134.846,596.069a6.614,6.614,0,0,1-9.354-.079l-15.666-16.045-6.166,6.063-3.527-3.587a16.266,16.266,0,0,1-4.585-12.838c.517-7.526,9.634-13.229,15.511-7.252l23.865,24.384a6.614,6.614,0,0,1-.079,9.354" transform="translate(-66.722 -391.275)" fill="#f8fafa"/>
      <path id="Path_1691" data-name="Path 1691" d="M128.583,596.808a7.244,7.244,0,0,1-4.556-1.607.664.664,0,0,1,.832-1.034,5.951,5.951,0,0,0,7.971-8.812l-23.595-24.106a7.135,7.135,0,0,0-7.909-1.793,10.207,10.207,0,0,0-6.464,8.626.664.664,0,0,1-1.325-.091,11.573,11.573,0,0,1,7.328-9.78,8.485,8.485,0,0,1,9.318,2.109l23.594,24.106a7.28,7.28,0,0,1-5.195,12.382" transform="translate(-65.373 -389.729)"/>
      <path id="Path_1692" data-name="Path 1692" d="M101.717,632.209a7.248,7.248,0,0,1-4.936-1.936L91.933,625.3a.664.664,0,0,1,.95-.927l4.824,4.945a5.951,5.951,0,0,0,8.256-8.568L78.651,592.838a7.123,7.123,0,0,0-7.641-1.887,10.262,10.262,0,0,0-6.671,8.114.664.664,0,0,1-1.316-.179,11.48,11.48,0,0,1,7.568-9.194,8.495,8.495,0,0,1,9.007,2.217l27.312,27.917a7.282,7.282,0,0,1-5.193,12.384" transform="translate(-44.043 -411.809)"/>
      <path id="Path_1693" data-name="Path 1693" d="M65.823,658.085H65.76a7.229,7.229,0,0,1-5.128-2.175l-6.9-7.067a.664.664,0,0,1,.95-.927l6.9,7.065a5.95,5.95,0,0,0,8.484-8.346L47.317,623.4a7.121,7.121,0,0,0-7.647-1.885A10.262,10.262,0,0,0,33,629.636a.664.664,0,0,1-1.316-.177,11.48,11.48,0,0,1,7.563-9.207,8.5,8.5,0,0,1,9.014,2.215l22.747,23.237a7.278,7.278,0,0,1-5.189,12.38" transform="translate(-22.142 -433.167)"/>
      <path id="Path_1694" data-name="Path 1694" d="M75.7,649.161a.662.662,0,0,1-.481-.207L26.64,597.812,4.86,575.536A16.947,16.947,0,0,1,.094,562.19H.087a11.572,11.572,0,0,1,7.328-9.78,8.485,8.485,0,0,1,9.319,2.108l14.908,15.2a7.278,7.278,0,0,1-10.38,10.2l-6.221-6.365a.664.664,0,1,1,.949-.928l6.22,6.363a5.951,5.951,0,0,0,8.485-8.346l-14.908-15.2a7.137,7.137,0,0,0-7.911-1.793,10.207,10.207,0,0,0-6.464,8.626.65.65,0,0,1-.017.112,15.648,15.648,0,0,0,4.414,12.215L27.6,596.891,75.8,647.639l35.22-23L81,594.363a.667.667,0,0,1-.181-.593,183.968,183.968,0,0,0,3.24-30.04l.588-23.507a22.052,22.052,0,0,1,6.682-15.314l1.113-1.087a7.208,7.208,0,0,0,.126-10.193l-.66-.678a7.209,7.209,0,0,0-10.194-.126l-7.07,6.9a20.725,20.725,0,0,0-6.281,14.419L67.8,549.972a.663.663,0,0,1-.662.64h-.024a.664.664,0,0,1-.64-.687l.56-15.823a22.04,22.04,0,0,1,6.681-15.33l7.07-6.9a8.535,8.535,0,0,1,12.071.15l.66.677a8.535,8.535,0,0,1-.15,12.07l-1.113,1.086a20.727,20.727,0,0,0-6.282,14.4l-.589,23.507a185.394,185.394,0,0,1-3.2,29.914l30.351,30.6a.664.664,0,0,1-.108,1.023L76.063,649.053a.66.66,0,0,1-.363.108" transform="translate(0 -356.058)"/>
      <path id="Path_1695" data-name="Path 1695" d="M329.562,896.11l-61.232,61.232L167.036,843.768l49.535-49.535Z" transform="translate(-116.743 -555.095)" fill="#fff"/>
      <path id="Path_1696" data-name="Path 1696" d="M266.79,956.466h-.019a.663.663,0,0,1-.476-.222L165,842.669a.663.663,0,0,1,.026-.911l49.535-49.535a.664.664,0,0,1,.914-.024L328.466,894.077a.663.663,0,0,1,.025.962l-61.231,61.232a.662.662,0,0,1-.469.194M166.408,842.254l100.41,112.582,60.24-60.241-112-100.987Z" transform="translate(-115.202 -553.555)"/>
      <path id="Path_1697" data-name="Path 1697" d="M309.893,878.887a.662.662,0,0,1-.445-.171l-94.394-85.109L165.965,842.7a.664.664,0,0,1-.939-.939l49.535-49.535a.664.664,0,0,1,.914-.024l94.862,85.531a.664.664,0,0,1-.445,1.156" transform="translate(-115.202 -553.555)"/>
      <path id="Path_1698" data-name="Path 1698" d="M621.072,1234.282l-48.122,39.759-10.4,8.587-40.586,33.532-58.159-70.395-12.724-15.4-43.571-52.74,19.947-16.481,14.365-11.869,5.921-4.89L472.3,1124.1l8.214-6.782,26.106-21.568,1.567,1.9.454.549,16.352,19.784v.007l7.84,9.5.054.061,5.833,7.061,1.587,1.913v.007l8.444,10.221,8.444,10.221,12.67,15.335,7.027,8.505,5.419,6.559,16.488,19.961v.007l19.031,23.033Z" transform="translate(-284.814 -765.824)" fill="#31d3f5"/>
      <path id="Path_1699" data-name="Path 1699" d="M520.426,1315.282c-.021,0-.042,0-.063,0a.663.663,0,0,1-.448-.238L405.461,1176.5a.663.663,0,0,1,.089-.934l99.105-81.877a.653.653,0,0,1,.486-.149.663.663,0,0,1,.449.238l18.373,22.232a.586.586,0,0,1,.045.06l15.269,18.475c.016.02.032.041.046.062l58.447,70.748c.016.02.031.04.046.061l22.228,26.9a.664.664,0,0,1-.089.935l-99.105,81.877a.662.662,0,0,1-.422.152M406.907,1176.169l113.608,137.515,98.082-81.032-21.85-26.442a.628.628,0,0,1-.045-.061L538.255,1135.4a.675.675,0,0,1-.045-.06l-15.27-18.477a.728.728,0,0,1-.044-.06l-17.907-21.667Z" transform="translate(-283.273 -764.282)"/>
      <rect id="Rectangle_765" data-name="Rectangle 765" width="39.528" height="22.794" transform="matrix(0.771, -0.637, 0.637, 0.771, 149.326, 374.145)"/>
      <path id="Path_1700" data-name="Path 1700" d="M525.083,1194.129a9.707,9.707,0,1,1,9.707-9.707,9.718,9.718,0,0,1-9.707,9.707m0-18.087a8.38,8.38,0,1,0,8.38,8.38,8.389,8.389,0,0,0-8.38-8.38" transform="translate(-360.2 -821.016)"/>
      <path id="Path_1701" data-name="Path 1701" d="M948.18,1065.884l-17.648-49.566-65.539,18.516-51.35,14.508-2.727.773.1.38,2.069,7.949L799.9,1062.37l-19.133,5.7-13.307,3.961-5.548,1.655-2.374.705c-.264.081-.522.163-.78.244h-.007a47.494,47.494,0,0,0-5.094,1.94,46.23,46.23,0,0,0-4.849,2.516,47.583,47.583,0,0,0-14.081,12.751l-13.124,17.824a40.013,40.013,0,0,0-5.677,10.913l-5.881,17.438-1.607,4.768a6.193,6.193,0,0,0,3.886,7.854l1.051.353a6.209,6.209,0,0,0,7.854-3.893l-2.726,8.078-1.567,4.653a6.39,6.39,0,0,0,4.015,8.1l.678.224a6.385,6.385,0,0,0,8.1-4.008l1.336-3.961a6.387,6.387,0,0,0,4.015,8.092l.678.231a6.391,6.391,0,0,0,8.1-4.015l3.873-11.462a6.387,6.387,0,0,0,4.015,8.092l.678.231a6.394,6.394,0,0,0,8.1-4.015l6.586-19.526a12.835,12.835,0,0,1,7.82-7.976l8.661-3.113c.61-.224,1.221-.461,1.818-.712.2-.088.387-.176.576-.264.339-.149.671-.3,1-.454a1.668,1.668,0,0,0,.19-.088c.231-.109.448-.231.671-.346.353-.177.7-.359,1.045-.549.23-.129.461-.264.692-.4.325-.19.651-.386.97-.583.224-.149.454-.292.678-.441.312-.21.624-.421.929-.638.217-.156.434-.305.651-.468.251-.183.495-.373.739-.57l.163-.122.61-.488c.306-.251.6-.515.9-.78.176-.156.359-.312.543-.475.326-.305.651-.624.97-.936.129-.136.265-.265.4-.394.441-.454.875-.922,1.3-1.4.075-.081.143-.169.217-.258.339-.4.678-.8,1-1.207.135-.176.264-.359.4-.542.251-.326.5-.658.739-1,.149-.2.285-.42.428-.631.217-.319.427-.637.638-.97.142-.224.278-.454.413-.685.19-.319.38-.644.563-.977.135-.237.265-.475.387-.719.176-.332.346-.665.509-1,.122-.244.238-.488.353-.733.054-.122.115-.238.169-.359l20.056-5.975,2.049,7.868,3.547-1.248,69.852-24.62,45.022-15.871.014-.007,3.581-1.262Z" transform="translate(-494.905 -710.312)" fill="#020202"/>
      <path id="Path_1702" data-name="Path 1702" d="M748.427,1242.959,736.644,1277.9a6.392,6.392,0,0,0,4.014,8.1l.68.229a6.392,6.392,0,0,0,8.1-4.014l11.783-34.939a39.949,39.949,0,0,1,5.68-10.912l22.6-30.708-12.793-4.314-22.6,30.708a39.935,39.935,0,0,0-5.68,10.912" transform="translate(-514.61 -839.624)" fill="#f8fafa"/>
      <path id="Path_1703" data-name="Path 1703" d="M794.019,1257.288l-10.446,30.974a6.392,6.392,0,0,0,4.014,8.1l.68.229a6.391,6.391,0,0,0,8.1-4.014l10.446-30.974a39.942,39.942,0,0,1,5.679-10.912l22.6-30.708-12.793-4.314-22.6,30.708a39.934,39.934,0,0,0-5.68,10.912" transform="translate(-547.41 -849.64)" fill="#f8fafa"/>
      <path id="Path_1704" data-name="Path 1704" d="M845.488,1271.618l-6.577,19.5a6.392,6.392,0,0,0,4.014,8.1l.68.229a6.391,6.391,0,0,0,8.1-4.014l6.584-19.524a12.837,12.837,0,0,1,7.819-7.977l8.662-3.116a35.925,35.925,0,0,0,21.881-22.325l1.447-4.291-24.326-8.2-22.6,30.708a39.933,39.933,0,0,0-5.68,10.912" transform="translate(-586.086 -859.654)" fill="#f8fafa"/>
      <path id="Path_1705" data-name="Path 1705" d="M759.54,1101.7a47.724,47.724,0,0,0-24.809,17.446l-13.124,17.828a39.928,39.928,0,0,0-5.679,10.912l-7.489,22.207a6.2,6.2,0,0,0,3.892,7.853l1.049.354a6.2,6.2,0,0,0,7.852-3.892l7.489-22.208a39.928,39.928,0,0,1,5.68-10.912l21.637-29.394,48.171,22.927,116.77-34.786-60-28.556Z" transform="translate(-494.905 -748.864)" fill="#f8fafa"/>
      <path id="Path_1706" data-name="Path 1706" d="M741.83,1301.8a7.014,7.014,0,0,1-2.248-.371l-.68-.229a7.055,7.055,0,0,1-4.431-8.94l11.782-34.938a40.562,40.562,0,0,1,5.774-11.094l17.494-23.764a.664.664,0,0,1,1.069.787L753.1,1247.016a39.226,39.226,0,0,0-5.586,10.731l-11.782,34.938a5.728,5.728,0,0,0,3.6,7.258l.681.229a5.735,5.735,0,0,0,7.258-3.6l11.783-34.939a40.539,40.539,0,0,1,5.773-11.093l17.006-23.1a.664.664,0,0,1,1.07.787l-17.006,23.1a39.221,39.221,0,0,0-5.586,10.73L748.521,1297a7.069,7.069,0,0,1-6.691,4.8" transform="translate(-513.066 -854.201)"/>
      <path id="Path_1707" data-name="Path 1707" d="M788.767,1313.7a7.017,7.017,0,0,1-2.249-.371l-.68-.229a7.064,7.064,0,0,1-4.431-8.94l10.446-30.973a40.538,40.538,0,0,1,5.774-11.094l17.006-23.1a.664.664,0,0,1,1.07.787l-17.006,23.1a39.214,39.214,0,0,0-5.586,10.731l-10.446,30.974a5.735,5.735,0,0,0,3.6,7.258l.68.229a5.735,5.735,0,0,0,7.259-3.6l10.446-30.974a40.527,40.527,0,0,1,5.773-11.093l17.493-23.765a.664.664,0,0,1,1.07.787L811.489,1267.2a39.212,39.212,0,0,0-5.586,10.73L795.458,1308.9a7.068,7.068,0,0,1-6.691,4.8" transform="translate(-545.872 -865.751)"/>
      <path id="Path_1708" data-name="Path 1708" d="M752.918,1188.011a7.018,7.018,0,0,1-2.249-.371l-.68-.229a7.064,7.064,0,0,1-4.432-8.94l6.577-19.5a40.553,40.553,0,0,1,5.773-11.094l17.494-23.764a.664.664,0,0,1,1.069.787l-17.493,23.764a39.227,39.227,0,0,0-5.586,10.731l-6.577,19.5a5.735,5.735,0,0,0,3.6,7.258l.68.229a5.735,5.735,0,0,0,7.259-3.6l6.584-19.523a13.427,13.427,0,0,1,8.223-8.39l8.662-3.116a35.428,35.428,0,0,0,20.277-18.835l.124-.279,115.37-34.4-58.208-27.7-101.2,30.147a47.341,47.341,0,0,0-24.464,17.2L720.6,1135.717a39.218,39.218,0,0,0-5.587,10.733l-7.489,22.207a5.533,5.533,0,0,0,3.475,7.012l1.049.354a5.533,5.533,0,0,0,7.011-3.475l7.489-22.207a40.55,40.55,0,0,1,5.774-11.094l14-19.013a.664.664,0,0,1,1.069.787l-14,19.012a39.222,39.222,0,0,0-5.586,10.732l-7.489,22.207a6.86,6.86,0,0,1-8.693,4.308l-1.049-.354a6.86,6.86,0,0,1-4.309-8.693l7.489-22.207a40.549,40.549,0,0,1,5.775-11.1l13.122-17.826a48.68,48.68,0,0,1,25.155-17.688l101.687-30.293,61.786,29.407-118.1,35.209a36.765,36.765,0,0,1-20.914,19.265l-8.662,3.116a12.108,12.108,0,0,0-7.415,7.565l-6.584,19.523a7.068,7.068,0,0,1-6.691,4.8" transform="translate(-493.361 -747.218)"/>
      <path id="Path_1709" data-name="Path 1709" d="M1026.074,1250.666a.664.664,0,0,1-.629-.876l4.333-12.85a.663.663,0,1,1,1.257.424l-4.333,12.85a.664.664,0,0,1-.629.452" transform="translate(-716.667 -864.19)"/>
      <rect id="Rectangle_766" data-name="Rectangle 766" width="126.079" height="61.282" transform="translate(316.012 328.559) rotate(-14.592)" fill="#fff"/>
      <path id="Path_1710" data-name="Path 1710" d="M1063.446,1046.292a.664.664,0,0,1-.642-.5l-15.439-59.3a.664.664,0,0,1,.411-.789l119.557-44.526a.664.664,0,1,1,.463,1.244l-119,44.317,15.12,58.08,126.013-33.405a.664.664,0,1,1,.34,1.283l-126.658,33.576a.653.653,0,0,1-.17.022" transform="translate(-731.995 -657.764)"/>
      <path id="Path_1711" data-name="Path 1711" d="M1022.29,506.863l-21.376,21.691-8.876-43.5L1016.808,480Z" transform="translate(-693.342 -335.477)" fill="#f8fafa"/>
      <path id="Path_1712" data-name="Path 1712" d="M999.373,527.677a.664.664,0,0,1-.65-.531l-8.877-43.5a.663.663,0,0,1,.517-.783l24.771-5.055a.663.663,0,0,1,.783.518l5.481,26.861a.661.661,0,0,1-.178.6l-21.375,21.691a.665.665,0,0,1-.473.2m-8.093-43.643,8.495,41.626,20.253-20.552-5.278-25.864Z" transform="translate(-691.801 -333.936)"/>
      <path id="Path_1713" data-name="Path 1713" d="M1018.656,489.062l-1.849-9.06-24.771,5.055,4.081,20a22.938,22.938,0,0,0,11.257-2.981,27.064,27.064,0,0,0,11.282-13.012" transform="translate(-693.342 -335.477)"/>
      <path id="Path_1714" data-name="Path 1714" d="M938.662,404.182a.665.665,0,0,1-.653-.546l-3.673-20.277a.664.664,0,0,1,1.306-.236l3.673,20.277a.664.664,0,0,1-.535.771.677.677,0,0,1-.119.011" transform="translate(-653.007 -267.386)" fill="#fff"/>
      <path id="Path_1715" data-name="Path 1715" d="M978.1,341a.664.664,0,0,1-.657-.572L973.8,314.374a16.928,16.928,0,0,0-7.639-11.772,21.623,21.623,0,0,0-15.022-3.256c-11.119,1.555-19.044,10.828-17.668,20.67l.542,3.877a.664.664,0,1,1-1.314.184l-.543-3.878c-1.478-10.567,6.956-20.511,18.8-22.168A22.947,22.947,0,0,1,966.9,301.5a18.235,18.235,0,0,1,8.218,12.693l3.644,26.051a.663.663,0,0,1-.565.749.652.652,0,0,1-.093.007" transform="translate(-651.373 -208.13)"/>
      <path id="Path_1716" data-name="Path 1716" d="M911.592,438.466c1.156,8.269,6.543,14.349,12.03,13.582s9-8.093,7.842-16.361-6.543-14.35-12.03-13.582-9,8.093-7.842,16.361" transform="translate(-636.964 -294.966)" fill="#fff"/>
      <path id="Path_1717" data-name="Path 1717" d="M921.154,451.237c-5.475,0-10.627-6.1-11.762-14.218a20.167,20.167,0,0,1,1.488-11.373c1.58-3.3,4.037-5.335,6.919-5.738,5.832-.819,11.574,5.529,12.78,14.147s-2.566,16.294-8.407,17.111a7.329,7.329,0,0,1-1.017.071m-2.318-30.074a6.116,6.116,0,0,0-.853.06c-2.427.339-4.524,2.114-5.906,5a18.838,18.838,0,0,0-1.37,10.615c1.1,7.893,6.175,13.732,11.281,13.016s8.38-7.719,7.277-15.612c-1.043-7.454-5.614-13.076-10.428-13.076" transform="translate(-635.421 -293.427)"/>
      <path id="Path_1718" data-name="Path 1718" d="M976.21,380.819,956.158,380l-18.438,8.4-6.38-26.794,38.066-13.24Z" transform="translate(-650.92 -243.474)"/>
      <path id="Path_1719" data-name="Path 1719" d="M989.66,413.379c2.394,11.731-4.269,23-14.884,25.163s-21.159-5.588-23.553-17.319,4.27-23,14.884-25.163,21.159,5.588,23.553,17.319" transform="translate(-664.476 -276.556)" fill="#f8fafa"/>
      <path id="Path_1720" data-name="Path 1720" d="M969.66,438.03c-9.614,0-18.449-7.505-20.634-18.212a23.4,23.4,0,0,1,2.642-16.639,19.251,19.251,0,0,1,12.758-9.307c10.955-2.236,21.872,5.765,24.336,17.837a23.4,23.4,0,0,1-2.642,16.639,19.252,19.252,0,0,1-12.758,9.307,18.526,18.526,0,0,1-3.7.375m-1.53-43.205a17.187,17.187,0,0,0-3.438.348,17.94,17.94,0,0,0-11.881,8.682,22.078,22.078,0,0,0-2.485,15.7c2.318,11.353,12.528,18.892,22.77,16.8a17.939,17.939,0,0,0,11.881-8.682,22.077,22.077,0,0,0,2.485-15.7c-2.057-10.078-10.337-17.15-19.332-17.15" transform="translate(-662.93 -275.018)"/>
      <path id="Path_1721" data-name="Path 1721" d="M995.7,498.3a8.378,8.378,0,0,0,13.259-5.5Z" transform="translate(-695.9 -344.422)" fill="#fff"/>
      <path id="Path_1722" data-name="Path 1722" d="M961.237,323.8a11.111,11.111,0,0,0-13.11-8.668,10.838,10.838,0,0,0-2.388.787,10.572,10.572,0,0,0-20.422,5.229,7.568,7.568,0,0,0-10.371,8.478,7.191,7.191,0,0,0,.468,1.492,10.727,10.727,0,1,0,1.8,21.324c.163-.027.325-.054.488-.088a10.746,10.746,0,0,0,8.363-12.656c-.02-.115-.055-.224-.081-.332a20.252,20.252,0,0,0,10.18.244,21.434,21.434,0,0,0,8.2-3.371c.223-.156.441-.326.644-.488A11.1,11.1,0,0,0,961.237,323.8m-31.308,4.449v-.061l.061.041-.061.02" transform="translate(-632.385 -215.791)"/>
      <path id="Path_1723" data-name="Path 1723" d="M1009.594,502.081a.664.664,0,0,1-.16-1.308c11.106-2.756,16.143-11.75,18.294-15.59.749-1.338,1.028-1.812,1.4-2.024a.664.664,0,0,1,.689,1.134,12.7,12.7,0,0,0-.933,1.538c-2.235,3.991-7.468,13.335-19.131,16.23a.672.672,0,0,1-.161.02" transform="translate(-705.149 -337.623)"/>
      <path id="Path_1724" data-name="Path 1724" d="M985.9,534.923a4.92,4.92,0,1,1,6.706,1.856,4.92,4.92,0,0,1-6.706-1.856" transform="translate(-688.608 -368.728)" fill="#fff"/>
      <path id="Path_1725" data-name="Path 1725" d="M988.659,536.536a5.58,5.58,0,1,1,2.743-.724,5.589,5.589,0,0,1-2.743.724m-3.713-3.485a4.256,4.256,0,1,0,1.606-5.8,4.262,4.262,0,0,0-1.606,5.8" transform="translate(-687.073 -367.183)"/>
      <path id="Path_1726" data-name="Path 1726" d="M1014.667,308a.664.664,0,0,1-.562-.31c-4.037-6.4-12.009-9.791-20.3-8.63a.664.664,0,0,1-.184-1.315c8.818-1.234,17.3,2.393,21.611,9.236a.664.664,0,0,1-.561,1.018" transform="translate(-694.047 -207.928)"/>
      <path id="Path_1727" data-name="Path 1727" d="M1067.512,348.416a.664.664,0,0,1-.657-.572l-1.741-12.449a16.183,16.183,0,0,0-2.362-6.435.664.664,0,0,1,1.123-.708,17.5,17.5,0,0,1,2.554,6.959l1.741,12.449a.664.664,0,0,1-.565.749.693.693,0,0,1-.093.006" transform="translate(-742.694 -229.202)" fill="#fff"/>
      <path id="Path_1728" data-name="Path 1728" d="M1079.17,406.511a.664.664,0,0,1-.657-.572l-1.91-13.652a.664.664,0,1,1,1.314-.184l1.91,13.652a.664.664,0,0,1-.565.749.7.7,0,0,1-.093.007" transform="translate(-752.441 -273.644)"/>
      <path id="Path_1729" data-name="Path 1729" d="M1057.17,421.163c1.157,8.269,6.543,14.349,12.03,13.582s9-8.093,7.842-16.361-6.543-14.349-12.03-13.582-9,8.093-7.842,16.361" transform="translate(-738.709 -282.873)" fill="#fff"/>
      <path id="Path_1730" data-name="Path 1730" d="M1066.708,433.932a9.751,9.751,0,0,1-7.187-3.692,21.572,21.572,0,0,1-3.063-21.9c1.58-3.3,4.037-5.335,6.919-5.738s5.8.882,8.228,3.619a21.572,21.572,0,0,1,3.063,21.9c-1.58,3.3-4.038,5.335-6.919,5.738a7.528,7.528,0,0,1-1.042.073m-2.3-30.075a6.143,6.143,0,0,0-.849.059c-2.426.34-4.524,2.114-5.906,5a18.836,18.836,0,0,0-1.37,10.615h0a18.832,18.832,0,0,0,4.23,9.831c2.121,2.393,4.624,3.523,7.05,3.185s4.525-2.114,5.906-5a20.256,20.256,0,0,0-2.86-20.446,8.476,8.476,0,0,0-6.2-3.244" transform="translate(-737.167 -281.33)"/>
      <path id="Path_1731" data-name="Path 1731" d="M1096.755,433.173c.625,4.471,3.538,7.759,6.5,7.343s4.865-4.375,4.24-8.846-3.537-7.758-6.5-7.343-4.865,4.375-4.24,8.846" transform="translate(-766.447 -296.54)" fill="#fff"/>
      <path id="Path_1732" data-name="Path 1732" d="M1101.209,439.677a5.565,5.565,0,0,1-4.112-2.1,11.21,11.21,0,0,1-2.534-5.852c-.675-4.826,1.48-9.13,4.8-9.595s6.579,3.083,7.254,7.908a11.216,11.216,0,0,1-.832,6.323,5.343,5.343,0,0,1-3.974,3.273,4.374,4.374,0,0,1-.607.042m-1.233-16.261a3,3,0,0,0-.424.03c-2.6.363-4.248,4-3.674,8.1a9.882,9.882,0,0,0,2.213,5.156,3.618,3.618,0,0,0,6.5-.91,9.878,9.878,0,0,0,.714-5.565c-.543-3.877-2.881-6.807-5.332-6.807" transform="translate(-764.912 -295.001)"/>
      <rect id="Rectangle_767" data-name="Rectangle 767" width="84.651" height="49.739" transform="matrix(0.819, -0.574, 0.574, 0.819, 439.827, 468.653)" fill="#fff"/>
      <path id="Path_1733" data-name="Path 1733" d="M1487.78,1483.56a.673.673,0,0,1-.115-.01.661.661,0,0,1-.429-.273l-28.552-40.727a.663.663,0,0,1,.162-.924l69.314-48.594a.663.663,0,0,1,.924.163l28.552,40.727a.663.663,0,0,1-.162.924l-69.313,48.594a.667.667,0,0,1-.381.12m-27.628-41.228,27.791,39.64,68.227-47.832-27.791-39.64Z" transform="translate(-1019.401 -973.516)"/>
      <path id="Path_1734" data-name="Path 1734" d="M1509.7,1439.777l20.38-44.661-69.313,48.594Z" transform="translate(-1020.941 -975.057)" fill="#fff"/>
      <path id="Path_1735" data-name="Path 1735" d="M1459.227,1442.833a.664.664,0,0,1-.381-1.207l69.314-48.594a.664.664,0,0,1,.985.819l-20.38,44.661a.665.665,0,0,1-.551.386l-48.934,3.933-.053,0m67.7-47.314-65.318,45.793,46.113-3.707Zm-18.764,42.717h0Z" transform="translate(-1019.401 -973.516)"/>
      <path id="Path_1736" data-name="Path 1736" d="M396.507,327.926H368.565V243.988l62.583-4.341,64.378.086,1.34,88.194Z" transform="translate(-257.593 -167.491)"/>
      <path id="Path_1737" data-name="Path 1737" d="M356.718,143.388l64.15-41.591,64.15,41.591-64.15,45.366Z" transform="translate(-249.313 -71.146)"/>
      <rect id="Rectangle_768" data-name="Rectangle 768" width="104.937" height="129.165" transform="translate(118.006 19.396)" fill="#020202"/>
      <rect id="Rectangle_769" data-name="Rectangle 769" width="104.937" height="129.165" transform="translate(120.169 16.727)" fill="#fff"/>
      <path id="Path_1738" data-name="Path 1738" d="M502.507,183.844H397.571a.664.664,0,0,1-.664-.664V54.016a.664.664,0,0,1,.664-.664H502.507a.663.663,0,0,1,.664.664V183.181a.663.663,0,0,1-.664.664m-104.273-1.327H501.844V54.68H398.235Z" transform="translate(-277.401 -37.288)"/>
      <path id="Path_1739" data-name="Path 1739" d="M546.4,132.189c0,9.6-3.995,15.369-10.653,15.369-3.551,0-6.1-1.664-7.046-4.827-2.164,3.162-5.549,4.827-9.988,4.827-7.657,0-13.316-5.826-13.316-14.149,0-8.212,5.659-14.038,13.316-14.038a11.557,11.557,0,0,1,9.266,3.939V119.7h6.159v18.865c0,2.83,1.332,3.773,2.885,3.773,3,0,4.661-3.5,4.661-10.043,0-11.874-8.656-19.864-21.307-19.864-12.872,0-21.417,8.6-21.417,20.7,0,12.262,8.434,20.807,21.2,20.807a24.506,24.506,0,0,0,10.764-2.442l1.5,4.439a28.927,28.927,0,0,1-12.262,2.607c-15.758,0-26.3-10.709-26.3-25.412,0-14.537,10.653-25.246,26.522-25.246,15.314,0,26.023,10.154,26.023,24.3m-18.31,1.221c0-5.493-3.551-8.656-8.212-8.656-4.827,0-8.212,3.329-8.212,8.656,0,5.382,3.385,8.767,8.212,8.767,4.661,0,8.212-3.218,8.212-8.767" transform="translate(-345.16 -75.402)" fill="#020202"/>
      <path id="Path_1740" data-name="Path 1740" d="M384.66,324.84H356.718V240.9l64.151,38.979L485.019,240.9V324.84Z" transform="translate(-249.312 -168.368)" fill="#31d3f5"/>
      <path id="Path_1741" data-name="Path 1741" d="M483.478,323.283h-128.3a.664.664,0,0,1-.664-.664V238.39a.664.664,0,0,1,1.01-.566l63.8,39.059,63.8-39.059a.663.663,0,0,1,1.01.566v84.23a.663.663,0,0,1-.664.664m-127.636-1.327H482.814V239.575l-63.139,38.653a.665.665,0,0,1-.693,0l-63.14-38.653Z" transform="translate(-247.772 -166.149)"/>
      <path id="Path_1742" data-name="Path 1742" d="M1393.046,351.528H1230.214a.663.663,0,0,1-.371-1.213l35.763-24.177V266.377a.664.664,0,0,1,.664-.664h126.776a.664.664,0,0,1,.664.664v84.488a.664.664,0,0,1-.664.664M1232.38,350.2h160v-83.16H1266.933v59.45a.664.664,0,0,1-.292.55Zm33.889-23.711h0Z" transform="translate(-859.341 -185.709)" fill="#020202"/>
      <path id="Path_1743" data-name="Path 1743" d="M1635.121,477.567h-23.248a.664.664,0,0,1,0-1.327h23.248a.664.664,0,1,1,0,1.327" transform="translate(-1126.085 -332.848)" fill="#020202"/>
      <path id="Path_1744" data-name="Path 1744" d="M1480.024,477.567h-47.782a.664.664,0,0,1,0-1.327h47.782a.664.664,0,0,1,0,1.327" transform="translate(-1000.54 -332.848)" fill="#020202"/>
      <path id="Path_1745" data-name="Path 1745" d="M1594.3,411.7h-40.835a.664.664,0,1,1,0-1.327H1594.3a.664.664,0,1,1,0,1.327" transform="translate(-1085.262 -286.815)" fill="#020202"/>
      <path id="Path_1746" data-name="Path 1746" d="M1456.133,411.7h-23.891a.664.664,0,0,1,0-1.327h23.891a.664.664,0,1,1,0,1.327" transform="translate(-1000.54 -286.815)" fill="#020202"/>
      <path id="Path_1747" data-name="Path 1747" d="M1635.121,345.842h-23.248a.664.664,0,0,1,0-1.327h23.248a.664.664,0,1,1,0,1.327" transform="translate(-1126.085 -240.784)" fill="#020202"/>
      <path id="Path_1748" data-name="Path 1748" d="M1480.024,345.842h-47.782a.664.664,0,0,1,0-1.327h47.782a.664.664,0,0,1,0,1.327" transform="translate(-1000.54 -240.784)" fill="#020202"/>
    </g>
  </g>
</svg>
