<svg xmlns="http://www.w3.org/2000/svg" xmlns:xlink="http://www.w3.org/1999/xlink" width="549.242" height="506.637" viewBox="0 0 549.242 506.637">
  <defs>
    <clipPath id="clip-path">
      <rect id="Rectangle_780" data-name="Rectangle 780" width="549.242" height="506.637" transform="translate(0 0)" fill="none"/>
    </clipPath>
  </defs>
  <g id="Group_1809" data-name="Group 1809" transform="translate(0 0.002)">
    <g id="Group_1808" data-name="Group 1808" transform="translate(0 -0.002)" clip-path="url(#clip-path)">
      <path id="Path_2366" data-name="Path 2366" d="M189.327,182.656s-10.845-.988-15.6,3.808c-5.362,5.4-2.7,10.905-5.779,15.6-1.6,2.44-6.551,5.315-9.808,5.226,0,0,16.2,11.775,26.422,7.2a33.483,33.483,0,0,0,14.749-12.77Z" transform="translate(-114.026 -131.647)" fill="#c1c1c1"/>
      <path id="Path_2367" data-name="Path 2367" d="M234.916,201.819s-5.582-.224-8.3,2.4c-2.376,2.3-1.942,4.637-1.968,8.008-.017,2.221-1.386,4.646-3.6,5.172a11.964,11.964,0,0,0,12.2.887c6.539-3.017,7.251-5.812,7.251-5.812Z" transform="translate(-159.392 -145.521)" fill="#fff"/>
      <path id="Path_2368" data-name="Path 2368" d="M253.55,260.886a.615.615,0,0,1-.513-.954l24.419-36.96a.618.618,0,0,1,.59-.271l9.455,1.2a.616.616,0,0,1,.534.673L286.42,240.2a6.926,6.926,0,0,1-3.676,5.432l-28.908,15.182a.615.615,0,0,1-.286.07m24.721-36.916-22.89,34.646,26.791-14.07a5.7,5.7,0,0,0,3.024-4.471l1.554-15.031Z" transform="translate(-182.384 -160.579)"/>
      <path id="Path_2369" data-name="Path 2369" d="M196.738,123.224h-.013l-44.244-.9a.615.615,0,0,1-.273-1.159l28.907-15.182a6.911,6.911,0,0,1,6.555.061l13.756,7.557a.615.615,0,0,1,.25.822l-4.393,8.469a.615.615,0,0,1-.546.332m-41.844-2.081,41.474.843,3.94-7.6-13.231-7.267a5.685,5.685,0,0,0-5.391-.05Z" transform="translate(-109.515 -75.846)"/>
      <path id="Path_2370" data-name="Path 2370" d="M271.587,99.159,260.426,77.845S280,46.858,322.987,39.207a118.575,118.575,0,0,1,37.269-.432c.117.02.232.035.346.05l.042.009-.024.038a118.852,118.852,0,0,1-21.705,30.753c-30.732,31.049-67.328,29.534-67.328,29.534" transform="translate(-187.785 -27.053)" fill="#989898"/>
      <path id="Path_2371" data-name="Path 2371" d="M345.8,158.892a9.64,9.64,0,1,1,4.061-13.021,9.625,9.625,0,0,1-4.061,13.021" transform="translate(-239.174 -101.458)" fill="#fff"/>
      <path id="Path_2372" data-name="Path 2372" d="M353.715,165.242a5.907,5.907,0,1,1,2.488-7.978,5.9,5.9,0,0,1-2.488,7.978" transform="translate(-248.82 -111.115)" fill="#fff"/>
      <path id="Path_2373" data-name="Path 2373" d="M349.4,164.941a6.53,6.53,0,1,1,3.021-.75,6.522,6.522,0,0,1-3.021.75m-.008-11.824a5.3,5.3,0,1,0,1.579.242,5.261,5.261,0,0,0-1.579-.242" transform="translate(-247.237 -109.52)"/>
      <path id="Path_2374" data-name="Path 2374" d="M451.049,107.849a8.136,8.136,0,1,1,3.427-10.99,8.123,8.123,0,0,1-3.427,10.99" transform="translate(-316.652 -66.698)" fill="#fff"/>
      <path id="Path_2375" data-name="Path 2375" d="M457.729,113.209a4.985,4.985,0,1,1,2.1-6.734,4.977,4.977,0,0,1-2.1,6.734" transform="translate(-324.793 -74.849)" fill="#fff"/>
      <path id="Path_2376" data-name="Path 2376" d="M453.835,112.8a5.607,5.607,0,1,1,2.594-.644,5.607,5.607,0,0,1-2.594.644m-.007-9.98a4.375,4.375,0,1,0,1.3.2,4.344,4.344,0,0,0-1.3-.2" transform="translate(-323.208 -73.255)"/>
      <path id="Path_2377" data-name="Path 2377" d="M500.5,69.535,484.417,38.814a118.252,118.252,0,0,1,37.694-.23l.043.009-.024.038a118.412,118.412,0,0,1-21.626,30.9" transform="translate(-349.298 -26.817)" fill="#c1c1c1"/>
      <path id="Path_2378" data-name="Path 2378" d="M521.553,73.682l-8-15.283,29.343-15.567c.117.02.232.035.346.05l.042.009-.024.038a118.851,118.851,0,0,1-21.705,30.753" transform="translate(-370.305 -30.884)" fill="#dbdbdb"/>
      <path id="Path_2379" data-name="Path 2379" d="M62.664,480.133a.614.614,0,0,1-.476-.225c-1.582-1.931-3.138-3.869-4.627-5.761a.615.615,0,1,1,.966-.76c1.484,1.886,3.035,3.818,4.611,5.742a.615.615,0,0,1-.475,1m-9.116-11.6a.614.614,0,0,1-.492-.245c-1.491-1.982-2.962-3.988-4.372-5.96a.615.615,0,0,1,1-.715c1.4,1.964,2.869,3.961,4.354,5.936a.614.614,0,0,1-.491.984m-8.576-12a.614.614,0,0,1-.51-.271c-1.4-2.076-2.765-4.157-4.051-6.185a.615.615,0,1,1,1.039-.658c1.279,2.019,2.636,4.089,4.032,6.155a.615.615,0,0,1-.509.959m-7.889-12.463a.614.614,0,0,1-.53-.3c-1.267-2.15-2.491-4.317-3.639-6.442A.615.615,0,1,1,34,436.739c1.141,2.111,2.358,4.266,3.616,6.4a.615.615,0,0,1-.529.927m-7-12.981a.614.614,0,0,1-.553-.345c-1.1-2.253-2.139-4.518-3.09-6.729a.615.615,0,0,1,1.13-.486c.943,2.194,1.975,4.44,3.065,6.676a.615.615,0,0,1-.552.884m-5.81-13.553a.615.615,0,0,1-.577-.4c-.869-2.37-1.654-4.737-2.335-7.037a.615.615,0,0,1,1.179-.349c.674,2.275,1.45,4.617,2.31,6.962a.615.615,0,0,1-.577.827m-4.159-14.141a.615.615,0,0,1-.6-.484c-.538-2.478-.964-4.94-1.266-7.318a.615.615,0,0,1,1.22-.156c.3,2.342.718,4.769,1.248,7.212a.615.615,0,0,1-.471.731.608.608,0,0,1-.131.014m-1.823-14.615a.615.615,0,0,1-.615-.6q-.019-.807-.019-1.6c0-1.978.092-3.942.274-5.837a.607.607,0,0,1,.671-.554.615.615,0,0,1,.553.671c-.178,1.856-.268,3.781-.268,5.719q0,.778.019,1.572a.615.615,0,0,1-.6.629h-.015m1.448-14.632a.616.616,0,0,1-.6-.757c.37-1.555.813-3.084,1.323-4.57q-1.015-.36-1.988-.775a.615.615,0,1,1,.483-1.131q.938.4,1.919.749.259-.7.538-1.377a.615.615,0,0,1,1.138.466q-.264.644-.51,1.3a36.745,36.745,0,0,0,3.834.983.615.615,0,0,1-.242,1.206,38.013,38.013,0,0,1-4.008-1.03c-.5,1.451-.931,2.944-1.293,4.463a.615.615,0,0,1-.6.473m14.292-3.093q-.48,0-.96-.01a.615.615,0,0,1-.6-.628.63.63,0,0,1,.627-.6,45.334,45.334,0,0,0,7.261-.437.615.615,0,1,1,.172,1.218,46.7,46.7,0,0,1-6.5.459m13.606-2.065a.615.615,0,0,1-.183-1.2,38.964,38.964,0,0,0,6.7-2.78.615.615,0,1,1,.579,1.085,40.245,40.245,0,0,1-6.912,2.868.62.62,0,0,1-.184.028m-35.3-4.561a.612.612,0,0,1-.369-.124,28.283,28.283,0,0,1-5.354-5.277.615.615,0,0,1,.973-.752,27.043,27.043,0,0,0,5.121,5.047.615.615,0,0,1-.37,1.106m48.151-2.461a.615.615,0,0,1-.414-1.069,19.277,19.277,0,0,0,4.357-5.613.615.615,0,1,1,1.1.548,20.479,20.479,0,0,1-4.631,5.974.61.61,0,0,1-.414.16m-35.157-1.393a.614.614,0,0,1-.521-.939,42.665,42.665,0,0,1,4.488-5.975.615.615,0,0,1,.914.822,41.529,41.529,0,0,0-4.359,5.8.614.614,0,0,1-.522.29M3.4,352.913a.614.614,0,0,1-.566-.375,33.84,33.84,0,0,1-1.725-5.248c-.155-.638-.3-1.287-.419-1.929A.615.615,0,0,1,1.9,345.13c.119.622.256,1.251.406,1.87a32.552,32.552,0,0,0,1.663,5.058.615.615,0,0,1-.566.855m31.75-3.248a.615.615,0,0,1-.378-1.1,41.012,41.012,0,0,1,6.3-4.032.615.615,0,1,1,.564,1.092,39.853,39.853,0,0,0-6.112,3.911.613.613,0,0,1-.377.129m31.407-.611a.615.615,0,0,1-.614-.587,6.079,6.079,0,0,0-3.581-5.293.615.615,0,1,1,.562-1.093,7.248,7.248,0,0,1,4.247,6.332.615.615,0,0,1-.587.642h-.028M48.2,342.967a.615.615,0,0,1-.167-1.207,29.034,29.034,0,0,1,7.43-1.157.621.621,0,0,1,.624.605.615.615,0,0,1-.605.624,27.818,27.818,0,0,0-7.114,1.11.613.613,0,0,1-.168.024M.615,338.527h0a.615.615,0,0,1-.61-.62,37.578,37.578,0,0,1,.805-7.436.615.615,0,0,1,1.2.253,36.341,36.341,0,0,0-.779,7.192.615.615,0,0,1-.615.61m2.973-14.344a.616.616,0,0,1-.568-.849,48.124,48.124,0,0,1,3.386-6.653.615.615,0,1,1,1.051.639,46.883,46.883,0,0,0-3.3,6.482.615.615,0,0,1-.569.381m7.58-12.6a.615.615,0,0,1-.48-1,71.54,71.54,0,0,1,4.955-5.557.615.615,0,0,1,.876.864,70.171,70.171,0,0,0-4.87,5.46.614.614,0,0,1-.481.231M21.5,301.057a.615.615,0,0,1-.4-1.083c1.846-1.57,3.813-3.115,5.846-4.593a.615.615,0,1,1,.723.994c-2.008,1.46-3.95,2.986-5.773,4.536a.61.61,0,0,1-.4.146m11.939-8.7a.615.615,0,0,1-.326-1.136c3.832-2.393,6.468-3.686,6.495-3.7a.615.615,0,1,1,.539,1.1c-.025.013-2.61,1.281-6.383,3.637a.609.609,0,0,1-.325.093" transform="translate(0 -207.279)" fill="#c1c1c1"/>
      <path id="Path_2380" data-name="Path 2380" d="M1116.34,583.5l-69.993,40.366-69.678-40.6,70.469-41.041Z" transform="translate(-704.246 -390.979)" fill="#fff"/>
      <path id="Path_2381" data-name="Path 2381" d="M1043.96,622.4a.923.923,0,0,1-.465-.126l-69.678-40.6a.923.923,0,0,1,0-1.6l70.469-41.042a.925.925,0,0,1,.938,0l69.2,41.278a.923.923,0,0,1-.012,1.593l-69.993,40.366a.922.922,0,0,1-.461.123m-67.844-41.526,67.847,39.536,68.165-39.312-67.382-40.193Z" transform="translate(-701.859 -388.593)"/>
      <path id="Path_2382" data-name="Path 2382" d="M1226.521,752.392v-22.45l70.012-40.142v21.29Z" transform="translate(-884.406 -497.393)" fill="#c1c1c1"/>
      <path id="Path_2383" data-name="Path 2383" d="M1224.134,750.93a.923.923,0,0,1-.923-.923v-22.45a.923.923,0,0,1,.464-.8l70.012-40.142a.923.923,0,0,1,1.382.8V708.7a.921.921,0,0,1-.454.8L1224.6,750.8a.921.921,0,0,1-.469.128m.923-22.838v20.3l68.165-40.213V689.009Z" transform="translate(-882.02 -495.008)"/>
      <path id="Path_2384" data-name="Path 2384" d="M1047.1,751.7v-22.45l-69.4-40.409V710.6Z" transform="translate(-704.987 -496.704)" fill="#dbdbdb"/>
      <path id="Path_2385" data-name="Path 2385" d="M1044.714,750.241a.929.929,0,0,1-.471-.129l-69.4-41.1a.923.923,0,0,1-.453-.794V686.46a.923.923,0,0,1,1.388-.8l69.405,40.409a.923.923,0,0,1,.459.8v22.45a.924.924,0,0,1-.923.923M976.232,707.69l67.559,40.008V727.4l-67.559-39.333Z" transform="translate(-702.6 -494.319)"/>
      <path id="Path_2386" data-name="Path 2386" d="M1116.34,463.238,1046.347,503.6,976.669,463l70.469-41.041Z" transform="translate(-704.246 -304.262)" fill="#fff"/>
      <path id="Path_2387" data-name="Path 2387" d="M1043.96,502.142a.925.925,0,0,1-.465-.125l-69.678-40.6a.923.923,0,0,1,0-1.595l70.469-41.042a.926.926,0,0,1,.938,0l69.2,41.278a.923.923,0,0,1-.012,1.593l-69.993,40.366a.922.922,0,0,1-.461.123m-67.844-41.526,67.847,39.536,68.165-39.312-67.382-40.194Z" transform="translate(-701.859 -301.877)"/>
      <path id="Path_2388" data-name="Path 2388" d="M1226.521,632.131v-22.45l70.012-40.142v21.29Z" transform="translate(-884.406 -410.677)" fill="#c1c1c1"/>
      <path id="Path_2389" data-name="Path 2389" d="M1224.134,630.667a.923.923,0,0,1-.923-.923v-22.45a.924.924,0,0,1,.464-.8l70.012-40.142a.923.923,0,0,1,1.382.8v21.291a.922.922,0,0,1-.454.8l-70.011,41.3a.921.921,0,0,1-.469.128m.923-22.838v20.3l68.165-40.213v-19.17Z" transform="translate(-882.02 -408.29)"/>
      <path id="Path_2390" data-name="Path 2390" d="M1047.1,631.442v-22.45l-69.4-40.409v21.757Z" transform="translate(-704.987 -409.987)" fill="#dbdbdb"/>
      <path id="Path_2391" data-name="Path 2391" d="M1044.714,629.981a.929.929,0,0,1-.471-.129l-69.4-41.1a.923.923,0,0,1-.453-.794V566.2a.923.923,0,0,1,1.388-.8l69.405,40.409a.923.923,0,0,1,.459.8v22.45a.924.924,0,0,1-.923.923M976.232,587.43l67.559,40.008v-20.3l-67.559-39.333Z" transform="translate(-702.6 -407.603)"/>
      <path id="Path_2392" data-name="Path 2392" d="M1116.34,342.977l-69.993,40.366-69.678-40.6,70.469-41.041Z" transform="translate(-704.246 -217.545)" fill="#fff"/>
      <path id="Path_2393" data-name="Path 2393" d="M1043.96,381.88a.926.926,0,0,1-.465-.125l-69.678-40.6a.923.923,0,0,1,0-1.595l70.469-41.042a.924.924,0,0,1,.938,0l69.2,41.278a.923.923,0,0,1-.012,1.593l-69.993,40.366a.922.922,0,0,1-.461.123m-67.844-41.526,67.847,39.536,68.165-39.312-67.382-40.193Z" transform="translate(-701.859 -215.159)"/>
      <path id="Path_2394" data-name="Path 2394" d="M1226.521,511.87V489.42l70.012-40.142v21.29Z" transform="translate(-884.406 -323.96)" fill="#c1c1c1"/>
      <path id="Path_2395" data-name="Path 2395" d="M1224.134,510.406a.923.923,0,0,1-.923-.923v-22.45a.923.923,0,0,1,.464-.8l70.012-40.142a.923.923,0,0,1,1.382.8v21.291a.922.922,0,0,1-.454.8l-70.011,41.3a.921.921,0,0,1-.469.128m.923-22.838v20.3l68.165-40.213v-19.17Z" transform="translate(-882.02 -321.573)"/>
      <path id="Path_2396" data-name="Path 2396" d="M1047.1,511.18v-22.45l-69.4-40.409v21.757Z" transform="translate(-704.987 -323.27)" fill="#dbdbdb"/>
      <path id="Path_2397" data-name="Path 2397" d="M1044.714,509.719a.929.929,0,0,1-.471-.129l-69.4-41.1a.924.924,0,0,1-.453-.794V445.937a.923.923,0,0,1,1.388-.8l69.405,40.409a.923.923,0,0,1,.459.8V508.8a.924.924,0,0,1-.923.923m-68.482-42.551,67.559,40.008v-20.3l-67.559-39.333Z" transform="translate(-702.6 -320.886)"/>
      <path id="Path_2398" data-name="Path 2398" d="M1116.34,222.715l-69.993,40.366-69.678-40.6,70.469-41.041Z" transform="translate(-704.246 -130.828)" fill="#fff"/>
      <path id="Path_2399" data-name="Path 2399" d="M1043.96,261.619a.925.925,0,0,1-.465-.125l-69.678-40.6a.923.923,0,0,1,0-1.595l70.469-41.042a.926.926,0,0,1,.938,0l69.2,41.278a.923.923,0,0,1-.012,1.593L1044.421,261.5a.922.922,0,0,1-.461.123m-67.844-41.526,67.847,39.536,68.165-39.312-67.382-40.193Z" transform="translate(-701.859 -128.443)"/>
      <path id="Path_2400" data-name="Path 2400" d="M1226.521,391.608v-22.45l70.012-40.142v21.29Z" transform="translate(-884.406 -237.243)" fill="#c1c1c1"/>
      <path id="Path_2401" data-name="Path 2401" d="M1224.134,390.144a.923.923,0,0,1-.923-.923v-22.45a.923.923,0,0,1,.464-.8l70.012-40.142a.923.923,0,0,1,1.382.8v21.29a.922.922,0,0,1-.454.8l-70.011,41.3a.921.921,0,0,1-.469.128m.923-22.838v20.3l68.165-40.213v-19.17Z" transform="translate(-882.02 -234.856)"/>
      <path id="Path_2402" data-name="Path 2402" d="M1047.1,390.919v-22.45L977.7,328.06v21.757Z" transform="translate(-704.987 -236.554)" fill="#dbdbdb"/>
      <path id="Path_2403" data-name="Path 2403" d="M1044.714,389.457a.929.929,0,0,1-.471-.129l-69.4-41.1a.923.923,0,0,1-.453-.794V325.676a.923.923,0,0,1,1.388-.8l69.405,40.409a.923.923,0,0,1,.459.8v22.45a.924.924,0,0,1-.923.923m-68.482-42.551,67.559,40.008v-20.3l-67.559-39.333Z" transform="translate(-702.6 -234.169)"/>
      <path id="Path_2404" data-name="Path 2404" d="M1165.367,474.925c0,1.4-1.135,1.881-2.536,1.072a5.26,5.26,0,0,1-2.536-4c0-1.4,1.135-1.881,2.536-1.072a5.26,5.26,0,0,1,2.536,4" transform="translate(-836.653 -339.285)" fill="#c1c1c1"/>
      <path id="Path_2405" data-name="Path 2405" d="M1015.453,388.372c0,1.4-1.135,1.881-2.536,1.072a5.26,5.26,0,0,1-2.536-4c0-1.4,1.136-1.881,2.536-1.072a5.26,5.26,0,0,1,2.536,4" transform="translate(-728.554 -276.875)" fill="#c1c1c1"/>
      <path id="Path_2406" data-name="Path 2406" d="M1127.888,453.286c0,1.4-1.135,1.881-2.536,1.072a5.259,5.259,0,0,1-2.536-4c0-1.4,1.135-1.881,2.536-1.072a5.259,5.259,0,0,1,2.536,4" transform="translate(-809.628 -323.682)" fill="#c1c1c1"/>
      <path id="Path_2407" data-name="Path 2407" d="M1090.41,431.648c0,1.4-1.135,1.881-2.536,1.072a5.259,5.259,0,0,1-2.536-4c0-1.4,1.135-1.881,2.536-1.072a5.26,5.26,0,0,1,2.536,4" transform="translate(-782.604 -308.08)" fill="#c1c1c1"/>
      <path id="Path_2408" data-name="Path 2408" d="M1052.931,410.01c0,1.4-1.136,1.881-2.536,1.072a5.26,5.26,0,0,1-2.536-4c0-1.4,1.135-1.881,2.536-1.072a5.261,5.261,0,0,1,2.536,4" transform="translate(-755.579 -292.477)" fill="#c1c1c1"/>
      <path id="Path_2409" data-name="Path 2409" d="M1165.367,595c0,1.4-1.135,1.881-2.536,1.072a5.26,5.26,0,0,1-2.536-4c0-1.4,1.135-1.88,2.536-1.072a5.26,5.26,0,0,1,2.536,4" transform="translate(-836.653 -425.866)" fill="#c1c1c1"/>
      <path id="Path_2410" data-name="Path 2410" d="M1015.453,508.445c0,1.4-1.135,1.881-2.536,1.072a5.26,5.26,0,0,1-2.536-4c0-1.4,1.136-1.881,2.536-1.072a5.26,5.26,0,0,1,2.536,4" transform="translate(-728.554 -363.455)" fill="#c1c1c1"/>
      <path id="Path_2411" data-name="Path 2411" d="M1127.888,573.36c0,1.4-1.135,1.88-2.536,1.072a5.26,5.26,0,0,1-2.536-4c0-1.4,1.135-1.881,2.536-1.072a5.259,5.259,0,0,1,2.536,4" transform="translate(-809.628 -410.264)" fill="#c1c1c1"/>
      <path id="Path_2412" data-name="Path 2412" d="M1090.41,551.722c0,1.4-1.135,1.88-2.536,1.072a5.26,5.26,0,0,1-2.536-4c0-1.4,1.135-1.881,2.536-1.072a5.259,5.259,0,0,1,2.536,4" transform="translate(-782.604 -394.661)" fill="#c1c1c1"/>
      <path id="Path_2413" data-name="Path 2413" d="M1052.931,530.084c0,1.4-1.136,1.881-2.536,1.072a5.26,5.26,0,0,1-2.536-4c0-1.4,1.135-1.881,2.536-1.072a5.26,5.26,0,0,1,2.536,4" transform="translate(-755.579 -379.059)" fill="#c1c1c1"/>
      <path id="Path_2414" data-name="Path 2414" d="M1165.367,715.258c0,1.4-1.135,1.881-2.536,1.072a5.26,5.26,0,0,1-2.536-4c0-1.4,1.135-1.88,2.536-1.072a5.26,5.26,0,0,1,2.536,4" transform="translate(-836.653 -512.583)" fill="#c1c1c1"/>
      <path id="Path_2415" data-name="Path 2415" d="M1015.453,628.707c0,1.4-1.135,1.88-2.536,1.072a5.26,5.26,0,0,1-2.536-4c0-1.4,1.136-1.881,2.536-1.072a5.26,5.26,0,0,1,2.536,4" transform="translate(-728.554 -450.173)" fill="#c1c1c1"/>
      <path id="Path_2416" data-name="Path 2416" d="M1127.888,693.621c0,1.4-1.135,1.88-2.536,1.072a5.26,5.26,0,0,1-2.536-4c0-1.4,1.135-1.881,2.536-1.072a5.26,5.26,0,0,1,2.536,4" transform="translate(-809.628 -496.98)" fill="#c1c1c1"/>
      <path id="Path_2417" data-name="Path 2417" d="M1090.41,671.983c0,1.4-1.135,1.881-2.536,1.072a5.26,5.26,0,0,1-2.536-4c0-1.4,1.135-1.88,2.536-1.072a5.259,5.259,0,0,1,2.536,4" transform="translate(-782.604 -481.378)" fill="#c1c1c1"/>
      <path id="Path_2418" data-name="Path 2418" d="M1052.931,650.345c0,1.4-1.136,1.881-2.536,1.072a5.26,5.26,0,0,1-2.536-4c0-1.4,1.135-1.881,2.536-1.072a5.261,5.261,0,0,1,2.536,4" transform="translate(-755.579 -465.775)" fill="#c1c1c1"/>
      <path id="Path_2419" data-name="Path 2419" d="M1165.367,835.521c0,1.4-1.135,1.88-2.536,1.072a5.26,5.26,0,0,1-2.536-4c0-1.4,1.135-1.881,2.536-1.072a5.26,5.26,0,0,1,2.536,4" transform="translate(-836.653 -599.3)" fill="#c1c1c1"/>
      <path id="Path_2420" data-name="Path 2420" d="M1015.453,748.968c0,1.4-1.135,1.881-2.536,1.072a5.26,5.26,0,0,1-2.536-4c0-1.4,1.136-1.88,2.536-1.072a5.26,5.26,0,0,1,2.536,4" transform="translate(-728.554 -536.889)" fill="#c1c1c1"/>
      <path id="Path_2421" data-name="Path 2421" d="M1127.888,813.883c0,1.4-1.135,1.88-2.536,1.072a5.26,5.26,0,0,1-2.536-4c0-1.4,1.135-1.881,2.536-1.072a5.259,5.259,0,0,1,2.536,4" transform="translate(-809.628 -583.698)" fill="#c1c1c1"/>
      <path id="Path_2422" data-name="Path 2422" d="M1090.41,792.244c0,1.4-1.135,1.881-2.536,1.072a5.259,5.259,0,0,1-2.536-4c0-1.4,1.135-1.88,2.536-1.072a5.259,5.259,0,0,1,2.536,4" transform="translate(-782.604 -568.095)" fill="#c1c1c1"/>
      <path id="Path_2423" data-name="Path 2423" d="M1052.931,770.606c0,1.4-1.136,1.881-2.536,1.072a5.26,5.26,0,0,1-2.536-4c0-1.4,1.135-1.88,2.536-1.072a5.261,5.261,0,0,1,2.536,4" transform="translate(-755.579 -552.492)" fill="#c1c1c1"/>
      <path id="Path_2424" data-name="Path 2424" d="M1275.281,474.925c0,1.4,1.136,1.881,2.536,1.072a5.26,5.26,0,0,0,2.536-4c0-1.4-1.135-1.881-2.536-1.072a5.26,5.26,0,0,0-2.536,4" transform="translate(-919.566 -339.285)" fill="#dbdbdb"/>
      <path id="Path_2425" data-name="Path 2425" d="M1425.194,388.372c0,1.4,1.135,1.881,2.536,1.072a5.261,5.261,0,0,0,2.536-4c0-1.4-1.136-1.881-2.536-1.072a5.26,5.26,0,0,0-2.536,4" transform="translate(-1027.663 -276.875)" fill="#dbdbdb"/>
      <path id="Path_2426" data-name="Path 2426" d="M1312.759,453.286c0,1.4,1.135,1.881,2.536,1.072a5.259,5.259,0,0,0,2.536-4c0-1.4-1.136-1.881-2.536-1.072a5.26,5.26,0,0,0-2.536,4" transform="translate(-946.59 -323.682)" fill="#dbdbdb"/>
      <path id="Path_2427" data-name="Path 2427" d="M1350.238,431.648c0,1.4,1.135,1.881,2.536,1.072a5.26,5.26,0,0,0,2.536-4c0-1.4-1.136-1.881-2.536-1.072a5.26,5.26,0,0,0-2.536,4" transform="translate(-973.615 -308.08)" fill="#dbdbdb"/>
      <path id="Path_2428" data-name="Path 2428" d="M1387.716,410.01c0,1.4,1.135,1.881,2.536,1.072a5.26,5.26,0,0,0,2.536-4c0-1.4-1.135-1.881-2.536-1.072a5.259,5.259,0,0,0-2.536,4" transform="translate(-1000.639 -292.477)" fill="#dbdbdb"/>
      <path id="Path_2429" data-name="Path 2429" d="M1275.281,595c0,1.4,1.136,1.881,2.536,1.072a5.26,5.26,0,0,0,2.536-4c0-1.4-1.135-1.88-2.536-1.072a5.26,5.26,0,0,0-2.536,4" transform="translate(-919.566 -425.866)" fill="#dbdbdb"/>
      <path id="Path_2430" data-name="Path 2430" d="M1425.194,508.445c0,1.4,1.135,1.881,2.536,1.072a5.261,5.261,0,0,0,2.536-4c0-1.4-1.136-1.881-2.536-1.072a5.26,5.26,0,0,0-2.536,4" transform="translate(-1027.663 -363.455)" fill="#dbdbdb"/>
      <path id="Path_2431" data-name="Path 2431" d="M1312.759,573.36c0,1.4,1.135,1.88,2.536,1.072a5.26,5.26,0,0,0,2.536-4c0-1.4-1.136-1.881-2.536-1.072a5.26,5.26,0,0,0-2.536,4" transform="translate(-946.59 -410.264)" fill="#dbdbdb"/>
      <path id="Path_2432" data-name="Path 2432" d="M1350.238,551.722c0,1.4,1.135,1.88,2.536,1.072a5.26,5.26,0,0,0,2.536-4c0-1.4-1.136-1.881-2.536-1.072a5.259,5.259,0,0,0-2.536,4" transform="translate(-973.615 -394.661)" fill="#dbdbdb"/>
      <path id="Path_2433" data-name="Path 2433" d="M1387.716,530.084c0,1.4,1.135,1.881,2.536,1.072a5.26,5.26,0,0,0,2.536-4c0-1.4-1.135-1.881-2.536-1.072a5.259,5.259,0,0,0-2.536,4" transform="translate(-1000.639 -379.059)" fill="#dbdbdb"/>
      <path id="Path_2434" data-name="Path 2434" d="M1275.281,715.258c0,1.4,1.136,1.881,2.536,1.072a5.26,5.26,0,0,0,2.536-4c0-1.4-1.135-1.88-2.536-1.072a5.261,5.261,0,0,0-2.536,4" transform="translate(-919.566 -512.583)" fill="#dbdbdb"/>
      <path id="Path_2435" data-name="Path 2435" d="M1425.194,628.707c0,1.4,1.135,1.88,2.536,1.072a5.261,5.261,0,0,0,2.536-4c0-1.4-1.136-1.881-2.536-1.072a5.26,5.26,0,0,0-2.536,4" transform="translate(-1027.663 -450.173)" fill="#dbdbdb"/>
      <path id="Path_2436" data-name="Path 2436" d="M1312.759,693.621c0,1.4,1.135,1.88,2.536,1.072a5.261,5.261,0,0,0,2.536-4c0-1.4-1.136-1.881-2.536-1.072a5.26,5.26,0,0,0-2.536,4" transform="translate(-946.59 -496.98)" fill="#dbdbdb"/>
      <path id="Path_2437" data-name="Path 2437" d="M1350.238,671.983c0,1.4,1.135,1.881,2.536,1.072a5.26,5.26,0,0,0,2.536-4c0-1.4-1.136-1.88-2.536-1.072a5.259,5.259,0,0,0-2.536,4" transform="translate(-973.615 -481.378)" fill="#dbdbdb"/>
      <path id="Path_2438" data-name="Path 2438" d="M1387.716,650.345c0,1.4,1.135,1.881,2.536,1.072a5.26,5.26,0,0,0,2.536-4c0-1.4-1.135-1.881-2.536-1.072a5.259,5.259,0,0,0-2.536,4" transform="translate(-1000.639 -465.775)" fill="#dbdbdb"/>
      <path id="Path_2439" data-name="Path 2439" d="M1275.281,835.521c0,1.4,1.136,1.88,2.536,1.072a5.26,5.26,0,0,0,2.536-4c0-1.4-1.135-1.881-2.536-1.072a5.261,5.261,0,0,0-2.536,4" transform="translate(-919.566 -599.3)" fill="#dbdbdb"/>
      <path id="Path_2440" data-name="Path 2440" d="M1425.194,748.968c0,1.4,1.135,1.881,2.536,1.072a5.261,5.261,0,0,0,2.536-4c0-1.4-1.136-1.88-2.536-1.072a5.26,5.26,0,0,0-2.536,4" transform="translate(-1027.663 -536.889)" fill="#dbdbdb"/>
      <path id="Path_2441" data-name="Path 2441" d="M1312.759,813.883c0,1.4,1.135,1.88,2.536,1.072a5.26,5.26,0,0,0,2.536-4c0-1.4-1.136-1.881-2.536-1.072a5.26,5.26,0,0,0-2.536,4" transform="translate(-946.59 -583.698)" fill="#dbdbdb"/>
      <path id="Path_2442" data-name="Path 2442" d="M1350.238,792.244c0,1.4,1.135,1.881,2.536,1.072a5.26,5.26,0,0,0,2.536-4c0-1.4-1.136-1.88-2.536-1.072a5.259,5.259,0,0,0-2.536,4" transform="translate(-973.615 -568.095)" fill="#dbdbdb"/>
      <path id="Path_2443" data-name="Path 2443" d="M1387.716,770.606c0,1.4,1.135,1.881,2.536,1.072a5.26,5.26,0,0,0,2.536-4c0-1.4-1.135-1.88-2.536-1.072a5.259,5.259,0,0,0-2.536,4" transform="translate(-1000.639 -552.492)" fill="#dbdbdb"/>
      <path id="Path_2444" data-name="Path 2444" d="M1232.665,1482.341l-69.993,40.366-69.678-40.6,70.469-41.041Z" transform="translate(-788.125 -1039.105)" fill="#fff"/>
      <path id="Path_2445" data-name="Path 2445" d="M1160.286,1521.245a.923.923,0,0,1-.465-.125l-69.678-40.6a.923.923,0,0,1,0-1.6l70.469-41.042a.926.926,0,0,1,.938,0l69.2,41.278a.923.923,0,0,1-.012,1.593l-69.993,40.367a.923.923,0,0,1-.461.123m-67.844-41.526,67.847,39.536,68.166-39.313-67.383-40.193Z" transform="translate(-785.738 -1036.72)"/>
      <path id="Path_2446" data-name="Path 2446" d="M1342.846,1651.234v-22.45l70.012-40.142v21.29Z" transform="translate(-968.285 -1145.52)" fill="#c1c1c1"/>
      <path id="Path_2447" data-name="Path 2447" d="M1340.46,1649.771a.923.923,0,0,1-.923-.923V1626.4a.923.923,0,0,1,.464-.8l70.011-40.142a.923.923,0,0,1,1.382.8v21.291a.921.921,0,0,1-.454.8l-70.011,41.3a.921.921,0,0,1-.469.128m.923-22.837v20.3l68.165-40.212v-19.17Z" transform="translate(-965.899 -1143.134)"/>
      <path id="Path_2448" data-name="Path 2448" d="M1163.428,1650.544v-22.45l-69.4-40.409v21.757Z" transform="translate(-788.866 -1144.831)" fill="#dbdbdb"/>
      <path id="Path_2449" data-name="Path 2449" d="M1161.042,1649.082a.929.929,0,0,1-.471-.129l-69.4-41.1a.923.923,0,0,1-.453-.794V1585.3a.923.923,0,0,1,1.388-.8l69.4,40.409a.923.923,0,0,1,.459.8v22.449a.924.924,0,0,1-.923.923m-68.481-42.551,67.558,40.008v-20.3l-67.558-39.334Z" transform="translate(-786.48 -1142.445)"/>
      <path id="Path_2450" data-name="Path 2450" d="M1232.665,1362.079l-69.993,40.366-69.678-40.6,70.469-41.041Z" transform="translate(-788.125 -952.388)" fill="#fff"/>
      <path id="Path_2451" data-name="Path 2451" d="M1160.286,1400.983a.922.922,0,0,1-.465-.126l-69.678-40.6a.923.923,0,0,1,0-1.595l70.469-41.042a.924.924,0,0,1,.938,0l69.2,41.278a.923.923,0,0,1-.012,1.593l-69.993,40.367a.922.922,0,0,1-.461.123m-67.844-41.527,67.847,39.536,68.166-39.313-67.383-40.193Z" transform="translate(-785.738 -950.002)"/>
      <path id="Path_2452" data-name="Path 2452" d="M1342.846,1530.972v-22.45l70.012-40.142v21.29Z" transform="translate(-968.285 -1058.803)" fill="#c1c1c1"/>
      <path id="Path_2453" data-name="Path 2453" d="M1340.46,1529.51a.922.922,0,0,1-.923-.923v-22.449a.923.923,0,0,1,.464-.8l70.011-40.143a.923.923,0,0,1,1.382.8v21.291a.922.922,0,0,1-.454.8l-70.011,41.3a.919.919,0,0,1-.469.128m.923-22.837v20.3l68.165-40.212v-19.17Z" transform="translate(-965.899 -1056.418)"/>
      <path id="Path_2454" data-name="Path 2454" d="M1163.428,1530.283v-22.45l-69.4-40.408v21.757Z" transform="translate(-788.866 -1058.114)" fill="#dbdbdb"/>
      <path id="Path_2455" data-name="Path 2455" d="M1161.042,1528.82a.928.928,0,0,1-.471-.129l-69.4-41.1a.924.924,0,0,1-.453-.795v-21.757a.923.923,0,0,1,1.388-.8l69.4,40.409a.923.923,0,0,1,.459.8V1527.9a.923.923,0,0,1-.923.923m-68.481-42.551,67.558,40.008v-20.3l-67.558-39.334Z" transform="translate(-786.48 -1055.728)"/>
      <path id="Path_2456" data-name="Path 2456" d="M1232.665,1241.818l-69.993,40.366-69.678-40.6,70.469-41.041Z" transform="translate(-788.125 -865.672)" fill="#fff"/>
      <path id="Path_2457" data-name="Path 2457" d="M1160.286,1280.721a.924.924,0,0,1-.465-.125l-69.678-40.6a.923.923,0,0,1,0-1.595l70.469-41.042a.925.925,0,0,1,.938,0l69.2,41.278a.923.923,0,0,1-.012,1.593l-69.993,40.366a.924.924,0,0,1-.461.123m-67.844-41.526,67.847,39.536,68.166-39.312-67.383-40.194Z" transform="translate(-785.738 -863.286)"/>
      <path id="Path_2458" data-name="Path 2458" d="M1342.846,1410.711v-22.45l70.012-40.142v21.29Z" transform="translate(-968.285 -972.087)" fill="#c1c1c1"/>
      <path id="Path_2459" data-name="Path 2459" d="M1340.46,1409.248a.922.922,0,0,1-.923-.923v-22.449a.923.923,0,0,1,.464-.8l70.011-40.142a.923.923,0,0,1,1.382.8v21.29a.922.922,0,0,1-.454.8l-70.011,41.3a.92.92,0,0,1-.469.128m.923-22.837v20.3l68.165-40.212v-19.17Z" transform="translate(-965.899 -969.7)"/>
      <path id="Path_2460" data-name="Path 2460" d="M1163.428,1410.022v-22.45l-69.4-40.409v21.758Z" transform="translate(-788.866 -971.397)" fill="#dbdbdb"/>
      <path id="Path_2461" data-name="Path 2461" d="M1161.042,1408.559a.93.93,0,0,1-.471-.129l-69.4-41.1a.923.923,0,0,1-.453-.794v-21.757a.923.923,0,0,1,1.388-.8l69.4,40.409a.924.924,0,0,1,.459.8v22.449a.924.924,0,0,1-.923.923m-68.481-42.551,67.558,40.008v-20.3l-67.558-39.334Z" transform="translate(-786.48 -969.011)"/>
      <path id="Path_2462" data-name="Path 2462" d="M1232.665,1121.557l-69.993,40.366-69.678-40.6,70.469-41.041Z" transform="translate(-788.125 -778.955)" fill="#fff"/>
      <path id="Path_2463" data-name="Path 2463" d="M1160.286,1160.46a.925.925,0,0,1-.465-.125l-69.678-40.6a.923.923,0,0,1,0-1.6l70.469-41.042a.924.924,0,0,1,.938,0l69.2,41.278a.923.923,0,0,1-.012,1.593l-69.993,40.366a.921.921,0,0,1-.461.123m-67.844-41.526,67.847,39.536,68.166-39.312-67.383-40.193Z" transform="translate(-785.738 -776.569)"/>
      <path id="Path_2464" data-name="Path 2464" d="M1342.846,1290.45V1268l70.012-40.142v21.29Z" transform="translate(-968.285 -885.37)" fill="#c1c1c1"/>
      <path id="Path_2465" data-name="Path 2465" d="M1340.46,1288.987a.923.923,0,0,1-.923-.923v-22.45a.924.924,0,0,1,.464-.8l70.011-40.142a.923.923,0,0,1,1.382.8v21.291a.922.922,0,0,1-.454.8l-70.011,41.3a.92.92,0,0,1-.469.128m.923-22.838v20.3l68.165-40.212v-19.17Z" transform="translate(-965.899 -882.984)"/>
      <path id="Path_2466" data-name="Path 2466" d="M1163.428,1289.76v-22.45l-69.4-40.409v21.757Z" transform="translate(-788.866 -884.681)" fill="#dbdbdb"/>
      <path id="Path_2467" data-name="Path 2467" d="M1161.042,1288.3a.928.928,0,0,1-.471-.129l-69.4-41.1a.924.924,0,0,1-.453-.794v-21.757a.923.923,0,0,1,1.388-.8l69.4,40.409a.923.923,0,0,1,.459.8v22.45a.924.924,0,0,1-.923.923m-68.481-42.551,67.558,40.008v-20.3l-67.558-39.333Z" transform="translate(-786.48 -882.295)"/>
      <path id="Path_2468" data-name="Path 2468" d="M1281.693,1373.765c0,1.4-1.135,1.88-2.536,1.072a5.259,5.259,0,0,1-2.536-4c0-1.4,1.135-1.881,2.536-1.072a5.259,5.259,0,0,1,2.536,4" transform="translate(-920.532 -987.412)" fill="#c1c1c1"/>
      <path id="Path_2469" data-name="Path 2469" d="M1131.779,1287.213c0,1.4-1.136,1.881-2.536,1.072a5.26,5.26,0,0,1-2.536-4c0-1.4,1.135-1.88,2.536-1.072a5.26,5.26,0,0,1,2.536,4" transform="translate(-812.434 -925.002)" fill="#c1c1c1"/>
      <path id="Path_2470" data-name="Path 2470" d="M1244.215,1352.128c0,1.4-1.135,1.88-2.536,1.072a5.26,5.26,0,0,1-2.536-4c0-1.4,1.135-1.881,2.536-1.072a5.259,5.259,0,0,1,2.536,4" transform="translate(-893.508 -971.809)" fill="#c1c1c1"/>
      <path id="Path_2471" data-name="Path 2471" d="M1206.735,1330.49c0,1.4-1.136,1.881-2.536,1.072a5.26,5.26,0,0,1-2.536-4c0-1.4,1.135-1.881,2.536-1.072a5.26,5.26,0,0,1,2.536,4" transform="translate(-866.482 -956.207)" fill="#c1c1c1"/>
      <path id="Path_2472" data-name="Path 2472" d="M1169.258,1308.851c0,1.4-1.135,1.88-2.536,1.072a5.26,5.26,0,0,1-2.536-4c0-1.4,1.135-1.881,2.536-1.072a5.26,5.26,0,0,1,2.536,4" transform="translate(-839.458 -940.604)" fill="#c1c1c1"/>
      <path id="Path_2473" data-name="Path 2473" d="M1281.693,1493.839c0,1.4-1.135,1.88-2.536,1.072a5.259,5.259,0,0,1-2.536-4c0-1.4,1.135-1.881,2.536-1.072a5.26,5.26,0,0,1,2.536,4" transform="translate(-920.532 -1073.993)" fill="#c1c1c1"/>
      <path id="Path_2474" data-name="Path 2474" d="M1131.779,1407.286c0,1.4-1.136,1.881-2.536,1.072a5.26,5.26,0,0,1-2.536-4c0-1.4,1.135-1.88,2.536-1.072a5.26,5.26,0,0,1,2.536,4" transform="translate(-812.434 -1011.583)" fill="#c1c1c1"/>
      <path id="Path_2475" data-name="Path 2475" d="M1244.215,1472.2c0,1.4-1.135,1.88-2.536,1.072a5.26,5.26,0,0,1-2.536-4c0-1.4,1.135-1.88,2.536-1.072a5.259,5.259,0,0,1,2.536,4" transform="translate(-893.508 -1058.39)" fill="#c1c1c1"/>
      <path id="Path_2476" data-name="Path 2476" d="M1206.735,1450.562c0,1.4-1.136,1.881-2.536,1.072a5.259,5.259,0,0,1-2.536-4c0-1.4,1.135-1.881,2.536-1.072a5.26,5.26,0,0,1,2.536,4" transform="translate(-866.482 -1042.787)" fill="#c1c1c1"/>
      <path id="Path_2477" data-name="Path 2477" d="M1169.258,1428.924c0,1.4-1.135,1.88-2.536,1.072a5.26,5.26,0,0,1-2.536-4c0-1.4,1.135-1.88,2.536-1.072a5.26,5.26,0,0,1,2.536,4" transform="translate(-839.458 -1027.185)" fill="#c1c1c1"/>
      <path id="Path_2478" data-name="Path 2478" d="M1281.693,1614.1c0,1.4-1.135,1.881-2.536,1.072a5.26,5.26,0,0,1-2.536-4c0-1.4,1.135-1.88,2.536-1.072a5.259,5.259,0,0,1,2.536,4" transform="translate(-920.532 -1160.71)" fill="#c1c1c1"/>
      <path id="Path_2479" data-name="Path 2479" d="M1131.779,1527.547c0,1.4-1.136,1.881-2.536,1.072a5.26,5.26,0,0,1-2.536-4c0-1.4,1.135-1.88,2.536-1.072a5.26,5.26,0,0,1,2.536,4" transform="translate(-812.434 -1098.299)" fill="#c1c1c1"/>
      <path id="Path_2480" data-name="Path 2480" d="M1244.215,1592.463c0,1.4-1.135,1.881-2.536,1.072a5.26,5.26,0,0,1-2.536-4c0-1.4,1.135-1.88,2.536-1.072a5.259,5.259,0,0,1,2.536,4" transform="translate(-893.508 -1145.108)" fill="#c1c1c1"/>
      <path id="Path_2481" data-name="Path 2481" d="M1206.735,1570.824c0,1.4-1.136,1.881-2.536,1.072a5.26,5.26,0,0,1-2.536-4c0-1.4,1.135-1.88,2.536-1.072a5.26,5.26,0,0,1,2.536,4" transform="translate(-866.482 -1129.505)" fill="#c1c1c1"/>
      <path id="Path_2482" data-name="Path 2482" d="M1169.258,1549.186c0,1.4-1.135,1.88-2.536,1.072a5.26,5.26,0,0,1-2.536-4c0-1.4,1.135-1.881,2.536-1.072a5.259,5.259,0,0,1,2.536,4" transform="translate(-839.458 -1113.902)" fill="#c1c1c1"/>
      <path id="Path_2483" data-name="Path 2483" d="M1281.693,1734.361c0,1.4-1.135,1.881-2.536,1.072a5.26,5.26,0,0,1-2.536-4c0-1.4,1.135-1.88,2.536-1.072a5.259,5.259,0,0,1,2.536,4" transform="translate(-920.532 -1247.426)" fill="#c1c1c1"/>
      <path id="Path_2484" data-name="Path 2484" d="M1131.779,1647.809c0,1.4-1.136,1.881-2.536,1.072a5.26,5.26,0,0,1-2.536-4c0-1.4,1.135-1.881,2.536-1.072a5.26,5.26,0,0,1,2.536,4" transform="translate(-812.434 -1185.016)" fill="#c1c1c1"/>
      <path id="Path_2485" data-name="Path 2485" d="M1244.215,1712.723c0,1.4-1.135,1.881-2.536,1.072a5.26,5.26,0,0,1-2.536-4c0-1.4,1.135-1.88,2.536-1.072a5.259,5.259,0,0,1,2.536,4" transform="translate(-893.508 -1231.824)" fill="#c1c1c1"/>
      <path id="Path_2486" data-name="Path 2486" d="M1206.735,1691.086c0,1.4-1.136,1.88-2.536,1.072a5.26,5.26,0,0,1-2.536-4c0-1.4,1.135-1.88,2.536-1.072a5.261,5.261,0,0,1,2.536,4" transform="translate(-866.482 -1216.221)" fill="#c1c1c1"/>
      <path id="Path_2487" data-name="Path 2487" d="M1169.258,1669.448c0,1.4-1.135,1.881-2.536,1.072a5.26,5.26,0,0,1-2.536-4c0-1.4,1.135-1.881,2.536-1.072a5.26,5.26,0,0,1,2.536,4" transform="translate(-839.458 -1200.619)" fill="#c1c1c1"/>
      <path id="Path_2488" data-name="Path 2488" d="M1391.607,1373.765c0,1.4,1.135,1.88,2.536,1.072a5.259,5.259,0,0,0,2.536-4c0-1.4-1.135-1.881-2.536-1.072a5.26,5.26,0,0,0-2.536,4" transform="translate(-1003.445 -987.412)" fill="#dbdbdb"/>
      <path id="Path_2489" data-name="Path 2489" d="M1541.52,1287.213c0,1.4,1.135,1.881,2.536,1.072a5.26,5.26,0,0,0,2.536-4c0-1.4-1.135-1.88-2.536-1.072a5.259,5.259,0,0,0-2.536,4" transform="translate(-1111.542 -925.002)" fill="#dbdbdb"/>
      <path id="Path_2490" data-name="Path 2490" d="M1429.085,1352.128c0,1.4,1.135,1.88,2.536,1.072a5.259,5.259,0,0,0,2.536-4c0-1.4-1.135-1.881-2.536-1.072a5.26,5.26,0,0,0-2.536,4" transform="translate(-1030.469 -971.809)" fill="#dbdbdb"/>
      <path id="Path_2491" data-name="Path 2491" d="M1466.563,1330.49c0,1.4,1.136,1.881,2.536,1.072a5.26,5.26,0,0,0,2.536-4c0-1.4-1.136-1.881-2.536-1.072a5.26,5.26,0,0,0-2.536,4" transform="translate(-1057.493 -956.207)" fill="#dbdbdb"/>
      <path id="Path_2492" data-name="Path 2492" d="M1504.042,1308.851c0,1.4,1.135,1.88,2.536,1.072a5.26,5.26,0,0,0,2.536-4c0-1.4-1.135-1.881-2.536-1.072a5.26,5.26,0,0,0-2.536,4" transform="translate(-1084.518 -940.604)" fill="#dbdbdb"/>
      <path id="Path_2493" data-name="Path 2493" d="M1391.607,1493.839c0,1.4,1.135,1.88,2.536,1.072a5.259,5.259,0,0,0,2.536-4c0-1.4-1.135-1.881-2.536-1.072a5.261,5.261,0,0,0-2.536,4" transform="translate(-1003.445 -1073.993)" fill="#dbdbdb"/>
      <path id="Path_2494" data-name="Path 2494" d="M1541.52,1407.286c0,1.4,1.135,1.881,2.536,1.072a5.26,5.26,0,0,0,2.536-4c0-1.4-1.135-1.88-2.536-1.072a5.259,5.259,0,0,0-2.536,4" transform="translate(-1111.542 -1011.583)" fill="#dbdbdb"/>
      <path id="Path_2495" data-name="Path 2495" d="M1429.085,1472.2c0,1.4,1.135,1.88,2.536,1.072a5.26,5.26,0,0,0,2.536-4c0-1.4-1.135-1.88-2.536-1.072a5.26,5.26,0,0,0-2.536,4" transform="translate(-1030.469 -1058.39)" fill="#dbdbdb"/>
      <path id="Path_2496" data-name="Path 2496" d="M1466.563,1450.562c0,1.4,1.136,1.881,2.536,1.072a5.26,5.26,0,0,0,2.536-4c0-1.4-1.136-1.881-2.536-1.072a5.26,5.26,0,0,0-2.536,4" transform="translate(-1057.493 -1042.787)" fill="#dbdbdb"/>
      <path id="Path_2497" data-name="Path 2497" d="M1504.042,1428.924c0,1.4,1.135,1.88,2.536,1.072a5.26,5.26,0,0,0,2.536-4c0-1.4-1.135-1.88-2.536-1.072a5.26,5.26,0,0,0-2.536,4" transform="translate(-1084.518 -1027.185)" fill="#dbdbdb"/>
      <path id="Path_2498" data-name="Path 2498" d="M1391.607,1614.1c0,1.4,1.135,1.881,2.536,1.072a5.26,5.26,0,0,0,2.536-4c0-1.4-1.135-1.88-2.536-1.072a5.26,5.26,0,0,0-2.536,4" transform="translate(-1003.445 -1160.71)" fill="#dbdbdb"/>
      <path id="Path_2499" data-name="Path 2499" d="M1541.52,1527.547c0,1.4,1.135,1.881,2.536,1.072a5.259,5.259,0,0,0,2.536-4c0-1.4-1.135-1.88-2.536-1.072a5.259,5.259,0,0,0-2.536,4" transform="translate(-1111.542 -1098.299)" fill="#dbdbdb"/>
      <path id="Path_2500" data-name="Path 2500" d="M1429.085,1592.463c0,1.4,1.135,1.881,2.536,1.072a5.26,5.26,0,0,0,2.536-4c0-1.4-1.135-1.88-2.536-1.072a5.26,5.26,0,0,0-2.536,4" transform="translate(-1030.469 -1145.108)" fill="#dbdbdb"/>
      <path id="Path_2501" data-name="Path 2501" d="M1466.563,1570.824c0,1.4,1.136,1.881,2.536,1.072a5.26,5.26,0,0,0,2.536-4c0-1.4-1.136-1.88-2.536-1.072a5.26,5.26,0,0,0-2.536,4" transform="translate(-1057.493 -1129.505)" fill="#dbdbdb"/>
      <path id="Path_2502" data-name="Path 2502" d="M1504.042,1549.186c0,1.4,1.135,1.88,2.536,1.072a5.26,5.26,0,0,0,2.536-4c0-1.4-1.135-1.881-2.536-1.072a5.259,5.259,0,0,0-2.536,4" transform="translate(-1084.518 -1113.902)" fill="#dbdbdb"/>
      <path id="Path_2503" data-name="Path 2503" d="M1391.607,1734.361c0,1.4,1.135,1.881,2.536,1.072a5.26,5.26,0,0,0,2.536-4c0-1.4-1.135-1.88-2.536-1.072a5.26,5.26,0,0,0-2.536,4" transform="translate(-1003.445 -1247.426)" fill="#dbdbdb"/>
      <path id="Path_2504" data-name="Path 2504" d="M1541.52,1647.809c0,1.4,1.135,1.881,2.536,1.072a5.26,5.26,0,0,0,2.536-4c0-1.4-1.135-1.881-2.536-1.072a5.259,5.259,0,0,0-2.536,4" transform="translate(-1111.542 -1185.016)" fill="#dbdbdb"/>
      <path id="Path_2505" data-name="Path 2505" d="M1429.085,1712.723c0,1.4,1.135,1.881,2.536,1.072a5.26,5.26,0,0,0,2.536-4c0-1.4-1.135-1.88-2.536-1.072a5.26,5.26,0,0,0-2.536,4" transform="translate(-1030.469 -1231.824)" fill="#dbdbdb"/>
      <path id="Path_2506" data-name="Path 2506" d="M1466.563,1691.086c0,1.4,1.136,1.88,2.536,1.072a5.26,5.26,0,0,0,2.536-4c0-1.4-1.136-1.88-2.536-1.072a5.261,5.261,0,0,0-2.536,4" transform="translate(-1057.493 -1216.221)" fill="#dbdbdb"/>
      <path id="Path_2507" data-name="Path 2507" d="M1504.042,1669.448c0,1.4,1.135,1.881,2.536,1.072a5.26,5.26,0,0,0,2.536-4c0-1.4-1.135-1.881-2.536-1.072a5.26,5.26,0,0,0-2.536,4" transform="translate(-1084.518 -1200.619)" fill="#dbdbdb"/>
      <path id="Path_2508" data-name="Path 2508" d="M1276.206,1203.972l19.659-11.424.185.107-19.659,11.425Z" transform="translate(-920.233 -859.908)" fill="#07d6f2"/>
      <path id="Path_2509" data-name="Path 2509" d="M1208.27,1028.827l19.659-11.424c-3.692,2.146-5.984,6.7-6.013,13.178l-19.659,11.424c.028-6.476,2.32-11.033,6.012-13.178" transform="translate(-866.911 -733.617)" fill="#01faa8"/>
      <path id="Path_2510" data-name="Path 2510" d="M1310.532,1193.985l-19.659,11.424c-3.666,2.13-8.712,1.883-14.291-1.225-.125-.069-.25-.141-.375-.213l19.659-11.424c.125.072.251.144.375.213,5.58,3.108,10.626,3.356,14.292,1.225" transform="translate(-920.233 -859.908)" fill="#0037ff"/>
      <path id="Path_2511" data-name="Path 2511" d="M1354.187,1150.148c-.02,6.489-2.309,11.057-6,13.209l-19.659,11.425c3.693-2.153,5.982-6.72,6-13.209l19.659-11.424" transform="translate(-957.96 -829.336)" fill="#07d6f2"/>
      <path id="Path_2512" data-name="Path 2512" d="M1223.842,1025.247l19.659-11.424c3.747-2.178,8.934-1.868,14.658,1.437l-19.659,11.424c-5.724-3.305-10.911-3.614-14.658-1.437" transform="translate(-882.475 -730.034)" fill="#07d6f2"/>
      <path id="Path_2513" data-name="Path 2513" d="M1276.394,1033.992l19.659-11.424,16.566,9.564-19.659,11.424Z" transform="translate(-920.368 -737.342)" fill="#07d6f2"/>
      <path id="Path_2514" data-name="Path 2514" d="M1350.1,1078.285l19.659-11.424-.061,23.231-19.659,11.424Z" transform="translate(-973.474 -769.28)" fill="#07d6f2"/>
      <path id="Path_2515" data-name="Path 2515" d="M1239.5,1065.782a31.7,31.7,0,0,1,4.038,2.791l-.061,23.231c-.038,12.9-9.05,18.207-20.22,12.039-.125-.069-.25-.141-.375-.213l.185.107-.272-.155c-11.383-6.574-20.577-22.506-20.539-35.585.058-13.089,9.307-18.345,20.679-11.779Z" transform="translate(-866.91 -759.567)" fill="#31d3f5"/>
      <path id="Path_2516" data-name="Path 2516" d="M1230.249,1105.289a19.149,19.149,0,0,1-9.13-2.661l-.195-.109h0l-.28-.159c-11.555-6.674-20.926-22.909-20.888-36.191.029-6.569,2.307-11.485,6.413-13.844,4.13-2.372,9.568-1.853,15.311,1.463l16.566,9.564a32.443,32.443,0,0,1,4.127,2.852l.26.21-.062,23.566c-.019,6.509-2.26,11.406-6.311,13.789a11.315,11.315,0,0,1-5.813,1.52m-8.779-4.065c.108.063.217.124.325.184,5.164,2.852,9.981,3.263,13.559,1.158,3.609-2.123,5.606-6.594,5.624-12.59l.06-22.895a30.7,30.7,0,0,0-3.688-2.521L1220.784,1055c-5.294-3.057-10.238-3.576-13.919-1.461-3.658,2.1-5.687,6.59-5.714,12.64-.037,12.835,9.02,28.527,20.191,34.978l.087.05h0Z" transform="translate(-865.107 -757.742)"/>
      <path id="Path_2517" data-name="Path 2517" d="M1335.784,1068.281l19.659-11.424a31.651,31.651,0,0,1,4.038,2.79l-19.659,11.425a31.673,31.673,0,0,0-4.038-2.79" transform="translate(-963.193 -762.066)" fill="#07d6f2"/>
      <path id="Path_2518" data-name="Path 2518" d="M1202.787,889.432l19.659-11.424,20.612,11.9L1223.4,901.333Z" transform="translate(-867.292 -633.104)" fill="#dbdbdb"/>
      <path id="Path_2519" data-name="Path 2519" d="M1221.6,900.227a.7.7,0,0,1-.349-.093l-20.612-11.9a.7.7,0,0,1,0-1.207l19.659-11.424a.7.7,0,0,1,.7,0l20.612,11.9a.7.7,0,0,1,0,1.207l-19.659,11.425a.694.694,0,0,1-.35.095m-19.221-12.6,19.219,11.1,18.269-10.617-19.219-11.1Z" transform="translate(-865.49 -631.301)"/>
      <path id="Path_2520" data-name="Path 2520" d="M1296.951,1108.055c11.312,6.531,20.417,22.3,20.38,35.25s-9.2,18.173-20.47,11.667l-20.47-11.818-.185-.106c.125.072.251.143.375.213,11.211,6.245,20.267.942,20.3-12Z" transform="translate(-920.233 -798.984)" fill="#0037ff"/>
      <path id="Path_2521" data-name="Path 2521" d="M1305.113,1155.36a19.316,19.316,0,0,1-9.5-2.9l-20.614-11.9-.041-.024.7-1.207h0l0,0,.032.018c.11.064.221.126.33.187,5.191,2.892,10.031,3.323,13.629,1.216,3.619-2.12,5.621-6.6,5.638-12.6l.069-24.414,1.043.6c11.467,6.62,20.766,22.7,20.729,35.855-.018,6.5-2.269,11.371-6.338,13.712a11.229,11.229,0,0,1-5.674,1.458m-22.539-12.037,13.732,7.928c5.245,3.028,10.141,3.54,13.785,1.442,3.619-2.083,5.622-6.525,5.639-12.508.035-12.3-8.392-27.268-18.989-34.011l-.062,21.975c-.018,6.521-2.266,11.424-6.328,13.8a11.872,11.872,0,0,1-7.777,1.37" transform="translate(-919.329 -795.866)"/>
      <path id="Path_2522" data-name="Path 2522" d="M1384.665,1115.436l-19.659,11.424c3.663-2.129,5.934-6.655,5.952-13.089.037-12.947-9.068-28.719-20.38-35.25l19.659-11.424c11.312,6.531,20.417,22.3,20.38,35.25-.018,6.434-2.29,10.96-5.953,13.089" transform="translate(-973.861 -769.45)" fill="#dbdbdb"/>
      <path id="Path_2523" data-name="Path 2523" d="M1363.2,1125.755a.7.7,0,0,1-.351-1.3l.006,0c3.594-2.092,5.583-6.525,5.6-12.485.036-12.7-8.95-28.246-20.031-34.644a.7.7,0,0,1,0-1.207l19.659-11.424a.7.7,0,0,1,.7,0c11.467,6.62,20.766,22.705,20.729,35.856-.018,6.478-2.255,11.34-6.3,13.69l-19.653,11.421-.006,0a.689.689,0,0,1-.35.095m-13.061-49.024c10.994,6.959,19.746,22.48,19.71,35.24a18.833,18.833,0,0,1-2.391,9.806l15.05-8.746c3.6-2.091,5.588-6.526,5.605-12.488.035-12.572-8.763-27.922-19.684-34.44Zm32.72,36.9h0Z" transform="translate(-972.058 -767.648)"/>
      <path id="Path_2524" data-name="Path 2524" d="M1223.017,930.866c11.383,6.572,20.58,22.5,20.543,35.584l-.015,5.191a31.912,31.912,0,0,0-4.038-2.79l-16.571-9.567c-11.373-6.566-20.622-1.307-20.679,11.742l.147-52.06Z" transform="translate(-866.911 -662.637)" fill="#01faa8"/>
      <path id="Path_2525" data-name="Path 2525" d="M1242.435,969.979l-1.131-.911a31.236,31.236,0,0,0-3.949-2.73l-16.571-9.567c-5.3-3.058-10.244-3.577-13.928-1.461-3.652,2.1-5.679,6.573-5.7,12.6l-1.395-.006v0l.151-53.261,21.654,12.5c11.557,6.672,20.929,22.907,20.892,36.19Zm-30.552-17.346a19.506,19.506,0,0,1,9.6,2.93l16.571,9.567a31.282,31.282,0,0,1,3,1.977l.011-3.776c.036-12.838-9.023-28.529-20.195-34.978l-19.569-11.3-.122,42.967a11.808,11.808,0,0,1,4.988-5.921,11.337,11.337,0,0,1,5.721-1.468" transform="translate(-865.108 -659.52)"/>
      <path id="Path_2526" data-name="Path 2526" d="M1296.342,920.671,1276.683,932.1c11.383,6.573,20.58,22.5,20.543,35.584l-.015,5.192,19.658-11.425.015-5.191c.037-13.081-9.159-29.012-20.543-35.584" transform="translate(-920.577 -663.867)" fill="#dbdbdb"/>
      <path id="Path_2527" data-name="Path 2527" d="M1295.408,971.766a.7.7,0,0,1-.7-.7l.015-5.192c.036-12.837-9.023-28.528-20.194-34.978a.7.7,0,0,1,0-1.207l19.659-11.425a.7.7,0,0,1,.7,0c11.558,6.673,20.93,22.907,20.892,36.19l-.015,5.191a.7.7,0,0,1-.347.6l-19.659,11.425a.7.7,0,0,1-.35.095m-19.161-41.461c11.085,7.013,19.91,22.683,19.874,35.574l-.011,3.976,18.262-10.613.014-4.791c.036-12.7-8.836-28.2-19.847-34.774Z" transform="translate(-918.774 -662.064)"/>
      <path id="Path_2528" data-name="Path 2528" d="M1231.419,339.031l9.83-5.712-.006.007-9.83,5.712Z" transform="translate(-887.934 -240.345)" fill="#dbdbdb"/>
      <path id="Path_2529" data-name="Path 2529" d="M1231.413,353.769v-.021l.006.014Z" transform="translate(-887.934 -255.077)" fill="#dbdbdb"/>
      <path id="Path_2530" data-name="Path 2530" d="M1231.5,256.413l9.829-5.712-.062,23.043-9.83,5.712Z" transform="translate(-887.952 -180.772)" fill="#fff"/>
      <path id="Path_2531" data-name="Path 2531" d="M1254,243.916l9.829-5.712-22.565,26.529-9.829,5.712Z" transform="translate(-887.952 -171.761)" fill="#dbdbdb"/>
      <path id="Path_2532" data-name="Path 2532" d="M1229.636,269.339a.7.7,0,0,1-.532-1.149l22.565-26.529a.693.693,0,0,1,.181-.151l9.829-5.712a.7.7,0,0,1,.882,1.055L1240,263.382a.7.7,0,0,1-.181.151l-9.83,5.712a.691.691,0,0,1-.35.095m23.019-26.683L1232.8,265.995l6.209-3.608,19.852-23.339Z" transform="translate(-886.149 -169.958)"/>
      <path id="Path_2533" data-name="Path 2533" d="M1231.413,338.982l9.83-5.712.006.014-9.83,5.712Z" transform="translate(-887.934 -240.31)" fill="#dbdbdb"/>
      <path id="Path_2534" data-name="Path 2534" d="M1151.349,150.991l9.829-5.712,22.4,29.406-9.83,5.712Z" transform="translate(-830.202 -104.755)" fill="#fff"/>
      <path id="Path_2535" data-name="Path 2535" d="M1171.948,179.29a.7.7,0,0,1-.555-.275l-22.4-29.406a.7.7,0,0,1,.2-1.025l9.83-5.712a.7.7,0,0,1,.9.18l22.4,29.405a.7.7,0,0,1-.2,1.025l-9.83,5.713a.694.694,0,0,1-.35.095m-21.369-29.9,21.55,28.287,8.615-5.006-21.55-28.287Z" transform="translate(-828.399 -102.952)"/>
      <path id="Path_2536" data-name="Path 2536" d="M1151.349,165.757l22.4,29.406-.062,23.043Z" transform="translate(-830.202 -119.522)" fill="#31d3f5"/>
      <path id="Path_2537" data-name="Path 2537" d="M1171.885,217.1a.7.7,0,0,1-.641-.424l-22.34-52.449a.7.7,0,0,1,1.2-.7l22.4,29.406a.7.7,0,0,1,.143.424l-.062,23.043a.7.7,0,0,1-.7.7m-19.509-48.28,18.821,44.187.052-19.414Z" transform="translate(-828.399 -117.719)"/>
      <path id="Path_2538" data-name="Path 2538" d="M1232.055,8.148l9.829-5.712-.092,34.474-9.829,5.712Z" transform="translate(-888.33 -1.756)" fill="#fff"/>
      <path id="Path_2539" data-name="Path 2539" d="M1151.433,130.4l9.829-5.712,22.462.377-9.829,5.712Z" transform="translate(-830.263 -89.911)" fill="#dbdbdb"/>
      <path id="Path_2540" data-name="Path 2540" d="M1231.762,131.757l9.83-5.712-.078,29.858-9.83,5.712Z" transform="translate(-888.129 -90.886)" fill="#dbdbdb"/>
      <path id="Path_2541" data-name="Path 2541" d="M1173.895,145.549l-.077,29.858-22.385-30.236Z" transform="translate(-830.262 -104.678)" fill="#31d3f5"/>
      <path id="Path_2542" data-name="Path 2542" d="M1172.015,174.3a.7.7,0,0,1-.561-.282l-22.384-30.236a.7.7,0,0,1-.06-.734.69.69,0,0,1,.632-.378l22.462.377a.7.7,0,0,1,.686.7l-.077,29.858a.7.7,0,0,1-.7.7m-20.983-30.212,20.291,27.408.07-27.066Z" transform="translate(-828.46 -102.874)"/>
      <path id="Path_2543" data-name="Path 2543" d="M1231.679,247.408l9.829-5.712,22.5-3.493-9.829,5.712Z" transform="translate(-888.126 -171.76)" fill="#dbdbdb"/>
      <path id="Path_2544" data-name="Path 2544" d="M1229.876,246.3a.7.7,0,0,1-.35-1.3l9.83-5.713a.692.692,0,0,1,.243-.086l22.5-3.493a.7.7,0,0,1,.458,1.292l-9.829,5.712a.692.692,0,0,1-.243.086l-22.5,3.492a.725.725,0,0,1-.108.008m10.067-5.741-6.516,3.786,18.711-2.9,6.516-3.786Z" transform="translate(-886.323 -169.959)"/>
      <path id="Path_2545" data-name="Path 2545" d="M1254,258.682l-22.565,26.529.067-23.037Z" transform="translate(-887.952 -186.527)" fill="#31d3f5"/>
      <path id="Path_2546" data-name="Path 2546" d="M1229.636,284.106a.7.7,0,0,1-.7-.7l.067-23.036a.7.7,0,0,1,.59-.687l22.5-3.492a.7.7,0,0,1,.638,1.141l-22.565,26.529a.7.7,0,0,1-.531.245m.763-23.136-.06,20.536,20.116-23.649Z" transform="translate(-886.15 -184.725)"/>
      <path id="Path_2547" data-name="Path 2547" d="M1232.351,8.211,1242.18,2.5l22.277,59.984-9.83,5.712Z" transform="translate(-888.61 -1.801)" fill="#dbdbdb"/>
      <path id="Path_2548" data-name="Path 2548" d="M1252.825,67.089a.707.707,0,0,1-.235-.041.7.7,0,0,1-.418-.414L1229.894,6.65a.7.7,0,0,1,.3-.846l9.83-5.712a.7.7,0,0,1,1,.36l22.277,59.984a.7.7,0,0,1-.3.845l-9.83,5.712a.694.694,0,0,1-.35.095M1231.406,6.715l21.785,58.657,8.605-5L1240.012,1.714Z" transform="translate(-886.807 0.002)"/>
      <path id="Path_2549" data-name="Path 2549" d="M1231.786,146.632l22.377,25.512-22.467,4.349Z" transform="translate(-888.138 -105.731)" fill="#31d3f5"/>
      <path id="Path_2550" data-name="Path 2550" d="M1229.894,175.387a.7.7,0,0,1-.7-.7l.09-29.861a.7.7,0,0,1,1.221-.458l22.377,25.512a.7.7,0,0,1-.392,1.144l-22.467,4.349a.691.691,0,0,1-.133.013m.782-28.712-.082,27.169,20.442-3.957Z" transform="translate(-886.336 -103.928)"/>
      <path id="Path_2551" data-name="Path 2551" d="M1174.02,22.915l-.092,34.474-22.45-.37Z" transform="translate(-830.295 -16.523)" fill="#31d3f5"/>
      <path id="Path_2552" data-name="Path 2552" d="M1172.125,56.284h-.012l-22.45-.37a.7.7,0,0,1-.57-1.082l22.542-34.1a.7.7,0,0,1,1.279.387l-.092,34.474a.7.7,0,0,1-.7.7m-21.167-1.744,20.472.338.084-31.436Z" transform="translate(-828.492 -14.72)"/>
      <path id="Path_2553" data-name="Path 2553" d="M1232.112,22.978l22.277,59.984L1232.02,57.474Z" transform="translate(-888.371 -16.568)" fill="#31d3f5"/>
      <path id="Path_2554" data-name="Path 2554" d="M1252.586,81.856a.7.7,0,0,1-.524-.237l-22.37-25.487a.7.7,0,0,1-.173-.462l.092-34.5a.7.7,0,0,1,1.351-.241l22.277,59.984a.7.7,0,0,1-.654.94M1230.914,55.41l19.7,22.448L1231,25.028Z" transform="translate(-886.568 -14.765)"/>
      <path id="Path_2555" data-name="Path 2555" d="M1628.723,1086.184l23.182,22.283c2.452,2.269,1.976,5.487-1.191,8l-8.091,6.419a1.44,1.44,0,0,1-1.293.188.4.4,0,0,1-.113-.748l8.091-6.42c2.674-2.122,3.075-4.838,1-6.76l-23.117-22.221a7.305,7.305,0,0,0,1.532-.742" transform="translate(-1173.317 -783.213)" fill="#c1c1c1"/>
      <path id="Path_2556" data-name="Path 2556" d="M1639.22,988.387c2.311.921,2.613,2.916.674,4.454a5.95,5.95,0,0,1-.794.528,7.9,7.9,0,0,1-1.609.668,8.478,8.478,0,0,1-5.294-.079c-2.31-.92-2.612-2.914-.673-4.453a8.571,8.571,0,0,1,7.694-1.118" transform="translate(-1175.521 -712.362)"/>
      <path id="Path_2557" data-name="Path 2557" d="M1608.652,1067.9c2.311.921,2.611,2.915.671,4.454q-.208.165-.439.314a7.3,7.3,0,0,1-1.531.742,8.591,8.591,0,0,1-5.724.062c-2.311-.921-2.611-2.915-.673-4.453a8.568,8.568,0,0,1,7.7-1.12" transform="translate(-1153.479 -769.694)" fill="#c1c1c1"/>
      <path id="Path_2558" data-name="Path 2558" d="M1657.828,1007.44l41.219,40.294c3.238,3.076,2.558,7.413-1.7,10.788l-22.773,18.069a1.441,1.441,0,0,1-1.293.188.4.4,0,0,1-.111-.747l22.773-18.069c3.766-2.988,4.367-6.828,1.494-9.555l-41.223-40.3a7.892,7.892,0,0,0,1.609-.668" transform="translate(-1194.249 -726.433)"/>
      <path id="Path_2559" data-name="Path 2559" d="M1678.4,923.863a10.562,10.562,0,0,1,3.8,2.452l.716.757,5.174,5.472c.171.183.114.42-.115.6a1.1,1.1,0,0,1-.285.16,1.456,1.456,0,0,1-1.008.027.628.628,0,0,1-.227-.147l-5.888-6.228a9.288,9.288,0,0,0-3.339-2.156,18.394,18.394,0,0,0-7.749-1.085,1.94,1.94,0,0,0,.054-1.083,20.942,20.942,0,0,1,8.871,1.229" transform="translate(-1203.805 -665.248)" fill="#c1c1c1"/>
      <path id="Path_2560" data-name="Path 2560" d="M1717.649,938.668l53.73,56.749c3.11,3.282,2.281,7.657-2.115,11.144l-37.536,29.782a1.437,1.437,0,0,1-1.292.187.4.4,0,0,1-.112-.746L1767.86,1006c3.921-3.111,4.661-7.013,1.886-9.942l-48.332-51.131a1.454,1.454,0,0,0,1.009-.027c.514-.342.571-.578.4-.761Z" transform="translate(-1238.544 -676.844)" fill="#c1c1c1"/>
      <path id="Path_2561" data-name="Path 2561" d="M1639.667,914.991a2.863,2.863,0,0,1,1.9,1.833,1.942,1.942,0,0,1-.054,1.083,3.4,3.4,0,0,1-1.171,1.538,8.569,8.569,0,0,1-7.694,1.118c-2.311-.921-2.611-2.915-.672-4.453a8.565,8.565,0,0,1,7.694-1.118" transform="translate(-1175.844 -659.438)" fill="#c1c1c1"/>
      <path id="Path_2562" data-name="Path 2562" d="M578.371,896.034a2.775,2.775,0,0,1,1.622,2.252c.01,1.758-2.444,3.184-5.479,3.184a7.926,7.926,0,0,1-3.892-.933A2.778,2.778,0,0,1,569,898.286c-.012-1.759,2.442-3.185,5.48-3.185q.225,0,.447.01l-2.366,3.618c-.133.2-.038.423.213.568a1.144,1.144,0,0,0,.324.121,1.517,1.517,0,0,0,.331.035,1.047,1.047,0,0,0,.861-.343l2.441-3.732a6.631,6.631,0,0,1,1.645.655" transform="translate(-410.287 -645.43)" fill="#c1c1c1"/>
      <path id="Path_2563" data-name="Path 2563" d="M525.956,859.421a2.779,2.779,0,0,1,1.623,2.252c.01,1.76-2.442,3.185-5.481,3.185a7.926,7.926,0,0,1-3.892-.933,2.778,2.778,0,0,1-1.623-2.251c-.008-1.759,2.444-3.185,5.481-3.185q.347,0,.684.024l-2.5,3.724c-.139.2-.044.429.209.575a1.133,1.133,0,0,0,.315.119,1.551,1.551,0,0,0,.339.036,1.055,1.055,0,0,0,.857-.339l2.558-3.8a6.481,6.481,0,0,1,1.433.6" transform="translate(-372.492 -619.029)"/>
      <path id="Path_2564" data-name="Path 2564" d="M662.073,844.712a.47.47,0,0,1,.274.378c0,.3-.412.535-.92.535H601.365c-4.186,0-7.956,1.531-9.381,3.81l-6.211,9.5-2.441,3.732a1.047,1.047,0,0,1-.861.343,1.521,1.521,0,0,1-.33-.035,1.136,1.136,0,0,1-.324-.121c-.25-.144-.346-.365-.213-.568l2.366-3.618,6.28-9.6c1.682-2.692,6.149-4.506,11.108-4.506h60.062a1.327,1.327,0,0,1,.652.157" transform="translate(-419.333 -608.982)" fill="#c1c1c1"/>
      <path id="Path_2565" data-name="Path 2565" d="M854.146,834.88a2.778,2.778,0,0,1,1.623,2.252c.01,1.76-2.442,3.185-5.481,3.185a7.927,7.927,0,0,1-3.892-.933,3.421,3.421,0,0,1-1.423-1.408h6.27c.508,0,.92-.24.92-.534a.47.47,0,0,0-.274-.378,1.328,1.328,0,0,0-.652-.156h-6.451c.192-1.654,2.563-2.958,5.469-2.959a7.927,7.927,0,0,1,3.892.933" transform="translate(-609.148 -601.333)" fill="#c1c1c1"/>
      <path id="Path_2566" data-name="Path 2566" d="M853.5,788.344a2.778,2.778,0,0,1,1.623,2.253c.01,1.758-2.444,3.185-5.479,3.185a7.938,7.938,0,0,1-3.895-.934,2.933,2.933,0,0,1-1.6-2.006l9.335.015c.511,0,.923-.238.924-.532a.466.466,0,0,0-.273-.38,1.33,1.33,0,0,0-.65-.157l-9.173-.015c.619-1.359,2.755-2.361,5.3-2.361a7.931,7.931,0,0,1,3.894.932" transform="translate(-608.683 -567.778)"/>
      <path id="Path_2567" data-name="Path 2567" d="M627.235,795.782a.466.466,0,0,1,.273.38c0,.3-.412.532-.92.532l-9.339-.015-62.182-.1c-6.028,0-11.328,2.091-13.444,5.236l-7.8,11.6-2.558,3.8a1.056,1.056,0,0,1-.857.339,1.573,1.573,0,0,1-.339-.036,1.128,1.128,0,0,1-.315-.119c-.253-.146-.348-.37-.209-.574l2.5-3.724,7.853-11.678c2.417-3.591,8.515-5.974,15.176-5.912l62.336.1,9.173.015a1.326,1.326,0,0,1,.65.156" transform="translate(-381.792 -573.616)"/>
      <path id="Path_2568" data-name="Path 2568" d="M586.856,753.5a.47.47,0,0,1,.273.378c0,.295-.407.536-.918.536l-9.585.015-75.826.122c-6.14.007-11.636,2.129-14,5.406l-11.047,15.312-2.1,2.916a1.074,1.074,0,0,1-.849.328,1.612,1.612,0,0,1-.357-.042,1.135,1.135,0,0,1-.3-.115c-.258-.149-.35-.379-.2-.586l2.066-2.864L485.1,759.539c2.652-3.675,8.813-6.054,15.695-6.061l75.727-.122,9.684-.015a1.323,1.323,0,0,1,.655.156" transform="translate(-340.254 -543.21)" fill="#c1c1c1"/>
      <path id="Path_2569" data-name="Path 2569" d="M856.369,744.195a2.778,2.778,0,0,1,1.623,2.251c.01,1.758-2.444,3.184-5.48,3.184a7.924,7.924,0,0,1-3.893-.932,3.3,3.3,0,0,1-1.481-1.541l9.585-.016c.511,0,.922-.24.918-.535a.468.468,0,0,0-.273-.378,1.333,1.333,0,0,0-.653-.157l-9.686.016c.3-1.591,2.619-2.828,5.448-2.827a7.929,7.929,0,0,1,3.892.933" transform="translate(-610.766 -535.943)" fill="#c1c1c1"/>
      <path id="Path_2570" data-name="Path 2570" d="M410.3,908.654a2.779,2.779,0,0,1,1.623,2.251c.008,1.759-2.444,3.185-5.481,3.185a7.927,7.927,0,0,1-3.892-.933,2.783,2.783,0,0,1-1.625-2.252c-.008-1.76,2.444-3.185,5.481-3.185a9.46,9.46,0,0,1,.972.05l-2.066,2.864c-.15.207-.058.437.2.586a1.127,1.127,0,0,0,.3.115,1.605,1.605,0,0,0,.357.042,1.073,1.073,0,0,0,.849-.328l2.1-2.916a6.281,6.281,0,0,1,1.182.52" transform="translate(-289.091 -654.528)" fill="#c1c1c1"/>
      <path id="Path_2571" data-name="Path 2571" d="M782.652,1558.839a2.777,2.777,0,0,1,1.623,2.251c.009,1.3-1.338,2.425-3.273,2.918a8.8,8.8,0,0,1-1.811.258q-.2.008-.4.008a7.926,7.926,0,0,1-3.893-.932,2.776,2.776,0,0,1-1.622-2.252c-.01-1.758,2.444-3.184,5.479-3.184a7.926,7.926,0,0,1,3.892.933" transform="translate(-557.588 -1123.357)"/>
      <path id="Path_2572" data-name="Path 2572" d="M823.126,1589.438a.466.466,0,0,1,.272.379c0,.294-.411.534-.92.535H809.811a17.2,17.2,0,0,1-8.4-2.022,7.886,7.886,0,0,1-2.76-2.491l-4.176-5.8a8.844,8.844,0,0,0,1.811-.258l4.083,5.669a6.718,6.718,0,0,0,2.352,2.125,14.491,14.491,0,0,0,7.089,1.706h12.667a1.327,1.327,0,0,1,.654.156" transform="translate(-572.868 -1139.132)"/>
      <path id="Path_2573" data-name="Path 2573" d="M668.764,1523.721a2.782,2.782,0,0,1,1.624,2.252c.007,1.344-1.424,2.493-3.455,2.96a8.948,8.948,0,0,1-1.827.221l-.2,0a7.932,7.932,0,0,1-3.895-.932,2.779,2.779,0,0,1-1.623-2.253c-.01-1.758,2.444-3.184,5.48-3.184a7.933,7.933,0,0,1,3.893.933" transform="translate(-475.466 -1098.035)"/>
      <path id="Path_2574" data-name="Path 2574" d="M754.725,1576.51a.467.467,0,0,1,.273.379c0,.294-.411.534-.92.535H712.26a23.358,23.358,0,0,1-11.412-2.751,10.782,10.782,0,0,1-3.684-3.286l-17.282-26.344a9.006,9.006,0,0,0,1.827-.221l17.18,26.188a9.537,9.537,0,0,0,3.262,2.909,20.679,20.679,0,0,0,10.1,2.435h41.818a1.329,1.329,0,0,1,.654.156" transform="translate(-490.242 -1113.923)"/>
      <path id="Path_2575" data-name="Path 2575" d="M522.923,1471.776a2.777,2.777,0,0,1,1.623,2.251c.006,1.3-1.324,2.411-3.238,2.909a8.811,8.811,0,0,1-1.811.267q-.213.01-.432.01a7.926,7.926,0,0,1-3.892-.933,2.779,2.779,0,0,1-1.623-2.252c-.012-1.759,2.442-3.185,5.481-3.185a7.927,7.927,0,0,1,3.892.933" transform="translate(-370.305 -1060.579)" fill="#c1c1c1"/>
      <path id="Path_2576" data-name="Path 2576" d="M666.233,1551.4a.47.47,0,0,1,.274.378c0,.3-.411.536-.92.535h-75.4a24.721,24.721,0,0,1-12.1-2.895,11.894,11.894,0,0,1-3.677-3.15l-39.538-53.311a8.794,8.794,0,0,0,1.811-.267l39.423,53.16a10.612,10.612,0,0,0,3.28,2.81,22.057,22.057,0,0,0,10.8,2.583h75.4a1.327,1.327,0,0,1,.652.157" transform="translate(-385.679 -1076.329)" fill="#c1c1c1"/>
      <path id="Path_2577" data-name="Path 2577" d="M1785.368,66.946a26.561,26.561,0,1,0-26.561,26.561,26.561,26.561,0,0,0,26.561-26.561" transform="translate(-1249.07 -29.12)" fill="#c1c1c1"/>
      <path id="Path_2578" data-name="Path 2578" d="M1754.487,114.84c-.965,0-1.929-.025-2.86-.067a151.091,151.091,0,0,1-28.125-4.544c-19.1-4.745-38.664-12.737-37.306-18.2.6-2.414,4.917-3.487,12.82-3.192a.615.615,0,0,1-.046,1.229c-8.056-.3-11.261.97-11.581,2.26-.848,3.415,13.9,11.119,36.409,16.712a149.821,149.821,0,0,0,27.883,4.509c8.43.377,11.784-.909,12.113-2.239.152-.611-.034-2.939-8.812-7.24a.615.615,0,1,1,.541-1.1c6.869,3.365,10.053,6.272,9.464,8.641-.639,2.575-5.582,3.237-10.5,3.237" transform="translate(-1215.815 -64.021)"/>
      <path id="Path_2579" data-name="Path 2579" d="M191.229,1180.629l-69.993,40.366-69.678-40.6,70.469-41.041Z" transform="translate(-37.177 -821.55)" fill="#fff"/>
      <path id="Path_2580" data-name="Path 2580" d="M118.849,1219.532a.926.926,0,0,1-.465-.125l-69.678-40.6a.923.923,0,0,1,0-1.595l70.469-41.042a.925.925,0,0,1,.938,0l69.2,41.278a.923.923,0,0,1-.012,1.593l-69.993,40.366a.923.923,0,0,1-.461.123M51,1178.006l67.847,39.536,68.165-39.312-67.382-40.193Z" transform="translate(-34.79 -819.164)"/>
      <path id="Path_2581" data-name="Path 2581" d="M301.41,1349.521v-22.45l70.012-40.142v21.29Z" transform="translate(-217.338 -927.965)" fill="#c1c1c1"/>
      <path id="Path_2582" data-name="Path 2582" d="M299.024,1348.057a.923.923,0,0,1-.923-.923v-22.45a.923.923,0,0,1,.464-.8l70.011-40.142a.923.923,0,0,1,1.382.8v21.29a.922.922,0,0,1-.454.8l-70.011,41.3a.92.92,0,0,1-.469.128m.923-22.838v20.3l68.165-40.213v-19.17Z" transform="translate(-214.951 -925.578)"/>
      <path id="Path_2583" data-name="Path 2583" d="M121.992,1348.832v-22.45l-69.4-40.409v21.758Z" transform="translate(-37.919 -927.275)" fill="#dbdbdb"/>
      <path id="Path_2584" data-name="Path 2584" d="M119.606,1347.37a.929.929,0,0,1-.471-.129l-69.4-41.1a.924.924,0,0,1-.453-.795v-21.757a.923.923,0,0,1,1.388-.8l69.4,40.408a.923.923,0,0,1,.459.8v22.45a.924.924,0,0,1-.923.923M51.125,1304.82l67.558,40.008v-20.3l-67.558-39.333Z" transform="translate(-35.533 -924.89)"/>
      <path id="Path_2585" data-name="Path 2585" d="M191.229,1060.367l-69.993,40.366-69.678-40.6,70.469-41.041Z" transform="translate(-37.177 -734.833)" fill="#fff"/>
      <path id="Path_2586" data-name="Path 2586" d="M118.849,1099.271a.922.922,0,0,1-.465-.126l-69.678-40.6a.923.923,0,0,1,0-1.6l70.469-41.041a.926.926,0,0,1,.938,0l69.2,41.278a.923.923,0,0,1-.012,1.593l-69.993,40.366a.921.921,0,0,1-.461.123M51,1057.745l67.847,39.536,68.165-39.312-67.382-40.193Z" transform="translate(-34.79 -732.448)"/>
      <path id="Path_2587" data-name="Path 2587" d="M301.41,1229.26v-22.45l70.012-40.142v21.29Z" transform="translate(-217.338 -841.248)" fill="#c1c1c1"/>
      <path id="Path_2588" data-name="Path 2588" d="M299.024,1227.8a.922.922,0,0,1-.923-.923v-22.45a.923.923,0,0,1,.464-.8l70.011-40.142a.923.923,0,0,1,1.382.8v21.29a.922.922,0,0,1-.454.8l-70.011,41.3a.919.919,0,0,1-.469.128m.923-22.838v20.3l68.165-40.213v-19.17Z" transform="translate(-214.951 -838.861)"/>
      <path id="Path_2589" data-name="Path 2589" d="M121.992,1228.571v-22.45l-69.4-40.409v21.757Z" transform="translate(-37.919 -840.559)" fill="#dbdbdb"/>
      <path id="Path_2590" data-name="Path 2590" d="M119.606,1227.109a.926.926,0,0,1-.471-.129l-69.4-41.1a.923.923,0,0,1-.453-.794v-21.758a.923.923,0,0,1,1.388-.8l69.4,40.409a.923.923,0,0,1,.459.8v22.45a.923.923,0,0,1-.923.923m-68.481-42.551,67.558,40.008v-20.3l-67.558-39.333Z" transform="translate(-35.533 -838.174)"/>
      <path id="Path_2591" data-name="Path 2591" d="M191.229,940.106l-69.993,40.366-69.678-40.6,70.469-41.041Z" transform="translate(-37.177 -648.116)" fill="#fff"/>
      <path id="Path_2592" data-name="Path 2592" d="M118.849,979.01a.924.924,0,0,1-.465-.126l-69.678-40.6a.923.923,0,0,1,0-1.595l70.469-41.041a.925.925,0,0,1,.938,0l69.2,41.278a.923.923,0,0,1-.012,1.593L119.31,978.887a.92.92,0,0,1-.461.123M51,937.483l67.847,39.536,68.165-39.313-67.382-40.193Z" transform="translate(-34.79 -645.731)"/>
      <path id="Path_2593" data-name="Path 2593" d="M301.41,1109v-22.45l70.012-40.142v21.29Z" transform="translate(-217.338 -754.531)" fill="#c1c1c1"/>
      <path id="Path_2594" data-name="Path 2594" d="M299.024,1107.535a.923.923,0,0,1-.923-.923v-22.45a.923.923,0,0,1,.464-.8l70.011-40.142a.923.923,0,0,1,1.382.8v21.29a.922.922,0,0,1-.454.8l-70.011,41.3a.919.919,0,0,1-.469.128m.923-22.838V1105l68.165-40.213v-19.17Z" transform="translate(-214.951 -752.145)"/>
      <path id="Path_2595" data-name="Path 2595" d="M121.992,1108.309v-22.45l-69.4-40.409v21.757Z" transform="translate(-37.919 -753.842)" fill="#dbdbdb"/>
      <path id="Path_2596" data-name="Path 2596" d="M119.606,1106.849a.929.929,0,0,1-.471-.129l-69.4-41.1a.924.924,0,0,1-.453-.795v-21.757a.923.923,0,0,1,1.388-.8l69.4,40.408a.923.923,0,0,1,.459.8v22.45a.924.924,0,0,1-.923.923M51.125,1064.3l67.558,40.008v-20.3l-67.558-39.333Z" transform="translate(-35.533 -751.458)"/>
      <path id="Path_2597" data-name="Path 2597" d="M191.229,819.844l-69.993,40.366-69.678-40.6,70.469-41.041Z" transform="translate(-37.177 -561.399)" fill="#fff"/>
      <path id="Path_2598" data-name="Path 2598" d="M118.849,858.748a.923.923,0,0,1-.465-.126l-69.678-40.6a.923.923,0,0,1,0-1.595l70.469-41.041a.925.925,0,0,1,.938,0l69.2,41.278a.923.923,0,0,1-.012,1.593L119.31,858.625a.922.922,0,0,1-.461.123M51,817.221l67.847,39.536,68.165-39.313-67.382-40.193Z" transform="translate(-34.79 -559.014)"/>
      <path id="Path_2599" data-name="Path 2599" d="M301.41,988.737v-22.45l70.012-40.142v21.29Z" transform="translate(-217.338 -667.814)" fill="#c1c1c1"/>
      <path id="Path_2600" data-name="Path 2600" d="M299.024,987.275a.923.923,0,0,1-.923-.923V963.9a.923.923,0,0,1,.464-.8l70.011-40.142a.923.923,0,0,1,1.382.8V945.05a.922.922,0,0,1-.454.8l-70.011,41.3a.92.92,0,0,1-.469.128m.923-22.838v20.3l68.165-40.213v-19.17Z" transform="translate(-214.951 -665.428)"/>
      <path id="Path_2601" data-name="Path 2601" d="M121.992,988.048V965.6l-69.4-40.409v21.758Z" transform="translate(-37.919 -667.125)" fill="#dbdbdb"/>
      <path id="Path_2602" data-name="Path 2602" d="M119.606,986.586a.928.928,0,0,1-.471-.129l-69.4-41.1a.923.923,0,0,1-.453-.794V922.8a.923.923,0,0,1,1.388-.8l69.4,40.409a.923.923,0,0,1,.459.8v22.45a.924.924,0,0,1-.923.923M51.125,944.035l67.558,40.008v-20.3L51.125,924.411Z" transform="translate(-35.533 -664.74)"/>
      <path id="Path_2603" data-name="Path 2603" d="M240.256,1072.054c0,1.4-1.135,1.88-2.536,1.072a5.26,5.26,0,0,1-2.536-4c0-1.4,1.136-1.881,2.536-1.072a5.26,5.26,0,0,1,2.536,4" transform="translate(-169.584 -769.857)" fill="#c1c1c1"/>
      <path id="Path_2604" data-name="Path 2604" d="M90.342,985.5c0,1.4-1.135,1.88-2.536,1.072a5.26,5.26,0,0,1-2.536-4c0-1.4,1.136-1.881,2.536-1.072a5.259,5.259,0,0,1,2.536,4" transform="translate(-61.486 -707.446)" fill="#c1c1c1"/>
      <path id="Path_2605" data-name="Path 2605" d="M202.777,1050.416c0,1.4-1.136,1.881-2.536,1.072a5.26,5.26,0,0,1-2.536-4c0-1.4,1.136-1.881,2.536-1.072a5.26,5.26,0,0,1,2.536,4" transform="translate(-142.559 -754.254)" fill="#c1c1c1"/>
      <path id="Path_2606" data-name="Path 2606" d="M165.3,1028.777c0,1.4-1.136,1.88-2.536,1.072a5.26,5.26,0,0,1-2.536-4c0-1.4,1.136-1.881,2.536-1.072a5.26,5.26,0,0,1,2.536,4" transform="translate(-115.535 -738.651)" fill="#c1c1c1"/>
      <path id="Path_2607" data-name="Path 2607" d="M127.822,1007.139c0,1.4-1.135,1.881-2.536,1.072a5.26,5.26,0,0,1-2.536-4c0-1.4,1.135-1.881,2.536-1.072a5.259,5.259,0,0,1,2.536,4" transform="translate(-88.511 -723.048)" fill="#c1c1c1"/>
      <path id="Path_2608" data-name="Path 2608" d="M240.256,1192.127c0,1.4-1.135,1.88-2.536,1.072a5.26,5.26,0,0,1-2.536-4c0-1.4,1.136-1.881,2.536-1.072a5.259,5.259,0,0,1,2.536,4" transform="translate(-169.584 -856.438)" fill="#c1c1c1"/>
      <path id="Path_2609" data-name="Path 2609" d="M90.342,1105.574c0,1.4-1.135,1.88-2.536,1.072a5.26,5.26,0,0,1-2.536-4c0-1.4,1.136-1.881,2.536-1.072a5.259,5.259,0,0,1,2.536,4" transform="translate(-61.486 -794.027)" fill="#c1c1c1"/>
      <path id="Path_2610" data-name="Path 2610" d="M202.777,1170.489c0,1.4-1.136,1.881-2.536,1.072a5.26,5.26,0,0,1-2.536-4c0-1.4,1.136-1.881,2.536-1.072a5.26,5.26,0,0,1,2.536,4" transform="translate(-142.559 -840.835)" fill="#c1c1c1"/>
      <path id="Path_2611" data-name="Path 2611" d="M165.3,1148.851c0,1.4-1.136,1.88-2.536,1.072a5.26,5.26,0,0,1-2.536-4c0-1.4,1.136-1.881,2.536-1.072a5.26,5.26,0,0,1,2.536,4" transform="translate(-115.535 -825.232)" fill="#c1c1c1"/>
      <path id="Path_2612" data-name="Path 2612" d="M127.822,1127.213c0,1.4-1.135,1.881-2.536,1.072a5.26,5.26,0,0,1-2.536-4c0-1.4,1.135-1.881,2.536-1.072a5.26,5.26,0,0,1,2.536,4" transform="translate(-88.511 -809.63)" fill="#c1c1c1"/>
      <path id="Path_2613" data-name="Path 2613" d="M240.256,1312.388c0,1.4-1.135,1.881-2.536,1.072a5.26,5.26,0,0,1-2.536-4c0-1.4,1.136-1.88,2.536-1.072a5.258,5.258,0,0,1,2.536,4" transform="translate(-169.584 -943.154)" fill="#c1c1c1"/>
      <path id="Path_2614" data-name="Path 2614" d="M90.342,1225.836c0,1.4-1.135,1.88-2.536,1.072a5.261,5.261,0,0,1-2.536-4c0-1.4,1.136-1.88,2.536-1.072a5.259,5.259,0,0,1,2.536,4" transform="translate(-61.486 -880.744)" fill="#c1c1c1"/>
      <path id="Path_2615" data-name="Path 2615" d="M202.777,1290.75c0,1.4-1.136,1.881-2.536,1.072a5.26,5.26,0,0,1-2.536-4c0-1.4,1.136-1.88,2.536-1.072a5.26,5.26,0,0,1,2.536,4" transform="translate(-142.559 -927.552)" fill="#c1c1c1"/>
      <path id="Path_2616" data-name="Path 2616" d="M165.3,1269.111c0,1.4-1.136,1.881-2.536,1.072a5.26,5.26,0,0,1-2.536-4c0-1.4,1.136-1.88,2.536-1.072a5.26,5.26,0,0,1,2.536,4" transform="translate(-115.535 -911.949)" fill="#c1c1c1"/>
      <path id="Path_2617" data-name="Path 2617" d="M127.822,1247.474c0,1.4-1.135,1.88-2.536,1.072a5.26,5.26,0,0,1-2.536-4c0-1.4,1.135-1.88,2.536-1.072a5.259,5.259,0,0,1,2.536,4" transform="translate(-88.511 -896.347)" fill="#c1c1c1"/>
      <path id="Path_2618" data-name="Path 2618" d="M240.256,1432.65c0,1.4-1.135,1.88-2.536,1.072a5.26,5.26,0,0,1-2.536-4c0-1.4,1.136-1.88,2.536-1.072a5.259,5.259,0,0,1,2.536,4" transform="translate(-169.584 -1029.871)" fill="#c1c1c1"/>
      <path id="Path_2619" data-name="Path 2619" d="M90.342,1346.1c0,1.4-1.135,1.881-2.536,1.072a5.26,5.26,0,0,1-2.536-4c0-1.4,1.136-1.881,2.536-1.072a5.259,5.259,0,0,1,2.536,4" transform="translate(-61.486 -967.461)" fill="#c1c1c1"/>
      <path id="Path_2620" data-name="Path 2620" d="M202.777,1411.011c0,1.4-1.136,1.88-2.536,1.072a5.26,5.26,0,0,1-2.536-4c0-1.4,1.136-1.88,2.536-1.072a5.261,5.261,0,0,1,2.536,4" transform="translate(-142.559 -1014.269)" fill="#c1c1c1"/>
      <path id="Path_2621" data-name="Path 2621" d="M165.3,1389.374c0,1.4-1.136,1.88-2.536,1.072a5.26,5.26,0,0,1-2.536-4c0-1.4,1.136-1.88,2.536-1.072a5.26,5.26,0,0,1,2.536,4" transform="translate(-115.535 -998.666)" fill="#c1c1c1"/>
      <path id="Path_2622" data-name="Path 2622" d="M127.822,1367.734c0,1.4-1.135,1.881-2.536,1.072a5.26,5.26,0,0,1-2.536-4c0-1.4,1.135-1.881,2.536-1.072a5.26,5.26,0,0,1,2.536,4" transform="translate(-88.511 -983.063)" fill="#c1c1c1"/>
      <path id="Path_2623" data-name="Path 2623" d="M350.17,1072.054c0,1.4,1.136,1.88,2.536,1.072a5.26,5.26,0,0,0,2.536-4c0-1.4-1.136-1.881-2.536-1.072a5.261,5.261,0,0,0-2.536,4" transform="translate(-252.497 -769.857)" fill="#dbdbdb"/>
      <path id="Path_2624" data-name="Path 2624" d="M500.084,985.5c0,1.4,1.135,1.88,2.536,1.072a5.26,5.26,0,0,0,2.536-4c0-1.4-1.136-1.881-2.536-1.072a5.26,5.26,0,0,0-2.536,4" transform="translate(-360.595 -707.446)" fill="#dbdbdb"/>
      <path id="Path_2625" data-name="Path 2625" d="M387.649,1050.416c0,1.4,1.135,1.881,2.536,1.072a5.26,5.26,0,0,0,2.536-4c0-1.4-1.136-1.881-2.536-1.072a5.259,5.259,0,0,0-2.536,4" transform="translate(-279.522 -754.254)" fill="#dbdbdb"/>
      <path id="Path_2626" data-name="Path 2626" d="M425.127,1028.777c0,1.4,1.135,1.88,2.536,1.072a5.26,5.26,0,0,0,2.536-4c0-1.4-1.136-1.881-2.536-1.072a5.259,5.259,0,0,0-2.536,4" transform="translate(-306.546 -738.651)" fill="#dbdbdb"/>
      <path id="Path_2627" data-name="Path 2627" d="M462.6,1007.139c0,1.4,1.135,1.881,2.536,1.072a5.26,5.26,0,0,0,2.536-4c0-1.4-1.135-1.881-2.536-1.072a5.26,5.26,0,0,0-2.536,4" transform="translate(-333.57 -723.048)" fill="#dbdbdb"/>
      <path id="Path_2628" data-name="Path 2628" d="M350.17,1192.127c0,1.4,1.136,1.88,2.536,1.072a5.26,5.26,0,0,0,2.536-4c0-1.4-1.136-1.881-2.536-1.072a5.26,5.26,0,0,0-2.536,4" transform="translate(-252.497 -856.438)" fill="#dbdbdb"/>
      <path id="Path_2629" data-name="Path 2629" d="M500.084,1105.574c0,1.4,1.135,1.88,2.536,1.072a5.26,5.26,0,0,0,2.536-4c0-1.4-1.136-1.881-2.536-1.072a5.26,5.26,0,0,0-2.536,4" transform="translate(-360.595 -794.027)" fill="#dbdbdb"/>
      <path id="Path_2630" data-name="Path 2630" d="M387.649,1170.489c0,1.4,1.135,1.881,2.536,1.072a5.26,5.26,0,0,0,2.536-4c0-1.4-1.136-1.881-2.536-1.072a5.259,5.259,0,0,0-2.536,4" transform="translate(-279.522 -840.835)" fill="#dbdbdb"/>
      <path id="Path_2631" data-name="Path 2631" d="M425.127,1148.851c0,1.4,1.135,1.88,2.536,1.072a5.26,5.26,0,0,0,2.536-4c0-1.4-1.136-1.881-2.536-1.072a5.259,5.259,0,0,0-2.536,4" transform="translate(-306.546 -825.232)" fill="#dbdbdb"/>
      <path id="Path_2632" data-name="Path 2632" d="M462.6,1127.213c0,1.4,1.135,1.881,2.536,1.072a5.26,5.26,0,0,0,2.536-4c0-1.4-1.135-1.881-2.536-1.072a5.26,5.26,0,0,0-2.536,4" transform="translate(-333.57 -809.63)" fill="#dbdbdb"/>
      <path id="Path_2633" data-name="Path 2633" d="M350.17,1312.388c0,1.4,1.136,1.881,2.536,1.072a5.26,5.26,0,0,0,2.536-4c0-1.4-1.136-1.88-2.536-1.072a5.259,5.259,0,0,0-2.536,4" transform="translate(-252.497 -943.154)" fill="#dbdbdb"/>
      <path id="Path_2634" data-name="Path 2634" d="M500.084,1225.836c0,1.4,1.135,1.88,2.536,1.072a5.261,5.261,0,0,0,2.536-4c0-1.4-1.136-1.88-2.536-1.072a5.26,5.26,0,0,0-2.536,4" transform="translate(-360.595 -880.744)" fill="#dbdbdb"/>
      <path id="Path_2635" data-name="Path 2635" d="M387.649,1290.75c0,1.4,1.135,1.881,2.536,1.072a5.26,5.26,0,0,0,2.536-4c0-1.4-1.136-1.88-2.536-1.072a5.26,5.26,0,0,0-2.536,4" transform="translate(-279.522 -927.552)" fill="#dbdbdb"/>
      <path id="Path_2636" data-name="Path 2636" d="M425.127,1269.111c0,1.4,1.135,1.881,2.536,1.072a5.26,5.26,0,0,0,2.536-4c0-1.4-1.136-1.88-2.536-1.072a5.259,5.259,0,0,0-2.536,4" transform="translate(-306.546 -911.949)" fill="#dbdbdb"/>
      <path id="Path_2637" data-name="Path 2637" d="M462.6,1247.474c0,1.4,1.135,1.88,2.536,1.072a5.26,5.26,0,0,0,2.536-4c0-1.4-1.135-1.88-2.536-1.072a5.259,5.259,0,0,0-2.536,4" transform="translate(-333.57 -896.347)" fill="#dbdbdb"/>
      <path id="Path_2638" data-name="Path 2638" d="M350.17,1432.65c0,1.4,1.136,1.88,2.536,1.072a5.26,5.26,0,0,0,2.536-4c0-1.4-1.136-1.88-2.536-1.072a5.26,5.26,0,0,0-2.536,4" transform="translate(-252.497 -1029.871)" fill="#dbdbdb"/>
      <path id="Path_2639" data-name="Path 2639" d="M500.084,1346.1c0,1.4,1.135,1.881,2.536,1.072a5.26,5.26,0,0,0,2.536-4c0-1.4-1.136-1.881-2.536-1.072a5.26,5.26,0,0,0-2.536,4" transform="translate(-360.595 -967.461)" fill="#dbdbdb"/>
      <path id="Path_2640" data-name="Path 2640" d="M387.649,1411.011c0,1.4,1.135,1.88,2.536,1.072a5.26,5.26,0,0,0,2.536-4c0-1.4-1.136-1.88-2.536-1.072a5.26,5.26,0,0,0-2.536,4" transform="translate(-279.522 -1014.269)" fill="#dbdbdb"/>
      <path id="Path_2641" data-name="Path 2641" d="M425.127,1389.374c0,1.4,1.135,1.88,2.536,1.072a5.26,5.26,0,0,0,2.536-4c0-1.4-1.136-1.88-2.536-1.072a5.259,5.259,0,0,0-2.536,4" transform="translate(-306.546 -998.666)" fill="#dbdbdb"/>
      <path id="Path_2642" data-name="Path 2642" d="M462.6,1367.734c0,1.4,1.135,1.881,2.536,1.072a5.26,5.26,0,0,0,2.536-4c0-1.4-1.135-1.881-2.536-1.072a5.26,5.26,0,0,0-2.536,4" transform="translate(-333.57 -983.063)" fill="#dbdbdb"/>
      <path id="Path_2643" data-name="Path 2643" d="M165.608,805.288l10.393-6,14.856,8.577s-10.226,6.1-10.393,6l-14.856-8.577" transform="translate(-119.415 -576.341)" fill="#dbdbdb"/>
      <path id="Path_2644" data-name="Path 2644" d="M177.99,812.405a.683.683,0,0,1-.374-.126L162.761,803.7a.923.923,0,0,1,0-1.6l10.393-6a.925.925,0,0,1,.923,0l14.856,8.578a.923.923,0,0,1,.011,1.592c-8.63,5.145-10.3,6.133-10.954,6.133m.547-1.726h0M165.069,802.9l13.06,7.54c1.253-.666,5.332-3.06,8.517-4.951l-13.03-7.523Z" transform="translate(-117.029 -573.956)"/>
      <path id="Path_2645" data-name="Path 2645" d="M260.822,663.364a26.564,26.564,0,0,0-3.153-12.209A35.132,35.132,0,0,0,250.7,641.9l4.032-2.281a6.486,6.486,0,0,0,1.181-.668l.077-.044-.017,0c.169-.125.339-.247.5-.389q2.64-2.387,2.64-7.275a29.743,29.743,0,0,0-6.306-18.062,46.665,46.665,0,0,0-6.013-6.566V596.521l-11.051-6.38v8.377c-.44-.264-.865-.533-1.317-.794l-5.649-3.262v-8.343l-11.05-6.38v8.342L202.869,579.5v9.973l7.161,4.135v51.329l-7.161-4.135v9.875l9.136,10.257,5.72,5.873,11.05,6.38,4.552-.776,2.414-2.755v7.553l11.051,6.38v-3.88l9.087-5.2a7.282,7.282,0,0,0,.857-.49l.086-.049-.005-.007q4-2.707,4-10.6M222.4,600.752l9.244,8.4c4.237,2.446,3.5,6.426,5.5,9.147s5.112,4.282,5.112,7.8c0,3.195,3.455,3.746,1.289,4.238s-5.174-.372-9.02-2.592l-12.123-7Zm22.829,61.626q-3.276.994-9.093-2.365L222.4,652.081V635.839l14.763,2.523c1.531.917-3.81,5.051-2.761,6.569,3.837,5.547,10.442,11.823,11.37,17.414a1.006,1.006,0,0,0-.543.033" transform="translate(-146.283 -417.862)" fill="#dbdbdb"/>
      <path id="Path_2646" data-name="Path 2646" d="M244.4,682.13a.926.926,0,0,1-.462-.124l-11.051-6.381a.923.923,0,0,1-.461-.8v-5.1l-.8.909a.919.919,0,0,1-.539.3l-4.552.777a.915.915,0,0,1-.617-.111l-11.05-6.38a.9.9,0,0,1-.2-.155l-5.72-5.873-9.165-10.287a.923.923,0,0,1-.234-.614V638.42a.923.923,0,0,1,1.385-.8l5.777,3.335v-49.2l-6.7-3.869a.923.923,0,0,1-.462-.8v-9.973a.923.923,0,0,1,1.385-.8l13.471,7.778v-6.744a.923.923,0,0,1,1.385-.8l11.05,6.38a.923.923,0,0,1,.462.8v7.81l5.12,2.957v-6.744a.923.923,0,0,1,1.385-.8l11.051,6.38a.923.923,0,0,1,.462.8v9.682a47.448,47.448,0,0,1,5.831,6.42,30.774,30.774,0,0,1,6.488,18.613c0,3.515-.99,6.194-2.944,7.96-.138.125-.286.239-.435.349a.912.912,0,0,1-.2.159l-.037.022a7.529,7.529,0,0,1-1.265.715l-2.932,1.659a35.788,35.788,0,0,1,6.273,8.634,27.6,27.6,0,0,1,3.255,12.63c0,5.492-1.447,9.289-4.3,11.291a.92.92,0,0,1-.166.121l-.085.049a7.68,7.68,0,0,1-.885.506l-8.594,4.917v3.345a.923.923,0,0,1-.923.923m-10.128-7.837,9.2,5.315v-2.282a.922.922,0,0,1,.465-.8l9.087-5.2a.651.651,0,0,1,.061-.032,6.357,6.357,0,0,0,.747-.429l.016-.009.054-.04c2.389-1.617,3.6-4.927,3.6-9.838a25.766,25.766,0,0,0-3.052-11.787,34.358,34.358,0,0,0-6.785-9.017.923.923,0,0,1,.187-1.468l4.031-2.28c.027-.015.055-.029.083-.041a5.643,5.643,0,0,0,1.008-.568c.019-.016.038-.032.058-.046a5.136,5.136,0,0,0,.423-.329c1.549-1.4,2.336-3.619,2.336-6.59a28.964,28.964,0,0,0-6.124-17.51,45.91,45.91,0,0,0-5.894-6.436.923.923,0,0,1-.3-.682v-9.554l-9.2-5.315v6.777a.923.923,0,0,1-1.4.792l-.482-.294c-.27-.165-.539-.33-.821-.492l-5.65-3.263a.922.922,0,0,1-.462-.8v-7.81l-9.2-5.314V585.7a.923.923,0,0,1-1.385.8L201.4,578.716v7.841l6.7,3.869a.923.923,0,0,1,.462.8v51.33a.923.923,0,0,1-1.385.8l-5.777-3.335v7.924l8.9,9.994,5.6,5.751,10.651,6.15,3.9-.666,2.2-2.508a.923.923,0,0,1,1.618.608Zm6.924-13.148c-2.152,0-4.763-.9-7.915-2.719l-13.737-7.931a.924.924,0,0,1-.462-.8V633.453a.924.924,0,0,1,1.079-.91l14.764,2.523a.929.929,0,0,1,.319.118,1.461,1.461,0,0,1,.7.981c.2,1.008-.617,2.081-1.646,3.44a8.276,8.276,0,0,0-1.5,2.451c1.12,1.615,2.462,3.273,3.882,5.029,3.4,4.208,6.924,8.56,7.615,12.723a.923.923,0,0,1-1.126,1.049s-.021.006-.06.018a6.522,6.522,0,0,1-1.908.27m-20.266-11.983,13.275,7.665c3.443,1.987,6.153,2.782,8.057,2.361-.96-3.447-4.038-7.252-7.022-10.942-1.453-1.8-2.826-3.492-3.99-5.176-.9-1.306.356-2.97,1.575-4.58a15.381,15.381,0,0,0,1.182-1.709l-13.076-2.235Zm18.948-20.152c-2.2,0-4.9-.941-8.209-2.851l-12.123-7a.923.923,0,0,1-.462-.8V598.366a.923.923,0,0,1,1.544-.683l9.173,8.335c2.928,1.729,3.687,4.14,4.357,6.27a10.327,10.327,0,0,0,1.336,3.078,20.13,20.13,0,0,0,1.959,2.176c1.638,1.651,3.332,3.359,3.332,6.173a3.46,3.46,0,0,0,1.267,2.559c.418.421.893.9.693,1.588-.209.722-1.006.9-1.389.991a6.677,6.677,0,0,1-1.477.158m-18.948-11.184L232.6,624.56c3.249,1.875,5.846,2.738,7.736,2.585a4.946,4.946,0,0,1-1.39-3.431c0-2.054-1.3-3.36-2.8-4.872a21.677,21.677,0,0,1-2.135-2.382,11.878,11.878,0,0,1-1.609-3.619c-.632-2.007-1.229-3.9-3.607-5.276a.932.932,0,0,1-.16-.116l-7.7-7Z" transform="translate(-143.895 -415.475)"/>
      <path id="Path_2647" data-name="Path 2647" d="M323.079,935.488l10.393-6v-8.97l-10.393,6Z" transform="translate(-232.962 -663.756)" fill="#dbdbdb"/>
      <path id="Path_2648" data-name="Path 2648" d="M320.693,934.025a.924.924,0,0,1-.923-.923v-8.97a.923.923,0,0,1,.462-.8l10.393-6a.923.923,0,0,1,1.385.8V927.1a.923.923,0,0,1-.462.8l-10.393,6a.923.923,0,0,1-.462.124m.923-9.36V931.5l8.546-4.935V919.73Z" transform="translate(-230.576 -661.37)"/>
      <path id="Path_2649" data-name="Path 2649" d="M258.486,908.684l10.393-6-4.573-4.913-5.82,3.36Z" transform="translate(-186.386 -647.354)" fill="#dbdbdb"/>
      <path id="Path_2650" data-name="Path 2650" d="M256.1,907.218a.924.924,0,0,1-.923-.923v-7.553a.924.924,0,0,1,.462-.8l5.82-3.36a.92.92,0,0,1,1.137.171l4.573,4.913a.922.922,0,0,1-.214,1.428l-10.393,6a.923.923,0,0,1-.462.124m.924-7.943V904.7l8-4.622-3.282-3.526Z" transform="translate(-183.999 -644.965)"/>
      <path id="Path_2651" data-name="Path 2651" d="M165.608,585.5l10.393-6,14.856,8.577s-10.226,6.1-10.393,6L165.608,585.5" transform="translate(-119.415 -417.862)" fill="#dbdbdb"/>
      <path id="Path_2652" data-name="Path 2652" d="M177.99,592.62a.683.683,0,0,1-.374-.126l-14.856-8.578a.923.923,0,0,1,0-1.6l10.393-6a.924.924,0,0,1,.923,0l14.856,8.578a.923.923,0,0,1,.011,1.592c-8.63,5.145-10.3,6.133-10.954,6.133m.547-1.726h0m-13.468-7.776,13.06,7.54c1.253-.666,5.332-3.06,8.517-4.951l-13.03-7.523Z" transform="translate(-117.029 -415.475)"/>
      <path id="Path_2653" data-name="Path 2653" d="M218.87,586.346c.234-.227,10.393-6,10.393-6l11.05,6.38-10.393,6Z" transform="translate(-157.82 -418.469)" fill="#dbdbdb"/>
      <path id="Path_2654" data-name="Path 2654" d="M227.534,591.263a.925.925,0,0,1-.462-.124l-11.05-6.38a.924.924,0,0,1-.182-1.462c.1-.1.318-.309,10.58-6.14a.924.924,0,0,1,.918,0l11.05,6.38a.923.923,0,0,1,0,1.6l-10.393,6a.925.925,0,0,1-.462.124m-9.235-7.322,9.235,5.333,8.546-4.935-9.208-5.316c-2.787,1.586-6.61,3.771-8.574,4.918" transform="translate(-155.434 -416.083)"/>
      <path id="Path_2655" data-name="Path 2655" d="M258.486,639.128l10.393-6,6.966,4.056-10.393,6Z" transform="translate(-186.386 -456.528)" fill="#dbdbdb"/>
      <path id="Path_2656" data-name="Path 2656" d="M263.066,641.72a.922.922,0,0,1-.464-.126l-6.966-4.055a.923.923,0,0,1,0-1.6l10.393-6a.925.925,0,0,1,.926,0L273.924,634a.923.923,0,0,1,0,1.6l-10.393,6a.926.926,0,0,1-.462.124m-5.126-4.976,5.128,2.985,8.551-4.937-5.128-2.985Z" transform="translate(-184 -454.141)"/>
      <path id="Path_2657" data-name="Path 2657" d="M283.461,623.638l10.393-6,11.051,6.38-10.393,6Z" transform="translate(-204.395 -445.359)" fill="#dbdbdb"/>
      <path id="Path_2658" data-name="Path 2658" d="M292.125,628.555a.923.923,0,0,1-.462-.124l-11.051-6.38a.923.923,0,0,1,0-1.6l10.393-6a.924.924,0,0,1,.923,0l11.051,6.38a.923.923,0,0,1,0,1.6l-10.393,6a.923.923,0,0,1-.462.124m-9.2-7.3,9.2,5.314,8.546-4.934-9.2-5.314Z" transform="translate(-202.008 -442.973)"/>
      <path id="Path_2659" data-name="Path 2659" d="M323.079,656.6V646.511l10.393-6V650.6Z" transform="translate(-232.962 -461.852)" fill="#dbdbdb"/>
      <path id="Path_2660" data-name="Path 2660" d="M320.693,655.136a.924.924,0,0,1-.923-.923V644.126a.923.923,0,0,1,.462-.8l10.393-6a.923.923,0,0,1,1.385.8v10.087a.923.923,0,0,1-.462.8l-10.393,6a.925.925,0,0,1-.462.124m.923-10.478v7.955l8.546-4.935v-7.955Z" transform="translate(-230.576 -459.466)"/>
      <path id="Path_2661" data-name="Path 2661" d="M220.408,672.667a36.043,36.043,0,0,0-8.921-11.042q5.084.785,7.724-1.6t2.64-7.275a29.741,29.741,0,0,0-6.306-18.062,46.646,46.646,0,0,0-6.013-6.566V618.033l-11.051-6.38v8.377c-.44-.264-.865-.533-1.317-.794l-5.649-3.262v-8.343l-11.05-6.38v8.343l-14.856-8.577v9.973l7.162,4.135v51.329l-7.162-4.135v9.875l14.856,8.577v7.553l11.05,6.38V687.15l6.966,4.022v7.553l11.051,6.38v-8.97a14.873,14.873,0,0,0,7.6.429q6.427-1.667,6.428-11.688a26.562,26.562,0,0,0-3.154-12.209m-35.27-50.4,12.026,6.943a30.132,30.132,0,0,1,9.361,7.751,15.372,15.372,0,0,1,3.007,9.362q0,4.792-3.25,5.529t-9.02-2.592l-12.123-7Zm22.829,61.626q-3.275.994-9.093-2.365l-13.737-7.931V651.351l14.763,8.524q11.341,6.793,11.341,17.889,0,5.133-3.275,6.126" transform="translate(-119.415 -433.373)" fill="#31d3f5"/>
      <path id="Path_2662" data-name="Path 2662" d="M207.146,703.642a.925.925,0,0,1-.462-.124l-11.051-6.38a.923.923,0,0,1-.462-.8v-7.02l-5.12-2.956v5.954a.923.923,0,0,1-1.385.8l-11.05-6.38a.923.923,0,0,1-.461-.8v-7.02l-14.395-8.311a.923.923,0,0,1-.461-.8v-9.875a.923.923,0,0,1,1.385-.8l5.777,3.335v-49.2l-6.7-3.869a.923.923,0,0,1-.461-.8v-9.973a.923.923,0,0,1,1.385-.8l13.472,7.778v-6.744a.923.923,0,0,1,1.385-.8l11.05,6.38a.923.923,0,0,1,.462.8v7.81l5.12,2.956v-6.744a.923.923,0,0,1,1.385-.8l11.051,6.38a.923.923,0,0,1,.462.8v9.682a47.476,47.476,0,0,1,5.83,6.42,30.777,30.777,0,0,1,6.489,18.613c0,3.516-.991,6.194-2.944,7.96a8.5,8.5,0,0,1-5.738,2.031,36.208,36.208,0,0,1,7.138,9.507,27.6,27.6,0,0,1,3.255,12.63c0,7.123-2.4,11.356-7.119,12.581a14.777,14.777,0,0,1-6.911-.139v7.787a.924.924,0,0,1-.923.923m-10.128-7.837,9.2,5.314v-7.371a.923.923,0,0,1,1.168-.89,14.051,14.051,0,0,0,7.126.425c3.859-1,5.736-4.532,5.736-10.794A25.769,25.769,0,0,0,217.2,670.7a35.267,35.267,0,0,0-8.7-10.759.923.923,0,0,1,.738-1.616c3.085.475,5.429.013,6.964-1.375s2.336-3.619,2.336-6.591a28.97,28.97,0,0,0-6.124-17.511,45.987,45.987,0,0,0-5.894-6.436.924.924,0,0,1-.3-.682v-9.554l-9.2-5.314v6.777a.923.923,0,0,1-1.4.792l-.5-.3c-.266-.162-.531-.324-.807-.484l-5.649-3.262a.923.923,0,0,1-.462-.8v-7.809l-9.2-5.315v6.744a.923.923,0,0,1-1.385.8l-13.471-7.778v7.841l6.7,3.869a.922.922,0,0,1,.462.8v51.33a.923.923,0,0,1-1.385.8l-5.777-3.335v7.743l14.394,8.31a.923.923,0,0,1,.462.8v7.02l9.2,5.314v-5.954a.923.923,0,0,1,1.385-.8l6.966,4.022a.923.923,0,0,1,.462.8Zm6.924-13.149c-2.153,0-4.764-.9-7.915-2.719l-13.737-7.931a.924.924,0,0,1-.462-.8V648.964a.923.923,0,0,1,1.385-.8l14.764,8.524c7.836,4.693,11.8,10.978,11.8,18.688,0,3.86-1.322,6.219-3.93,7.01a6.549,6.549,0,0,1-1.908.269m-20.267-11.983,13.275,7.665c3.63,2.1,6.443,2.863,8.363,2.282.648-.2,2.62-.795,2.62-5.243,0-7.115-3.563-12.708-10.892-17.1l-13.366-7.718Zm18.947-20.152c-2.2,0-4.9-.941-8.209-2.851l-12.124-7a.923.923,0,0,1-.462-.8V619.878a.923.923,0,0,1,1.385-.8l12.026,6.943a31.163,31.163,0,0,1,9.643,8,16.349,16.349,0,0,1,3.187,9.91c0,4.569-2.158,6.018-3.969,6.43a6.66,6.66,0,0,1-1.477.158m-18.947-11.184,11.662,6.734c3.619,2.089,6.43,2.926,8.354,2.491.626-.143,2.532-.576,2.532-4.629a14.538,14.538,0,0,0-2.827-8.815,29.375,29.375,0,0,0-9.079-7.5l-10.641-6.144Z" transform="translate(-117.03 -430.987)"/>
      <path id="Path_2663" data-name="Path 2663" d="M357.78,805.8l4.625-2.616Z" transform="translate(-257.984 -579.153)" fill="#dbdbdb"/>
      <path id="Path_2664" data-name="Path 2664" d="M355.394,804.338a.923.923,0,0,1-.455-1.727L359.564,800a.923.923,0,0,1,.909,1.607l-4.625,2.616a.918.918,0,0,1-.454.12" transform="translate(-255.597 -576.765)"/>
    </g>
  </g>
</svg>
