<svg xmlns="http://www.w3.org/2000/svg" xmlns:xlink="http://www.w3.org/1999/xlink" width="591.539" height="544.239" viewBox="0 0 591.539 544.239">
  <defs>
    <clipPath id="clip-path">
      <rect id="Rectangle_931" data-name="Rectangle 931" width="591.539" height="544.239" fill="none"/>
    </clipPath>
    <clipPath id="clip-path-2">
      <rect id="Rectangle_932" data-name="Rectangle 932" width="19.323" height="20.556" fill="none"/>
    </clipPath>
  </defs>
  <g id="Group_1846" data-name="Group 1846" transform="translate(0 0.003)">
    <path id="Path_3300" data-name="Path 3300" d="M167.019,718.662H111.137V645.3H154.4l12.623,12.525Z" transform="translate(-77.118 -447.781)"/>
    <path id="Path_3301" data-name="Path 3301" d="M265.088,657.828H252.465V645.3Z" transform="translate(-175.187 -447.781)"/>
    <path id="Path_3302" data-name="Path 3302" d="M156.552,714.021H98.116v-73.36h45.237l13.2,12.525Z" transform="translate(-68.083 -444.561)" fill="#fff"/>
    <g id="Group_1835" data-name="Group 1835" transform="translate(0 -0.003)">
      <g id="Group_1834" data-name="Group 1834" clip-path="url(#clip-path)">
        <path id="Path_3303" data-name="Path 3303" d="M156.165,713.8H97.729a.171.171,0,0,1-.171-.171v-73.36a.171.171,0,0,1,.171-.171h45.237a.171.171,0,0,1,.118.047l13.2,12.525a.171.171,0,0,1,.053.124v60.835a.171.171,0,0,1-.171.171M97.9,713.463h58.095v-60.59l-13.1-12.427h-45Z" transform="translate(-67.696 -444.171)"/>
        <path id="Path_3304" data-name="Path 3304" d="M259.1,653.186H245.9V640.661Z" transform="translate(-170.634 -444.558)" fill="#fff"/>
        <path id="Path_3305" data-name="Path 3305" d="M258.715,652.97h-13.2a.171.171,0,0,1-.171-.171V640.274a.171.171,0,0,1,.289-.124l13.2,12.525a.171.171,0,0,1-.118.3m-13.029-.342h12.6l-12.6-11.957Z" transform="translate(-170.246 -444.17)"/>
        <path id="Path_3306" data-name="Path 3306" d="M50.621,628.2a18.3,18.3,0,0,0,1.805,1.651l9.37,6.851,9.37-6.851c4.776-3.809,7.519-10,6.775-15.594l-2.085-12.992-14.059-3.1-14.059,3.1-2.085,12.992a17.456,17.456,0,0,0,4.97,13.943" transform="translate(-31.594 -415.07)" fill="#fff"/>
        <path id="Path_3307" data-name="Path 3307" d="M61.707,636.654a.041.041,0,0,1-.024-.008l-9.37-6.852a18.411,18.411,0,0,1-1.811-1.655,17.557,17.557,0,0,1-4.981-13.977l2.085-12.993a.042.042,0,0,1,.032-.034l14.059-3.1h.018l14.059,3.1a.042.042,0,0,1,.032.034l2.085,12.992a16.017,16.017,0,0,1-1.32,8.49,18.784,18.784,0,0,1-5.47,7.142l-9.371,6.853a.041.041,0,0,1-.024.008m0-38.538H61.7L47.707,601.2a.035.035,0,0,0-.027.028L45.6,614.174a17.47,17.47,0,0,0,4.959,13.908,18.3,18.3,0,0,0,1.8,1.647l9.324,6.818a.035.035,0,0,0,.04,0l9.325-6.819c4.774-3.808,7.49-10.058,6.759-15.555l-2.077-12.94a.035.035,0,0,0-.027-.028l-13.992-3.087h-.007" transform="translate(-31.504 -414.977)"/>
        <path id="Path_3308" data-name="Path 3308" d="M67.565,607,55.7,609.618l-1.759,10.96c-.628,4.721,1.686,9.941,5.715,13.154l7.9,5.78Z" transform="translate(-37.362 -421.201)" fill="#31d3f5"/>
        <path id="Path_3309" data-name="Path 3309" d="M98.67,639.512l7.9-5.78c4.029-3.213,6.343-8.433,5.715-13.154l-1.759-10.96L98.67,607Z" transform="translate(-68.468 -421.201)" fill="#31d3f5"/>
        <path id="Path_3310" data-name="Path 3310" d="M83.9,649.27,76.256,639l2.48-1.846,5.014,6.74,7.175-10.866,2.579,1.7Z" transform="translate(-52.915 -439.258)"/>
        <path id="Path_3311" data-name="Path 3311" d="M77.969,644.9l-7.645-10.275,2.48-1.846,5.014,6.74,8.121-12.3,2.579,1.7Z" transform="translate(-48.798 -435.232)" fill="#fff"/>
        <path id="Path_3312" data-name="Path 3312" d="M77.875,644.848a.043.043,0,0,1-.033-.017L70.2,634.557a.042.042,0,0,1,.009-.058l2.48-1.846a.039.039,0,0,1,.024-.008h.006a.042.042,0,0,1,.027.016l4.95,6.653a.035.035,0,0,0,.028.014h0a.034.034,0,0,0,.028-.015L85.81,627.1a.042.042,0,0,1,.026-.018h.008a.043.043,0,0,1,.023.007l2.579,1.7a.042.042,0,0,1,.012.057L77.91,644.829a.041.041,0,0,1-.033.018Zm-5.181-12.091a.036.036,0,0,0-.021.007l-2.358,1.756a.034.034,0,0,0-.007.048l7.535,10.127a.034.034,0,0,0,.028.014h0a.034.034,0,0,0,.028-.015l10.447-15.821a.034.034,0,0,0-.01-.047L85.885,627.2a.035.035,0,0,0-.019-.006h-.007a.033.033,0,0,0-.022.015l-8.079,12.234a.041.041,0,0,1-.033.019.038.038,0,0,1-.035-.017l-4.969-6.679a.034.034,0,0,0-.023-.013h0" transform="translate(-48.704 -435.138)"/>
        <path id="Path_3313" data-name="Path 3313" d="M538.528,718.662H482.646V645.3h43.26l12.623,12.525Z" transform="translate(-334.911 -447.778)"/>
        <path id="Path_3314" data-name="Path 3314" d="M636.6,657.828H623.974V645.3Z" transform="translate(-432.979 -447.779)"/>
        <path id="Path_3315" data-name="Path 3315" d="M528.061,714.021H469.625v-73.36h45.237l13.2,12.525Z" transform="translate(-325.876 -444.558)" fill="#fff"/>
        <path id="Path_3316" data-name="Path 3316" d="M527.674,713.8H469.238a.171.171,0,0,1-.171-.171v-73.36a.171.171,0,0,1,.171-.171h45.237a.171.171,0,0,1,.117.047l13.2,12.525a.171.171,0,0,1,.053.124v60.835a.171.171,0,0,1-.171.171m-58.266-.342H527.5v-60.59l-13.1-12.427h-45Z" transform="translate(-325.488 -444.171)"/>
        <path id="Path_3317" data-name="Path 3317" d="M630.612,653.186h-13.2V640.661Z" transform="translate(-428.426 -444.558)" fill="#fff"/>
        <path id="Path_3318" data-name="Path 3318" d="M630.224,652.97h-13.2a.171.171,0,0,1-.171-.171V640.274a.171.171,0,0,1,.289-.124l13.2,12.525a.171.171,0,0,1-.117.3m-13.029-.342h12.6l-12.6-11.957Z" transform="translate(-428.038 -444.17)"/>
        <path id="Path_3319" data-name="Path 3319" d="M422.13,628.2a18.3,18.3,0,0,0,1.805,1.651l9.37,6.851,9.37-6.851c4.776-3.809,7.52-10,6.775-15.594l-2.085-12.992-14.059-3.1-14.059,3.1-2.085,12.992a17.456,17.456,0,0,0,4.97,13.943" transform="translate(-289.386 -415.07)" fill="#fff"/>
        <path id="Path_3320" data-name="Path 3320" d="M433.216,636.654a.041.041,0,0,1-.024-.008l-9.37-6.852a18.416,18.416,0,0,1-1.811-1.655,17.557,17.557,0,0,1-4.981-13.977l2.085-12.993a.042.042,0,0,1,.032-.034l14.059-3.1h.018l14.059,3.1a.042.042,0,0,1,.032.034L449.4,614.16a16.018,16.018,0,0,1-1.32,8.49,18.784,18.784,0,0,1-5.47,7.142l-9.371,6.853a.042.042,0,0,1-.025.008m0-38.538h-.007L419.216,601.2a.035.035,0,0,0-.027.028l-2.077,12.941a17.469,17.469,0,0,0,4.959,13.908,18.293,18.293,0,0,0,1.8,1.647l9.324,6.818a.035.035,0,0,0,.04,0l9.325-6.819c4.774-3.808,7.49-10.058,6.759-15.555l-2.077-12.94a.035.035,0,0,0-.027-.028l-13.992-3.087h-.007" transform="translate(-289.297 -414.977)"/>
        <path id="Path_3321" data-name="Path 3321" d="M439.074,607l-11.86,2.617-1.759,10.96c-.628,4.721,1.686,9.941,5.715,13.154l7.9,5.78Z" transform="translate(-295.155 -421.201)" fill="#31d3f5"/>
        <path id="Path_3322" data-name="Path 3322" d="M470.179,639.512l7.9-5.78c4.029-3.213,6.343-8.433,5.715-13.154l-1.759-10.96L470.179,607Z" transform="translate(-326.26 -421.201)" fill="#31d3f5"/>
        <path id="Path_3323" data-name="Path 3323" d="M455.41,649.27,447.765,639l2.48-1.846,5.014,6.74,7.175-10.866,2.579,1.7Z" transform="translate(-310.707 -439.258)"/>
        <path id="Path_3324" data-name="Path 3324" d="M449.478,644.9l-7.645-10.275,2.48-1.846,5.014,6.74,8.121-12.3,2.579,1.7Z" transform="translate(-306.591 -435.232)" fill="#fff"/>
        <path id="Path_3325" data-name="Path 3325" d="M449.384,644.848a.043.043,0,0,1-.033-.017l-7.645-10.275a.042.042,0,0,1,.009-.058l2.48-1.846a.039.039,0,0,1,.024-.008h.006a.042.042,0,0,1,.027.016l4.95,6.653a.034.034,0,0,0,.028.014h0a.034.034,0,0,0,.028-.015l8.061-12.207a.042.042,0,0,1,.026-.018h.008a.043.043,0,0,1,.023.007l2.579,1.7a.042.042,0,0,1,.012.057l-10.549,15.974a.041.041,0,0,1-.033.018ZM444.2,632.757a.036.036,0,0,0-.02.007l-2.358,1.756a.034.034,0,0,0-.007.048l7.535,10.127a.034.034,0,0,0,.028.014h0a.034.034,0,0,0,.028-.015l10.447-15.821a.034.034,0,0,0-.01-.047l-2.452-1.621a.035.035,0,0,0-.019-.006h-.007a.033.033,0,0,0-.022.015l-8.079,12.234a.041.041,0,0,1-.033.019.038.038,0,0,1-.035-.017l-4.969-6.679a.034.034,0,0,0-.023-.013h0" transform="translate(-306.497 -435.138)"/>
        <path id="Path_3326" data-name="Path 3326" d="M925.744,718.662H869.861V645.3h43.26l12.623,12.525Z" transform="translate(-603.602 -447.778)"/>
        <path id="Path_3327" data-name="Path 3327" d="M1023.812,657.828h-12.623V645.3Z" transform="translate(-701.671 -447.779)"/>
        <path id="Path_3328" data-name="Path 3328" d="M915.277,714.021H856.841v-73.36h45.237l13.2,12.525Z" transform="translate(-594.567 -444.558)" fill="#fff"/>
        <path id="Path_3329" data-name="Path 3329" d="M914.889,713.8H856.453a.171.171,0,0,1-.171-.171v-73.36a.171.171,0,0,1,.171-.171H901.69a.172.172,0,0,1,.118.047l13.2,12.525a.172.172,0,0,1,.053.124v60.835a.171.171,0,0,1-.171.171m-58.266-.342h58.095v-60.59l-13.1-12.427h-45Z" transform="translate(-594.179 -444.171)"/>
        <path id="Path_3330" data-name="Path 3330" d="M1017.828,653.186h-13.2V640.661Z" transform="translate(-697.117 -444.558)" fill="#fff"/>
        <path id="Path_3331" data-name="Path 3331" d="M1017.44,652.97h-13.2a.171.171,0,0,1-.171-.171V640.274a.171.171,0,0,1,.289-.124l13.2,12.525a.171.171,0,0,1-.118.3m-13.029-.342h12.6l-12.6-11.957Z" transform="translate(-696.73 -444.17)"/>
        <path id="Path_3332" data-name="Path 3332" d="M809.346,628.2a18.3,18.3,0,0,0,1.805,1.651l9.37,6.851,9.37-6.851c4.776-3.809,7.519-10,6.775-15.594l-2.085-12.992-14.059-3.1-14.059,3.1-2.085,12.992a17.456,17.456,0,0,0,4.97,13.943" transform="translate(-558.078 -415.07)" fill="#fff"/>
        <path id="Path_3333" data-name="Path 3333" d="M820.431,636.654a.041.041,0,0,1-.025-.008l-9.37-6.852a18.426,18.426,0,0,1-1.811-1.655,17.557,17.557,0,0,1-4.981-13.977l2.085-12.993a.042.042,0,0,1,.032-.034l14.059-3.1h.018l14.059,3.1a.042.042,0,0,1,.032.034l2.085,12.992a16.02,16.02,0,0,1-1.32,8.49,18.785,18.785,0,0,1-5.47,7.142l-9.371,6.853a.042.042,0,0,1-.025.008m0-38.538h-.007L806.431,601.2a.035.035,0,0,0-.027.028l-2.077,12.941a17.469,17.469,0,0,0,4.959,13.908,18.29,18.29,0,0,0,1.8,1.647l9.324,6.818a.035.035,0,0,0,.04,0l9.325-6.819c4.774-3.808,7.49-10.058,6.759-15.555l-2.077-12.94a.035.035,0,0,0-.027-.028l-13.992-3.087h-.007" transform="translate(-557.988 -414.977)"/>
        <path id="Path_3334" data-name="Path 3334" d="M826.289,607l-11.86,2.617-1.759,10.96c-.628,4.721,1.686,9.941,5.715,13.154l7.9,5.78Z" transform="translate(-563.846 -421.201)" fill="#31d3f5"/>
        <path id="Path_3335" data-name="Path 3335" d="M857.394,639.512l7.9-5.78c4.029-3.213,6.343-8.433,5.715-13.154l-1.759-10.96L857.394,607Z" transform="translate(-594.951 -421.201)" fill="#31d3f5"/>
        <path id="Path_3336" data-name="Path 3336" d="M842.626,649.27,834.981,639l2.48-1.846,5.014,6.74,7.175-10.866,2.579,1.7Z" transform="translate(-579.399 -439.258)"/>
        <path id="Path_3337" data-name="Path 3337" d="M836.694,644.9l-7.645-10.275,2.48-1.846,5.014,6.74,8.121-12.3,2.579,1.7Z" transform="translate(-575.282 -435.232)" fill="#fff"/>
        <path id="Path_3338" data-name="Path 3338" d="M836.6,644.848a.043.043,0,0,1-.033-.017l-7.645-10.275a.042.042,0,0,1,.009-.058l2.48-1.846a.04.04,0,0,1,.025-.008h.006a.043.043,0,0,1,.027.016l4.95,6.653a.035.035,0,0,0,.028.014h0a.034.034,0,0,0,.028-.015l8.061-12.207a.042.042,0,0,1,.026-.018h.008a.043.043,0,0,1,.023.007l2.579,1.7a.042.042,0,0,1,.012.057l-10.549,15.974a.041.041,0,0,1-.033.018Zm-5.181-12.091a.036.036,0,0,0-.02.007l-2.358,1.756a.034.034,0,0,0-.007.048l7.535,10.127a.034.034,0,0,0,.028.014h0a.034.034,0,0,0,.028-.015l10.447-15.821a.034.034,0,0,0-.01-.047L844.61,627.2a.034.034,0,0,0-.019-.006h-.007a.033.033,0,0,0-.022.015l-8.079,12.234a.041.041,0,0,1-.033.019.038.038,0,0,1-.035-.017l-4.969-6.679a.034.034,0,0,0-.023-.013h0" transform="translate(-575.188 -435.138)"/>
        <path id="Path_3339" data-name="Path 3339" d="M997.68,1015.166H952.611a.676.676,0,1,1,0-1.351H997.68a.676.676,0,0,1,0,1.351" transform="translate(-660.554 -703.492)"/>
        <path id="Path_3340" data-name="Path 3340" d="M1087.888,1062.911h-55.042a.676.676,0,0,1,0-1.351h55.042a.676.676,0,0,1,0,1.351" transform="translate(-716.229 -736.622)"/>
        <path id="Path_3341" data-name="Path 3341" d="M1684.467,846.442h-12.246V764.214a.676.676,0,1,1,1.351,0v80.876h9.543v-81a.676.676,0,0,1,1.351,0Z" transform="translate(-1160.365 -529.735)"/>
        <path id="Path_3342" data-name="Path 3342" d="M1626.411,1038.457H1523.2v-4.219l46.231-3.979,10.952,0,46.024,3.983Zm-101.856-1.351h100.5v-1.628l-44.731-3.873-10.836,0-44.938,3.871Z" transform="translate(-1056.961 -714.9)"/>
        <path id="Path_3343" data-name="Path 3343" d="M1397.155,440.454h-131.6v-7.681c0-25.4,22.314-47.815,48.625-49.806v-.144c26.067,0,47.274-21.8,47.274-48.6V295.86h108.261v70.05c0,41.1-32.549,74.544-72.558,74.544M1266.9,439.1h130.251c39.263,0,71.207-32.834,71.207-73.192v-68.7H1362.8v37.014c0,26.231-19.784,47.8-44.83,49.8v.15c-27.205,0-51.069,22.709-51.069,48.6Z" transform="translate(-878.174 -205.298)"/>
        <path id="Path_3344" data-name="Path 3344" d="M1606.041,891.342l13.081,26.626h-20.863l-13.007-26.476Z" transform="translate(-1100.016 -618.507)" fill="#dfe3e8"/>
        <path id="Path_3345" data-name="Path 3345" d="M1448.45,938.86h21.864l16.938-13.47h2.827a4.389,4.389,0,0,1,4.268,3.369l.114.475a12.9,12.9,0,0,0,7.13,8.706l1.489.688,10.124-8.489,18.016,35.188H1499.7c-1.337-2.378-6.5-4.151-12.679-4.151s-11.342,1.773-12.679,4.151H1456.2l-12.957-7.887c-8.648-5.264-4.92-18.581,5.2-18.581" transform="translate(-998.13 -642.133)" fill="#fff"/>
        <path id="Path_3346" data-name="Path 3346" d="M1529.667,964.473h-31.522a.675.675,0,0,1-.589-.344c-1.063-1.892-5.558-3.807-12.09-3.807s-11.027,1.915-12.09,3.807a.675.675,0,0,1-.589.344h-18.134a.679.679,0,0,1-.351-.1l-12.957-7.888a10.7,10.7,0,0,1,5.553-19.835h21.628l16.753-13.322a.672.672,0,0,1,.421-.147h2.827a5.049,5.049,0,0,1,4.925,3.888l.114.474a12.151,12.151,0,0,0,6.756,8.25l1.1.509,9.8-8.213a.687.687,0,0,1,.568-.145.676.676,0,0,1,.467.354l18.016,35.189a.676.676,0,0,1-.6.984m-31.152-1.351h30.048l-17.126-33.451-9.475,7.944a.681.681,0,0,1-.717.1l-1.49-.688a13.5,13.5,0,0,1-7.5-9.163l-.114-.474a3.7,3.7,0,0,0-3.61-2.851h-2.591l-16.753,13.322a.674.674,0,0,1-.421.147H1446.9a9.346,9.346,0,0,0-4.85,17.329l12.8,7.789h17.574c1.751-2.462,7-4.151,13.049-4.151s11.3,1.69,13.049,4.151" transform="translate(-996.577 -640.601)"/>
        <path id="Path_3347" data-name="Path 3347" d="M1527.13,1016.228l6.212,12.134h-31.522c-1.337-2.379-6.5-4.152-12.679-4.152s-11.342,1.773-12.679,4.152h-18.134l-12.957-7.887a9.929,9.929,0,0,1-3.89-4.247Z" transform="translate(-1000.252 -705.166)"/>
        <path id="Path_3348" data-name="Path 3348" d="M1565.758,957.9h-9.006a.676.676,0,1,1,0-1.351h9.006a.676.676,0,0,1,0,1.351" transform="translate(-1079.771 -663.754)"/>
        <path id="Path_3349" data-name="Path 3349" d="M1578.98,946.343h-9.006a.676.676,0,1,1,0-1.351h9.006a.676.676,0,0,1,0,1.351" transform="translate(-1088.946 -655.735)"/>
        <path id="Path_3350" data-name="Path 3350" d="M1250.473,833.186l-22.118-8.6,32.377-50.056,14.923,19.72Z" transform="translate(-852.363 -537.452)" fill="#dfe3e8"/>
        <path id="Path_3351" data-name="Path 3351" d="M1096.377,851.329l19.4,10.085,21.234-4.141,2.666,1.386a4.169,4.169,0,0,1,2.122,4.7l-.235.946a12.27,12.27,0,0,0,2.205,10.471l1.194,1.542,12.894-2.864L1157.647,913l-27.976-14.54c-.092-2.727-3.861-6.685-9.341-9.533s-10.883-3.658-13.164-2.164l-16.093-8.365-7.867-12.976c-5.251-8.661,4.189-18.76,13.172-14.091" transform="translate(-750.596 -589.922)" fill="#fff"/>
        <path id="Path_3352" data-name="Path 3352" d="M1156.783,912.581l-29.307-15.233-.013-.4c-.073-2.169-3.18-5.942-8.978-8.955s-10.667-3.387-12.482-2.2l-.331.216-16.612-8.634-7.966-13.138a10.692,10.692,0,0,1,14.061-15.041l19.195,9.977,21.234-4.142,2.875,1.494a4.832,4.832,0,0,1,2.466,5.467l-.235.946a11.53,11.53,0,0,0,2.083,9.895l.932,1.2,13.3-2.955ZM1128.777,896.5l26.666,13.86.2-37.586-12.485,2.773-1.457-1.88a12.876,12.876,0,0,1-2.326-11.048l.235-.946a3.481,3.481,0,0,0-1.777-3.942l-2.457-1.277-21.234,4.142L1094.531,850.4a9.34,9.34,0,0,0-12.282,13.141l7.769,12.815,15.6,8.107c2.688-1.376,8.128-.452,13.492,2.335s9.249,6.712,9.669,9.7" transform="translate(-749.062 -588.394)"/>
        <path id="Path_3353" data-name="Path 3353" d="M1157.731,921.375l-.074,13.634-27.975-14.54c-.092-2.727-3.861-6.685-9.341-9.533s-10.883-3.658-13.164-2.164l-16.093-8.365-7.868-12.976a9.938,9.938,0,0,1-1.5-5.563Z" transform="translate(-750.607 -611.932)"/>
        <path id="Path_3354" data-name="Path 3354" d="M1218.315,888.038a.673.673,0,0,1-.311-.076l-7.993-4.154a.676.676,0,0,1,.623-1.2l7.993,4.154a.676.676,0,0,1-.312,1.276" transform="translate(-839.381 -612.394)"/>
        <path id="Path_3355" data-name="Path 3355" d="M1235.37,883.879a.674.674,0,0,1-.311-.076l-7.993-4.154a.676.676,0,0,1,.623-1.2l7.993,4.154a.676.676,0,0,1-.312,1.276" transform="translate(-851.216 -609.508)"/>
        <path id="Path_3356" data-name="Path 3356" d="M1524.428,582.731h-85.906a11.489,11.489,0,0,0-10.182,16.794l43.671,83.984h40.269l-36.6-70.308a2.813,2.813,0,0,1,2.493-4.113h46.251Z" transform="translate(-990.224 -404.36)" fill="#020202"/>
        <path id="Path_3357" data-name="Path 3357" d="M1510.754,682.653h-40.269a.675.675,0,0,1-.6-.364L1426.214,598.3A12.164,12.164,0,0,1,1437,580.524H1522.9a.675.675,0,0,1,.676.676v26.356a.675.675,0,0,1-.676.676H1476.65a2.138,2.138,0,0,0-1.893,3.126l36.6,70.308a.676.676,0,0,1-.6.988m-39.859-1.351h38.746l-36.083-69.32a3.489,3.489,0,0,1,3.092-5.1h45.576v-25H1437a10.813,10.813,0,0,0-9.583,15.806Z" transform="translate(-988.697 -402.828)" fill="#fff"/>
        <path id="Path_3358" data-name="Path 3358" d="M1335.666,595.028h50.7v-12.54h40.5l6.736,12.666a24.266,24.266,0,0,1-21.4,35.67h-67.253a12.931,12.931,0,0,0-10.842,5.887l-31.762,48.869-31.8-16.526,39.273-60.038a30.89,30.89,0,0,1,25.85-13.986" transform="translate(-881.638 -404.191)" fill="#020202"/>
        <path id="Path_3359" data-name="Path 3359" d="M1300.807,684.723a.672.672,0,0,1-.311-.076l-31.8-16.526a.677.677,0,0,1-.254-.97l39.272-60.038a31.47,31.47,0,0,1,26.416-14.292h50.021V580.956a.675.675,0,0,1,.676-.676h40.5a.677.677,0,0,1,.6.358l6.736,12.666a24.942,24.942,0,0,1-22,36.663h-67.253a12.215,12.215,0,0,0-10.276,5.579l-31.762,48.869a.675.675,0,0,1-.567.308m-30.821-17.457,30.589,15.9L1332,634.81a13.56,13.56,0,0,1,11.409-6.194h67.253a23.591,23.591,0,0,0,20.8-34.677l-6.546-12.308h-39.417V593.5a.676.676,0,0,1-.676.676h-50.7a30.123,30.123,0,0,0-25.285,13.681Z" transform="translate(-880.106 -402.659)" fill="#fff"/>
        <path id="Path_3360" data-name="Path 3360" d="M1300.362,713.358l-33-17.153,39.681-60.664a31.47,31.47,0,0,1,26.416-14.292h50.7a.676.676,0,1,1,0,1.351h-50.7a30.123,30.123,0,0,0-25.285,13.681l-38.864,59.413,30.589,15.9,31.428-48.355a13.56,13.56,0,0,1,11.408-6.194h67.253a23.591,23.591,0,0,0,20.8-34.676.676.676,0,0,1,1.193-.635,24.942,24.942,0,0,1-22,36.663h-67.253a12.214,12.214,0,0,0-10.276,5.579Z" transform="translate(-879.429 -431.088)" fill="#fff"/>
        <path id="Path_3361" data-name="Path 3361" d="M1657.431,320.165l16.807,8.283c8.185,4.034,5.316,16.367-3.807,16.367h-13.236v-9l-8.7-9.505Z" transform="translate(-1143.902 -222.164)"/>
        <rect id="Rectangle_922" data-name="Rectangle 922" width="6.86" height="15.879" transform="translate(510.147 104.44)" fill="#dfe3e8"/>
        <path id="Path_3362" data-name="Path 3362" d="M1661.783,326.17a6.039,6.039,0,1,1-6.014-6.592,6.323,6.323,0,0,1,6.014,6.592" transform="translate(-1144.776 -221.756)" fill="#dfe3e8"/>
        <path id="Path_3363" data-name="Path 3363" d="M1663.2,350.28a2.807,2.807,0,0,1-4.617-1.358Z" transform="translate(-1150.903 -242.118)" fill="#fff"/>
        <path id="Path_3364" data-name="Path 3364" d="M1654.621,332.119c-3.6,0-6.52-3.184-6.52-7.1s2.925-7.1,6.521-7.1a6.732,6.732,0,0,1,6.487,6.378.507.507,0,1,1-1.009.094,5.727,5.727,0,0,0-5.478-5.459c-3.036,0-5.507,2.73-5.507,6.085s2.47,6.086,5.507,6.086a5.012,5.012,0,0,0,1.625-.269.507.507,0,0,1,.327.96,6.045,6.045,0,0,1-1.952.323" transform="translate(-1143.627 -220.606)"/>
        <path id="Path_3365" data-name="Path 3365" d="M1655.538,323.842l-5.758,2.838c-.012-.169-.024-.338-.024-.51a6.323,6.323,0,0,1,6.014-6.592c3.321,0,6.226,3.1,6.226,6.738,0,.247-.015.49-.038.729Z" transform="translate(-1144.777 -221.756)"/>
        <path id="Path_3366" data-name="Path 3366" d="M1325.51,240.041H1295.2a3.136,3.136,0,0,1,0-6.272h30.309Z" transform="translate(-896.573 -162.213)" fill="#dfe3e8"/>
        <path id="Path_3367" data-name="Path 3367" d="M1359.435,272.585a2.462,2.462,0,0,1-2.452,2.474l-7.749,0,.012,3.221-1.872.007a6.051,6.051,0,0,1-4.612-2.116c-1.871-2.1-1.02-6.01,2.1-6.022l12.1-.021a2.462,2.462,0,0,1,2.471,2.454" transform="translate(-931.069 -187.445)" fill="#dfe3e8"/>
        <path id="Path_3368" data-name="Path 3368" d="M1355.257,288.546a2.463,2.463,0,0,1-2.452,2.474l-3.571,0,.012,3.221-1.872.007a6.052,6.052,0,0,1-4.612-2.116c-1.871-2.1-1.02-6.01,2.1-6.022l7.924-.021a2.463,2.463,0,0,1,2.471,2.454" transform="translate(-931.069 -198.52)" fill="#dfe3e8"/>
        <path id="Path_3369" data-name="Path 3369" d="M1376.936,199.115l-6.109-6.271a8.014,8.014,0,0,1-2.273-5.593v-.579a2.931,2.931,0,0,0-2.93-2.932h-.352a2.931,2.931,0,0,0-2.93,2.933v3.679a8.014,8.014,0,0,0,2.28,5.6l7.1,7.267H1359V223.3h12.02L1394.6,258.3l17.221-10.625-27.7-39.846a68.559,68.559,0,0,0-7.187-8.709" transform="translate(-943.018 -127.497)" fill="#dfe3e8"/>
        <path id="Path_3370" data-name="Path 3370" d="M1361.868,256.548a2.463,2.463,0,0,1-2.452,2.474l-10.182,0,.013,3.221-1.872.007a6.053,6.053,0,0,1-4.612-2.116c-1.87-2.1-1.021-6.01,2.1-6.023l14.534-.021a2.463,2.463,0,0,1,2.471,2.454" transform="translate(-931.07 -176.316)" fill="#dfe3e8"/>
        <path id="Path_3371" data-name="Path 3371" d="M1341.07,259.095a.675.675,0,0,1-.533-.26,4.716,4.716,0,0,1-.529-4.862,3.576,3.576,0,0,1,3.314-2.065l14.536-.021a3.216,3.216,0,0,1,2.221.911,3.14,3.14,0,0,1-2.047,5.364h-2.606a.676.676,0,0,1,0-1.351H1358a1.789,1.789,0,0,0-.128-3.573h-.007l-14.536.021a2.242,2.242,0,0,0-2.1,1.3,3.383,3.383,0,0,0,.38,3.44.676.676,0,0,1-.533,1.091" transform="translate(-929.531 -174.785)"/>
        <path id="Path_3372" data-name="Path 3372" d="M1341.072,275.135a.675.675,0,0,1-.533-.259,4.717,4.717,0,0,1-.534-4.865,3.577,3.577,0,0,1,3.316-2.066l12.1-.021h.013a3.139,3.139,0,0,1,.011,6.279l-3.677,0a.676.676,0,1,1,0-1.351l3.675,0a1.788,1.788,0,0,0-.009-3.576h-.008l-12.1.021a2.245,2.245,0,0,0-2.1,1.305,3.384,3.384,0,0,0,.383,3.442.676.676,0,0,1-.531,1.092" transform="translate(-929.53 -185.913)"/>
        <path id="Path_3373" data-name="Path 3373" d="M1346.427,257.679l-23.842-35.319-11.238.013h-.027a6.632,6.632,0,0,1-5.086-2.346,4.749,4.749,0,0,1-.776-4.956,3.571,3.571,0,0,1,3.372-2.189l7.925-.021h.012a3.139,3.139,0,0,1,.011,6.279l-3.313,0h0a.676.676,0,0,1,0-1.351l3.312,0a1.788,1.788,0,0,0-.009-3.576h-.007l-7.925.021a2.246,2.246,0,0,0-2.142,1.387,3.364,3.364,0,0,0,.546,3.51l.27.3a5.454,5.454,0,0,0,3.813,1.588h.022l11.959-.014.2.3,23.317,34.541,16.062-9.91-27.293-39.259a68,68,0,0,0-7.116-8.624l-6.109-6.272a8.644,8.644,0,0,1-2.465-6.065v-.579a2.258,2.258,0,0,0-2.254-2.257h-.352a2.258,2.258,0,0,0-2.254,2.257v3.679a7.3,7.3,0,0,0,2.087,5.126l4.162,4.262-27.859-.01a2.225,2.225,0,0,0-2.221,2.223v.474a2.225,2.225,0,0,0,2.221,2.224h15.55a.676.676,0,0,1,0,1.351h-15.55a3.577,3.577,0,0,1-3.573-3.575v-.474a3.578,3.578,0,0,1,3.573-3.575l24.65.009-1.919-1.966a8.642,8.642,0,0,1-2.472-6.07v-3.679a3.611,3.611,0,0,1,3.605-3.608h.352a3.611,3.611,0,0,1,3.605,3.608v.579a7.3,7.3,0,0,0,2.082,5.121l6.109,6.272a69.5,69.5,0,0,1,7.258,8.795l28.107,40.433Z" transform="translate(-895.041 -125.965)"/>
        <path id="Path_3374" data-name="Path 3374" d="M1520.9,394.869h-38.932v-19.56H1464.2l4.338-18.405a7.7,7.7,0,0,0-1.8-7.061,9.148,9.148,0,0,1-2.169-3.831h-22.547a23.665,23.665,0,0,1-19.669-10.514l-20.844-31.175,20.493-13.837,20.743,30.783h55.668a1.717,1.717,0,0,1,.182.006h4.615a22.665,22.665,0,0,1,21.149,14.52l13.331,34.58a18.011,18.011,0,0,1-16.79,24.493" transform="translate(-972.519 -201.569)" fill="#fff"/>
        <path id="Path_3375" data-name="Path 3375" d="M1519.372,394.011H1480.44a.676.676,0,0,1-.676-.676V374.451H1462.67a.675.675,0,0,1-.658-.831l4.338-18.405a6.993,6.993,0,0,0-1.631-6.441,9.908,9.908,0,0,1-2.177-3.62h-22.048a24.294,24.294,0,0,1-20.23-10.814l-20.845-31.175a.676.676,0,0,1,.184-.935l20.493-13.837a.676.676,0,0,1,.938.183l20.542,30.485h55.309c.071,0,.142,0,.213.006h4.584a23.484,23.484,0,0,1,21.779,14.953l13.33,34.58a18.69,18.69,0,0,1-2.03,17.3,18.419,18.419,0,0,1-15.39,8.108m-38.256-1.351h38.256a17.335,17.335,0,0,0,16.16-23.574l-13.331-34.58a22.125,22.125,0,0,0-20.518-14.087h-4.615a.638.638,0,0,1-.073,0,.88.88,0,0,0-.109,0h-55.668a.675.675,0,0,1-.56-.3l-20.365-30.222-19.375,13.082,20.47,30.616a22.946,22.946,0,0,0,19.107,10.213h22.547a.676.676,0,0,1,.651.495,8.516,8.516,0,0,0,2.009,3.548,8.339,8.339,0,0,1,1.964,7.679l-4.142,17.575h16.917a.675.675,0,0,1,.676.676Z" transform="translate(-970.987 -200.036)"/>
        <path id="Path_3376" data-name="Path 3376" d="M1489.777,443.46h3.7a17.438,17.438,0,0,0-23.153-10.21,23.656,23.656,0,0,0,19.453,10.21" transform="translate(-1020.267 -299.695)" fill="#dfe3e8"/>
        <rect id="Rectangle_923" data-name="Rectangle 923" width="14.868" height="6.705" transform="translate(506.33 113.647)"/>
        <path id="Path_3377" data-name="Path 3377" d="M1604.792,460.9a.694.694,0,0,1-.156-.018.675.675,0,0,1-.5-.813l4.333-18.4a7,7,0,0,0-1.626-6.447,9.92,9.92,0,0,1,2.564-15.565,9.137,9.137,0,0,0,4.8-6.247.676.676,0,1,1,1.326.26,10.482,10.482,0,0,1-5.487,7.18,8.568,8.568,0,0,0-2.217,13.445,8.346,8.346,0,0,1,1.958,7.685l-4.333,18.4a.676.676,0,0,1-.657.521" transform="translate(-1113.105 -286.488)"/>
        <path id="Path_3378" data-name="Path 3378" d="M1676.492,450.107a.673.673,0,0,1-.383-.119,9.92,9.92,0,0,1,5.613-18.091h0a.676.676,0,0,1,0,1.351,8.568,8.568,0,0,0-4.847,15.627.676.676,0,0,1-.384,1.232" transform="translate(-1160.082 -299.694)"/>
        <path id="Path_3379" data-name="Path 3379" d="M1563.834,552.387c-2.22,0-3.507-3.065-8.516-3.065H1543.24a12.861,12.861,0,0,0-9.443,4.13l-1.272,1.376a3.521,3.521,0,0,0-.6,3.884l.023.015-1.433,1.55a3.521,3.521,0,0,0-.377,4.293l-.858.928a3.52,3.52,0,0,0-.273,4.446l.852,1.184a3.226,3.226,0,0,0,5.064,3.977l1.528-1.706a3.846,3.846,0,0,1,2.866-1.281h32.114V552.387Z" transform="translate(-1060.526 -381.177)" fill="#dfe3e8"/>
        <path id="Path_3380" data-name="Path 3380" d="M1531.4,576.067a.676.676,0,0,1-.569-.31,4.2,4.2,0,0,1,.45-5.117l2.249-2.432a10.281,10.281,0,0,1,7.524-3.291h6.19a.676.676,0,1,1,0,1.351h-6.19a8.926,8.926,0,0,0-6.532,2.857l-2.248,2.432a2.844,2.844,0,0,0-.305,3.469.676.676,0,0,1-.2.934.667.667,0,0,1-.365.107" transform="translate(-1061.793 -391.999)"/>
        <path id="Path_3381" data-name="Path 3381" d="M1528.342,594.471a.674.674,0,0,1-.549-.281l-.86-1.195a4.21,4.21,0,0,1,.324-5.3l2.7-2.918a8.767,8.767,0,0,1,6.417-2.806h8.141a.676.676,0,1,1,0,1.351h-8.141a7.412,7.412,0,0,0-5.425,2.372l-2.7,2.918a2.856,2.856,0,0,0-.22,3.594l.86,1.195a.676.676,0,0,1-.547,1.07" transform="translate(-1059.003 -403.832)"/>
        <path id="Path_3382" data-name="Path 3382" d="M1577.928,571.262h-20.12a.676.676,0,0,1,0-1.351h18.768V551.53h-6.919a5.274,5.274,0,0,1-2.885-1.19,9.1,9.1,0,0,0-5.631-1.875h-12.077a12.222,12.222,0,0,0-8.946,3.913l-1.273,1.376a2.833,2.833,0,0,0-.487,3.139.676.676,0,0,1-1.224.574,4.179,4.179,0,0,1,.719-4.63l1.272-1.376a13.577,13.577,0,0,1,9.938-4.347h12.077a10.513,10.513,0,0,1,6.378,2.1,4.221,4.221,0,0,0,2.138.965h8.27Z" transform="translate(-1066.35 -379.645)"/>
        <path id="Path_3383" data-name="Path 3383" d="M1533.143,611.033c-.071,0-.141,0-.212-.005a3.908,3.908,0,0,1-2.657-6.556l2.815-3.044a8.91,8.91,0,0,1,6.522-2.853h6.774a.676.676,0,0,1,0,1.351h-6.774a7.553,7.553,0,0,0-5.53,2.419l-2.815,3.044a2.554,2.554,0,1,0,3.774,3.442l1.528-1.706a4.527,4.527,0,0,1,3.369-1.506h19.349a9.466,9.466,0,0,0,7.841-4.163.675.675,0,1,1,1.118.758,10.814,10.814,0,0,1-8.959,4.757h-19.349a3.172,3.172,0,0,0-2.362,1.056l-1.527,1.705a3.883,3.883,0,0,1-2.9,1.3" transform="translate(-1061.148 -415.354)"/>
        <path id="Path_3384" data-name="Path 3384" d="M1816.206,572.985a19.234,19.234,0,0,0,.52,4.433,18.036,18.036,0,0,0,9.215-21.123,19.161,19.161,0,0,0-9.735,16.69" transform="translate(-1260.277 -386.016)" fill="#dfe3e8"/>
        <path id="Path_3385" data-name="Path 3385" d="M1701.776,463.818h-39.6V437.93h29.416l-9.6-24.9a.676.676,0,0,1,1.261-.486l10.307,26.739h-30.034v23.185h38.253a17.335,17.335,0,0,0,16.159-23.577l-13.328-34.576a22.129,22.129,0,0,0-20.519-14.09h-16.021a.676.676,0,1,1,0-1.351h16.021a23.488,23.488,0,0,1,21.78,14.955L1719.2,438.4a18.693,18.693,0,0,1-2.029,17.307,18.417,18.417,0,0,1-15.39,8.107" transform="translate(-1153.391 -269.84)"/>
        <path id="Path_3386" data-name="Path 3386" d="M207.5,1015.166H101.085a.676.676,0,0,1,0-1.351H207.5a.676.676,0,0,1,0,1.351" transform="translate(-69.674 -703.492)"/>
        <path id="Path_3387" data-name="Path 3387" d="M330,648.682V662.44a9.124,9.124,0,0,1-9.119,9.128h-4.112l-12.752,2.489v-4.231a12.193,12.193,0,0,1,6.466-10.766Z" transform="translate(-210.957 -450.124)"/>
        <rect id="Rectangle_924" data-name="Rectangle 924" width="11.853" height="14.944" transform="translate(94.873 227.68)" fill="#dfe3e8"/>
        <path id="Path_3388" data-name="Path 3388" d="M309.95,748.319v-4.5H321.8v9.929a11.136,11.136,0,0,1-5.65-.326,11.5,11.5,0,0,1-6.2-5.105" transform="translate(-215.076 -516.141)"/>
        <path id="Path_3389" data-name="Path 3389" d="M304.013,709.581c0,5.747,4.212,10.407,9.407,10.407s9.407-4.659,9.407-10.407-4.212-10.407-9.407-10.407-9.407,4.659-9.407,10.407" transform="translate(-210.957 -485.16)" fill="#dfe3e8"/>
        <path id="Path_3390" data-name="Path 3390" d="M314.916,719.133a9,9,0,0,1-7.706-3.3.676.676,0,1,1,1-.91c2.217,2.429,3.93,2.856,6.707,2.856,4.815,0,8.732-4.366,8.732-9.731s-3.917-9.731-8.732-9.731a8.531,8.531,0,0,0-7.478,4.706.675.675,0,1,1-1.188-.644,9.99,9.99,0,0,1,8.665-5.413c5.56,0,10.083,4.972,10.083,11.082s-4.523,11.082-10.083,11.082" transform="translate(-212.452 -483.63)"/>
        <path id="Path_3391" data-name="Path 3391" d="M313.421,699.174c-5.2,0-9.407,4.659-9.407,10.407a11.577,11.577,0,0,0,.1,1.521l6.091-4.5h12.229a9.589,9.589,0,0,0-9.014-7.43" transform="translate(-210.957 -485.16)"/>
        <path id="Path_3392" data-name="Path 3392" d="M325.018,742.971a5.04,5.04,0,0,0,8.289-2.438Z" transform="translate(-225.532 -513.86)" fill="#fff"/>
        <rect id="Rectangle_925" data-name="Rectangle 925" width="59.616" height="29.378" transform="matrix(0.82, -0.572, 0.572, 0.82, 99.142, 420.878)" fill="#dfe3e8"/>
        <path id="Path_3393" data-name="Path 3393" d="M409.869,1302.623l-25.879-17.76,30.5-21.3,16.8,24.1Z" transform="translate(-266.453 -876.796)" fill="#b9bec6"/>
        <rect id="Rectangle_926" data-name="Rectangle 926" width="19.378" height="29.378" transform="matrix(0.82, -0.572, 0.572, 0.82, 99.152, 420.892)" fill="#020202"/>
        <path id="Path_3394" data-name="Path 3394" d="M298.571,1349.784l-.724-.044c-8.292-.51-12.794,2.872-21.958,5.966l9.45,35.482,28.979,42.712,9.288,4.27,4.294-6.632-8.587-28.816-1.043-23.207,2.642-6.783-3.112-4.465-6.106-1.308L307.332,1370c-5.487-2.468-7.231-2.393-8.7-4.5-.018-.055-2.825-3.332-.242-6.8l2.658-3.573a3.35,3.35,0,0,0-2.479-5.344" transform="translate(-191.441 -936.556)" fill="#fff"/>
        <path id="Path_3395" data-name="Path 3395" d="M283.256,1448.256l-11.734-11.445-23.69-35.5-12.293-35.52-6.84-1.567-10.96,5,2.95,14.9s5.757,8.184,12.982,18.628l4.242.784,2.723,3.907-.711,4.283c11.3,16.314,23.637,33.918,23.637,33.918l11.457,6.088,4.015-.531Z" transform="translate(-151.091 -946.644)" fill="#020202"/>
        <path id="Path_3396" data-name="Path 3396" d="M322.223,1318.669l.229-1.459c.17-1.08,1.7-10.616,3.076-12.7a5.06,5.06,0,1,1,8.434,5.592c-1.379,2.082-9.558,7.207-10.486,7.785Zm7.53-15.074a3.769,3.769,0,0,0-.745.075,3.684,3.684,0,0,0-2.353,1.587c-.884,1.335-2.032,7.23-2.624,10.68,2.945-1.89,7.92-5.245,8.8-6.58a3.719,3.719,0,0,0-1.042-5.145,3.681,3.681,0,0,0-2.04-.618" transform="translate(-223.593 -903.635)"/>
        <path id="Path_3397" data-name="Path 3397" d="M399.331,1458.776a.677.677,0,0,1-.236-.043l-6.478-2.417a.676.676,0,1,1,.473-1.266l6.478,2.417a.676.676,0,0,1-.236,1.308" transform="translate(-272.134 -1009.638)"/>
        <path id="Path_3398" data-name="Path 3398" d="M399.675,1478.131a.673.673,0,0,1-.236-.043l-6.478-2.417a.676.676,0,1,1,.473-1.266l6.478,2.417a.676.676,0,0,1-.236,1.309" transform="translate(-272.373 -1023.069)"/>
        <path id="Path_3399" data-name="Path 3399" d="M400.019,1497.485a.675.675,0,0,1-.236-.043l-6.478-2.417a.676.676,0,1,1,.473-1.266l6.478,2.417a.676.676,0,0,1-.236,1.309" transform="translate(-272.612 -1036.499)"/>
        <path id="Path_3400" data-name="Path 3400" d="M486.929,981.829l-58.116,13.453L438,1037.688l35.47-9.673-52.346,36.547,24.665,35.393,124.732-87.086a24.3,24.3,0,0,0,6.02-33.816l-1.4-2a24.254,24.254,0,0,0-25.37-9.768Z" transform="translate(-292.221 -670.767)"/>
        <path id="Path_3401" data-name="Path 3401" d="M460.084,1229.452c4.951-3.421,8.741-7.391,18.9-7.938,12.671-.682,30.415.644,39.213-7.3h-51.9l-25.757,17.984c12.014.675,17.562-1.369,19.55-2.743" transform="translate(-305.689 -842.548)"/>
        <rect id="Rectangle_927" data-name="Rectangle 927" width="26.987" height="57.006" transform="translate(236.269 458.007) rotate(-20.611)" fill="#dfe3e8"/>
        <path id="Path_3402" data-name="Path 3402" d="M808.4,1495.088l-23.65,13.789-12.815-34.138,25.259-9.5Z" transform="translate(-535.653 -1016.737)" fill="#b9bec6"/>
        <rect id="Rectangle_928" data-name="Rectangle 928" width="26.987" height="17.351" transform="translate(250.217 495.128) rotate(-20.611)" fill="#020202"/>
        <path id="Path_3403" data-name="Path 3403" d="M811.08,1627.126c-.719-9.488-2.844-14.6-.345-22.384l.218-.679a3.289,3.289,0,0,1,5.688-1.066l2.755,3.4c2.677,3.305,6.477,1.426,6.534,1.422,2.359-.887,2.71-2.568,6.392-7.2l-1.839-4.9,2.728-5.5,5.005-1.883,5.813,4.166,22.6,3.505,19.479-8.621,7.481,2.07-1.414,9.832-21.661,23.9-23.375,3.548Z" transform="translate(-561.753 -1101.496)" fill="#fff"/>
        <path id="Path_3404" data-name="Path 3404" d="M808.921,1626.184l-.048-.631c-.2-2.7-.53-5.09-.818-7.2-.741-5.442-1.327-9.74.5-15.44l.219-.68a3.965,3.965,0,0,1,6.856-1.285l2.755,3.4a4.69,4.69,0,0,0,5.695,1.244l.115-.045c1.367-.526,1.942-1.339,3.315-3.279.638-.9,1.421-2.01,2.509-3.393l-1.807-4.815,2.976-6.006,5.592-2.1,5.975,4.282,22.247,3.45,19.519-8.639,8.286,2.295-1.528,10.626-21.962,24.228-.238.035-23.469,3.557Zm3.648-25.356a2.669,2.669,0,0,0-.5.047,2.577,2.577,0,0,0-2.008,1.771l-.218.68c-1.737,5.407-1.169,9.572-.451,14.844.268,1.965.568,4.171.776,6.651l35.383-.385,23.09-3.505L890,1597.365l1.3-9.039-6.675-1.847-19.439,8.6-22.957-3.561-5.65-4.048-4.418,1.661-2.48,5,1.87,4.982-.238.3c-1.189,1.5-2.027,2.681-2.7,3.634-1.417,2-2.2,3.107-3.982,3.778l-.019.007a6.072,6.072,0,0,1-7.278-1.636l-2.755-3.4a2.572,2.572,0,0,0-2.014-.97" transform="translate(-560.22 -1099.872)"/>
        <path id="Path_3405" data-name="Path 3405" d="M804.244,1637.89l3.153-6.141,36.788-3.094,24.607-7.708,12.63-13.2,8.49-13.7,3.721,3.432,1.359,3.745-3.469,12.244s-4.389,5-13.266,14.636c0,0-20.744,8.628-26.081,10.618l-3.9-1.718-4.38,1.647-1.776,3.854c-11.693,4.352-20.88,7.853-20.88,7.853H806.482Z" transform="translate(-558.07 -1106.12)" fill="#020202"/>
        <path id="Path_3406" data-name="Path 3406" d="M781.359,1635.973l-1.356-.582c-.987-.424-9.693-4.2-11.342-6.02a5,5,0,0,1,.349-7.045,4.982,4.982,0,0,1,7.04.349c1.648,1.822,4.54,10.866,4.864,11.892Zm-9.008-13.588a3.6,3.6,0,0,0-2.434.941,3.643,3.643,0,0,0-.254,5.137c1.052,1.163,6.356,3.678,9.5,5.081-1.085-3.269-3.062-8.8-4.114-9.964a3.606,3.606,0,0,0-2.513-1.191c-.061,0-.123,0-.184,0" transform="translate(-532.485 -1124.845)"/>
        <path id="Path_3407" data-name="Path 3407" d="M925.411,1612.054a.675.675,0,0,1-.555-1.06l3.873-5.589a.676.676,0,1,1,1.11.77l-3.873,5.589a.674.674,0,0,1-.556.291" transform="translate(-641.68 -1113.797)"/>
        <path id="Path_3408" data-name="Path 3408" d="M943.911,1616.427a.675.675,0,0,1-.555-1.06l3.873-5.589a.675.675,0,1,1,1.11.769l-3.873,5.589a.675.675,0,0,1-.556.291" transform="translate(-654.517 -1116.832)"/>
        <path id="Path_3409" data-name="Path 3409" d="M962.411,1620.8a.675.675,0,0,1-.555-1.06l3.873-5.589a.675.675,0,1,1,1.11.769l-3.873,5.588a.674.674,0,0,1-.556.291" transform="translate(-667.355 -1119.867)"/>
        <path id="Path_3410" data-name="Path 3410" d="M344.819,1120.53h38.276l41.192,114.111,47.567-17.2-34.982-96.908,0-.01-10.045-27.667a29.442,29.442,0,0,0-27.67-19.4H274.364v13.834a33.23,33.23,0,0,0,33.215,33.245Z" transform="translate(-190.383 -744.873)" fill="#020202"/>
        <path id="Path_3411" data-name="Path 3411" d="M422.755,1233.784a.668.668,0,0,1-.287-.064.676.676,0,0,1-.349-.382l-41.031-113.665H306.047a33.944,33.944,0,0,1-33.89-33.921v-13.834a.676.676,0,0,1,.676-.676H397.621a30.209,30.209,0,0,1,28.305,19.848l10.045,27.667,34.986,96.919a.675.675,0,0,1-.406.865l-47.566,17.2a.674.674,0,0,1-.23.04m-149.247-161.19v13.158a32.591,32.591,0,0,0,32.539,32.57h75.516a.675.675,0,0,1,.635.446l40.962,113.475,46.3-16.743L434.7,1119.228l-10.048-27.676a28.853,28.853,0,0,0-27.035-18.958Z" transform="translate(-188.851 -743.341)" fill="#fff"/>
        <path id="Path_3412" data-name="Path 3412" d="M697.83,1092.855a29.442,29.442,0,0,0-27.67-19.4h-5.243Z" transform="translate(-461.39 -744.874)" fill="#020202"/>
        <path id="Path_3413" data-name="Path 3413" d="M696.3,1092a.676.676,0,0,1-.635-.445,28.853,28.853,0,0,0-27.035-18.958h-5.243a.676.676,0,0,1,0-1.351h5.243a30.208,30.208,0,0,1,28.305,19.848.676.676,0,0,1-.4.866.692.692,0,0,1-.231.04" transform="translate(-459.858 -743.341)" fill="#fff"/>
        <path id="Path_3414" data-name="Path 3414" d="M664.917,1073.452a31.389,31.389,0,0,0,36.352,28.873Z" transform="translate(-461.39 -744.874)"/>
        <path id="Path_3415" data-name="Path 3415" d="M342.121,1088.617H274.364v9.192a33.3,33.3,0,0,0,1.165,8.728c3.036-.457,6.436-1.266,8.48-2.679,4.951-3.421,8.741-7.391,18.9-7.938,12.671-.682,30.415.645,39.213-7.3" transform="translate(-190.383 -755.397)"/>
        <path id="Path_3416" data-name="Path 3416" d="M344.819,1120.53h38.276l41.192,114.111,47.567-17.2-34.982-96.908,0-.01-10.045-27.667a29.442,29.442,0,0,0-27.67-19.4H274.364v13.834a33.23,33.23,0,0,0,33.215,33.245Z" transform="translate(-190.383 -744.873)" fill="#020202"/>
        <path id="Path_3417" data-name="Path 3417" d="M422.755,1233.784a.668.668,0,0,1-.287-.064.676.676,0,0,1-.349-.382l-41.031-113.665H306.047a33.944,33.944,0,0,1-33.89-33.921v-13.834a.676.676,0,0,1,.676-.676H397.621a30.209,30.209,0,0,1,28.305,19.848l10.045,27.667,34.986,96.919a.675.675,0,0,1-.406.865l-47.566,17.2a.674.674,0,0,1-.23.04m-149.247-161.19v13.158a32.591,32.591,0,0,0,32.539,32.57h75.516a.675.675,0,0,1,.635.446l40.962,113.475,46.3-16.743L434.7,1119.228l-10.048-27.676a28.853,28.853,0,0,0-27.035-18.958Z" transform="translate(-188.851 -743.341)" fill="#fff"/>
        <path id="Path_3418" data-name="Path 3418" d="M563.359,669.526a4,4,0,0,0-5.282-1.638l-6.4,3.45-.194-.33a4.485,4.485,0,0,0-5.6-1.864l-12.446,5.2a17.951,17.951,0,0,1-9.732,1.357l-6.452-.9L523.2,662.75a3.84,3.84,0,0,0-1.663-5.1l-.389-.2a3.832,3.832,0,0,0-5.1,1.484l-2.044,3.547a40.573,40.573,0,0,1-6.492,8.462c-2.222,2.218-4.826,4.876-5.968,6.268a10.269,10.269,0,0,0-1.043,11.945l-23.624,32.8-12.086-9.468L449.159,733.6l22.215,16.479a10.609,10.609,0,0,0,14.91-2.292l32.43-44.694,43.334-28.262a4.006,4.006,0,0,0,1.311-5.3" transform="translate(-311.674 -455.901)" fill="#dfe3e8"/>
        <path id="Path_3419" data-name="Path 3419" d="M475.526,751.305a11.194,11.194,0,0,1-6.7-2.224L446.072,732.2l16.45-22.216,12.079,9.463,22.96-31.876a10.982,10.982,0,0,1,1.322-12.33c1.19-1.45,3.927-4.236,6.013-6.318a39.928,39.928,0,0,0,6.384-8.321l2.044-3.547a4.5,4.5,0,0,1,6-1.746l.39.2a4.542,4.542,0,0,1,1.955,6l-5.528,11.214,5.526.771a17.263,17.263,0,0,0,9.366-1.307l12.459-5.207a5.183,5.183,0,0,1,6.3,1.918l5.83-3.145a4.681,4.681,0,0,1,4.661,8.1l-43.23,28.193-32.357,44.593a11.21,11.21,0,0,1-7.423,4.53,11.49,11.49,0,0,1-1.739.133m-27.564-19.387L469.634,748a9.934,9.934,0,0,0,13.961-2.147l32.5-44.794.1-.069,43.334-28.262a3.33,3.33,0,0,0-3.3-5.771l-6.95,3.749-.524-.89a3.825,3.825,0,0,0-4.752-1.584l-12.447,5.2a18.591,18.591,0,0,1-10.086,1.4L514.1,673.8l6.354-12.892a3.182,3.182,0,0,0-1.37-4.2l-.39-.2a3.152,3.152,0,0,0-4.2,1.223l-2.044,3.547a41.287,41.287,0,0,1-6.6,8.6c-2.961,2.954-5.009,5.1-5.923,6.219a9.52,9.52,0,0,0-1,11.147l.251.388-.269.376-24.035,33.369L462.782,711.9Z" transform="translate(-309.532 -454.363)"/>
        <path id="Path_3420" data-name="Path 3420" d="M719.588,692.625l3.47-1.772a12.8,12.8,0,0,0,5.272-5.017l6.763-11.762a3.568,3.568,0,0,1,6.341,3.255l-6.265,13.844a9.186,9.186,0,0,1-2.133,2.958l-4.856,4.489Z" transform="translate(-499.327 -466.5)" fill="#dfe3e8"/>
        <path id="Path_3421" data-name="Path 3421" d="M753.783,693.283a.676.676,0,0,1-.458-1.172,8.452,8.452,0,0,0,1.976-2.74l6.266-13.844a2.893,2.893,0,0,0-5.14-2.639l-5.679,9.754a.676.676,0,0,1-1.168-.68l5.677-9.751a4.244,4.244,0,0,1,7.541,3.872l-6.265,13.844a9.8,9.8,0,0,1-2.29,3.175.673.673,0,0,1-.458.179" transform="translate(-520.074 -464.979)"/>
        <path id="Path_3422" data-name="Path 3422" d="M661.454,719.566a.668.668,0,0,1-.3-.072.675.675,0,0,1-.3-.907l2.65-5.283a.676.676,0,0,1,1.208.606l-2.65,5.283a.676.676,0,0,1-.6.373" transform="translate(-458.519 -494.706)"/>
        <path id="Path_3423" data-name="Path 3423" d="M688.707,530.76l-48.591,76.951-13.41-8.151,50.07-76.613Z" transform="translate(-434.875 -362.876)" fill="#fff"/>
        <path id="Path_3424" data-name="Path 3424" d="M638.583,606.857a.673.673,0,0,1-.351-.1l-13.41-8.15a.676.676,0,0,1-.215-.947l50.07-76.613a.676.676,0,0,1,1.131.739l-49.688,76.029,12.246,7.442,48.237-76.39a.676.676,0,0,1,1.143.722l-48.591,76.951a.675.675,0,0,1-.572.315" transform="translate(-433.343 -361.346)"/>
        <path id="Path_3425" data-name="Path 3425" d="M631.859,774.5c-3.529-2.323-7.015-3.253-7.787-2.079s1.464,4.009,4.992,6.332,8.515,3.517,9.286,2.342-2.963-4.273-6.492-6.6" transform="translate(-432.942 -535.635)"/>
        <path id="Path_3426" data-name="Path 3426" d="M773.206,246.745a72.227,72.227,0,0,1-39.692-11.908,72.859,72.859,0,0,1,24.946-132.26,72.821,72.821,0,0,1,75.8,111.177l-.565-.369.565.369a72.3,72.3,0,0,1-46.009,31.425,73.384,73.384,0,0,1-15.042,1.566m.293-144.381a72,72,0,0,0-14.762,1.537,70.993,70.993,0,1,0,14.762-1.537" transform="translate(-486.15 -70.092)"/>
        <path id="Path_3427" data-name="Path 3427" d="M802.273,263a59.509,59.509,0,0,1-32.7-9.811,59.6,59.6,0,1,1,32.7,9.811m.241-118.721a59.1,59.1,0,0,0-12.113,1.261,58.261,58.261,0,1,0,12.113-1.261" transform="translate(-515.192 -99.179)"/>
        <path id="Path_3428" data-name="Path 3428" d="M881.58,180.668A72.143,72.143,0,0,1,779.575,282.487,72.143,72.143,0,1,0,881.58,180.668" transform="translate(-540.952 -125.366)"/>
        <path id="Path_3429" data-name="Path 3429" d="M704.558,698.263c1.989-1.476,2.677-3.669,3.54-5.992l4.727-12.72c.68-1.829,3.376-2.773,5.213-2.12h-.675a3.571,3.571,0,0,1,2.253,4.28L716.61,695.63a13.552,13.552,0,0,1-1.825,4.042l-4.276,5.122Z" transform="translate(-488.897 -469.93)" fill="#dfe3e8"/>
        <path id="Path_3430" data-name="Path 3430" d="M711.562,701a.676.676,0,0,1-.531-1.093l.114-.145c1.694-2.158,3.3-4.2,3.918-6.839l3.039-12.9a2.892,2.892,0,0,0-5.5-1.77l-5.076,12.657a15.064,15.064,0,0,1-2.288,3.787,22.737,22.737,0,0,0-1.625,2.368.676.676,0,0,1-1.173-.672,23.966,23.966,0,0,1,1.718-2.508,13.831,13.831,0,0,0,2.108-3.462l5.076-12.657a4.243,4.243,0,0,1,8.072,2.585l-3.035,12.879c-.691,2.934-2.381,5.085-4.171,7.364l-.114.145a.673.673,0,0,1-.532.259" transform="translate(-487.365 -468.402)"/>
        <path id="Path_3431" data-name="Path 3431" d="M630.36,674.8c1.1-3.175,5.941-12.052,5.941-12.052a3.84,3.84,0,0,0-1.663-5.1l-.389-.2a3.833,3.833,0,0,0-5.1,1.484l-2.044,3.547a40.574,40.574,0,0,1-6.492,8.462c-2.222,2.218-4.826,4.876-5.968,6.268a10.269,10.269,0,0,0-1.043,11.945s12.718-2.682,16.756-14.35" transform="translate(-424.773 -455.902)" fill="#dfe3e8"/>
        <path id="Path_3432" data-name="Path 3432" d="M612.109,688.29a.675.675,0,0,1-.566-.306,11.036,11.036,0,0,1,1.086-12.744c1.19-1.45,3.927-4.236,6.013-6.318a39.932,39.932,0,0,0,6.384-8.321l2.044-3.547a4.5,4.5,0,0,1,6-1.746l.389.2a4.542,4.542,0,0,1,1.956,6c-.243.525-6.136,13.256-8.618,17.386-1.576,2.621-4.577,6.1-7.851,7.271a.676.676,0,0,1-.456-1.272c2.938-1.053,5.688-4.265,7.149-6.7,2.444-4.067,8.5-17.14,8.557-17.272a3.186,3.186,0,0,0-1.363-4.218l-.39-.2a3.152,3.152,0,0,0-4.2,1.223l-2.044,3.547a41.275,41.275,0,0,1-6.6,8.6c-2.961,2.954-5.009,5.1-5.923,6.219a9.64,9.64,0,0,0-1,11.146.676.676,0,0,1-.564,1.046" transform="translate(-423.278 -454.363)"/>
        <path id="Path_3433" data-name="Path 3433" d="M238.7,826.783l15.844,58.506H171.434V838.864H140.151l5.675-24.939a27.332,27.332,0,0,1,25.608-21.256c.344-.02.7-.027,1.047-.027h55.472c.507,0,1.007.014,1.514.048a28.485,28.485,0,0,1,15.479,5.568l11.743,8.709Z" transform="translate(-97.252 -550.018)" fill="#fff"/>
        <path id="Path_3434" data-name="Path 3434" d="M253.015,884.433H169.9a.676.676,0,0,1-.676-.676V838.008H138.619a.676.676,0,0,1-.659-.826l5.676-24.939a28.036,28.036,0,0,1,26.241-21.782c.343-.02.708-.027,1.072-.027h55.472c.552,0,1.062.016,1.558.049a29.071,29.071,0,0,1,15.837,5.7l11.743,8.71a.675.675,0,0,1,.1,1L237.92,825.431l15.748,58.149a.676.676,0,0,1-.652.853m-82.438-1.351h81.555l-15.614-57.653a.676.676,0,0,1,.152-.63l17.485-19.265-11.144-8.265a27.73,27.73,0,0,0-15.112-5.435c-.476-.032-.957-.047-1.479-.047H170.949c-.339,0-.677.006-1.009.026a26.687,26.687,0,0,0-24.987,20.732l-5.488,24.113H169.9a.675.675,0,0,1,.676.676Z" transform="translate(-95.72 -548.486)"/>
        <path id="Path_3435" data-name="Path 3435" d="M242.352,792.641H243.4c-.351,0-.7.008-1.047.027Z" transform="translate(-168.17 -550.018)" fill="#fff"/>
        <path id="Path_3436" data-name="Path 3436" d="M240.821,791.812a.676.676,0,0,1-.676-.676.7.7,0,0,1,.676-.7h1.047a.676.676,0,0,1,0,1.351c-.339,0-.677.006-1.009.026h-.039" transform="translate(-166.638 -548.486)"/>
        <path id="Path_3437" data-name="Path 3437" d="M428.513,792.689c-.507-.034-1.007-.047-1.514-.047h1.5Z" transform="translate(-296.297 -550.018)" fill="#fff"/>
        <path id="Path_3438" data-name="Path 3438" d="M426.973,791.833h-.037c-.466-.031-.947-.046-1.469-.046a.676.676,0,1,1,0-1.351h1.5a.676.676,0,0,1,.65.491.721.721,0,0,1-.118.633.7.7,0,0,1-.526.275" transform="translate(-294.765 -548.486)"/>
        <path id="Path_3439" data-name="Path 3439" d="M629.4,923.945a.676.676,0,0,1-.539-1.083l31.029-41.127h79.359l-23.354,30.955a.676.676,0,0,1-1.079-.814l21.72-28.789H660.56l-30.623,40.59a.675.675,0,0,1-.54.268" transform="translate(-436.274 -611.841)"/>
        <path id="Path_3440" data-name="Path 3440" d="M663.656,1008.784H584.3l13.734-18.2a.676.676,0,0,1,1.079.814l-12.1,16.038h75.974l21-27.839a.676.676,0,0,1,1.079.815Z" transform="translate(-405.447 -679.559)" fill="#fff"/>
        <path id="Path_3441" data-name="Path 3441" d="M567.982,1079.228H446.1v-8.075H567.982Zm-120.533-1.351H566.631V1072.5H447.449Z" transform="translate(-309.55 -743.279)" fill="#fff"/>
        <path id="Path_3442" data-name="Path 3442" d="M773.766,975.31a4.913,4.913,0,1,1,4.908-4.912,4.916,4.916,0,0,1-4.908,4.912m0-8.474a3.561,3.561,0,1,0,3.557,3.561,3.563,3.563,0,0,0-3.557-3.561" transform="translate(-533.515 -669.955)"/>
        <path id="Path_3443" data-name="Path 3443" d="M154.3,968.945V945.253h26.955v10.276a5.183,5.183,0,0,0,5.183,5.186l44.332-.013v24.313l-60.4.011A16.073,16.073,0,0,1,154.3,968.945" transform="translate(-107.068 -655.916)" fill="#dfe3e8"/>
        <path id="Path_3444" data-name="Path 3444" d="M388.507,1012.259l2.636,2.85a4.126,4.126,0,0,1,.319,5.211l-2.588,3.6-6.274-7.006H343.19v-8.255h37.08a11.219,11.219,0,0,1,8.237,3.6" transform="translate(-238.142 -699.912)" fill="#dfe3e8"/>
        <path id="Path_3445" data-name="Path 3445" d="M387.292,992.632l1.491,1.612a4.127,4.127,0,0,1,.319,5.211l-2.588,3.6-6.274-7.006H343.189V990.3h6.289c2.6,0,7.242-2.512,13.112-2.512h13.635a15.074,15.074,0,0,1,11.066,4.841" transform="translate(-238.141 -685.433)" fill="#dfe3e8"/>
        <path id="Path_3446" data-name="Path 3446" d="M426.7,1031.675l3.162,3.419a4.126,4.126,0,0,1,.32,5.211l-2.589,3.6-6.273-7.006H396.9v-8.256h22.858a9.45,9.45,0,0,1,6.939,3.035" transform="translate(-275.413 -713.779)" fill="#dfe3e8"/>
        <path id="Path_3447" data-name="Path 3447" d="M394.7,1051.177l3.3,3.567a3.785,3.785,0,1,1-5.595,5.1l-1.79-2a4.509,4.509,0,0,0-3.358-1.5h-20.5c-5.36,0-9.134-.307-14.3-8.262l35.184.006a9.619,9.619,0,0,1,7.062,3.089" transform="translate(-244.571 -727.27)" fill="#dfe3e8"/>
        <path id="Path_3448" data-name="Path 3448" d="M154.3,959.854v-14.6h26.955v8.615a26.435,26.435,0,0,1-6.187-.884c-2.866-.884-5.678-1.294-8.439,2.484-3.617,4.949-8.261,5.487-12.329,4.386" transform="translate(-107.067 -655.916)"/>
        <path id="Path_3449" data-name="Path 3449" d="M457.544,1019.464a.675.675,0,0,1-.548-1.07,3.461,3.461,0,0,0-.268-4.358l-2.636-2.851a10.575,10.575,0,0,0-7.741-3.385H439.1a.676.676,0,1,1,0-1.351h7.254a11.93,11.93,0,0,1,8.733,3.82l2.636,2.85a4.816,4.816,0,0,1,.372,6.064.675.675,0,0,1-.549.281" transform="translate(-304.224 -698.38)"/>
        <path id="Path_3450" data-name="Path 3450" d="M457.832,1040.849a.676.676,0,0,1-.548-1.07l1.008-1.4a3.463,3.463,0,0,0-.267-4.358l-3.162-3.419a8.8,8.8,0,0,0-6.443-2.818H438.88a.676.676,0,0,1,0-1.351h9.541a10.157,10.157,0,0,1,7.435,3.252l3.163,3.42a4.818,4.818,0,0,1,.371,6.064l-1.008,1.4a.676.676,0,0,1-.549.281" transform="translate(-304.073 -712.247)"/>
        <path id="Path_3451" data-name="Path 3451" d="M398.857,1060.264a4.435,4.435,0,0,1-3.317-1.484l-1.791-2a3.838,3.838,0,0,0-2.855-1.276H368.219a12.557,12.557,0,0,1-10.4-5.524.675.675,0,1,1,1.118-.758,11.206,11.206,0,0,0,9.285,4.93H390.9a5.191,5.191,0,0,1,3.861,1.726l1.79,2a3.11,3.11,0,1,0,4.6-4.191l-3.3-3.568a8.968,8.968,0,0,0-6.566-2.871h-7.939a.676.676,0,0,1,0-1.351h7.939a10.324,10.324,0,0,1,7.558,3.306l3.3,3.567a4.464,4.464,0,0,1-3.035,7.488c-.081,0-.162.007-.242.007" transform="translate(-248.21 -725.753)"/>
        <path id="Path_3452" data-name="Path 3452" d="M168.832,984.169a16.749,16.749,0,0,1-16.742-16.756V943.045H180.4V954a4.507,4.507,0,0,0,4.505,4.51H215.7a21.229,21.229,0,0,0,6.046-1.04,31.224,31.224,0,0,1,9.154-1.4h12.725a15.793,15.793,0,0,1,11.562,5.058l1.491,1.612a4.78,4.78,0,0,1,.822,5.3.676.676,0,0,1-1.223-.574,3.434,3.434,0,0,0-.591-3.807l-1.492-1.613a14.437,14.437,0,0,0-10.57-4.624H230.9a29.693,29.693,0,0,0-8.8,1.354,22.6,22.6,0,0,1-6.4,1.088H184.9A5.859,5.859,0,0,1,179.045,954v-9.6h-25.6v23.017a15.4,15.4,0,0,0,15.391,15.405h64.54a.676.676,0,1,1,0,1.351h-64.54Z" transform="translate(-105.536 -654.384)"/>
        <path id="Path_3453" data-name="Path 3453" d="M1559.51,58.359h-79.663l8.343-9.886V0h71.32Z" transform="translate(-1026.875 0.003)" fill="#b9bec6"/>
        <path id="Path_3454" data-name="Path 3454" d="M1590.533,39.278h-53.839a.612.612,0,0,1,0-1.224h53.839a.612.612,0,0,1,0,1.224" transform="translate(-1065.896 -26.405)"/>
        <path id="Path_3455" data-name="Path 3455" d="M1590.533,73.036h-53.839a.612.612,0,1,1,0-1.224h53.839a.612.612,0,0,1,0,1.224" transform="translate(-1065.896 -49.83)"/>
        <path id="Path_3456" data-name="Path 3456" d="M1567.189,113.983h-30.758c-.193,0-.35-.274-.35-.612s.157-.612.35-.612h30.758c.193,0,.35.274.35.612s-.157.612-.35.612" transform="translate(-1065.896 -78.243)"/>
        <path id="Path_3457" data-name="Path 3457" d="M1017.263,1243.673h85.352v-77.091h-98.851l13.5,17.609Z" transform="translate(-696.518 -809.497)" fill="#fff"/>
        <path id="Path_3458" data-name="Path 3458" d="M1101.083,1242.817H1015.73a.676.676,0,0,1-.676-.676v-59.253l-13.359-17.427a.675.675,0,0,1,.536-1.087h98.852a.675.675,0,0,1,.676.675v77.091a.676.676,0,0,1-.676.676m-84.677-1.351h84v-75.74H1003.6l12.666,16.522a.677.677,0,0,1,.14.411Z" transform="translate(-694.985 -807.965)"/>
        <path id="Path_3459" data-name="Path 3459" d="M1139.112,1259.641a.61.61,0,0,1-.39-.141l-14.212-11.782a.612.612,0,0,1,.781-.943l13.779,11.423,25.773-26.177a.612.612,0,1,1,.872.859l-26.167,26.578a.61.61,0,0,1-.436.183" transform="translate(-780.15 -854.78)" fill="#31d3f5"/>
        <path id="Path_3460" data-name="Path 3460" d="M1139.112,1291.6a.61.61,0,0,1-.39-.141l-14.212-11.781a.612.612,0,1,1,.781-.943l13.779,11.423,25.773-26.177a.612.612,0,1,1,.872.859l-26.167,26.577a.61.61,0,0,1-.436.183" transform="translate(-780.15 -876.956)" fill="#31d3f5"/>
        <path id="Path_3461" data-name="Path 3461" d="M1614.159,1150.294a17.36,17.36,0,1,0,17.36-17.376,17.368,17.368,0,0,0-17.36,17.376" transform="translate(-1120.075 -786.138)" fill="#b9bec6"/>
        <path id="Path_3462" data-name="Path 3462" d="M1530.183,1227.166a13.633,13.633,0,1,0,13.633-13.646,13.639,13.639,0,0,0-13.633,13.646" transform="translate(-1061.804 -842.068)" fill="#b9bec6"/>
        <path id="Path_3463" data-name="Path 3463" d="M1498.582,1352.181a11.306,11.306,0,1,0,8.659-13.453,11.305,11.305,0,0,0-8.659,13.453" transform="translate(-1039.696 -928.771)" fill="#b9bec6"/>
        <path id="Path_3464" data-name="Path 3464" d="M1578.03,1243.451l33.554-105.007Z" transform="translate(-1095.005 -789.972)" fill="#fff"/>
        <path id="Path_3465" data-name="Path 3465" d="M1576.5,1242.593a.649.649,0,0,1-.206-.033.675.675,0,0,1-.438-.849l33.554-105.007a.676.676,0,0,1,1.287.412l-33.554,105.007a.676.676,0,0,1-.643.47" transform="translate(-1093.473 -788.439)"/>
        <path id="Path_3466" data-name="Path 3466" d="M1536.4,1377.912l-22.66-30.708Z" transform="translate(-1050.396 -934.832)" fill="#fff"/>
        <path id="Path_3467" data-name="Path 3467" d="M1534.872,1377.055a.675.675,0,0,1-.544-.274l-22.661-30.708a.676.676,0,0,1,1.088-.8l22.661,30.708a.676.676,0,0,1-.543,1.077" transform="translate(-1048.864 -933.3)"/>
        <path id="Path_3468" data-name="Path 3468" d="M1583.009,1272.806l-17.56-32.245Z" transform="translate(-1086.275 -860.832)" fill="#fff"/>
        <path id="Path_3469" data-name="Path 3469" d="M1581.478,1271.949a.676.676,0,0,1-.594-.352l-17.56-32.245a.676.676,0,0,1,1.187-.647l17.56,32.245a.676.676,0,0,1-.27.916.668.668,0,0,1-.323.083" transform="translate(-1084.743 -859.3)"/>
        <path id="Path_3470" data-name="Path 3470" d="M1683.754,1422.239a9.806,9.806,0,1,0,9.806-9.815,9.811,9.811,0,0,0-9.806,9.815" transform="translate(-1168.368 -980.089)" fill="#b9bec6"/>
        <path id="Path_3471" data-name="Path 3471" d="M1661.674,1271.537a15.372,15.372,0,1,0,15.372-15.387,15.38,15.38,0,0,0-15.372,15.387" transform="translate(-1153.046 -871.649)" fill="#b9bec6"/>
        <path id="Path_3472" data-name="Path 3472" d="M1587.774,1343.046a9.806,9.806,0,1,0,9.807-9.816,9.811,9.811,0,0,0-9.807,9.816" transform="translate(-1101.766 -925.136)" fill="#b9bec6"/>
        <path id="Path_3473" data-name="Path 3473" d="M1638.815,1445.619l32.307-3.01Z" transform="translate(-1137.184 -1001.034)" fill="#fff"/>
        <path id="Path_3474" data-name="Path 3474" d="M1637.282,1444.763a.676.676,0,0,1-.062-1.349l32.307-3.01a.676.676,0,0,1,.125,1.346l-32.307,3.01a.62.62,0,0,1-.063,0" transform="translate(-1135.652 -999.502)"/>
        <path id="Path_3475" data-name="Path 3475" d="M1618.38,1334.168l35.077-70.219Z" transform="translate(-1123.004 -877.061)" fill="#fff"/>
        <path id="Path_3476" data-name="Path 3476" d="M1616.847,1333.313a.676.676,0,0,1-.6-.978l35.077-70.218a.676.676,0,1,1,1.208.6l-35.077,70.219a.676.676,0,0,1-.605.373" transform="translate(-1121.472 -875.531)"/>
        <path id="Path_3477" data-name="Path 3477" d="M1609.034,1337.445l12.124,29.178Z" transform="translate(-1116.519 -928.06)" fill="#fff"/>
        <path id="Path_3478" data-name="Path 3478" d="M1619.626,1365.766a.675.675,0,0,1-.624-.417l-12.124-29.178a.676.676,0,1,1,1.248-.519l12.124,29.178a.675.675,0,0,1-.624.935" transform="translate(-1114.987 -926.528)"/>
        <rect id="Rectangle_929" data-name="Rectangle 929" width="52.04" height="68.842" transform="translate(463.347 452.729)" fill="#dfe3e8"/>
        <path id="Path_3479" data-name="Path 3479" d="M184.075,509.045a.182.182,0,0,1,.1.16l.016,2.145a.177.177,0,0,1-.179.178.182.182,0,0,1-.182-.18l-.016-2.145a.177.177,0,0,1,.179-.178.182.182,0,0,1,.082.02" transform="translate(-127.55 -353.215)"/>
        <path id="Path_3480" data-name="Path 3480" d="M184.063,496.709a.182.182,0,0,1,.1.16l.016,2.145a.177.177,0,0,1-.179.178.182.182,0,0,1-.182-.18l-.016-2.145a.177.177,0,0,1,.179-.178.181.181,0,0,1,.082.02" transform="translate(-127.541 -344.655)"/>
        <path id="Path_3481" data-name="Path 3481" d="M183.978,483.188a.182.182,0,0,1,.1.16l.016,2.145a.176.176,0,0,1-.179.178.182.182,0,0,1-.182-.18l-.016-2.145a.177.177,0,0,1,.179-.178.181.181,0,0,1,.082.02" transform="translate(-127.482 -335.272)"/>
        <path id="Path_3482" data-name="Path 3482" d="M184.178,523.064a.182.182,0,0,1,.1.16l.016,2.145a.176.176,0,0,1-.179.178.182.182,0,0,1-.182-.18l-.016-2.145a.177.177,0,0,1,.179-.178.182.182,0,0,1,.082.02" transform="translate(-127.621 -362.943)"/>
        <path id="Path_3483" data-name="Path 3483" d="M184.282,537.083a.182.182,0,0,1,.1.16l.016,2.145a.177.177,0,0,1-.179.178.182.182,0,0,1-.182-.18l-.016-2.145a.177.177,0,0,1,.179-.178.187.187,0,0,1,.082.02" transform="translate(-127.693 -372.67)"/>
        <path id="Path_3484" data-name="Path 3484" d="M184.386,551.1a.182.182,0,0,1,.1.16l.016,2.145a.176.176,0,0,1-.179.178.182.182,0,0,1-.182-.18l-.016-2.145a.177.177,0,0,1,.179-.178.184.184,0,0,1,.083.02" transform="translate(-127.765 -382.398)"/>
        <path id="Path_3485" data-name="Path 3485" d="M184.489,565.121a.182.182,0,0,1,.1.16l.016,2.145a.177.177,0,0,1-.179.178.183.183,0,0,1-.182-.18l-.016-2.146a.177.177,0,0,1,.179-.178.181.181,0,0,1,.082.02" transform="translate(-127.837 -392.126)"/>
        <path id="Path_3486" data-name="Path 3486" d="M184.593,579.141a.182.182,0,0,1,.1.16l.016,2.145a.177.177,0,0,1-.179.178.182.182,0,0,1-.182-.18l-.016-2.145a.177.177,0,0,1,.179-.178.184.184,0,0,1,.083.02" transform="translate(-127.908 -401.855)"/>
        <path id="Path_3487" data-name="Path 3487" d="M184.7,593.16a.182.182,0,0,1,.1.16l.016,2.145a.177.177,0,0,1-.179.178.182.182,0,0,1-.182-.18l-.016-2.145a.177.177,0,0,1,.179-.178.185.185,0,0,1,.082.02" transform="translate(-127.981 -411.583)"/>
        <path id="Path_3488" data-name="Path 3488" d="M184.8,607.179a.182.182,0,0,1,.1.16l.016,2.145a.176.176,0,0,1-.179.178.182.182,0,0,1-.182-.18l-.016-2.145a.177.177,0,0,1,.179-.178.181.181,0,0,1,.082.02" transform="translate(-128.053 -421.31)"/>
        <path id="Path_3489" data-name="Path 3489" d="M564.412,509.045a.182.182,0,0,1,.1.16l.016,2.145a.177.177,0,0,1-.179.178.182.182,0,0,1-.182-.18l-.016-2.145a.177.177,0,0,1,.179-.178.182.182,0,0,1,.082.02" transform="translate(-391.468 -353.215)"/>
        <path id="Path_3490" data-name="Path 3490" d="M564.4,496.709a.182.182,0,0,1,.1.16l.016,2.145a.177.177,0,0,1-.179.178.182.182,0,0,1-.182-.18l-.016-2.145a.177.177,0,0,1,.179-.178.182.182,0,0,1,.082.02" transform="translate(-391.459 -344.655)"/>
        <path id="Path_3491" data-name="Path 3491" d="M564.315,483.188a.182.182,0,0,1,.1.16l.016,2.145a.176.176,0,0,1-.179.178.182.182,0,0,1-.182-.18l-.016-2.145a.177.177,0,0,1,.179-.178.181.181,0,0,1,.082.02" transform="translate(-391.401 -335.272)"/>
        <path id="Path_3492" data-name="Path 3492" d="M564.515,523.064a.182.182,0,0,1,.1.16l.016,2.145a.176.176,0,0,1-.179.178.182.182,0,0,1-.181-.18l-.016-2.145a.177.177,0,0,1,.179-.178.182.182,0,0,1,.082.02" transform="translate(-391.539 -362.943)"/>
        <path id="Path_3493" data-name="Path 3493" d="M564.619,537.083a.182.182,0,0,1,.1.16l.016,2.145a.177.177,0,0,1-.179.178.182.182,0,0,1-.182-.18l-.016-2.145a.177.177,0,0,1,.179-.178.187.187,0,0,1,.082.02" transform="translate(-391.612 -372.67)"/>
        <path id="Path_3494" data-name="Path 3494" d="M564.722,551.1a.182.182,0,0,1,.1.16l.016,2.145a.176.176,0,0,1-.179.178.182.182,0,0,1-.182-.18l-.016-2.145a.177.177,0,0,1,.179-.178.182.182,0,0,1,.082.02" transform="translate(-391.683 -382.398)"/>
        <path id="Path_3495" data-name="Path 3495" d="M564.825,565.121a.182.182,0,0,1,.1.16l.016,2.145a.177.177,0,0,1-.179.178.183.183,0,0,1-.182-.18l-.016-2.146a.177.177,0,0,1,.179-.178.182.182,0,0,1,.082.02" transform="translate(-391.755 -392.126)"/>
        <path id="Path_3496" data-name="Path 3496" d="M564.929,579.141a.182.182,0,0,1,.1.16l.016,2.145a.177.177,0,0,1-.179.178.182.182,0,0,1-.181-.18l-.016-2.145a.177.177,0,0,1,.179-.178.182.182,0,0,1,.082.02" transform="translate(-391.827 -401.855)"/>
        <path id="Path_3497" data-name="Path 3497" d="M565.032,593.16a.182.182,0,0,1,.1.16l.016,2.145a.177.177,0,0,1-.179.178.182.182,0,0,1-.182-.18l-.016-2.145a.177.177,0,0,1,.179-.178.185.185,0,0,1,.082.02" transform="translate(-391.898 -411.583)"/>
        <path id="Path_3498" data-name="Path 3498" d="M565.136,607.179a.182.182,0,0,1,.1.16l.016,2.145a.176.176,0,0,1-.179.178.182.182,0,0,1-.182-.18l-.016-2.145a.177.177,0,0,1,.179-.178.182.182,0,0,1,.082.02" transform="translate(-391.97 -421.31)"/>
        <path id="Path_3499" data-name="Path 3499" d="M951.627,510.588a.182.182,0,0,1,.1.16l.016,2.145a.176.176,0,0,1-.179.178.182.182,0,0,1-.182-.18l-.016-2.145a.177.177,0,0,1,.179-.178.182.182,0,0,1,.082.02" transform="translate(-660.159 -354.285)"/>
        <path id="Path_3500" data-name="Path 3500" d="M951.615,498.252a.182.182,0,0,1,.1.16l.016,2.145a.176.176,0,0,1-.179.178.182.182,0,0,1-.182-.18l-.016-2.145a.177.177,0,0,1,.179-.178.182.182,0,0,1,.082.02" transform="translate(-660.15 -345.725)"/>
        <path id="Path_3501" data-name="Path 3501" d="M951.531,484.731a.182.182,0,0,1,.1.16l.016,2.145a.177.177,0,0,1-.179.178.182.182,0,0,1-.181-.18l-.016-2.145a.177.177,0,0,1,.179-.178.182.182,0,0,1,.082.02" transform="translate(-660.092 -336.343)"/>
        <path id="Path_3502" data-name="Path 3502" d="M951.731,524.607a.182.182,0,0,1,.1.16l.016,2.145a.177.177,0,0,1-.179.178.182.182,0,0,1-.181-.18l-.016-2.145a.177.177,0,0,1,.179-.178.182.182,0,0,1,.082.02" transform="translate(-660.231 -364.013)"/>
        <path id="Path_3503" data-name="Path 3503" d="M951.834,538.626a.182.182,0,0,1,.1.16l.016,2.145a.177.177,0,0,1-.179.178.182.182,0,0,1-.182-.18l-.016-2.145a.177.177,0,0,1,.179-.178.182.182,0,0,1,.082.02" transform="translate(-660.302 -373.741)"/>
        <path id="Path_3504" data-name="Path 3504" d="M951.938,552.645a.182.182,0,0,1,.1.16l.016,2.145a.177.177,0,0,1-.179.178.182.182,0,0,1-.182-.18l-.016-2.145a.177.177,0,0,1,.179-.178.181.181,0,0,1,.082.02" transform="translate(-660.375 -383.469)"/>
        <path id="Path_3505" data-name="Path 3505" d="M952.041,566.664a.182.182,0,0,1,.1.16l.016,2.145a.177.177,0,0,1-.179.178.183.183,0,0,1-.182-.18l-.016-2.145a.177.177,0,0,1,.179-.178.182.182,0,0,1,.082.02" transform="translate(-660.446 -393.197)"/>
        <path id="Path_3506" data-name="Path 3506" d="M952.145,580.684a.182.182,0,0,1,.1.16l.016,2.145a.177.177,0,0,1-.179.178.182.182,0,0,1-.182-.18l-.016-2.145a.177.177,0,0,1,.179-.178.182.182,0,0,1,.082.02" transform="translate(-660.518 -402.925)"/>
        <path id="Path_3507" data-name="Path 3507" d="M952.248,594.7a.182.182,0,0,1,.1.16l.016,2.145a.177.177,0,0,1-.179.178.182.182,0,0,1-.182-.18l-.016-2.145a.177.177,0,0,1,.179-.178.186.186,0,0,1,.082.02" transform="translate(-660.59 -412.653)"/>
        <path id="Path_3508" data-name="Path 3508" d="M952.352,608.722a.182.182,0,0,1,.1.16l.016,2.145a.177.177,0,0,1-.179.178.182.182,0,0,1-.182-.18l-.016-2.145a.177.177,0,0,1,.179-.178.182.182,0,0,1,.082.02" transform="translate(-660.662 -422.381)"/>
        <path id="Path_3509" data-name="Path 3509" d="M85.294,237.13H28.431L0,187.885l28.431-49.244H85.294l28.431,49.244Zm-56.156-1.224H84.587l27.724-48.02-27.724-48.02H29.138L1.414,187.885Z" transform="translate(0 -96.203)"/>
        <path id="Path_3510" data-name="Path 3510" d="M465.631,237.13H408.768l-28.431-49.244,28.431-49.244h56.863l28.431,49.244Zm-56.156-1.224h55.449l27.724-48.02-27.724-48.02H409.475l-27.724,48.02Z" transform="translate(-263.918 -96.203)"/>
        <path id="Path_3511" data-name="Path 3511" d="M845.967,237.13H789.1l-28.431-49.244L789.1,138.641h56.863l.177.306L874.4,187.885Zm-56.156-1.224H845.26l27.724-48.02-27.724-48.02H789.811l-27.724,48.02Z" transform="translate(-527.836 -96.203)"/>
        <path id="Path_3512" data-name="Path 3512" d="M172.029,189.893a9.225,9.225,0,1,1-9.225-9.225,9.225,9.225,0,0,1,9.225,9.225" transform="translate(-106.569 -125.366)" fill="#dfe3e8"/>
        <rect id="Rectangle_930" data-name="Rectangle 930" width="18.969" height="18.969" transform="translate(47.229 111.719)"/>
        <path id="Path_3513" data-name="Path 3513" d="M257.086,271.908l-9.76,16.9h19.519Z" transform="translate(-171.621 -188.678)" fill="#b9bec6"/>
      </g>
    </g>
    <g id="Group_1837" data-name="Group 1837" transform="translate(20.371 79.576)">
      <g id="Group_1836" data-name="Group 1836" clip-path="url(#clip-path-2)">
        <path id="Path_3514" data-name="Path 3514" d="M79.871,266.815v1.394a6.36,6.36,0,0,0-1.246-.123H73.511a6.359,6.359,0,0,0-6.359,6.359h0v-13.99h6.359a6.36,6.36,0,0,1,6.359,6.359" transform="translate(-66.968 -260.31)" fill="#07d6f2"/>
        <path id="Path_3515" data-name="Path 3515" d="M79.871,285.51v6.237a6.359,6.359,0,1,1-6.359-6.361h5.111a6.41,6.41,0,0,1,1.247.123" transform="translate(-66.968 -277.609)" fill="#0037ff"/>
        <path id="Path_3516" data-name="Path 3516" d="M94.384,285.8h-.013v6.232a6.359,6.359,0,0,1-6.359,6.359h6.372a6.3,6.3,0,0,0,0-12.591" transform="translate(-81.443 -277.897)" fill="#01faa8"/>
      </g>
    </g>
    <g id="Group_1839" data-name="Group 1839" transform="translate(0 -0.003)">
      <g id="Group_1838" data-name="Group 1838" clip-path="url(#clip-path)">
        <path id="Path_3517" data-name="Path 3517" d="M547.46,189.893a9.225,9.225,0,1,1-9.225-9.225,9.225,9.225,0,0,1,9.225,9.225" transform="translate(-367.083 -125.366)" fill="#dfe3e8"/>
        <rect id="Rectangle_933" data-name="Rectangle 933" width="18.969" height="18.969" transform="translate(162.146 111.719)"/>
        <path id="Path_3518" data-name="Path 3518" d="M632.516,271.908l-9.759,16.9h19.519Z" transform="translate(-432.135 -188.678)" fill="#b9bec6"/>
      </g>
    </g>
    <g id="Group_1841" data-name="Group 1841" transform="translate(135.288 79.576)">
      <g id="Group_1840" data-name="Group 1840" clip-path="url(#clip-path-2)">
        <path id="Path_3519" data-name="Path 3519" d="M455.3,266.815v1.394a6.36,6.36,0,0,0-1.246-.123h-5.113a6.359,6.359,0,0,0-6.359,6.359h0v-13.99h6.359a6.359,6.359,0,0,1,6.359,6.359" transform="translate(-442.399 -260.31)" fill="#0037ff"/>
        <path id="Path_3520" data-name="Path 3520" d="M455.3,285.51v6.237a6.359,6.359,0,1,1-6.359-6.361h5.111a6.41,6.41,0,0,1,1.247.123" transform="translate(-442.399 -277.609)" fill="#01faa8"/>
        <path id="Path_3521" data-name="Path 3521" d="M469.814,285.8H469.8v6.232a6.359,6.359,0,0,1-6.359,6.359h6.372a6.3,6.3,0,0,0,0-12.591" transform="translate(-456.874 -277.897)" fill="#07d6f2"/>
      </g>
    </g>
    <g id="Group_1843" data-name="Group 1843" transform="translate(0 -0.003)">
      <g id="Group_1842" data-name="Group 1842" clip-path="url(#clip-path)">
        <path id="Path_3522" data-name="Path 3522" d="M935.291,189.893a9.225,9.225,0,1,1-9.225-9.225,9.225,9.225,0,0,1,9.225,9.225" transform="translate(-636.202 -125.366)" fill="#dfe3e8"/>
        <rect id="Rectangle_936" data-name="Rectangle 936" width="18.969" height="18.969" transform="translate(280.859 111.719)"/>
        <path id="Path_3523" data-name="Path 3523" d="M1020.347,271.908l-9.759,16.9h19.519Z" transform="translate(-701.253 -188.678)" fill="#b9bec6"/>
      </g>
    </g>
    <g id="Group_1845" data-name="Group 1845" transform="translate(254.001 79.576)">
      <g id="Group_1844" data-name="Group 1844" clip-path="url(#clip-path-2)">
        <path id="Path_3524" data-name="Path 3524" d="M843.133,266.815v1.394a6.361,6.361,0,0,0-1.246-.123h-5.113a6.359,6.359,0,0,0-6.359,6.359h0v-13.99h6.359a6.359,6.359,0,0,1,6.359,6.359" transform="translate(-830.23 -260.31)" fill="#01faa8"/>
        <path id="Path_3525" data-name="Path 3525" d="M843.133,285.51v6.237a6.359,6.359,0,1,1-6.359-6.361h5.111a6.41,6.41,0,0,1,1.247.123" transform="translate(-830.23 -277.609)" fill="#07d6f2"/>
        <path id="Path_3526" data-name="Path 3526" d="M857.645,285.8h-.013v6.232a6.359,6.359,0,0,1-6.359,6.359h6.372a6.3,6.3,0,0,0,0-12.591" transform="translate(-844.704 -277.897)" fill="#0037ff"/>
      </g>
    </g>
  </g>
</svg>
