<svg xmlns="http://www.w3.org/2000/svg" xmlns:xlink="http://www.w3.org/1999/xlink" width="567" height="542" viewBox="0 0 567 542">
  <defs>
    <clipPath id="clip-path">
      <rect id="Rectangle_879" data-name="Rectangle 879" width="567" height="542" transform="translate(0 -0.414)" fill="none"/>
    </clipPath>
  </defs>
  <g id="Group_1823" data-name="Group 1823" transform="translate(0 0.414)">
    <path id="Path_2829" data-name="Path 2829" d="M1430.818,42.668V32.985h-7.438V19.662h-24.172V32.985h-7.437v9.683h-8.848V196.851h56.743V42.668Z" transform="translate(-973.982 -13.842)" fill="#c1c1c1"/>
    <rect id="Rectangle_844" data-name="Rectangle 844" width="56.743" height="102.168" transform="translate(374.104 65.018)" fill="#c1c1c1"/>
    <rect id="Rectangle_845" data-name="Rectangle 845" width="56.743" height="141.179" transform="translate(338.493 26.007)" fill="#c1c1c1"/>
    <rect id="Rectangle_846" data-name="Rectangle 846" width="44.038" height="167.187" transform="translate(290.146 0)" fill="#c1c1c1"/>
    <rect id="Rectangle_847" data-name="Rectangle 847" width="55.317" height="146.381" transform="translate(211.719 13.004)" fill="#c1c1c1"/>
    <rect id="Rectangle_848" data-name="Rectangle 848" width="47.319" height="141.179" transform="translate(256.342 32.509)" fill="#c1c1c1"/>
    <rect id="Rectangle_849" data-name="Rectangle 849" width="6.164" height="13.983" transform="translate(291.636 42.27)" fill="#fff"/>
    <rect id="Rectangle_850" data-name="Rectangle 850" width="6.164" height="13.983" transform="translate(291.636 65.158)" fill="#fff"/>
    <rect id="Rectangle_851" data-name="Rectangle 851" width="6.164" height="13.983" transform="translate(291.636 88.046)" fill="#fff"/>
    <rect id="Rectangle_852" data-name="Rectangle 852" width="6.164" height="13.983" transform="translate(291.636 110.919)" fill="#fff"/>
    <rect id="Rectangle_853" data-name="Rectangle 853" width="6.164" height="13.983" transform="translate(281.46 42.27)" fill="#fff"/>
    <rect id="Rectangle_854" data-name="Rectangle 854" width="6.164" height="13.983" transform="translate(281.46 65.158)" fill="#fff"/>
    <rect id="Rectangle_855" data-name="Rectangle 855" width="6.164" height="13.983" transform="translate(281.46 88.046)" fill="#fff"/>
    <rect id="Rectangle_856" data-name="Rectangle 856" width="6.164" height="13.983" transform="translate(281.46 110.919)" fill="#fff"/>
    <rect id="Rectangle_857" data-name="Rectangle 857" width="6.164" height="13.983" transform="translate(250.2 22.299)" fill="#fff"/>
    <rect id="Rectangle_858" data-name="Rectangle 858" width="6.164" height="13.983" transform="translate(250.2 45.187)" fill="#fff"/>
    <rect id="Rectangle_859" data-name="Rectangle 859" width="6.164" height="13.983" transform="translate(250.2 68.075)" fill="#fff"/>
    <rect id="Rectangle_860" data-name="Rectangle 860" width="6.164" height="13.983" transform="translate(250.2 90.963)" fill="#fff"/>
    <rect id="Rectangle_861" data-name="Rectangle 861" width="6.164" height="13.983" transform="translate(321.937 7.345)" fill="#fff"/>
    <rect id="Rectangle_862" data-name="Rectangle 862" width="6.164" height="13.983" transform="translate(321.937 30.233)" fill="#fff"/>
    <rect id="Rectangle_863" data-name="Rectangle 863" width="6.164" height="13.983" transform="translate(321.937 53.121)" fill="#fff"/>
    <rect id="Rectangle_864" data-name="Rectangle 864" width="6.164" height="13.983" transform="translate(321.937 76.009)" fill="#fff"/>
    <rect id="Rectangle_865" data-name="Rectangle 865" width="6.164" height="13.983" transform="translate(382.989 33.353)" fill="#fff"/>
    <rect id="Rectangle_866" data-name="Rectangle 866" width="6.164" height="13.983" transform="translate(382.989 56.241)" fill="#fff"/>
    <rect id="Rectangle_867" data-name="Rectangle 867" width="6.164" height="13.983" transform="translate(382.989 79.128)" fill="#fff"/>
    <rect id="Rectangle_868" data-name="Rectangle 868" width="6.164" height="13.983" transform="translate(382.989 102.003)" fill="#fff"/>
    <rect id="Rectangle_869" data-name="Rectangle 869" width="215.07" height="87.012" transform="translate(373.799 220.639) rotate(-77.828)" fill="#fff"/>
    <g id="Group_1822" data-name="Group 1822">
      <g id="Group_1821" data-name="Group 1821" clip-path="url(#clip-path)">
        <path id="Path_2830" data-name="Path 2830" d="M1347.944,262.808a.637.637,0,0,1-.138-.015l-84.984-18.341a.654.654,0,0,1-.5-.777l45.31-210.208a.651.651,0,0,1,.776-.5l84.984,18.341a.654.654,0,0,1,.5.777l-45.31,210.208a.653.653,0,0,1-.638.516m-84.209-19.5,83.708,18.065,45.034-208.931L1308.77,34.382Z" transform="translate(-888.997 -23.2)"/>
        <path id="Path_2831" data-name="Path 2831" d="M1424.6,707.606a38.508,38.508,0,0,1,45.76-29.544l-8.119,37.668Z" transform="translate(-1003.297 -476.775)" fill="#31d3f5"/>
        <path id="Path_2832" data-name="Path 2832" d="M1302.154,663.959l-37.641-8.123,8.119-37.668a38.532,38.532,0,0,1,29.521,45.791" transform="translate(-890.551 -435.222)" fill="#31d3f5"/>
        <path id="Path_2833" data-name="Path 2833" d="M1436.028,43.283a38.508,38.508,0,0,1-45.759,29.544l8.119-37.667Z" transform="translate(-979.117 -24.754)" fill="#31d3f5"/>
        <path id="Path_2834" data-name="Path 2834" d="M1605.253,115.476a38.531,38.531,0,0,1-29.521-45.791l37.64,8.123Z" transform="translate(-1109.116 -49.062)" fill="#31d3f5"/>
        <path id="Path_2835" data-name="Path 2835" d="M1347.944,262.808a.637.637,0,0,1-.138-.015l-84.984-18.341a.654.654,0,0,1-.5-.777l45.31-210.208a.651.651,0,0,1,.776-.5l84.984,18.341a.654.654,0,0,1,.5.777l-45.31,210.208a.653.653,0,0,1-.638.516m-84.209-19.5,83.708,18.065,45.034-208.931L1308.77,34.382Z" transform="translate(-888.997 -23.2)"/>
        <path id="Path_2836" data-name="Path 2836" d="M1364.492,645.67a.634.634,0,0,1-.138-.015l-69.949-15.1a.653.653,0,0,1,.275-1.277l69.311,14.958,11.35-52.658a.653.653,0,1,1,1.276.276l-11.488,53.3a.653.653,0,0,1-.637.516" transform="translate(-911.24 -416.14)"/>
        <path id="Path_2837" data-name="Path 2837" d="M1393.1,127.337a.637.637,0,0,1-.138-.015.653.653,0,0,1-.5-.776l12.43-57.667a.651.651,0,0,1,.776-.5l69.949,15.1a.653.653,0,0,1-.275,1.277l-69.311-14.958-12.292,57.028a.653.653,0,0,1-.638.516" transform="translate(-980.653 -48.131)"/>
        <path id="Path_2838" data-name="Path 2838" d="M1408.267,470.463a57,57,0,0,1-12-1.3c-12.25-2.644-22.741-8.918-28.781-17.216a.653.653,0,1,1,1.055-.77c5.854,8.042,16.06,14.132,28,16.708,12.659,2.732,25.361,1,33.979-4.641a.653.653,0,0,1,.714,1.094c-6.139,4.017-14.262,6.122-22.973,6.122" transform="translate(-962.986 -317.465)"/>
        <path id="Path_2839" data-name="Path 2839" d="M1453.7,346.687a.652.652,0,0,1-.552-.3c-5.528-8.691-16.387-15.511-29.047-18.243-11.94-2.577-23.747-1.238-32.393,3.674a.653.653,0,0,1-.645-1.137c8.921-5.067,21.063-6.457,33.313-3.814,12.993,2.8,24.161,9.84,29.873,18.819a.653.653,0,0,1-.55,1" transform="translate(-979.445 -229.206)"/>
        <path id="Path_2840" data-name="Path 2840" d="M1423.877,389.891l3.977.46a16.375,16.375,0,0,1,2.407-6.875l4.791,1.817h0a14.366,14.366,0,0,0-2.435,6.7c-.2,2.375.578,4.107,2.252,4.3,1.591.184,2.71-1.033,4.021-4,1.889-4.284,4.243-7.084,8.3-6.614,3.684.426,6.351,3.344,6.847,7.9l3.977.461-.35,4.083-3.684-.426a14.677,14.677,0,0,1-1.9,5.882l-4.626-1.756h0A13.509,13.509,0,0,0,1449.4,396c.232-2.708-.865-3.719-2.037-3.855-1.381-.16-2.385,1.2-4.029,4.584-2.183,4.755-4.657,6.489-8.424,6.052-3.726-.431-6.682-3.424-7.108-8.313h0l-4.27-.494Z" transform="translate(-1002.539 -269.987)" fill="#31d3f5"/>
        <rect id="Rectangle_870" data-name="Rectangle 870" width="215" height="86.892" transform="translate(373.963 220.612) rotate(-67.341)" fill="#fff"/>
        <path id="Path_2841" data-name="Path 2841" d="M1343.187,305.958a.646.646,0,0,1-.251-.051l-80.228-33.513a.654.654,0,0,1-.351-.854l82.785-198.447a.652.652,0,0,1,.854-.351l80.228,33.513a.654.654,0,0,1,.351.855L1343.79,305.556a.653.653,0,0,1-.6.4m-79.374-34.517,79.023,33.01,82.282-197.241L1346.095,74.2Z" transform="translate(-888.997 -51.178)"/>
        <path id="Path_2842" data-name="Path 2842" d="M1415.643,752.149a38.5,38.5,0,0,1,50.368-20.717l-14.834,35.56Z" transform="translate(-996.987 -512.865)" fill="#31d3f5"/>
        <path id="Path_2843" data-name="Path 2843" d="M1300.048,675.693l-35.534-14.843,14.834-35.56a38.542,38.542,0,0,1,20.7,50.4" transform="translate(-890.552 -440.236)" fill="#31d3f5"/>
        <path id="Path_2844" data-name="Path 2844" d="M1544.649,89.744a38.5,38.5,0,0,1-50.369,20.717l14.835-35.56Z" transform="translate(-1052.369 -52.734)" fill="#31d3f5"/>
        <path id="Path_2845" data-name="Path 2845" d="M1709.17,188.39a38.542,38.542,0,0,1-20.7-50.4L1724,152.83Z" transform="translate(-1187.029 -97.149)" fill="#31d3f5"/>
        <path id="Path_2846" data-name="Path 2846" d="M1343.187,305.958a.646.646,0,0,1-.251-.051l-80.228-33.513a.654.654,0,0,1-.351-.854l82.785-198.447a.652.652,0,0,1,.854-.351l80.228,33.513a.654.654,0,0,1,.351.855L1343.79,305.556a.653.653,0,0,1-.6.4m-79.374-34.517,79.023,33.01,82.282-197.241L1346.095,74.2Z" transform="translate(-888.997 -51.178)"/>
        <path id="Path_2847" data-name="Path 2847" d="M1364.25,701.1a.648.648,0,0,1-.251-.05l-66.034-27.584a.653.653,0,0,1,.5-1.206l65.431,27.333,20.738-49.712a.653.653,0,0,1,1.2.5l-20.99,50.314a.653.653,0,0,1-.6.4" transform="translate(-913.828 -457.266)"/>
        <path id="Path_2848" data-name="Path 2848" d="M1478.3,166.712a.653.653,0,0,1-.6-.9l22.71-54.44a.652.652,0,0,1,.854-.352l66.034,27.584a.653.653,0,0,1-.5,1.206l-65.432-27.333L1478.9,166.31a.653.653,0,0,1-.6.4" transform="translate(-1040.652 -78.125)"/>
        <path id="Path_2849" data-name="Path 2849" d="M1464.778,502.343a54.366,54.366,0,0,1-20.731-4.325c-11.565-4.831-20.739-12.912-25.169-22.171a.653.653,0,1,1,1.177-.564c4.293,8.973,13.221,16.821,24.494,21.529,11.951,4.993,24.757,5.6,34.256,1.626a.653.653,0,0,1,.5,1.206,37.757,37.757,0,0,1-14.532,2.7" transform="translate(-999.221 -334.362)"/>
        <path id="Path_2850" data-name="Path 2850" d="M1520.747,395.109a.653.653,0,0,1-.606-.409c-3.855-9.553-13.292-18.236-25.243-23.229-11.272-4.707-23.125-5.544-32.519-2.288a.653.653,0,0,1-.427-1.235c9.693-3.358,21.884-2.514,33.449,2.317,12.266,5.124,21.968,14.076,25.951,23.946a.654.654,0,0,1-.6.9" transform="translate(-1029.291 -257.628)"/>
        <path id="Path_2851" data-name="Path 2851" d="M1481.381,427.749l3.827,1.177a16.366,16.366,0,0,1,3.618-6.322l4.38,2.659a14.362,14.362,0,0,0-3.614,6.149c-.632,2.3-.179,4.144,1.432,4.639,1.531.471,2.853-.522,4.68-3.2,2.637-3.869,5.461-6.193,9.368-4.991,3.545,1.09,5.636,4.445,5.3,9.02l3.827,1.177-1.087,3.952-3.544-1.09a14.666,14.666,0,0,1-2.938,5.438l-4.23-2.569a13.5,13.5,0,0,0,2.967-5.385c.721-2.621-.174-3.814-1.3-4.161-1.329-.409-2.563.742-4.795,3.773-3.012,4.278-5.759,5.532-9.385,4.417-3.585-1.1-5.947-4.584-5.477-9.469h0l-4.109-1.263Z" transform="translate(-1042.518 -297.535)" fill="#31d3f5"/>
        <rect id="Rectangle_871" data-name="Rectangle 871" width="214.969" height="86.884" transform="translate(373.963 220.613) rotate(-55.968)" fill="#fff"/>
        <path id="Path_2852" data-name="Path 2852" d="M1335.006,369.267a.652.652,0,0,1-.365-.112l-72.047-48.688a.653.653,0,0,1-.176-.907l120.266-178.215a.654.654,0,0,1,.906-.176l72.047,48.689a.653.653,0,0,1,.176.907L1335.547,368.979a.652.652,0,0,1-.542.288m-71.141-49.517,70.966,47.957,119.535-177.131L1383.4,142.618Z" transform="translate(-888.997 -99.312)"/>
        <path id="Path_2853" data-name="Path 2853" d="M1400.233,796.717a38.489,38.489,0,0,1,53.461-10.37l-21.55,31.935Z" transform="translate(-986.134 -548.98)" fill="#31d3f5"/>
        <path id="Path_2854" data-name="Path 2854" d="M1296.424,691.039l-31.91-21.564,21.551-31.935a38.55,38.55,0,0,1,10.36,53.5" transform="translate(-890.552 -448.861)" fill="#31d3f5"/>
        <path id="Path_2855" data-name="Path 2855" d="M1651.769,164.829a38.49,38.49,0,0,1-53.461,10.37l21.551-31.935Z" transform="translate(-1125.631 -100.866)" fill="#31d3f5"/>
        <path id="Path_2856" data-name="Path 2856" d="M1801.542,288.413a38.55,38.55,0,0,1-10.36-53.5l31.911,21.565Z" transform="translate(-1256.818 -165.392)" fill="#31d3f5"/>
        <path id="Path_2857" data-name="Path 2857" d="M1335.006,369.267a.652.652,0,0,1-.365-.112l-72.047-48.688a.653.653,0,0,1-.176-.907l120.266-178.215a.654.654,0,0,1,.906-.176l72.047,48.689a.653.653,0,0,1,.176.907L1335.547,368.979a.652.652,0,0,1-.542.288m-71.141-49.517,70.966,47.957,119.535-177.131L1383.4,142.618Z" transform="translate(-888.997 -99.312)"/>
        <path id="Path_2858" data-name="Path 2858" d="M1360.168,762.792a.651.651,0,0,1-.365-.112l-59.3-40.074a.653.653,0,0,1,.731-1.083l58.76,39.709,30.127-44.643a.653.653,0,1,1,1.082.731L1360.71,762.5a.653.653,0,0,1-.542.288" transform="translate(-915.695 -504.313)"/>
        <path id="Path_2859" data-name="Path 2859" d="M1562.478,231.181a.653.653,0,0,1-.54-1.019l32.993-48.89a.653.653,0,0,1,.906-.176l59.3,40.074a.653.653,0,0,1-.731,1.083l-58.76-39.709-32.627,48.349a.652.652,0,0,1-.542.288" transform="translate(-1099.938 -127.423)"/>
        <path id="Path_2860" data-name="Path 2860" d="M1516.667,547.736c-8.957,0-18.891-3.235-27.687-9.179-10.386-7.019-17.787-16.751-20.3-26.7a.653.653,0,1,1,1.265-.32c2.441,9.644,9.646,19.1,19.77,25.94,10.732,7.253,23.166,10.374,33.262,8.355a.653.653,0,0,1,.256,1.281,33.433,33.433,0,0,1-6.563.627" transform="translate(-1034.321 -359.798)"/>
        <path id="Path_2861" data-name="Path 2861" d="M1583.662,456.725a.653.653,0,0,1-.641-.533c-1.9-10.126-9.437-20.5-20.17-27.755-10.122-6.841-21.58-10-31.429-8.661a.653.653,0,0,1-.175-1.3c10.165-1.379,21.951,1.855,32.335,8.873,11.016,7.445,18.762,18.136,20.722,28.6a.653.653,0,0,1-.522.762.644.644,0,0,1-.121.012" transform="translate(-1078.004 -294.413)"/>
        <path id="Path_2862" data-name="Path 2862" d="M1535.5,480.756l3.52,1.909a16.366,16.366,0,0,1,4.792-5.484l3.77,3.471h0a14.354,14.354,0,0,0-4.754,5.315c-1.073,2.128-.992,4.027.49,4.831,1.408.764,2.9.051,5.218-2.21,3.348-3.272,6.574-4.994,10.167-3.044,3.26,1.768,4.65,5.47,3.414,9.888l3.52,1.909L1563.8,501l-3.26-1.768a14.66,14.66,0,0,1-3.952,4.752l-3.64-3.353h0a13.491,13.491,0,0,0,3.97-4.694c1.223-2.427.581-3.774-.456-4.337-1.223-.663-2.659.222-5.445,2.753-3.8,3.6-6.736,4.287-10.071,2.479-3.3-1.788-4.927-5.668-3.5-10.364h0l-3.779-2.049Z" transform="translate(-1080.102 -335.96)" fill="#31d3f5"/>
        <path id="Path_2863" data-name="Path 2863" d="M1590.662,574.949l-17.248-65.141a17.836,17.836,0,1,1,34.495,0Z" transform="translate(-1107.667 -343.176)"/>
        <rect id="Rectangle_872" data-name="Rectangle 872" width="252.174" height="312.61" transform="translate(314.173 165.769)" fill="#c1c1c1"/>
        <path id="Path_2864" data-name="Path 2864" d="M1312.964,871.836H1060.791a.653.653,0,0,1-.653-.653V558.573a.652.652,0,0,1,.653-.653h252.174a.653.653,0,0,1,.653.653v312.61a.653.653,0,0,1-.653.653m-251.521-1.306h250.868v-311.3H1061.443Z" transform="translate(-746.617 -392.804)"/>
        <path id="Path_2865" data-name="Path 2865" d="M1369.213,914.083H1155.727V633.628H1320.99l48.223,47.883Z" transform="translate(-813.937 -446.107)"/>
        <path id="Path_2866" data-name="Path 2866" d="M1762.772,681.512H1714.55V633.628Z" transform="translate(-1207.496 -446.107)"/>
        <path id="Path_2867" data-name="Path 2867" d="M1327.484,895.73H1104.242V615.276h172.816l50.427,47.883Z" transform="translate(-777.678 -433.186)" fill="#fff"/>
        <path id="Path_2868" data-name="Path 2868" d="M1325.929,894.83H1102.687a.653.653,0,0,1-.653-.654V613.722a.653.653,0,0,1,.653-.653H1275.5a.656.656,0,0,1,.449.179l50.427,47.884a.655.655,0,0,1,.2.474V894.177a.653.653,0,0,1-.653.654m-222.59-1.307h221.937V661.886l-50.034-47.511h-171.9Z" transform="translate(-776.123 -431.632)"/>
        <path id="Path_2869" data-name="Path 2869" d="M1739.028,663.159H1688.6V615.276Z" transform="translate(-1189.222 -433.186)" fill="#fff"/>
        <path id="Path_2870" data-name="Path 2870" d="M1737.473,662.259h-50.426a.653.653,0,0,1-.653-.653V613.722a.653.653,0,0,1,1.1-.474l50.427,47.884a.654.654,0,0,1-.45,1.127m-49.774-1.307h48.137l-48.137-45.71Z" transform="translate(-1187.667 -431.632)"/>
        <path id="Path_2871" data-name="Path 2871" d="M1322.488,557.919h77.975l-12.738-48.11a17.8,17.8,0,0,1,17.247-22.379H1327a17.8,17.8,0,0,0-17.247,22.379Z" transform="translate(-921.977 -343.176)" fill="#fff"/>
        <path id="Path_2872" data-name="Path 2872" d="M1398.907,557.019h-77.975a.654.654,0,0,1-.631-.486l-12.738-48.111a18.455,18.455,0,0,1,17.879-23.2h77.974a.653.653,0,0,1,0,1.307,17.149,17.149,0,0,0-16.617,21.556l12.739,48.113a.653.653,0,0,1-.631.82m-77.472-1.307h76.624l-12.521-47.29a18.473,18.473,0,0,1,11-21.892h-71.094a17.149,17.149,0,0,0-16.617,21.556Z" transform="translate(-920.422 -341.622)"/>
        <path id="Path_2873" data-name="Path 2873" d="M1309.213,954.528H1185.585a.653.653,0,0,1,0-1.307h123.628a.653.653,0,0,1,0,1.307" transform="translate(-834.505 -671.117)"/>
        <path id="Path_2874" data-name="Path 2874" d="M1372.061,1001.543H1185.585a.653.653,0,0,1,0-1.307h186.476a.653.653,0,0,1,0,1.307" transform="translate(-834.505 -704.217)"/>
        <path id="Path_2875" data-name="Path 2875" d="M1372.061,1048.561H1185.585a.653.653,0,0,1,0-1.307h186.476a.653.653,0,0,1,0,1.307" transform="translate(-834.505 -737.321)"/>
        <path id="Path_2876" data-name="Path 2876" d="M1372.472,1095.577h-186.3a.653.653,0,0,1,0-1.307h186.3a.653.653,0,0,1,0,1.307" transform="translate(-834.916 -770.422)"/>
        <path id="Path_2877" data-name="Path 2877" d="M1309.213,894.076H1185.585a.653.653,0,0,1,0-1.307h123.628a.653.653,0,0,1,0,1.307" transform="translate(-834.505 -628.555)"/>
        <path id="Path_2878" data-name="Path 2878" d="M1269.582,1243.745h-84a.653.653,0,0,1,0-1.307h84a.653.653,0,0,1,0,1.307" transform="translate(-834.505 -874.741)"/>
        <path id="Path_2879" data-name="Path 2879" d="M1269.582,1167.656h-84a.653.653,0,0,1,0-1.307h84a.653.653,0,0,1,0,1.307" transform="translate(-834.505 -821.17)"/>
        <path id="Path_2880" data-name="Path 2880" d="M1269.582,1294.287h-84a.653.653,0,0,1,0-1.307h84a.653.653,0,0,1,0,1.307" transform="translate(-834.505 -910.325)"/>
        <path id="Path_2881" data-name="Path 2881" d="M1269.582,1344.829h-84a.653.653,0,0,1,0-1.307h84a.653.653,0,0,1,0,1.307" transform="translate(-834.505 -945.909)"/>
        <path id="Path_2882" data-name="Path 2882" d="M1269.582,1395.372h-84a.653.653,0,0,1,0-1.307h84a.653.653,0,0,1,0,1.307" transform="translate(-834.505 -981.493)"/>
        <path id="Path_2883" data-name="Path 2883" d="M1676.551,1184.328a18.22,18.22,0,1,1-25.721,1.365,18.235,18.235,0,0,1,25.721-1.365" transform="translate(-1159.331 -830.537)" fill="#fda4ff"/>
        <path id="Path_2884" data-name="Path 2884" d="M1648.188,1206.735a25.024,25.024,0,1,1,18.614-8.283,24.907,24.907,0,0,1-18.614,8.283m.024-48.74a23.714,23.714,0,1,0,15.843,6.073,23.645,23.645,0,0,0-15.843-6.073" transform="translate(-1143.159 -814.369)" fill="#fda4ff"/>
        <path id="Path_2885" data-name="Path 2885" d="M1573.687,1272.272q-.863,0-1.754-.037a.652.652,0,0,1-.625-.679.644.644,0,0,1,.679-.626c11.764.481,19.55-4.05,20.309-11.84a13.971,13.971,0,0,0-.986-6.656,18.419,18.419,0,0,1-2.514,1.017c-7.1,2.3-15.511.675-19.231-2.145a6.425,6.425,0,0,1-2.582-6.741,6.8,6.8,0,0,1,5.474-5.072c4.456-.771,10.927,1.688,15.394,5.84a19.209,19.209,0,0,1,4.056,5.272,12.949,12.949,0,0,0,5.739-7.435c2.081-6.8-4.015-15.775-13.588-20a.653.653,0,0,1,.527-1.2c10.33,4.561,16.616,14.04,14.309,21.58a14.253,14.253,0,0,1-6.43,8.25,15.275,15.275,0,0,1,1.13,7.414c-.794,8.143-8.363,13.056-19.907,13.056m.54-31.618a9.072,9.072,0,0,0-1.548.126,5.493,5.493,0,0,0-4.427,4.094,5.089,5.089,0,0,0,2.1,5.391c3.473,2.633,11.551,4.042,18.04,1.943a16.861,16.861,0,0,0,2.37-.967,17.861,17.861,0,0,0-3.8-4.951c-3.689-3.43-8.783-5.636-12.736-5.636" transform="translate(-1103.442 -860.293)"/>
        <path id="Path_2886" data-name="Path 2886" d="M1554.743,1104.978v18.84a50.667,50.667,0,0,1-101.334,0v-18.84Z" transform="translate(-1023.584 -777.961)" fill="#fff"/>
        <path id="Path_2887" data-name="Path 2887" d="M1502.521,1173.555a51.364,51.364,0,0,1-51.32-51.292v-18.84a.653.653,0,1,1,1.306,0v18.84a50.014,50.014,0,0,0,100.028,0v-18.84a.653.653,0,1,1,1.306,0v18.84a51.364,51.364,0,0,1-51.32,51.292" transform="translate(-1022.029 -776.407)"/>
        <path id="Path_2888" data-name="Path 2888" d="M1554.743,984.511a50.667,50.667,0,1,1-50.667-50.638,50.653,50.653,0,0,1,50.667,50.638" transform="translate(-1023.584 -657.495)" fill="#31d3f5"/>
        <path id="Path_2889" data-name="Path 2889" d="M1502.521,1034.248a51.292,51.292,0,1,1,51.32-51.292,51.364,51.364,0,0,1-51.32,51.292m0-101.277a49.985,49.985,0,1,0,50.014,49.985,50.056,50.056,0,0,0-50.014-49.985" transform="translate(-1022.029 -655.94)"/>
        <path id="Path_2890" data-name="Path 2890" d="M1499.126,1034.009a.653.653,0,0,1-.646-.564,37.48,37.48,0,0,1,17.9-37.281.653.653,0,1,1,.669,1.121,36.167,36.167,0,0,0-17.275,35.981.652.652,0,0,1-.558.736.617.617,0,0,1-.09.006" transform="translate(-1055.079 -701.285)"/>
        <path id="Path_2891" data-name="Path 2891" d="M1520.72,1164.81a.647.647,0,0,1-.356-.107,37.725,37.725,0,0,1-14.716-18.525.653.653,0,1,1,1.227-.448,36.415,36.415,0,0,0,14.2,17.88.653.653,0,0,1-.357,1.2" transform="translate(-1060.346 -806.351)"/>
        <path id="Path_2892" data-name="Path 2892" d="M1587.453,1182a37.164,37.164,0,0,1-15.268-3.243.653.653,0,0,1,.532-1.193,36.187,36.187,0,0,0,46.63-15.992.653.653,0,1,1,1.151.616A37.411,37.411,0,0,1,1587.453,1182" transform="translate(-1106.961 -817.567)"/>
        <path id="Path_2893" data-name="Path 2893" d="M1720.79,1051.288a.665.665,0,0,1-.161-.02.654.654,0,0,1-.472-.794,36.165,36.165,0,0,0-9.478-34.438.653.653,0,0,1,.922-.925,37.471,37.471,0,0,1,9.821,35.685.653.653,0,0,1-.632.492" transform="translate(-1204.635 -714.556)"/>
        <path id="Path_2894" data-name="Path 2894" d="M1621.027,986.12a.654.654,0,0,1-.365-.112,36.252,36.252,0,0,0-29.576-4.941.653.653,0,0,1-.337-1.262,37.554,37.554,0,0,1,30.643,5.12.653.653,0,0,1-.366,1.195" transform="translate(-1119.967 -688.938)"/>
        <path id="Path_2895" data-name="Path 2895" d="M1729.359,1266.359a.653.653,0,0,1-.652-.653v-14.337a.653.653,0,1,1,1.305,0v14.337a.653.653,0,0,1-.653.653" transform="translate(-1217.466 -880.568)"/>
        <path id="Path_2896" data-name="Path 2896" d="M1703.862,1293.478a.653.653,0,0,1-.653-.653V1283.2a.653.653,0,1,1,1.305,0v9.627a.653.653,0,0,1-.653.653" transform="translate(-1199.51 -902.977)"/>
        <path id="Path_2897" data-name="Path 2897" d="M1675.178,1306.211a.653.653,0,0,1-.653-.653v-9.627a.653.653,0,1,1,1.305,0v9.627a.652.652,0,0,1-.652.653" transform="translate(-1179.308 -911.942)"/>
        <path id="Path_2898" data-name="Path 2898" d="M1588.214,1059.583a.652.652,0,0,1-.587-.366,11.188,11.188,0,0,1-1.148-4.969,11.316,11.316,0,0,1,21.565-4.787.653.653,0,1,1-1.182.554,10.011,10.011,0,0,0-19.078,4.233,9.889,9.889,0,0,0,1.015,4.393.654.654,0,0,1-.586.941" transform="translate(-1117.3 -734.284)"/>
        <path id="Path_2899" data-name="Path 2899" d="M1603.92,1129.01a11.31,11.31,0,0,1-8.582-3.939.653.653,0,1,1,.99-.852,10.007,10.007,0,0,0,16.444-11.187.653.653,0,1,1,1.154-.611,11.31,11.31,0,0,1-10.005,16.59" transform="translate(-1123.428 -782.955)"/>
        <path id="Path_2900" data-name="Path 2900" d="M1621.032,1173.846a.653.653,0,0,1-.652-.637l-.192-7.648a.653.653,0,0,1,.636-.67.667.667,0,0,1,.668.637l.192,7.648a.653.653,0,0,1-.636.67Z" transform="translate(-1141.041 -820.144)"/>
        <path id="Path_2901" data-name="Path 2901" d="M1621.988,1022.56a.653.653,0,0,1-.651-.618l-.5-9.113a.653.653,0,0,1,.616-.688.642.642,0,0,1,.688.616l.5,9.114a.653.653,0,0,1-.616.688h-.036" transform="translate(-1141.496 -712.596)"/>
        <path id="Path_2902" data-name="Path 2902" d="M1614.285,1101.149a.64.64,0,0,1-.129-.013l-11.565-2.329a.653.653,0,0,1,.258-1.281l11.564,2.329a.653.653,0,0,1-.128,1.294" transform="translate(-1128.279 -772.705)"/>
        <path id="Path_2903" data-name="Path 2903" d="M1348.033,1287.3v18.84a50.667,50.667,0,0,1-101.334,0V1287.3Z" transform="translate(-878.005 -906.323)" fill="#fff"/>
        <path id="Path_2904" data-name="Path 2904" d="M1295.811,1355.875a51.364,51.364,0,0,1-51.32-51.291v-18.84a.653.653,0,1,1,1.306,0v18.84a50.014,50.014,0,0,0,100.028,0v-18.84a.653.653,0,1,1,1.306,0v18.84a51.364,51.364,0,0,1-51.32,51.291" transform="translate(-876.45 -904.769)"/>
        <path id="Path_2905" data-name="Path 2905" d="M1348.033,1166.83a50.667,50.667,0,1,1-50.667-50.638,50.653,50.653,0,0,1,50.667,50.638" transform="translate(-878.005 -785.857)" fill="#31d3f5"/>
        <path id="Path_2906" data-name="Path 2906" d="M1295.811,1216.568a51.291,51.291,0,1,1,51.32-51.292,51.364,51.364,0,0,1-51.32,51.292m0-101.276a49.985,49.985,0,1,0,50.014,49.985,50.056,50.056,0,0,0-50.014-49.985" transform="translate(-876.45 -784.303)"/>
        <path id="Path_2907" data-name="Path 2907" d="M1292.416,1216.329a.653.653,0,0,1-.646-.564,37.477,37.477,0,0,1,17.9-37.281.653.653,0,0,1,.67,1.121,36.169,36.169,0,0,0-17.276,35.982.652.652,0,0,1-.558.736.576.576,0,0,1-.09.006" transform="translate(-909.501 -829.648)"/>
        <path id="Path_2908" data-name="Path 2908" d="M1314.01,1347.128a.647.647,0,0,1-.356-.107,37.724,37.724,0,0,1-14.716-18.525.653.653,0,1,1,1.227-.448,36.41,36.41,0,0,0,14.2,17.879.653.653,0,0,1-.357,1.2" transform="translate(-914.767 -934.713)"/>
        <path id="Path_2909" data-name="Path 2909" d="M1380.743,1364.323a37.176,37.176,0,0,1-15.268-3.243.653.653,0,0,1,.532-1.193,36.186,36.186,0,0,0,46.63-15.993.653.653,0,1,1,1.151.616,37.41,37.41,0,0,1-33.045,19.812" transform="translate(-961.383 -945.928)"/>
        <path id="Path_2910" data-name="Path 2910" d="M1514.081,1233.608a.666.666,0,0,1-.161-.02.654.654,0,0,1-.472-.794,36.165,36.165,0,0,0-9.478-34.438.653.653,0,0,1,.922-.925,37.166,37.166,0,0,1,10.967,26.461,37.546,37.546,0,0,1-1.146,9.224.653.653,0,0,1-.632.492" transform="translate(-1059.057 -842.919)"/>
        <path id="Path_2911" data-name="Path 2911" d="M1414.317,1168.438a.651.651,0,0,1-.364-.112,36.252,36.252,0,0,0-29.576-4.942.653.653,0,0,1-.337-1.262,37.554,37.554,0,0,1,30.643,5.12.653.653,0,0,1-.365,1.195" transform="translate(-974.388 -817.3)"/>
        <path id="Path_2912" data-name="Path 2912" d="M1522.648,1448.676a.653.653,0,0,1-.653-.653v-14.337a.653.653,0,1,1,1.305,0v14.337a.652.652,0,0,1-.653.653" transform="translate(-1071.887 -1008.929)"/>
        <path id="Path_2913" data-name="Path 2913" d="M1497.151,1475.8a.653.653,0,0,1-.653-.653v-9.627a.653.653,0,1,1,1.306,0v9.627a.653.653,0,0,1-.653.653" transform="translate(-1053.93 -1031.34)"/>
        <path id="Path_2914" data-name="Path 2914" d="M1468.469,1488.529a.652.652,0,0,1-.653-.653v-9.627a.652.652,0,1,1,1.3,0v9.627a.652.652,0,0,1-.652.653" transform="translate(-1033.73 -1040.303)"/>
        <path id="Path_2915" data-name="Path 2915" d="M1381.5,1241.9a.653.653,0,0,1-.587-.365,11.2,11.2,0,0,1-1.148-4.969,11.316,11.316,0,0,1,21.566-4.786.653.653,0,1,1-1.182.554,10.011,10.011,0,0,0-19.078,4.233,9.893,9.893,0,0,0,1.015,4.393.654.654,0,0,1-.3.874.641.641,0,0,1-.287.067" transform="translate(-971.722 -862.645)"/>
        <path id="Path_2916" data-name="Path 2916" d="M1397.21,1311.329a11.31,11.31,0,0,1-8.582-3.94.653.653,0,1,1,.99-.852,10.007,10.007,0,0,0,16.444-11.187.653.653,0,1,1,1.154-.611,11.311,11.311,0,0,1-10.005,16.591" transform="translate(-977.849 -911.317)"/>
        <path id="Path_2917" data-name="Path 2917" d="M1414.323,1356.165a.653.653,0,0,1-.652-.637l-.192-7.647a.653.653,0,1,1,1.3-.033l.192,7.647a.653.653,0,0,1-.636.67Z" transform="translate(-995.462 -948.506)"/>
        <path id="Path_2918" data-name="Path 2918" d="M1415.278,1204.879a.653.653,0,0,1-.651-.618l-.5-9.114a.653.653,0,0,1,.616-.687.641.641,0,0,1,.687.616l.5,9.114a.653.653,0,0,1-.616.688h-.036" transform="translate(-995.919 -840.959)"/>
        <path id="Path_2919" data-name="Path 2919" d="M1407.575,1283.471a.639.639,0,0,1-.129-.013l-11.565-2.328a.653.653,0,0,1,.258-1.281l11.565,2.328a.653.653,0,0,1-.128,1.294" transform="translate(-982.699 -901.07)"/>
        <path id="Path_2920" data-name="Path 2920" d="M1574.71,1378.059v18.84a50.667,50.667,0,0,1-101.334,0v-18.84Z" transform="translate(-1037.646 -970.224)" fill="#fff"/>
        <path id="Path_2921" data-name="Path 2921" d="M1522.487,1446.636a51.364,51.364,0,0,1-51.319-51.291V1376.5a.653.653,0,1,1,1.306,0v18.84a50.014,50.014,0,0,0,100.028,0V1376.5a.653.653,0,1,1,1.306,0v18.84a51.364,51.364,0,0,1-51.32,51.291" transform="translate(-1036.091 -968.67)"/>
        <path id="Path_2922" data-name="Path 2922" d="M1574.71,1257.592a50.667,50.667,0,1,1-50.667-50.638,50.653,50.653,0,0,1,50.667,50.638" transform="translate(-1037.646 -849.758)" fill="#31d3f5"/>
        <path id="Path_2923" data-name="Path 2923" d="M1522.487,1307.329a51.292,51.292,0,1,1,51.32-51.292,51.364,51.364,0,0,1-51.32,51.292m0-101.276a49.985,49.985,0,1,0,50.014,49.985,50.056,50.056,0,0,0-50.014-49.985" transform="translate(-1036.091 -848.203)"/>
        <path id="Path_2924" data-name="Path 2924" d="M1519.093,1307.09a.653.653,0,0,1-.646-.564,37.474,37.474,0,0,1,17.9-37.281.653.653,0,0,1,.669,1.121,36.159,36.159,0,0,0-17.275,35.981.653.653,0,0,1-.558.736.608.608,0,0,1-.09.006" transform="translate(-1069.141 -893.548)"/>
        <path id="Path_2925" data-name="Path 2925" d="M1540.686,1437.89a.647.647,0,0,1-.356-.107,37.726,37.726,0,0,1-14.716-18.525.653.653,0,1,1,1.227-.448,36.416,36.416,0,0,0,14.2,17.88.653.653,0,0,1-.358,1.2" transform="translate(-1074.408 -998.613)"/>
        <path id="Path_2926" data-name="Path 2926" d="M1607.419,1455.084a37.182,37.182,0,0,1-15.268-3.243.653.653,0,0,1,.532-1.193,36.186,36.186,0,0,0,46.63-15.992.653.653,0,1,1,1.151.616,37.411,37.411,0,0,1-33.045,19.811" transform="translate(-1121.023 -1009.829)"/>
        <path id="Path_2927" data-name="Path 2927" d="M1740.757,1324.37a.671.671,0,0,1-.161-.02.654.654,0,0,1-.472-.794,36.242,36.242,0,0,0,1.106-8.9,35.866,35.866,0,0,0-10.584-25.536.653.653,0,0,1,.922-.925,37.169,37.169,0,0,1,10.967,26.461,37.56,37.56,0,0,1-1.146,9.223.654.654,0,0,1-.632.493" transform="translate(-1218.697 -906.82)"/>
        <path id="Path_2928" data-name="Path 2928" d="M1640.993,1259.2a.653.653,0,0,1-.364-.111,36.252,36.252,0,0,0-29.576-4.942.653.653,0,0,1-.337-1.262,37.553,37.553,0,0,1,30.643,5.12.653.653,0,0,1-.366,1.195" transform="translate(-1134.029 -881.201)"/>
        <path id="Path_2929" data-name="Path 2929" d="M1749.325,1539.439a.653.653,0,0,1-.653-.653v-14.337a.653.653,0,1,1,1.305,0v14.337a.653.653,0,0,1-.653.653" transform="translate(-1231.527 -1072.831)"/>
        <path id="Path_2930" data-name="Path 2930" d="M1723.828,1566.559a.653.653,0,0,1-.653-.653v-9.627a.653.653,0,1,1,1.305,0v9.627a.653.653,0,0,1-.653.653" transform="translate(-1213.571 -1095.24)"/>
        <path id="Path_2931" data-name="Path 2931" d="M1695.144,1579.29a.653.653,0,0,1-.653-.653v-9.627a.653.653,0,1,1,1.305,0v9.627a.653.653,0,0,1-.652.653" transform="translate(-1193.369 -1104.203)"/>
        <path id="Path_2932" data-name="Path 2932" d="M1608.18,1332.662a.653.653,0,0,1-.587-.365,11.194,11.194,0,0,1-1.148-4.969,11.316,11.316,0,0,1,21.565-4.786.653.653,0,1,1-1.182.554,10.011,10.011,0,0,0-19.078,4.233,9.9,9.9,0,0,0,1.015,4.393.654.654,0,0,1-.3.874.642.642,0,0,1-.287.067" transform="translate(-1131.362 -926.546)"/>
        <path id="Path_2933" data-name="Path 2933" d="M1623.886,1402.09a11.31,11.31,0,0,1-8.582-3.94.653.653,0,0,1,.989-.852,10.007,10.007,0,0,0,16.444-11.186.653.653,0,1,1,1.153-.612,11.31,11.31,0,0,1-10,16.591" transform="translate(-1137.489 -975.218)"/>
        <path id="Path_2934" data-name="Path 2934" d="M1641,1446.927a.653.653,0,0,1-.652-.637l-.192-7.647a.653.653,0,1,1,1.3-.033l.192,7.647a.653.653,0,0,1-.636.67Z" transform="translate(-1155.102 -1012.407)"/>
        <path id="Path_2935" data-name="Path 2935" d="M1641.954,1295.639a.653.653,0,0,1-.651-.618l-.5-9.113a.653.653,0,0,1,.616-.688.642.642,0,0,1,.687.616l.5,9.114a.653.653,0,0,1-.616.688h-.036" transform="translate(-1155.558 -904.859)"/>
        <path id="Path_2936" data-name="Path 2936" d="M1634.251,1374.232a.646.646,0,0,1-.13-.013l-11.564-2.328a.653.653,0,0,1,.258-1.281l11.564,2.328a.653.653,0,0,1-.128,1.294" transform="translate(-1142.34 -964.971)"/>
        <path id="Path_2937" data-name="Path 2937" d="M1416.207,1593.027v18.84a50.667,50.667,0,0,1-101.334,0v-18.84Z" transform="translate(-926.018 -1121.573)" fill="#fff"/>
        <path id="Path_2938" data-name="Path 2938" d="M1363.984,1661.6a51.364,51.364,0,0,1-51.319-51.291v-18.84a.653.653,0,1,1,1.306,0v18.84a50.014,50.014,0,0,0,100.028,0v-18.84a.653.653,0,1,1,1.306,0v18.84a51.364,51.364,0,0,1-51.32,51.291" transform="translate(-924.463 -1120.019)"/>
        <path id="Path_2939" data-name="Path 2939" d="M1416.207,1472.56a50.667,50.667,0,1,1-50.667-50.638,50.653,50.653,0,0,1,50.667,50.638" transform="translate(-926.018 -1001.106)" fill="#31d3f5"/>
        <path id="Path_2940" data-name="Path 2940" d="M1363.984,1522.3a51.291,51.291,0,1,1,51.32-51.291,51.364,51.364,0,0,1-51.32,51.291m0-101.276A49.985,49.985,0,1,0,1414,1471.006a50.056,50.056,0,0,0-50.014-49.985" transform="translate(-924.463 -999.552)"/>
        <path id="Path_2941" data-name="Path 2941" d="M1360.59,1522.06a.653.653,0,0,1-.646-.564,37.471,37.471,0,0,1,17.9-37.281.653.653,0,0,1,.669,1.121,36.158,36.158,0,0,0-17.275,35.981.653.653,0,0,1-.558.736.676.676,0,0,1-.09.006" transform="translate(-957.513 -1044.898)"/>
        <path id="Path_2942" data-name="Path 2942" d="M1382.184,1652.857a.647.647,0,0,1-.356-.107,37.722,37.722,0,0,1-14.716-18.524.653.653,0,1,1,1.227-.448,36.412,36.412,0,0,0,14.2,17.879.653.653,0,0,1-.357,1.2" transform="translate(-962.78 -1149.962)"/>
        <path id="Path_2943" data-name="Path 2943" d="M1448.916,1670.055a37.182,37.182,0,0,1-15.268-3.243.653.653,0,0,1,.532-1.193,36.187,36.187,0,0,0,46.63-15.992.653.653,0,1,1,1.151.616,37.412,37.412,0,0,1-33.045,19.811" transform="translate(-1009.395 -1161.18)"/>
        <path id="Path_2944" data-name="Path 2944" d="M1582.254,1539.338a.665.665,0,0,1-.161-.02.654.654,0,0,1-.472-.794,36.23,36.23,0,0,0,1.106-8.9,35.866,35.866,0,0,0-10.583-25.536.653.653,0,0,1,.922-.925,37.167,37.167,0,0,1,10.967,26.461,37.562,37.562,0,0,1-1.146,9.224.654.654,0,0,1-.632.493" transform="translate(-1107.069 -1058.168)"/>
        <path id="Path_2945" data-name="Path 2945" d="M1482.491,1474.168a.654.654,0,0,1-.365-.111,36.252,36.252,0,0,0-29.576-4.942.653.653,0,0,1-.337-1.262,37.554,37.554,0,0,1,30.643,5.12.653.653,0,0,1-.366,1.195" transform="translate(-1022.401 -1032.549)"/>
        <path id="Path_2946" data-name="Path 2946" d="M1590.823,1754.406a.653.653,0,0,1-.653-.653v-14.338a.653.653,0,1,1,1.305,0v14.338a.653.653,0,0,1-.653.653" transform="translate(-1119.9 -1224.178)"/>
        <path id="Path_2947" data-name="Path 2947" d="M1565.325,1781.528a.653.653,0,0,1-.653-.653v-9.627a.653.653,0,1,1,1.306,0v9.627a.653.653,0,0,1-.653.653" transform="translate(-1101.943 -1246.589)"/>
        <path id="Path_2948" data-name="Path 2948" d="M1536.642,1794.259a.653.653,0,0,1-.653-.653v-9.627a.653.653,0,1,1,1.305,0v9.627a.653.653,0,0,1-.653.653" transform="translate(-1081.742 -1255.552)"/>
        <path id="Path_2949" data-name="Path 2949" d="M1449.677,1547.631a.652.652,0,0,1-.587-.366,11.2,11.2,0,0,1-1.148-4.969,11.316,11.316,0,0,1,21.565-4.787.653.653,0,1,1-1.182.554,10.01,10.01,0,0,0-19.078,4.233,9.906,9.906,0,0,0,1.015,4.393.653.653,0,0,1-.3.874.643.643,0,0,1-.287.067" transform="translate(-1019.734 -1077.895)"/>
        <path id="Path_2950" data-name="Path 2950" d="M1465.384,1617.06a11.309,11.309,0,0,1-8.582-3.94.653.653,0,1,1,.99-.852,10.006,10.006,0,0,0,16.444-11.186.653.653,0,1,1,1.154-.613,11.311,11.311,0,0,1-10.005,16.591" transform="translate(-1025.862 -1126.567)"/>
        <path id="Path_2951" data-name="Path 2951" d="M1482.5,1661.894a.653.653,0,0,1-.652-.636l-.192-7.647a.653.653,0,0,1,.636-.67.643.643,0,0,1,.669.637l.192,7.647a.653.653,0,0,1-.636.669Z" transform="translate(-1043.474 -1163.755)"/>
        <path id="Path_2952" data-name="Path 2952" d="M1483.452,1510.611a.653.653,0,0,1-.651-.618l-.5-9.113a.653.653,0,0,1,.616-.688.643.643,0,0,1,.687.616l.5,9.114a.653.653,0,0,1-.616.688h-.036" transform="translate(-1043.931 -1056.21)"/>
        <path id="Path_2953" data-name="Path 2953" d="M1475.749,1589.2a.654.654,0,0,1-.13-.013l-11.564-2.328a.653.653,0,0,1,.258-1.281l11.565,2.329a.653.653,0,0,1-.128,1.294" transform="translate(-1030.712 -1116.319)"/>
        <path id="Path_2954" data-name="Path 2954" d="M466.794,141.436H319.975a.653.653,0,0,1-.515-1.055,38.869,38.869,0,0,1,41.864-13.311,30.316,30.316,0,0,1,55.819-9.116,38.744,38.744,0,0,1,50.262,22.6.653.653,0,0,1-.611.883m-145.452-1.307h144.5A37.436,37.436,0,0,0,417.1,119.376a.653.653,0,0,1-.813-.286c-7.351-13.1-20.352-16.034-30.067-14.41a28.344,28.344,0,0,0-23.754,23.352.653.653,0,0,1-.308.443.662.662,0,0,1-.536.06,37.559,37.559,0,0,0-40.282,11.6" transform="translate(-224.887 -72.477)"/>
        <rect id="Rectangle_873" data-name="Rectangle 873" width="48.159" height="35.76" transform="translate(30.8 464.011) rotate(-51.859)" fill="#fff"/>
        <path id="Path_2955" data-name="Path 2955" d="M179.424,1439.825l-10.614,13.526,31.673,17.591,7.072-9.011Z" transform="translate(-118.886 -1013.711)"/>
        <rect id="Rectangle_874" data-name="Rectangle 874" width="24.123" height="35.769" transform="matrix(0.618, -0.786, 0.786, 0.618, 30.8, 464.011)" fill="#c1c1c1"/>
        <path id="Path_2956" data-name="Path 2956" d="M85.087,1530.249l-1.17-7.5-5.414-5.122-3.771,3.991a14.851,14.851,0,0,1-14.1,4.281l-6.845-1.561a8.5,8.5,0,0,1-6.608-8.486l.143-6.278a3.4,3.4,0,0,0-5.176-2.979l-11.441,7.016-7.1-.79-5.586,7.026L2.2,1525.808l2.778,7.125a49,49,0,0,0,11.974,17.79L31.3,1564.3c2.1-1,6.278.676,9.946,4.147s5.58,7.554,4.7,9.706l19.107,17.825H85.6c25.142,0,39.387-9.551,41.472-10.4l-2.52-14.474-6.641-3.813a117.655,117.655,0,0,1-15.448-10.571c-9.9-8.017-15.41-13.878-17.374-26.472" transform="translate(-1.55 -1060.362)" fill="#c1c1c1"/>
        <path id="Path_2957" data-name="Path 2957" d="M85.087,1530.249l-1.17-7.5-5.414-5.122-3.771,3.991a14.851,14.851,0,0,1-14.1,4.281l-6.845-1.561a8.5,8.5,0,0,1-6.608-8.486l.143-6.278a3.4,3.4,0,0,0-5.176-2.979l-11.441,7.016-7.1-.79-5.586,7.026L2.2,1525.808l2.778,7.125a49,49,0,0,0,11.974,17.79L31.3,1564.3c2.1-1,6.278.676,9.946,4.147s5.58,7.554,4.7,9.706l19.107,17.825H85.6c25.142,0,39.387-9.551,41.472-10.4l-2.52-14.474-6.641-3.813a117.655,117.655,0,0,1-15.448-10.571c-9.9-8.017-15.41-13.878-17.374-26.472" transform="translate(-1.55 -1060.362)" fill="#fff"/>
        <path id="Path_2958" data-name="Path 2958" d="M84.048,1595.07H63.5a.65.65,0,0,1-.444-.175l-19.107-17.825a.652.652,0,0,1-.158-.725c.673-1.636-.69-5.341-4.54-8.984s-7.622-4.8-9.218-4.033a.652.652,0,0,1-.729-.114l-14.346-13.573a49.954,49.954,0,0,1-12.133-18.027l-2.779-7.125a.652.652,0,0,1,.377-.846l15.651-5.9,5.473-6.885a.646.646,0,0,1,.581-.242l6.882.765,11.25-6.9a4.051,4.051,0,0,1,6.168,3.549l-.143,6.278a7.877,7.877,0,0,0,6.1,7.836l6.845,1.561a14.258,14.258,0,0,0,13.479-4.094l3.77-3.99a.65.65,0,0,1,.92-.026l5.414,5.122a.651.651,0,0,1,.2.373l1.17,7.5c1.861,11.938,6.792,17.689,17.14,26.066a117.15,117.15,0,0,0,15.363,10.513l6.642,3.813a.651.651,0,0,1,.317.454l2.519,14.474a.652.652,0,0,1-.4.716c-.228.092-.691.341-1.277.655-4.516,2.421-18.26,9.789-40.439,9.789m-20.3-1.3h20.3c21.852,0,35.379-7.252,39.824-9.635.373-.2.676-.362.921-.487l-2.381-13.684-6.377-3.66a118.578,118.578,0,0,1-15.534-10.63c-10.618-8.6-15.68-14.516-17.607-26.878l-1.136-7.282-4.779-4.522-3.323,3.517a15.564,15.564,0,0,1-14.715,4.469l-6.845-1.561a9.186,9.186,0,0,1-7.114-9.136l.143-6.278a2.75,2.75,0,0,0-4.186-2.409l-11.44,7.015a.645.645,0,0,1-.412.092l-6.747-.75-5.362,6.744a.649.649,0,0,1-.279.2l-15.2,5.731,2.539,6.512a48.646,48.646,0,0,0,11.814,17.553l14.047,13.29c2.481-.782,6.593.974,10.245,4.43s5.633,7.465,4.995,9.986Z" transform="translate(0 -1058.805)"/>
        <path id="Path_2959" data-name="Path 2959" d="M253.971,1621.708H238.823a.651.651,0,0,1,0-1.3h15.148a.651.651,0,0,1,0,1.3" transform="translate(-167.736 -1140.849)"/>
        <path id="Path_2960" data-name="Path 2960" d="M267.7,1644.925H252.09a.651.651,0,0,1,0-1.3H267.7a.651.651,0,0,1,0,1.3" transform="translate(-177.079 -1157.194)"/>
        <path id="Path_2961" data-name="Path 2961" d="M290.476,1668.143H274.36a.651.651,0,0,1,0-1.3h16.116a.651.651,0,0,1,0,1.3" transform="translate(-192.763 -1173.541)"/>
        <path id="Path_2962" data-name="Path 2962" d="M65.048,1611.993H85.6c25.142,0,39.387-9.551,41.472-10.4l-1.478-8.295c-10.1,5.09-28.563,6.983-42.685,5.655a28.2,28.2,0,0,1-20.09-11.5,163.094,163.094,0,0,1-11.646-18.19l-1.458-.645a24.758,24.758,0,0,1-14.149-17.249l-4.856-21.749-7.1-.79-5.586,7.026L2.2,1541.825l2.779,7.126a48.993,48.993,0,0,0,11.974,17.791L31.3,1580.314c2.1-1,6.278.676,9.946,4.147s5.58,7.553,4.7,9.706Z" transform="translate(-1.55 -1076.379)"/>
        <path id="Path_2963" data-name="Path 2963" d="M118.634,1467.445a.65.65,0,0,1-.514-.252c-.7-.907-6.883-8.933-7.479-11.476a5.256,5.256,0,1,1,10.234-2.4c.6,2.542-1.376,12.481-1.6,13.606a.65.65,0,0,1-.638.522m-2.876-16.885a3.957,3.957,0,0,0-3.849,4.86c.39,1.666,4.159,6.9,6.363,9.826.677-3.6,1.726-9.966,1.336-11.632a3.961,3.961,0,0,0-3.849-3.054" transform="translate(-77.821 -1020.352)"/>
        <rect id="Rectangle_875" data-name="Rectangle 875" width="36.845" height="48.185" transform="translate(261.948 452.193)" fill="#fff"/>
        <path id="Path_2964" data-name="Path 2964" d="M885.749,1541.4l36.845-3.773v-9.682H885.749Z" transform="translate(-623.801 -1075.752)"/>
        <rect id="Rectangle_876" data-name="Rectangle 876" width="36.845" height="24.092" transform="translate(261.948 476.286)" fill="#c1c1c1"/>
        <path id="Path_2965" data-name="Path 2965" d="M945.575,1614.215l-7.887-2.461a120.334,120.334,0,0,1-38.732-20.432L868.2,1567.036h-8.039v6.6a14.87,14.87,0,0,1-7.3,12.8l-7.1,4.194a9.165,9.165,0,0,1-11.467-1.751l-4.538-5.028a3.668,3.668,0,0,0-6.265,1.5l-3.773,13.987-6.155,4.651.619,9.734-7.778,16.327,7.457,3.525a52.8,52.8,0,0,0,22.565,5.066h21.3c.9-2.344,5.423-4.127,10.87-4.127s9.97,1.783,10.87,4.127h33.223a61.482,61.482,0,0,0,35.732-11.451l1.51-1.078Z" transform="translate(-567.919 -1103.274)" fill="#fff"/>
        <path id="Path_2966" data-name="Path 2966" d="M814.179,1690.577,806.4,1706.9l7.457,3.525a52.791,52.791,0,0,0,22.565,5.066h21.3c.9-2.344,5.423-4.127,10.87-4.127s9.97,1.783,10.87,4.127h33.223a61.478,61.478,0,0,0,35.732-11.451l1.51-1.078-2.129-5.819c-39.352,10.573-82.677-5.054-82.677-5.054l-1.621.576a26.682,26.682,0,0,1-23.87-3.029l-19.917-13.448-6.155,4.651Z" transform="translate(-567.919 -1180.125)"/>
        <path id="Path_2967" data-name="Path 2967" d="M840.453,1588.993a.649.649,0,0,1-.454-.185c-.885-.863-8.681-8.507-9.694-11.125a5.62,5.62,0,1,1,10.48-4.06c1.013,2.618.392,13.522.317,14.757a.65.65,0,0,1-.65.612m-4.913-17.66a4.319,4.319,0,0,0-4.021,5.88c.676,1.747,5.58,6.869,8.361,9.647.187-3.928.367-11.02-.309-12.766a4.324,4.324,0,0,0-4.031-2.761" transform="translate(-584.485 -1105.382)"/>
        <path id="Path_2968" data-name="Path 2968" d="M1026.635,1614.494a.652.652,0,0,1-.314-1.223l11.741-6.44a.651.651,0,0,1,.626,1.143l-11.741,6.44a.651.651,0,0,1-.312.08" transform="translate(-722.563 -1131.236)"/>
        <path id="Path_2969" data-name="Path 2969" d="M1047.864,1632.5a.652.652,0,0,1-.314-1.223l12.21-6.7a.651.651,0,0,1,.625,1.142l-12.21,6.7a.649.649,0,0,1-.312.08" transform="translate(-737.514 -1143.73)"/>
        <path id="Path_2970" data-name="Path 2970" d="M1069.1,1650.651a.652.652,0,0,1-.313-1.223l12.563-6.89a.651.651,0,0,1,.626,1.143l-12.563,6.89a.649.649,0,0,1-.312.08" transform="translate(-752.467 -1156.375)"/>
        <rect id="Rectangle_877" data-name="Rectangle 877" width="232.598" height="62.132" transform="matrix(0.591, -0.807, 0.807, 0.591, 48.168, 429.459)" fill="#c1c1c1"/>
        <path id="Path_2971" data-name="Path 2971" d="M726.607,939.05l-61.383-45.012a14.277,14.277,0,0,1-5.833-11.514v-4.576h-46.26V933.2l57.206,41.949a30.466,30.466,0,0,1,12.447,24.569v75.557H745.12l-.005-99.7a45.3,45.3,0,0,0-18.508-36.531" transform="translate(-431.806 -618.121)" fill="#c1c1c1"/>
        <path id="Path_2972" data-name="Path 2972" d="M608.431,851.305l-.289-.212a14.278,14.278,0,0,1-5.833-11.514V835l-41.987-18.052L532.08,855.521c10.823,4.613,27.9,7.472,33.693-1.935,4.332-7.037,14.033-10.369,42.659-2.281" transform="translate(-374.725 -575.176)"/>
        <path id="Path_2973" data-name="Path 2973" d="M211.494,1068.6a.645.645,0,0,1-.384-.126l-50.17-36.788a.652.652,0,0,1-.14-.911L289.589,854.89a.651.651,0,0,1,1.05.77l-128.4,175.357,49.119,36.018,108.2-147.761a22.383,22.383,0,0,1,18-9.13h1.849a.651.651,0,0,1,0,1.3h-1.849a21.075,21.075,0,0,0-16.946,8.6L212.02,1068.332a.651.651,0,0,1-.526.266" transform="translate(-113.157 -601.699)"/>
        <path id="Path_2974" data-name="Path 2974" d="M610.369,592.771l-22.747,11.208c-11.078,5.459-7.2,22.147,5.153,22.147h30.008V601.081Z" transform="translate(-409.242 -417.341)"/>
        <rect id="Rectangle_878" data-name="Rectangle 878" width="9.476" height="21.929" transform="translate(196.497 183.635)" fill="#fff"/>
        <path id="Path_2975" data-name="Path 2975" d="M664.433,598.714c0,5.028,3.719,9.1,8.307,9.1s8.307-4.076,8.307-9.1-3.719-9.1-8.307-9.1-8.307,4.076-8.307,9.1" transform="translate(-467.936 -415.116)" fill="#fff"/>
        <path id="Path_2976" data-name="Path 2976" d="M686.422,633.4a3.878,3.878,0,0,0,6.378-1.875Z" transform="translate(-483.422 -444.627)"/>
        <path id="Path_2977" data-name="Path 2977" d="M671.291,606.919a8.3,8.3,0,0,1-2.68-.444.651.651,0,0,1,.42-1.234,6.994,6.994,0,0,0,2.261.375c4.221,0,7.655-3.792,7.655-8.453s-3.434-8.453-7.655-8.453c-3.941,0-7.215,3.26-7.615,7.583a.644.644,0,0,1-.709.589.652.652,0,0,1-.588-.709c.463-5,4.294-8.765,8.912-8.765,4.939,0,8.957,4.377,8.957,9.756s-4.018,9.756-8.957,9.756" transform="translate(-466.488 -413.565)"/>
        <path id="Path_2978" data-name="Path 2978" d="M672.358,595.5l7.954,3.919c.016-.233.033-.466.033-.7,0-5.028-3.719-9.1-8.307-9.1s-8.6,4.278-8.6,9.306c0,.341.02.676.053,1.007Z" transform="translate(-467.235 -415.116)"/>
        <path id="Path_2979" data-name="Path 2979" d="M665.251,561.219a6.129,6.129,0,1,1-6.129-6.133,6.131,6.131,0,0,1,6.129,6.133" transform="translate(-459.88 -390.809)"/>
        <path id="Path_2980" data-name="Path 2980" d="M216.4,963.509l-27.72,0a9.965,9.965,0,0,0-9.055,5.8l-3.722,8.1a15.682,15.682,0,0,0-1.434,6.553v5.22a4.036,4.036,0,0,0,4.035,4.038h.561a4.036,4.036,0,0,0,4.035-4.038v-3.409a15.314,15.314,0,0,1,1.4-6.4l1.931-4.2a5.194,5.194,0,0,1,4.719-3.026H216.4Z" transform="translate(-122.873 -678.358)" fill="#fff"/>
        <path id="Path_2981" data-name="Path 2981" d="M180.412,963.458l-26.786.068a13.121,13.121,0,0,0-5.474,1.266l-3.95,1.875a3.385,3.385,0,0,0-1.607,4.508l.2.425a3.381,3.381,0,0,0,4.5,1.608l2.58-1.224a12.817,12.817,0,0,1,5.345-1.236l23.114-.025Z" transform="translate(-100.194 -678.324)" fill="#fff"/>
        <path id="Path_2982" data-name="Path 2982" d="M144.3,972.753a4.038,4.038,0,0,1-3.65-2.306l-.2-.425a4.038,4.038,0,0,1,1.916-5.376l3.95-1.874a13.675,13.675,0,0,1,5.746-1.329l14.273-.018a.652.652,0,0,1,0,1.3l-14.266.018a12.377,12.377,0,0,0-5.2,1.2l-3.95,1.874a2.735,2.735,0,0,0-1.3,3.64l.2.425a2.733,2.733,0,0,0,3.638,1.3l2.58-1.224a13.375,13.375,0,0,1,5.617-1.3l.851,0h0a.651.651,0,0,1,0,1.3l-.845,0a12.075,12.075,0,0,0-5.068,1.173l-2.58,1.224a4.008,4.008,0,0,1-1.721.389" transform="translate(-98.64 -676.892)"/>
        <path id="Path_2983" data-name="Path 2983" d="M218.771,985.3l-16.044,0a9.964,9.964,0,0,0-9.055,5.8l-3.722,8.1a15.686,15.686,0,0,0-1.434,6.553v5.219a4.036,4.036,0,0,0,4.035,4.038h.561a4.036,4.036,0,0,0,4.035-4.038v-3.409a15.318,15.318,0,0,1,1.4-6.4l1.931-4.2a5.194,5.194,0,0,1,4.719-3.026h13.575Z" transform="translate(-132.765 -693.697)" fill="#fff"/>
        <path id="Path_2984" data-name="Path 2984" d="M234.108,1003.963l-16.044,0a9.964,9.964,0,0,0-9.055,5.8l-3.722,8.1a15.685,15.685,0,0,0-1.434,6.552v5.22a4.036,4.036,0,0,0,4.035,4.038h.561a4.036,4.036,0,0,0,4.035-4.038v-3.409a15.317,15.317,0,0,1,1.4-6.4l1.931-4.2a5.194,5.194,0,0,1,4.719-3.026h13.575Z" transform="translate(-143.566 -706.839)" fill="#fff"/>
        <path id="Path_2985" data-name="Path 2985" d="M267.059,900.541,301.626,858l-16.913-21.131L257.007,872a5.831,5.831,0,0,1-4.579,2.221H244.22v20.8h15.3Z" transform="translate(-171.995 -589.202)" fill="#fff"/>
        <path id="Path_2986" data-name="Path 2986" d="M286.313,872.38l16.6,20.522L331.27,858l-16.913-21.131L286.652,872c-.107.135-.223.259-.339.383" transform="translate(-201.64 -589.202)" fill="#020202"/>
        <path id="Path_2987" data-name="Path 2987" d="M206.9,1032.771h-.561a4.693,4.693,0,0,1-4.685-4.689v-5.22a16.449,16.449,0,0,1,1.494-6.825l3.722-8.1a10.645,10.645,0,0,1,9.644-6.183H219.1a.652.652,0,0,1,0,1.3h-2.584a9.34,9.34,0,0,0-8.461,5.425l-3.722,8.1a15.143,15.143,0,0,0-1.374,6.281v5.22a3.389,3.389,0,0,0,3.383,3.387h.561a3.389,3.389,0,0,0,3.384-3.386v-3.409a15.851,15.851,0,0,1,1.46-6.67l1.931-4.2a5.861,5.861,0,0,1,5.31-3.4h10.379a.651.651,0,0,1,0,1.3H218.984a4.556,4.556,0,0,0-4.128,2.646l-1.931,4.2a14.564,14.564,0,0,0-1.341,6.126v3.409a4.693,4.693,0,0,1-4.686,4.689" transform="translate(-142.016 -705.289)"/>
        <path id="Path_2988" data-name="Path 2988" d="M191.369,1014.1H191a4.693,4.693,0,0,1-4.686-4.689v-5.22a16.456,16.456,0,0,1,1.494-6.825l3.722-8.1a10.644,10.644,0,0,1,9.645-6.183h4.742a.651.651,0,0,1,0,1.3h-4.742a9.34,9.34,0,0,0-8.462,5.425l-3.722,8.1a15.15,15.15,0,0,0-1.374,6.28v5.22A3.389,3.389,0,0,0,191,1012.8h.369a.651.651,0,0,1,0,1.3" transform="translate(-131.215 -692.147)"/>
        <path id="Path_2989" data-name="Path 2989" d="M206.512,905.532h-8.144a4.385,4.385,0,0,1-4.379-4.382v-.329a4.385,4.385,0,0,1,4.379-4.382h4.885a4.909,4.909,0,0,0,3.835-1.832l3.322-4.289a.651.651,0,1,1,1.029.8l-3.33,4.3a6.21,6.21,0,0,1-4.856,2.326h-4.885a3.081,3.081,0,0,0-3.077,3.079v.329a3.081,3.081,0,0,0,3.077,3.079h8.144a9.886,9.886,0,0,0,7.724-3.692l35.882-44.087L234.045,836.37l-27.3,34.614a6.445,6.445,0,0,1-5.09,2.469h0l-14.523,0h0a9.339,9.339,0,0,0-8.462,5.425l-3.722,8.1a14.925,14.925,0,0,0-1.374,6.28v5.22a3.389,3.389,0,0,0,3.384,3.387.651.651,0,0,1,0,1.3,4.693,4.693,0,0,1-4.686-4.689v-5.22a16.223,16.223,0,0,1,1.494-6.825l3.722-8.1a10.644,10.644,0,0,1,9.644-6.183h0l14.523,0h0a5.149,5.149,0,0,0,4.067-1.973L233.53,834.92a.652.652,0,0,1,.509-.248h0a.65.65,0,0,1,.508.244l16.913,21.131a.651.651,0,0,1,0,.819l-36.212,44.493a11.179,11.179,0,0,1-8.735,4.174" transform="translate(-121.324 -587.652)"/>
        <path id="Path_2990" data-name="Path 2990" d="M1091.58,828.888c0,8.932,2.406,16.174,5.374,16.174s5.374-7.241,5.374-16.174-2.406-16.174-5.374-16.174-5.374,7.241-5.374,16.174" transform="translate(-768.761 -572.193)"/>
        <path id="Path_2991" data-name="Path 2991" d="M612.289,736.194H537.8l17.489-61.511c1.953-.765,8.184-5.172,18.282-5.172h5.509a33.991,33.991,0,0,1,20.1,6.58l13.811,10.126-4.31,33.6Z" transform="translate(-378.754 -471.37)" fill="#31d3f5"/>
        <path id="Path_2992" data-name="Path 2992" d="M389.175,715.879l-14.506-28.892-42.226,20.806a55.964,55.964,0,0,0-18.761,15L281.333,762.77l25.118,20.352,30.447-37.63a37.41,37.41,0,0,1,12.54-10.023Z" transform="translate(-198.133 -483.674)" fill="#31d3f5"/>
        <path id="Path_2993" data-name="Path 2993" d="M304.9,780.763a.649.649,0,0,1-.409-.145l-25.118-20.352a.651.651,0,0,1-.1-.916l32.348-39.981A57.011,57.011,0,0,1,330.6,704.2l42.44-21.416a.651.651,0,0,1,.586,1.163l-42.445,21.419a55.7,55.7,0,0,0-18.548,14.824L280.7,759.663,304.8,779.2l30.036-37.124a38.327,38.327,0,0,1,12.757-10.2L372.8,719.448a.651.651,0,0,1,.576,1.169l-25.206,12.426a37.01,37.01,0,0,0-12.322,9.848l-30.446,37.63a.65.65,0,0,1-.506.241" transform="translate(-196.583 -480.664)"/>
        <path id="Path_2994" data-name="Path 2994" d="M1110.562,876.536l35.734,15.509-11.229,2.306-13.2-5.577A20.151,20.151,0,0,1,1110.728,877Z" transform="translate(-782.129 -617.127)" fill="#fff"/>
        <path id="Path_2995" data-name="Path 2995" d="M1104.122,811.6l10.895-5.817,23.382,9.538-14.2,26.084-18.717-1.835-12.908-5.384h-7.327l.773-20.369,15.947-1.618a6.943,6.943,0,0,0,2.156-.6" transform="translate(-764.3 -567.315)" fill="#fff"/>
        <path id="Path_2996" data-name="Path 2996" d="M1174.852,815.412l-20.409,31.044,11.861,4.95,20.121-30.707Z" transform="translate(-813.033 -574.092)" fill="#fff"/>
        <path id="Path_2997" data-name="Path 2997" d="M1232.635,520.709a63.585,63.585,0,1,1,53.28-28.763,63.133,63.133,0,0,1-53.28,28.763m.225-125.888a62.79,62.79,0,0,0-12.865,1.339,61.887,61.887,0,1,0,12.865-1.339m52.51,96.769h0Z" transform="translate(-823.4 -277.056)"/>
        <path id="Path_2998" data-name="Path 2998" d="M1259.359,536.224a52.381,52.381,0,1,1,43.908-23.7,52.033,52.033,0,0,1-43.908,23.7m.161-103.482a51.037,51.037,0,1,0,27.876,8.323,51.056,51.056,0,0,0-27.876-8.323" transform="translate(-850.107 -303.755)"/>
        <path id="Path_2999" data-name="Path 2999" d="M1329.8,465.581a62.929,62.929,0,0,1-88.986,88.805,62.929,62.929,0,1,0,88.986-88.805" transform="translate(-873.861 -327.793)"/>
        <path id="Path_3000" data-name="Path 3000" d="M1223.123,785.124a.651.651,0,0,1-.544-1.008l7.632-11.676a.651.651,0,1,1,1.089.713l-7.632,11.676a.65.65,0,0,1-.545.295" transform="translate(-860.944 -543.63)"/>
        <path id="Path_3001" data-name="Path 3001" d="M1111.642,891.629a.651.651,0,0,1-.357-.106l-10.408-6.814a.652.652,0,0,1-.188-.9l31.439-48.1a.651.651,0,1,1,1.09.713l-31.083,47.55,9.318,6.1,19.6-29.984a.651.651,0,1,1,1.09.713l-19.957,30.529a.652.652,0,0,1-.545.295" transform="translate(-775.101 -588.177)"/>
        <path id="Path_3002" data-name="Path 3002" d="M1260.908,806.973a.651.651,0,0,1-.544-1.008l6.866-10.5a.651.651,0,1,1,1.089.713l-6.866,10.5a.651.651,0,0,1-.545.295" transform="translate(-887.554 -559.839)"/>
        <path id="Path_3003" data-name="Path 3003" d="M1107.2,1001.19c-3.078-2.026-6.12-2.837-6.793-1.813s1.277,3.5,4.355,5.523,6.119,2.838,6.793,1.813-1.277-3.5-4.355-5.523" transform="translate(-774.88 -703.301)"/>
        <path id="Path_3004" data-name="Path 3004" d="M1245.6,834.2a3.779,3.779,0,0,0,2.01,4.95l4.3,1.817,1.094,4.414,2.345-1.4a5.672,5.672,0,0,0-.649-10.042l-4.155-1.755a3.775,3.775,0,0,0-4.946,2.011" transform="translate(-877.024 -585.693)" fill="#fff"/>
        <path id="Path_3005" data-name="Path 3005" d="M1254.645,842.474a.652.652,0,0,1-.433-1.138,5.175,5.175,0,0,0,1.6-4.685A4.757,4.757,0,0,0,1252.9,833l-4.154-1.755a3.126,3.126,0,0,0-2.43,5.761l1.577.666a.651.651,0,0,1-.506,1.2l-1.577-.666a4.429,4.429,0,0,1,3.442-8.162l4.155,1.755a6.04,6.04,0,0,1,3.692,4.642,6.493,6.493,0,0,1-2.022,5.871.65.65,0,0,1-.434.165" transform="translate(-875.475 -584.146)"/>
        <path id="Path_3006" data-name="Path 3006" d="M1232.734,856.48a3.779,3.779,0,0,0,2.01,4.95l1.372.58-1.919,4.55,2.645,1.117a9.28,9.28,0,0,0,7.776-.268c3.884-1.859,4.991-7.9.584-9.763l-7.522-3.178a3.775,3.775,0,0,0-4.946,2.012" transform="translate(-867.96 -601.38)" fill="#fff"/>
        <path id="Path_3007" data-name="Path 3007" d="M1240.357,867.383a.651.651,0,0,1-.1-1.295,8.055,8.055,0,0,0,2.446-.773.64.64,0,0,1,.082-.047,5.551,5.551,0,0,0,3.062-5,3.817,3.817,0,0,0-2.45-3.578l-7.523-3.178a3.126,3.126,0,0,0-2.43,5.761l.966.408a.651.651,0,0,1-.506,1.2l-.966-.408a4.429,4.429,0,1,1,3.442-8.161l7.523,3.177a5.109,5.109,0,0,1,3.245,4.748,6.889,6.889,0,0,1-3.8,6.2l-.006-.013a9.82,9.82,0,0,1-2.879.945.642.642,0,0,1-.1.008" transform="translate(-866.406 -599.827)"/>
        <path id="Path_3008" data-name="Path 3008" d="M1217.189,877.3a3.779,3.779,0,0,0,2.01,4.95l.423.179-2.406,5.7a11.594,11.594,0,0,0,9.261-.093,6.624,6.624,0,0,0,3.9-3.491l.368-.872a4.378,4.378,0,0,0-2.328-5.734l-6.282-2.653a3.774,3.774,0,0,0-4.946,2.012" transform="translate(-857.012 -616.04)" fill="#fff"/>
        <path id="Path_3009" data-name="Path 3009" d="M1224.163,887.467a.651.651,0,0,1-.228-1.262c.228-.086.458-.181.688-.287a3.79,3.79,0,0,1,.418-.2,5.5,5.5,0,0,0,3.19-2.973l.368-.875A3.722,3.722,0,0,0,1226.62,877l-6.285-2.655a3.126,3.126,0,0,0-2.43,5.761l.424.179a.651.651,0,0,1-.508,1.2l-.422-.179a4.429,4.429,0,0,1,3.443-8.161l6.285,2.655a5.026,5.026,0,0,1,2.672,6.583l-.368.875a6.781,6.781,0,0,1-3.879,3.665,2.924,2.924,0,0,0-.273.123c-.019.011-.057.033-.076.042q-.408.189-.811.34a.652.652,0,0,1-.228.042" transform="translate(-855.465 -614.493)"/>
        <path id="Path_3010" data-name="Path 3010" d="M1196.729,897.236a3.779,3.779,0,0,0,2.01,4.95l2.4,1.015-3.515,1.368-2.017,2.98.408.2c4.757,2.01,12.025,1.187,13.9-3.259l.6-1.423a3.779,3.779,0,0,0-2.01-4.95l-6.833-2.886a3.774,3.774,0,0,0-4.946,2.012" transform="translate(-842.025 -630.074)" fill="#fff"/>
        <path id="Path_3011" data-name="Path 3011" d="M1143.392,804.775l-6.766,7.342,4.957,2.094a9.422,9.422,0,0,0,9.575-1.341c.745-.424,2.232-2.557,4.617-1.55a13.66,13.66,0,0,0,7.013,1.29,6.1,6.1,0,0,0,5.578-3.671l.041-.1a2.31,2.31,0,0,0-2.287-3.2c-2.029.144-3.5.372-5.608-.519l-6.344-2.68a9.582,9.582,0,0,0-10.776,2.334" transform="translate(-800.485 -564.427)" fill="#fff"/>
        <path id="Path_3012" data-name="Path 3012" d="M1122.441,842.245a14.761,14.761,0,0,1-5.647-1.087l-25.317-10.694h-7.349a.651.651,0,0,1-.651-.667l.492-20.42a.651.651,0,0,1,.588-.633l14.645-1.43a6.286,6.286,0,0,0,3.951-1.992l2.33-2.528a10.258,10.258,0,0,1,11.507-2.493l6.344,2.68a8.847,8.847,0,0,0,4.726.514l.583-.044a2.961,2.961,0,0,1,2.933,4.106l-.041.1a6.673,6.673,0,0,1-6.068,4.063c-.035,0,.027,0,.1-.028a.66.66,0,0,1-.164.033,14.023,14.023,0,0,1-7.026-1.221c-.1-.046-.176-.081-.223-.1-1.45-.608-2.4.076-3.417.962a5.153,5.153,0,0,1-.635.5,10.059,10.059,0,0,1-10.2,1.4l-.419-.177a.651.651,0,0,1,.506-1.2l.419.177a8.758,8.758,0,0,0,8.913-1.248.639.639,0,0,1,.087-.059,4.354,4.354,0,0,0,.472-.381c.86-.751,2.458-2.145,4.7-1.211.076.027.186.075.331.139a12.745,12.745,0,0,0,6.383,1.111c.039,0,.078-.006.123-.008a5.325,5.325,0,0,0,4.923-3.268l.041-.1a1.658,1.658,0,0,0-1.641-2.3l-.576.043a10.13,10.13,0,0,1-5.333-.613l-6.344-2.68a8.952,8.952,0,0,0-10.044,2.176l-2.33,2.528a7.594,7.594,0,0,1-4.777,2.4l-14.077,1.374-.462,19.176h6.814a.651.651,0,0,1,.253.051l25.438,10.745a13.75,13.75,0,0,0,7.655.752c2.7-.521,4.616-1.822,5.393-3.664l.6-1.423a3.131,3.131,0,0,0-1.664-4.1l-6.833-2.886a3.126,3.126,0,0,0-2.43,5.761l4.753,2.007a.651.651,0,0,1-.506,1.2l-4.753-2.008a4.429,4.429,0,1,1,3.442-8.162l6.833,2.886a4.435,4.435,0,0,1,2.357,5.8l-.6,1.424c-.951,2.255-3.2,3.831-6.346,4.437a14.623,14.623,0,0,1-2.76.257m3.125-30.556h0" transform="translate(-763.054 -562.888)"/>
        <path id="Path_3013" data-name="Path 3013" d="M1244.177,829.181a.647.647,0,0,1-.252-.051l-2.979-1.25a.651.651,0,0,1,.5-1.2l2.979,1.251a.652.652,0,0,1-.252,1.252" transform="translate(-873.673 -581.988)"/>
        <path id="Path_3014" data-name="Path 3014" d="M807.109,747.291c0-8.89,2.383-16.1,5.332-16.17H761.45a24.175,24.175,0,0,1-14.3-4.681l-40.4-29.622-19.1,26.088,45.285,33.28a37.462,37.462,0,0,0,22.185,7.276h57.337c-2.958-.036-5.352-7.262-5.352-16.172" transform="translate(-484.29 -490.596)" fill="#31d3f5"/>
        <path id="Path_3015" data-name="Path 3015" d="M756.411,755.065a.651.651,0,0,1-.634-.506l-4.345-19a12.674,12.674,0,0,1,2.414-10.818,10.953,10.953,0,0,0-3.642-16.775,12.963,12.963,0,0,1-7.064-8.663L742.8,697.8a.651.651,0,1,1,1.269-.291l.345,1.506a11.668,11.668,0,0,0,6.37,7.784,12.256,12.256,0,0,1,4.073,18.771,11.364,11.364,0,0,0-2.151,9.7l4.345,19a.651.651,0,0,1-.489.78.639.639,0,0,1-.146.017" transform="translate(-523.113 -490.724)"/>
        <path id="Path_3016" data-name="Path 3016" d="M676.459,748.331a.651.651,0,0,1-.37-1.188,10.955,10.955,0,0,0-6.2-19.981.651.651,0,0,1,0-1.3,12.258,12.258,0,0,1,6.938,22.356.648.648,0,0,1-.369.115" transform="translate(-471.321 -511.043)"/>
        <path id="Path_3017" data-name="Path 3017" d="M1095.4,844.164c-3.914,0-6.025-8.669-6.025-16.825s2.112-16.825,6.025-16.825c1.769,0,3.3,1.8,4.428,5.212a.651.651,0,1,1-1.236.409c-.894-2.7-2.088-4.318-3.192-4.318-2.234,0-4.724,6.375-4.724,15.522s2.489,15.522,4.724,15.522c.983,0,2.039-1.272,2.9-3.489a.651.651,0,1,1,1.214.47c-1.093,2.828-2.514,4.322-4.11,4.322" transform="translate(-767.21 -570.643)"/>
      </g>
    </g>
  </g>
</svg>
