<svg xmlns="http://www.w3.org/2000/svg" xmlns:xlink="http://www.w3.org/1999/xlink" width="526" height="526" viewBox="0 0 526 526">
  <defs>
    <clipPath id="clip-path">
      <rect id="Rectangle_843" data-name="Rectangle 843" width="526" height="526" transform="translate(0 -0.349)" fill="none"/>
    </clipPath>
    <clipPath id="clip-path-2">
      <path id="Path_2828" data-name="Path 2828" d="M766.023,584.582c-.9.041-3.968.574-3.968.574l-15.37,29.938,19.338,3.049,5.5-31.143s-4.02-2.419-5.446-2.419h-.054" transform="translate(-746.685 -584.581)" fill="none"/>
    </clipPath>
  </defs>
  <g id="Group_1820" data-name="Group 1820" transform="translate(0 0.349)">
    <g id="Group_1817" data-name="Group 1817">
      <g id="Group_1816" data-name="Group 1816" clip-path="url(#clip-path)">
        <path id="Path_2694" data-name="Path 2694" d="M594.44,458.484H186.251A37.4,37.4,0,0,1,148.9,421.125V174.848a37.4,37.4,0,0,1,37.351-37.359H594.44a37.4,37.4,0,0,1,37.351,37.359V421.125a37.4,37.4,0,0,1-37.351,37.359M186.251,138.756a36.129,36.129,0,0,0-36.084,36.092V421.125a36.13,36.13,0,0,0,36.084,36.093H594.44a36.13,36.13,0,0,0,36.084-36.093V174.848a36.129,36.129,0,0,0-36.084-36.092Z" transform="translate(-106.139 -97.996)"/>
        <path id="Path_2695" data-name="Path 2695" d="M631.335,1050.146H149.951a.633.633,0,0,1,0-1.267H631.335a.633.633,0,0,1,0,1.267" transform="translate(-106.437 -747.598)"/>
        <path id="Path_2696" data-name="Path 2696" d="M868.17,1336.19H706.37a.633.633,0,0,1-.624-.739l14.317-84.333a.633.633,0,0,1,.624-.527H853.853a.633.633,0,0,1,.624.527l14.317,84.333a.633.633,0,0,1-.624.739m-161.05-1.267h160.3l-14.1-83.066h-132.1Z" transform="translate(-503.064 -891.369)"/>
        <path id="Path_2697" data-name="Path 2697" d="M815.6,1561.841H610.264a8.827,8.827,0,0,1,0-17.654H815.6a8.827,8.827,0,0,1,0,17.654m-205.336-16.387a7.56,7.56,0,0,0,0,15.121H815.6a7.56,7.56,0,0,0,0-15.121Z" transform="translate(-428.725 -1100.633)"/>
        <path id="Path_2698" data-name="Path 2698" d="M971.926,1142.824a7.158,7.158,0,1,1,7.14-7.157,7.157,7.157,0,0,1-7.14,7.157m0-13.049a5.891,5.891,0,1,0,5.873,5.891,5.889,5.889,0,0,0-5.873-5.891" transform="translate(-687.719 -804.355)"/>
        <rect id="Rectangle_784" data-name="Rectangle 784" width="12.228" height="115.189" transform="translate(268.429 83.572)" fill="#989898"/>
        <rect id="Rectangle_785" data-name="Rectangle 785" width="12.228" height="23.921" transform="translate(268.429 83.573)" fill="#c1c1c1"/>
        <path id="Path_2699" data-name="Path 2699" d="M954.427,296.534a.633.633,0,0,1-.633-.633V265.548a.633.633,0,1,1,1.266,0V295.9a.633.633,0,0,1-.633.633" transform="translate(-679.884 -188.82)" fill="#c1c1c1"/>
        <rect id="Rectangle_786" data-name="Rectangle 786" width="12.228" height="23.921" transform="translate(268.429 107.493)" fill="#dbdbdb"/>
        <path id="Path_2700" data-name="Path 2700" d="M954.427,404.873a.633.633,0,0,1-.633-.633V374.726a.633.633,0,1,1,1.266,0v29.513a.633.633,0,0,1-.633.633" transform="translate(-679.884 -266.638)" fill="#dbdbdb"/>
        <rect id="Rectangle_787" data-name="Rectangle 787" width="12.228" height="77.312" transform="translate(287.604 166.366)" fill="#989898"/>
        <rect id="Rectangle_788" data-name="Rectangle 788" width="12.228" height="23.921" transform="translate(287.604 166.366)" fill="#dbdbdb"/>
        <path id="Path_2701" data-name="Path 2701" d="M1021.2,591.371a.633.633,0,0,1-.633-.633V553.785a.633.633,0,1,1,1.266,0v36.952a.633.633,0,0,1-.633.633" transform="translate(-727.48 -394.264)" fill="#dbdbdb"/>
        <rect id="Rectangle_789" data-name="Rectangle 789" width="12.228" height="23.921" transform="translate(287.604 185.346)" fill="#c1c1c1"/>
        <path id="Path_2702" data-name="Path 2702" d="M1021.2,674.431a.633.633,0,0,1-.633-.633V643.69a.633.633,0,1,1,1.266,0V673.8a.633.633,0,0,1-.633.633" transform="translate(-727.48 -458.344)" fill="#c1c1c1"/>
        <rect id="Rectangle_790" data-name="Rectangle 790" width="12.228" height="91.681" transform="translate(306.78 120.513)" fill="#989898"/>
        <rect id="Rectangle_791" data-name="Rectangle 791" width="12.228" height="23.921" transform="translate(306.78 120.513)" fill="#c1c1c1"/>
        <path id="Path_2703" data-name="Path 2703" d="M1087.969,425.552a.633.633,0,0,1-.633-.633V394.153a.633.633,0,1,1,1.266,0v30.765a.633.633,0,0,1-.633.633" transform="translate(-775.076 -280.485)" fill="#c1c1c1"/>
        <rect id="Rectangle_792" data-name="Rectangle 792" width="12.228" height="23.921" transform="translate(306.78 144.434)" fill="#dbdbdb"/>
        <path id="Path_2704" data-name="Path 2704" d="M1087.969,533.383a.633.633,0,0,1-.633-.633V503.2a.633.633,0,0,1,1.266,0V532.75a.633.633,0,0,1-.633.633" transform="translate(-775.076 -358.208)" fill="#dbdbdb"/>
        <rect id="Rectangle_793" data-name="Rectangle 793" width="12.228" height="131.157" transform="translate(325.955 131.245)" fill="#989898"/>
        <rect id="Rectangle_794" data-name="Rectangle 794" width="12.228" height="23.921" transform="translate(325.955 147.541)" fill="#c1c1c1"/>
        <path id="Path_2705" data-name="Path 2705" d="M1154.74,525.836a.633.633,0,0,1-.633-.633V488.25a.633.633,0,1,1,1.266,0V525.2a.633.633,0,0,1-.633.633" transform="translate(-822.671 -347.553)" fill="#c1c1c1"/>
        <rect id="Rectangle_795" data-name="Rectangle 795" width="12.228" height="23.921" transform="translate(325.955 131.372)" fill="#dbdbdb"/>
        <path id="Path_2706" data-name="Path 2706" d="M1154.74,463.36a.633.633,0,0,1-.633-.633V431.961a.633.633,0,1,1,1.266,0v30.765a.633.633,0,0,1-.633.633" transform="translate(-822.671 -307.433)" fill="#dbdbdb"/>
        <rect id="Rectangle_796" data-name="Rectangle 796" width="12.228" height="65.691" transform="translate(345.13 106.223)" fill="#989898"/>
        <rect id="Rectangle_797" data-name="Rectangle 797" width="12.228" height="23.921" transform="translate(345.13 106.223)" fill="#c1c1c1"/>
        <path id="Path_2707" data-name="Path 2707" d="M1221.511,375.392a.633.633,0,0,1-.633-.633V344.406a.633.633,0,1,1,1.266,0v30.352a.633.633,0,0,1-.633.633" transform="translate(-870.267 -245.027)" fill="#c1c1c1"/>
        <rect id="Rectangle_798" data-name="Rectangle 798" width="12.228" height="23.921" transform="translate(345.13 130.144)" fill="#dbdbdb"/>
        <path id="Path_2708" data-name="Path 2708" d="M1221.511,483.728a.633.633,0,0,1-.633-.633V453.581a.633.633,0,1,1,1.266,0v29.513a.633.633,0,0,1-.633.633" transform="translate(-870.267 -322.843)" fill="#dbdbdb"/>
        <rect id="Rectangle_799" data-name="Rectangle 799" width="12.228" height="77.312" transform="translate(364.306 134.747)" fill="#989898"/>
        <rect id="Rectangle_800" data-name="Rectangle 800" width="12.228" height="23.921" transform="translate(364.306 134.747)" fill="#dbdbdb"/>
        <path id="Path_2709" data-name="Path 2709" d="M1288.282,481.294a.633.633,0,0,1-.633-.633V443.709a.633.633,0,1,1,1.266,0v36.952a.633.633,0,0,1-.633.633" transform="translate(-917.863 -315.806)" fill="#dbdbdb"/>
        <rect id="Rectangle_801" data-name="Rectangle 801" width="12.228" height="23.921" transform="translate(364.306 153.727)" fill="#c1c1c1"/>
        <path id="Path_2710" data-name="Path 2710" d="M1288.282,564.354a.633.633,0,0,1-.633-.633V533.613a.633.633,0,1,1,1.266,0v30.108a.633.633,0,0,1-.633.633" transform="translate(-917.863 -379.886)" fill="#c1c1c1"/>
        <rect id="Rectangle_802" data-name="Rectangle 802" width="12.228" height="91.681" transform="translate(383.481 132.969)" fill="#989898"/>
        <rect id="Rectangle_803" data-name="Rectangle 803" width="12.228" height="23.921" transform="translate(383.481 132.969)" fill="#c1c1c1"/>
        <path id="Path_2711" data-name="Path 2711" d="M1355.054,468.917a.633.633,0,0,1-.633-.633V437.518a.633.633,0,1,1,1.266,0v30.765a.633.633,0,0,1-.633.633" transform="translate(-965.459 -311.394)" fill="#c1c1c1"/>
        <rect id="Rectangle_804" data-name="Rectangle 804" width="12.228" height="23.921" transform="translate(383.481 156.89)" fill="#dbdbdb"/>
        <path id="Path_2712" data-name="Path 2712" d="M1355.054,576.748a.633.633,0,0,1-.633-.633V546.563a.633.633,0,1,1,1.266,0v29.551a.633.633,0,0,1-.633.633" transform="translate(-965.459 -389.116)" fill="#dbdbdb"/>
        <rect id="Rectangle_805" data-name="Rectangle 805" width="12.228" height="80.578" transform="translate(402.656 102.968)" fill="#989898"/>
        <rect id="Rectangle_806" data-name="Rectangle 806" width="12.228" height="23.921" transform="translate(402.656 119.136)" fill="#c1c1c1"/>
        <path id="Path_2713" data-name="Path 2713" d="M1421.825,426.949a.633.633,0,0,1-.633-.633V389.363a.633.633,0,1,1,1.266,0v36.952a.633.633,0,0,1-.633.633" transform="translate(-1013.055 -277.071)" fill="#c1c1c1"/>
        <rect id="Rectangle_807" data-name="Rectangle 807" width="12.228" height="23.921" transform="translate(402.656 102.968)" fill="#dbdbdb"/>
        <path id="Path_2714" data-name="Path 2714" d="M1421.825,364.471a.633.633,0,0,1-.633-.633V333.071a.633.633,0,1,1,1.266,0v30.766a.633.633,0,0,1-.633.633" transform="translate(-1013.055 -236.948)" fill="#dbdbdb"/>
        <rect id="Rectangle_808" data-name="Rectangle 808" width="12.228" height="115.189" transform="translate(421.831 94.568)" fill="#989898"/>
        <rect id="Rectangle_809" data-name="Rectangle 809" width="12.228" height="23.921" transform="translate(421.831 94.568)" fill="#c1c1c1"/>
        <path id="Path_2715" data-name="Path 2715" d="M1488.6,334.815a.633.633,0,0,1-.633-.633V303.829a.633.633,0,1,1,1.266,0v30.352a.633.633,0,0,1-.633.633" transform="translate(-1060.651 -216.106)" fill="#c1c1c1"/>
        <rect id="Rectangle_810" data-name="Rectangle 810" width="12.228" height="23.921" transform="translate(421.831 118.489)" fill="#dbdbdb"/>
        <path id="Path_2716" data-name="Path 2716" d="M1488.6,443.152a.633.633,0,0,1-.633-.633V413.005a.633.633,0,1,1,1.266,0v29.513a.633.633,0,0,1-.633.633" transform="translate(-1060.651 -293.922)" fill="#dbdbdb"/>
        <rect id="Rectangle_811" data-name="Rectangle 811" width="12.228" height="77.312" transform="translate(441.007 110.826)" fill="#989898"/>
        <rect id="Rectangle_812" data-name="Rectangle 812" width="12.228" height="23.921" transform="translate(441.007 110.825)" fill="#dbdbdb"/>
        <path id="Path_2717" data-name="Path 2717" d="M1555.367,398.015a.633.633,0,0,1-.633-.633V360.429a.633.633,0,1,1,1.266,0v36.952a.633.633,0,0,1-.633.633" transform="translate(-1108.247 -256.448)" fill="#dbdbdb"/>
        <rect id="Rectangle_813" data-name="Rectangle 813" width="12.228" height="23.921" transform="translate(441.007 129.806)" fill="#c1c1c1"/>
        <path id="Path_2718" data-name="Path 2718" d="M1555.367,481.076a.633.633,0,0,1-.633-.633V450.335a.633.633,0,1,1,1.266,0v30.108a.633.633,0,0,1-.633.633" transform="translate(-1108.247 -320.529)" fill="#c1c1c1"/>
        <rect id="Rectangle_814" data-name="Rectangle 814" width="12.228" height="91.681" transform="translate(460.182 126.488)" fill="#989898"/>
        <rect id="Rectangle_815" data-name="Rectangle 815" width="12.228" height="23.921" transform="translate(460.182 126.488)" fill="#c1c1c1"/>
        <path id="Path_2719" data-name="Path 2719" d="M1622.138,446.353a.633.633,0,0,1-.633-.633V414.954a.633.633,0,1,1,1.266,0V445.72a.633.633,0,0,1-.633.633" transform="translate(-1155.842 -295.311)" fill="#c1c1c1"/>
        <rect id="Rectangle_816" data-name="Rectangle 816" width="12.228" height="23.921" transform="translate(460.182 150.409)" fill="#dbdbdb"/>
        <path id="Path_2720" data-name="Path 2720" d="M1622.138,554.183a.633.633,0,0,1-.633-.633V524a.633.633,0,1,1,1.266,0v29.551a.633.633,0,0,1-.633.633" transform="translate(-1155.842 -373.033)" fill="#dbdbdb"/>
        <rect id="Rectangle_817" data-name="Rectangle 817" width="12.228" height="65.691" transform="translate(479.82 133.07)" fill="#989898"/>
        <rect id="Rectangle_818" data-name="Rectangle 818" width="12.228" height="23.921" transform="translate(479.82 133.07)" fill="#c1c1c1"/>
        <path id="Path_2721" data-name="Path 2721" d="M1690.522,468.855a.633.633,0,0,1-.633-.633V437.869a.633.633,0,1,1,1.266,0v30.352a.633.633,0,0,1-.633.633" transform="translate(-1204.588 -311.644)" fill="#c1c1c1"/>
        <rect id="Rectangle_819" data-name="Rectangle 819" width="12.228" height="23.921" transform="translate(479.82 156.991)" fill="#dbdbdb"/>
        <path id="Path_2722" data-name="Path 2722" d="M1690.522,577.191a.633.633,0,0,1-.633-.633V547.044a.633.633,0,1,1,1.266,0v29.514a.633.633,0,0,1-.633.633" transform="translate(-1204.588 -389.459)" fill="#dbdbdb"/>
        <rect id="Rectangle_820" data-name="Rectangle 820" width="11.287" height="31.343" transform="translate(111.297 144.932)" fill="#c1c1c1"/>
        <rect id="Rectangle_821" data-name="Rectangle 821" width="11.287" height="36.233" transform="translate(132.378 140.042)" fill="#c1c1c1"/>
        <rect id="Rectangle_822" data-name="Rectangle 822" width="11.287" height="31.343" transform="translate(153.459 144.932)" fill="#c1c1c1"/>
        <rect id="Rectangle_823" data-name="Rectangle 823" width="11.287" height="45.751" transform="translate(174.539 130.524)" fill="#c1c1c1"/>
        <rect id="Rectangle_824" data-name="Rectangle 824" width="11.287" height="57.189" transform="translate(195.619 119.086)" fill="#c1c1c1"/>
        <rect id="Rectangle_825" data-name="Rectangle 825" width="11.287" height="76.27" transform="translate(216.7 100.005)" fill="#c1c1c1"/>
        <path id="Path_2723" data-name="Path 2723" d="M401.555,363.41a.633.633,0,0,1-.193-1.236l22.252-7.11a.623.623,0,0,1,.361-.007l20.79,5.73,63-44.794a.633.633,0,0,1,.734,1.033l-63.241,44.968a.634.634,0,0,1-.535.094l-20.9-5.76-22.073,7.052a.616.616,0,0,1-.192.03" transform="translate(-285.785 -225.143)"/>
        <path id="Path_2724" data-name="Path 2724" d="M755.028,321.372a.633.633,0,0,1-.558-.931l2.54-4.782-5.473.973a.633.633,0,0,1-.221-1.247l6.753-1.2a.633.633,0,0,1,.67.921l-3.151,5.93a.633.633,0,0,1-.56.336" transform="translate(-535.181 -223.931)"/>
        <path id="Path_2725" data-name="Path 2725" d="M480.144,385.026H330.6a.633.633,0,0,1-.633-.633V311.456a.633.633,0,1,1,1.266,0v72.3H479.511v-112.3H369.9a.633.633,0,1,1,0-1.266H480.144a.633.633,0,0,1,.633.633V384.393a.633.633,0,0,1-.633.633" transform="translate(-235.207 -192.585)"/>
        <rect id="Rectangle_826" data-name="Rectangle 826" width="97.883" height="66.793" transform="translate(153.305 207.963)" fill="#c1c1c1"/>
        <path id="Path_2726" data-name="Path 2726" d="M515.3,788.1a.633.633,0,0,1-.536-.969l25.575-40.867a.633.633,0,0,1,.495-.3.647.647,0,0,1,.529.228l13.9,16.78,9.635-13.526a.661.661,0,0,1,.525-.266.633.633,0,0,1,.517.282l18.467,27.609,30.4-45.322a.633.633,0,0,1,1.052.705L584.94,778.565a.633.633,0,0,1-1.052,0l-18.483-27.633-9.581,13.449a.633.633,0,0,1-1,.037l-13.87-16.739L515.841,787.8a.632.632,0,0,1-.537.3" transform="translate(-366.868 -521.363)" fill="#fff"/>
        <path id="Path_2727" data-name="Path 2727" d="M837.87,743.221l-.052,0a.633.633,0,0,1-.58-.683l.765-9.4-9.052,4.2a.633.633,0,0,1-.533-1.149l10.038-4.66a.634.634,0,0,1,.9.626l-.854,10.481a.633.633,0,0,1-.63.582" transform="translate(-590.253 -521.364)" fill="#fff"/>
        <path id="Path_2728" data-name="Path 2728" d="M437.43,1183.81H406.81l-8.1-82.448h46.827Z" transform="translate(-284.206 -785.006)" fill="#f8fafa"/>
        <path id="Path_2729" data-name="Path 2729" d="M443.966,1117.309l-41.774,19.515-3.486-35.461h46.827Z" transform="translate(-284.206 -785.006)"/>
        <path id="Path_2730" data-name="Path 2730" d="M451.558,1483.9H428.1l-1.468-98.444,30.712.34Z" transform="translate(-304.114 -987.493)" fill="#f8fafa"/>
        <path id="Path_2731" data-name="Path 2731" d="M456.844,1650.043h-2.121a4.634,4.634,0,0,1-4.512-3.581l-1.313-5.625-35.121,0-1.656,26.48h56.028v-5.968a11.306,11.306,0,0,0-11.305-11.308" transform="translate(-293.768 -1169.521)" fill="#c1c1c1"/>
        <path id="Path_2732" data-name="Path 2732" d="M412.121,1692.195h15.125a24.578,24.578,0,0,0-14.1-16.458Z" transform="translate(-293.768 -1194.396)" fill="#020202"/>
        <path id="Path_2733" data-name="Path 2733" d="M541.595,1696.944v-5.968a11.273,11.273,0,0,0-.666-3.829,7.261,7.261,0,0,0-6.85-4.747h-7.618a11.307,11.307,0,0,0-11.305,11.308v3.235Z" transform="translate(-367.214 -1199.146)" fill="#fff"/>
        <path id="Path_2734" data-name="Path 2734" d="M405.28,1729.188v11.468h16.748v-4.064h8.084v4.064h36.132v-11.469Z" transform="translate(-288.892 -1232.493)"/>
        <path id="Path_2735" data-name="Path 2735" d="M467.11,1666.381H409.774l1.735-27.746,36.218,0,1.427,6.115a3.984,3.984,0,0,0,3.9,3.092h2.121a11.954,11.954,0,0,1,11.939,11.941Zm-55.988-1.267h54.721v-5.334a10.686,10.686,0,0,0-10.673-10.674H453.05a5.245,5.245,0,0,1-5.129-4.07l-1.2-5.136-34.023,0Z" transform="translate(-292.095 -1167.949)"/>
        <path id="Path_2736" data-name="Path 2736" d="M529.865,1671.95H516.7a.633.633,0,0,1,0-1.267h13.166a.633.633,0,0,1,0,1.267" transform="translate(-367.863 -1190.794)"/>
        <path id="Path_2737" data-name="Path 2737" d="M151.414,1176.707l-44.4,73.815L86.454,1233.2l35.132-63.415,10.725-82.148,45.617,10.58Z" transform="translate(-61.626 -775.225)" fill="#f8fafa"/>
        <path id="Path_2738" data-name="Path 2738" d="M105.441,1249.583a.633.633,0,0,1-.408-.149l-20.56-17.318a.633.633,0,0,1-.146-.791l35.074-63.31,10.709-82.029a.634.634,0,0,1,.771-.535l45.617,10.58a.634.634,0,0,1,.457.82l-26.514,78.486a.635.635,0,0,1-.057.124l-44.4,73.815a.635.635,0,0,1-.439.3.676.676,0,0,1-.1.009m-19.754-18.1,19.594,16.5,43.982-73.12,26.268-77.76-44.256-10.264L120.641,1168.3a.642.642,0,0,1-.074.225Zm64.154-56.347h0Z" transform="translate(-60.054 -773.654)"/>
        <path id="Path_2739" data-name="Path 2739" d="M281.023,1119.8l-3.471,9.941-43.047-1.589,2.334-20.364Z" transform="translate(-167.16 -789.586)"/>
        <path id="Path_2740" data-name="Path 2740" d="M77.036,1592.288c.051.382.117.99.192,1.725a24.646,24.646,0,0,0,7.291,15.132l.546.534,8.952,7.983a8.614,8.614,0,0,1,1.434,11.207l-4.177,5.818-63.064-42.06,16.983-21.577Z" transform="translate(-20.108 -1119.78)" fill="#c1c1c1"/>
        <path id="Path_2741" data-name="Path 2741" d="M211.7,1713.893l-8.783-7.831-9.611,14.417,15.651,10.438,4.177-5.817a8.614,8.614,0,0,0-1.434-11.207" transform="translate(-137.795 -1216.011)" fill="#fff"/>
        <path id="Path_2742" data-name="Path 2742" d="M6.387,1633.822,0,1643.348,18.821,1655.9l2.254-3.381,13.984,9.326-2.254,3.381,37.4,24.945,6.361-9.542Z" transform="translate(0 -1164.521)"/>
        <path id="Path_2743" data-name="Path 2743" d="M195.331,1724.311a.633.633,0,0,1-.505-1.014l2.537-3.367a8.075,8.075,0,0,0-1.016-10.876l-10.668-9.717a.139.139,0,0,0-.149-.026l-12.326,5.229a.633.633,0,0,1-.495-1.166l12.327-5.229a1.412,1.412,0,0,1,1.5.256l10.668,9.717a9.336,9.336,0,0,1,1.175,12.575l-2.537,3.367a.633.633,0,0,1-.507.252" transform="translate(-122.835 -1210.288)"/>
        <path id="Path_2744" data-name="Path 2744" d="M182,1679.507h-.038l-9.005-.541a.633.633,0,0,1,.076-1.264l9,.541a.633.633,0,0,1-.037,1.266" transform="translate(-122.862 -1195.794)"/>
        <path id="Path_2745" data-name="Path 2745" d="M43.986,1618.917A22.692,22.692,0,0,0,41.7,1598.41L31.979,1610.5c-.351-.234,12.008,8.421,12.008,8.421" transform="translate(-22.79 -1139.281)" fill="#020202"/>
        <path id="Path_2746" data-name="Path 2746" d="M400.835,923.021H314.111V828.777h63.283Z" transform="translate(-223.905 -590.718)" fill="#31d3f5"/>
        <rect id="Rectangle_827" data-name="Rectangle 827" width="10.522" height="94.244" transform="translate(137.914 238.059)"/>
        <path id="Path_2747" data-name="Path 2747" d="M273.136,939.948l-82.063-28.054,29.957-83.117h63.608Z" transform="translate(-136.2 -590.718)" fill="#31d3f5"/>
        <path id="Path_2748" data-name="Path 2748" d="M399.264,922.084h-37.65a.633.633,0,1,1,0-1.267h36.84l-23.127-92.978H312.539a.633.633,0,0,1,0-1.266h63.282a.633.633,0,0,1,.615.481L399.878,921.3a.633.633,0,0,1-.614.786" transform="translate(-222.333 -589.147)"/>
        <path id="Path_2749" data-name="Path 2749" d="M271.563,939.009a.632.632,0,0,1-.2-.034l-82.064-28.054a.634.634,0,0,1-.391-.814l29.957-83.117a.634.634,0,0,1,.6-.419h63.608a.633.633,0,0,1,.63.7l-11.5,111.17a.633.633,0,0,1-.63.568m-81.249-29.078,80.7,27.588,11.346-109.681H219.9Z" transform="translate(-134.627 -589.146)"/>
        <path id="Path_2750" data-name="Path 2750" d="M630.461,715.869a.436.436,0,0,1-.076-.07.452.452,0,0,1,.047-.637l12.2-10.54a.452.452,0,0,1,.59.684l-12.2,10.54a.452.452,0,0,1-.561.023" transform="translate(-449.273 -502.147)"/>
        <path id="Path_2751" data-name="Path 2751" d="M669.357,613.581l-29.451,26.173-14.5,34.933a18.994,18.994,0,0,0,20.89-5.6l38.846-44Z" transform="translate(-445.8 -437.335)" fill="#f8fafa"/>
        <path id="Path_2752" data-name="Path 2752" d="M674.892,643.9l1.088-.97c12.408-11.057,21.411-19.056,26.756-23.775a.452.452,0,1,0-.6-.678c-5.338,4.712-14.32,12.694-26.7,23.724l-.746,1.8a.449.449,0,0,0,.2-.1" transform="translate(-480.936 -440.745)"/>
        <path id="Path_2753" data-name="Path 2753" d="M675.085,690.881a.453.453,0,0,0-.637.037C664.6,702,659.9,707.373,652.11,716.277c-2.074,2.371-4.361,4.986-7.018,8.02-.257.24-.526.5-.8.764a23.33,23.33,0,0,1-3.644,3.054,18.747,18.747,0,0,1-7.914,2.476,21.257,21.257,0,0,1-7.7-1.227l-.346.832a22.141,22.141,0,0,0,8.067,1.3,19.781,19.781,0,0,0,8.359-2.606,23.943,23.943,0,0,0,3.8-3.174c.281-.269.553-.529.812-.771a.453.453,0,0,0,.032-.033c2.663-3.041,4.956-5.662,7.034-8.038,7.787-8.9,12.487-14.277,22.332-25.353a.452.452,0,0,0-.037-.638" transform="translate(-445.289 -492.35)"/>
        <path id="Path_2754" data-name="Path 2754" d="M774.879,537.663l-16.648-8.419-6.32,16.1-20.792,20.2,19.987,10.091L765.8,558.83a57.427,57.427,0,0,0,6.444-9.808l3.84-7.4a2.908,2.908,0,0,0-1.2-3.963" transform="translate(-521.157 -377.223)" fill="#f8fafa"/>
        <path id="Path_2755" data-name="Path 2755" d="M726.123,605.584a.459.459,0,0,1-.059-.052.452.452,0,0,1,.012-.639L747.9,583.861a.451.451,0,0,1,.765.33c-.032,3.116,2.534,5.53,4.948,6.75a.452.452,0,0,1-.408.806c-2.4-1.212-4.933-3.526-5.376-6.563L726.7,605.544a.452.452,0,0,1-.579.04" transform="translate(-517.463 -416.061)"/>
        <path id="Path_2756" data-name="Path 2756" d="M804.252,502.773l-4.183-.886,11.374-47.648,4.183.886Z" transform="translate(-570.305 -323.762)" fill="#fff"/>
        <path id="Path_2757" data-name="Path 2757" d="M798.681,501.13a.452.452,0,0,1-.173-.47l11.374-47.648a.452.452,0,0,1,.533-.337l4.183.886a.452.452,0,0,1,.346.547L803.57,501.757a.452.452,0,0,1-.533.337l-4.183-.886a.449.449,0,0,1-.173-.077m11.977-47.48-11.164,46.769,3.3.7,11.164-46.77Z" transform="translate(-569.184 -322.641)"/>
        <path id="Path_2758" data-name="Path 2758" d="M848.883,223.428c-5.856,24.53-17,43.061-24.883,41.39-.387-.082-4.209-.793-4.566-.967-6.916-3.377-4.681-23.146.887-46.474,5.49-23,12.573-41.609,20.317-42.357a46.564,46.564,0,0,1,4.566.967c7.887,1.671,9.534,22.911,3.679,47.441" transform="translate(-581.037 -124.745)" fill="#fff"/>
        <path id="Path_2759" data-name="Path 2759" d="M817.356,262.666c-5.47-3.99-4.992-19.622,1.426-46.514,4.537-19.006,11.813-41.842,20.713-42.7a23.1,23.1,0,0,1,3.975.8c.352.085.618.15.728.173a6.61,6.61,0,0,1,4.14,3.225c4.589,7.259,4.542,25.249-.116,44.763-6,25.146-17.167,43.475-25.416,41.727-.078-.016-.3-.059-.6-.118a34.755,34.755,0,0,1-4.066-.885,5.229,5.229,0,0,1-.781-.471m28.4-86.563a4.537,4.537,0,0,0-1.744-.795c-.114-.024-.39-.09-.754-.179-.9-.219-3.305-.8-3.678-.78-6.527.631-13.6,15.552-19.918,42.012-6.505,27.253-6.9,43.151-1.129,45.963.306.127,2.967.641,3.842.81.313.061.54.1.62.121,3.559.754,8.2-3.131,12.723-10.66,4.676-7.779,8.806-18.573,11.627-30.393,4.606-19.293,4.7-37,.231-44.07a7.292,7.292,0,0,0-1.819-2.03" transform="translate(-579.938 -123.626)"/>
        <path id="Path_2760" data-name="Path 2760" d="M837.18,222.205c-5.856,24.53-17,43.061-24.883,41.39s-9.534-22.911-3.679-47.441,17-43.061,24.883-41.39,9.534,22.911,3.679,47.441" transform="translate(-573.9 -124.49)" fill="#fff"/>
        <path id="Path_2761" data-name="Path 2761" d="M808.974,261.968a8.183,8.183,0,0,1-2.051-2.278c-4.589-7.259-4.543-25.248.116-44.763,6-25.146,17.167-43.475,25.416-41.727a6.608,6.608,0,0,1,4.141,3.225c4.589,7.259,4.543,25.247-.116,44.763-6,25.146-17.167,43.475-25.416,41.727a5.425,5.425,0,0,1-2.089-.946m25.038-87.09a4.538,4.538,0,0,0-1.745-.795c-3.56-.754-8.2,3.131-12.723,10.661-4.676,7.778-8.806,18.572-11.627,30.392-4.605,19.294-4.7,37-.231,44.071a5.75,5.75,0,0,0,3.564,2.824c3.56.753,8.2-3.132,12.723-10.661,4.677-7.779,8.806-18.573,11.628-30.393,4.606-19.294,4.7-37,.231-44.07a7.286,7.286,0,0,0-1.819-2.029" transform="translate(-572.761 -123.367)"/>
        <path id="Path_2762" data-name="Path 2762" d="M853.532,263.148a.452.452,0,0,1-.121-.6c4.409-7.334,8.3-17.508,10.961-28.651,4.005-16.779,4.4-32.5,1.015-40.041a.452.452,0,1,1,.824-.37c3.466,7.716,3.089,23.66-.959,40.621-2.681,11.23-6.61,21.5-11.066,28.906a.451.451,0,0,1-.62.155l-.034-.022" transform="translate(-608.283 -137.72)"/>
        <path id="Path_2763" data-name="Path 2763" d="M797.7,534.068l-11.948-6.127a5.459,5.459,0,0,0-3.306-.537l-11.017,1.641a2.5,2.5,0,0,0-2.093,2.73l.048.428a2.291,2.291,0,0,0,2.632,2.026l10.053-1.5a5.051,5.051,0,0,1,3.058.5L795.4,538.5Z" transform="translate(-548.389 -375.869)" fill="#f8fafa"/>
        <path id="Path_2764" data-name="Path 2764" d="M819.762,517.484l-12.946-6.547a6.68,6.68,0,0,0-4.006-.636l-.326.049a7.68,7.68,0,0,0-5.648,4.071l-.827,1.592,5.788-.841a4.1,4.1,0,0,1,2.443.393l16.913,8.554.393-.758a4.311,4.311,0,0,0-1.785-5.876" transform="translate(-567.412 -363.668)" fill="#f8fafa"/>
        <path id="Path_2765" data-name="Path 2765" d="M790.569,545.913l-7.124,1.061a2.58,2.58,0,0,0-2.165,2.824l.03.265a2.37,2.37,0,0,0,2.722,2.1l6.1-.909a4.8,4.8,0,0,1,2.906.472l8.571,4.406,2.3-4.428-10.294-5.292a5.033,5.033,0,0,0-3.048-.5" transform="translate(-556.901 -389.064)" fill="#f8fafa"/>
        <path id="Path_2766" data-name="Path 2766" d="M797.647,564.459l-3.68.554a2.561,2.561,0,0,0-2.145,2.8l.034.3a2.352,2.352,0,0,0,2.705,2.079l2.652-.4a4.8,4.8,0,0,1,2.906.472l6.726,3.473,2.3-4.428-8.449-4.358a5.033,5.033,0,0,0-3.048-.5" transform="translate(-564.416 -402.283)" fill="#f8fafa"/>
        <path id="Path_2767" data-name="Path 2767" d="M798.631,558.229l-.032-.026a.452.452,0,0,1-.042-.638l12.035-13.711a57.037,57.037,0,0,0,6.382-9.718l3.841-7.4a2.524,2.524,0,0,0,.169-1.952,2.378,2.378,0,0,0-1.2-1.409.453.453,0,0,1-.2-.612l.393-.758a3.981,3.981,0,0,0,.273-3.076,3.693,3.693,0,0,0-1.861-2.189l-12.907-6.527a6.2,6.2,0,0,0-3.736-.593,7.881,7.881,0,0,0-5.8,4.179l-.672,1.294a.452.452,0,0,1-.8-.417l.672-1.294a8.787,8.787,0,0,1,6.463-4.656,7.1,7.1,0,0,1,4.277.68l12.907,6.527a4.609,4.609,0,0,1,2.313,2.718,4.879,4.879,0,0,1-.332,3.77l-.2.38a3.3,3.3,0,0,1,1.255,1.7,3.424,3.424,0,0,1-.228,2.646l-3.84,7.4a57.972,57.972,0,0,1-6.495,9.885l-12.045,13.724a.452.452,0,0,1-.605.067" transform="translate(-566.29 -362.545)"/>
        <path id="Path_2768" data-name="Path 2768" d="M768.929,533.06l-.056-.042a2.745,2.745,0,0,1-1.057-1.887l-.049-.427a2.953,2.953,0,0,1,2.475-3.228l11.017-1.641a5.879,5.879,0,0,1,3.579.582l10.392,5.329a.452.452,0,1,1-.412.8l-10.393-5.329a4.981,4.981,0,0,0-3.033-.492l-11.017,1.641a2.042,2.042,0,0,0-1.711,2.232l.049.428a1.849,1.849,0,0,0,.71,1.273,1.794,1.794,0,0,0,1.406.358l10.053-1.5a5.475,5.475,0,0,1,3.331.542l8.719,4.47a.452.452,0,1,1-.412.8l-8.72-4.47a4.578,4.578,0,0,0-2.785-.452l-10.053,1.5a2.734,2.734,0,0,1-2.033-.493" transform="translate(-547.268 -374.746)"/>
        <path id="Path_2769" data-name="Path 2769" d="M791.425,570.531l-.055-.041a2.806,2.806,0,0,1-1.083-1.93l-.034-.3a3.019,3.019,0,0,1,2.527-3.3.452.452,0,1,1,.134.893,2.109,2.109,0,0,0-1.763,2.3l.034.3a1.911,1.911,0,0,0,.735,1.315,1.883,1.883,0,0,0,1.455.368l2.651-.4a5.222,5.222,0,0,1,3.18.517l5.17,2.68a.452.452,0,1,1-.416.8l-5.169-2.68a4.324,4.324,0,0,0-2.631-.427l-2.651.4a2.8,2.8,0,0,1-2.084-.5" transform="translate(-563.295 -402.676)"/>
        <path id="Path_2770" data-name="Path 2770" d="M780.885,553.749l-.057-.043a2.825,2.825,0,0,1-1.088-1.941l-.03-.264a3.038,3.038,0,0,1,2.548-3.321.452.452,0,1,1,.133.893,2.128,2.128,0,0,0-1.783,2.326l.03.265a1.929,1.929,0,0,0,.74,1.327,1.9,1.9,0,0,0,1.466.373l6.1-.909a5.22,5.22,0,0,1,3.179.517l7.014,3.612a.452.452,0,0,1-.414.8l-7.014-3.612a4.32,4.32,0,0,0-2.632-.427l-6.1.909a2.815,2.815,0,0,1-2.092-.507" transform="translate(-555.78 -390.715)"/>
        <path id="Path_2771" data-name="Path 2771" d="M513.178,658.574a18.321,18.321,0,0,1-25.69-3.4l-38.936-50.816,34.814-22.3,33.21,50.816a18.331,18.331,0,0,1-3.4,25.7" transform="translate(-319.736 -414.87)" fill="#fff"/>
        <path id="Path_2772" data-name="Path 2772" d="M149.571,662.6a18.321,18.321,0,0,0,25.69-3.4l40.594-52.979-32.789-24.164-36.893,54.846a18.331,18.331,0,0,0,3.4,25.7" transform="translate(-101.5 -414.869)" fill="#fff"/>
        <path id="Path_2773" data-name="Path 2773" d="M159.1,665.448a18.964,18.964,0,0,1-15.008-30.5l36.87-54.814a.633.633,0,0,1,.9-.156l32.789,24.164a.633.633,0,0,1,.127.895l-40.594,52.979a18.835,18.835,0,0,1-12.561,7.264,19.334,19.334,0,0,1-2.524.166m22.544-84.057-36.524,54.3a17.693,17.693,0,1,0,28.06,21.558l40.2-52.467Z" transform="translate(-99.923 -413.298)"/>
        <rect id="Rectangle_828" data-name="Rectangle 828" width="82.062" height="74.168" transform="translate(81.566 167.192)" fill="#fff"/>
        <path id="Path_2774" data-name="Path 2774" d="M364.516,694.205H282.453a.633.633,0,0,1-.633-.633V641.051a.633.633,0,0,1,1.266,0v51.888h80.8V635.086a.633.633,0,0,1,1.266,0v58.486a.633.633,0,0,1-.633.633" transform="translate(-200.887 -452.212)"/>
        <path id="Path_2775" data-name="Path 2775" d="M405.439,903.465l-11.193-7.3a13.151,13.151,0,0,1-3.782-3.759l-9.8-14.818L386.09,874l9,13.627a15.385,15.385,0,0,0,4.514,4.46l9.381,6.034a2.958,2.958,0,0,1,.626,4.435l-.334.382a2.957,2.957,0,0,1-3.841.529" transform="translate(-271.346 -622.949)" fill="#f8fafa"/>
        <path id="Path_2776" data-name="Path 2776" d="M395.763,919.446l-11.011-7.186a13.15,13.15,0,0,1-3.782-3.759l-7.117-10.61L376.6,890.1l9.249,14a13.259,13.259,0,0,0,3.89,3.843l9.515,6.12a3.207,3.207,0,1,1-3.487,5.384" transform="translate(-266.49 -634.424)" fill="#f8fafa"/>
        <path id="Path_2777" data-name="Path 2777" d="M373.118,932.747a3.068,3.068,0,0,1-3.984.551l-7.91-5.151a13.154,13.154,0,0,1-3.782-3.759l-9.8-14.818,5.426-3.586,9.249,14a13.255,13.255,0,0,0,3.89,3.843l6.431,4.106a3.07,3.07,0,0,1,.658,4.609Z" transform="translate(-247.807 -645.748)" fill="#f8fafa"/>
        <path id="Path_2778" data-name="Path 2778" d="M359.147,935.8a3.068,3.068,0,0,1-3.933-.842l-5.677-7.542a13.155,13.155,0,0,1-2.272-4.824l-4.154-17.274,6.323-1.518,3.916,16.318a13.26,13.26,0,0,0,2.344,4.94l4.644,6.055a3.07,3.07,0,0,1-.954,4.557Z" transform="translate(-244.577 -644.189)" fill="#f8fafa"/>
        <path id="Path_2779" data-name="Path 2779" d="M334.026,834.7l-.065,1.607a4.382,4.382,0,0,0,.71,2.573l4.684,7.169-9.865,13.922-23.161-24.781,8.123-13.925,16.12,4.069a23.57,23.57,0,0,1,7.034,3.063l12.3,7.959a3.462,3.462,0,0,1,1.027,4.787l-.171.265a3.46,3.46,0,0,1-4.786,1.027Z" transform="translate(-218.357 -585.362)" fill="#f8fafa"/>
        <path id="Path_2780" data-name="Path 2780" d="M356,860.531l-9.381-6.034a15.391,15.391,0,0,1-4.514-4.46l-7.731-11.7a4.381,4.381,0,0,1-.412-2.029l.065-1.607,11.955,7.733a3.461,3.461,0,0,0,4.786-1.027l.171-.265a3.462,3.462,0,0,0-1.027-4.787l-12.305-7.959a23.565,23.565,0,0,0-7.034-3.063l-16.12-4.069-8.123,13.925,10.564,11.3,4.153,17.27a13.154,13.154,0,0,0,2.272,4.825l5.678,7.543a3.069,3.069,0,0,0,3.933.842l.237-.131a3.07,3.07,0,0,0,.954-4.556l-4.644-6.056a13.23,13.23,0,0,1-1.046-1.607,13.148,13.148,0,0,0,3.344,3.141l7.91,5.151a3.069,3.069,0,0,0,3.984-.551l.178-.2a3.07,3.07,0,0,0-.658-4.608l-6.431-4.107a13.258,13.258,0,0,1-3.89-3.843l-1.5-2.276.028-.039,1.445,2.155a13.153,13.153,0,0,0,3.782,3.759l11.011,7.186a3.205,3.205,0,0,0,3.612-5.294l1.208.789a2.957,2.957,0,0,0,3.841-.53l.334-.382a2.958,2.958,0,0,0-.626-4.435m-14.4-1.652a13.246,13.246,0,0,1-2.194-1.77,13.109,13.109,0,0,0,1.848,1.464l8.909,5.815Z" transform="translate(-218.357 -585.362)" fill="#f8fafa"/>
        <path id="Path_2781" data-name="Path 2781" d="M306.328,835.189l8.123-13.925,9.31,2.35-8.849,21.211Z" transform="translate(-218.357 -585.363)" fill="#020202"/>
        <path id="Path_2782" data-name="Path 2782" d="M419.082,898.946a3.569,3.569,0,0,1-1.954-.578l-11.193-7.3a13.7,13.7,0,0,1-3.964-3.941l-4.317-6.528a.633.633,0,0,1,1.056-.7l4.317,6.528a12.439,12.439,0,0,0,3.6,3.578l11.193,7.3a2.333,2.333,0,0,0,3.019-.416l.334-.382a2.325,2.325,0,0,0-.492-3.486l-9.381-6.034a15.917,15.917,0,0,1-4.7-4.644l-6.849-10.367a8.312,8.312,0,0,1-1.378-4.946l.013-.322a.633.633,0,0,1,1.265.051l-.013.322a7.058,7.058,0,0,0,1.169,4.2l6.849,10.367a14.665,14.665,0,0,0,4.329,4.276l9.381,6.034a3.592,3.592,0,0,1,.76,5.385l-.334.381a3.6,3.6,0,0,1-2.71,1.222" transform="translate(-283.382 -617.322)"/>
        <path id="Path_2783" data-name="Path 2783" d="M404.426,950.817a3.817,3.817,0,0,1-2.09-.619l-11.011-7.186a13.7,13.7,0,0,1-3.964-3.94l-3.7-5.591a.633.633,0,1,1,1.056-.7l3.7,5.591a12.435,12.435,0,0,0,3.6,3.578l11.011,7.186a2.586,2.586,0,0,0,3.344-.461,2.546,2.546,0,0,0,.619-1.995,2.575,2.575,0,0,0-1.063-1.8.634.634,0,0,1,.734-1.033,3.837,3.837,0,0,1-2.236,6.965" transform="translate(-273.409 -664.646)"/>
        <path id="Path_2784" data-name="Path 2784" d="M329.886,876.409a3.713,3.713,0,0,1-2.969-1.471L321.24,867.4a13.706,13.706,0,0,1-2.382-5.057l-4.006-16.655-10.565-11.64a.633.633,0,0,1-.078-.745l8.123-13.926a.634.634,0,0,1,.7-.3l16.12,4.069a24.15,24.15,0,0,1,7.223,3.145l12.3,7.959a4.1,4.1,0,0,1,1.215,5.662l-.171.265a4.1,4.1,0,0,1-5.661,1.215l-15.38-9.948a.633.633,0,0,1,.688-1.064l15.38,9.948a2.83,2.83,0,0,0,3.91-.839l.171-.265a2.832,2.832,0,0,0-.839-3.911l-12.3-7.959a22.874,22.874,0,0,0-6.845-2.98l-15.658-3.952-7.649,13.114L315.9,844.951a.632.632,0,0,1,.147.278l4.043,16.813a12.451,12.451,0,0,0,2.162,4.592l5.677,7.542a2.448,2.448,0,0,0,3.122.668l.237-.13a2.437,2.437,0,0,0,.756-3.616l-5.294-7.159a.633.633,0,0,1,1.018-.753l5.288,7.15a3.7,3.7,0,0,1-1.158,5.488l-.238.13a3.673,3.673,0,0,1-1.775.455" transform="translate(-216.786 -583.79)"/>
        <path id="Path_2785" data-name="Path 2785" d="M385.858,966.232a3.673,3.673,0,0,1-2.012-.594l-7.91-5.152a13.7,13.7,0,0,1-3.965-3.94l-3.108-4.965a.633.633,0,1,1,1.073-.672l3.1,4.952a12.423,12.423,0,0,0,3.591,3.564l7.91,5.152a2.448,2.448,0,0,0,3.162-.437l.178-.2a2.437,2.437,0,0,0-.522-3.658l-.489-.312a.633.633,0,0,1,.681-1.068l.489.313a3.7,3.7,0,0,1,.794,5.559l-.178.2a3.711,3.711,0,0,1-2.795,1.259" transform="translate(-262.865 -677.556)"/>
        <path id="Path_2786" data-name="Path 2786" d="M219.729,799.426c-5.2-.534-20.743-2.633-20.743-2.633l1.163-28.929,19.549-2.508a20.571,20.571,0,0,1,22.756,16.217s-5.131,19.661-22.724,17.853" transform="translate(-141.841 -545.394)" fill="#fff"/>
        <path id="Path_2787" data-name="Path 2787" d="M218.158,876.916a.788.788,0,0,1-.081,0l-20.743-2.633a.633.633,0,1,1,.16-1.257l20.743,2.633a.633.633,0,0,1-.079,1.262" transform="translate(-140.269 -622.251)"/>
        <path id="Path_2788" data-name="Path 2788" d="M243.766,780.644a.633.633,0,0,1-.619-.5,20.032,20.032,0,0,0-22.055-15.718l-19.549,2.507a.633.633,0,0,1-.161-1.257l19.549-2.507a21.309,21.309,0,0,1,23.456,16.716.634.634,0,0,1-.491.749.643.643,0,0,1-.13.013" transform="translate(-143.155 -543.832)"/>
        <path id="Path_2789" data-name="Path 2789" d="M615.288,693.1l-22.769-29.716L627.29,633.2a13.117,13.117,0,0,1,18.362,1.143l9.2,10.245a13.124,13.124,0,0,1-1.716,19.131Z" transform="translate(-422.36 -449.026)" fill="#fff"/>
        <path id="Path_2790" data-name="Path 2790" d="M590.947,710.3a.633.633,0,0,1-.415-1.111l16.257-14.115a.633.633,0,0,1,.831.956l-16.257,14.115a.631.631,0,0,1-.415.155" transform="translate(-420.788 -495.312)"/>
        <rect id="Rectangle_829" data-name="Rectangle 829" width="19.726" height="9.728" transform="translate(111.759 162.431)" fill="#fff"/>
        <path id="Path_2791" data-name="Path 2791" d="M367.715,451.128A7.3,7.3,0,1,0,378,450.238a7.3,7.3,0,0,0-10.285.891" transform="translate(-260.894 -319.69)"/>
        <path id="Path_2792" data-name="Path 2792" d="M333.558,451.407a5.909,5.909,0,1,0,8.324-.721,5.911,5.911,0,0,0-8.324.721" transform="translate(-236.779 -320.242)"/>
        <path id="Path_2793" data-name="Path 2793" d="M305.85,469.443a5.909,5.909,0,1,0,8.324-.721,5.91,5.91,0,0,0-8.324.721" transform="translate(-217.028 -333.097)"/>
        <path id="Path_2794" data-name="Path 2794" d="M292.728,499.1a5.064,5.064,0,1,0,7.134-.618,5.065,5.065,0,0,0-7.134.618" transform="translate(-207.816 -354.451)"/>
        <path id="Path_2795" data-name="Path 2795" d="M287.5,529.544a4.513,4.513,0,1,0,6.358-.551,4.514,4.514,0,0,0-6.358.551" transform="translate(-204.179 -376.29)"/>
        <path id="Path_2796" data-name="Path 2796" d="M398.826,529.167h12.037L410.909,517l-12.041,1.021Z" transform="translate(-284.292 -368.496)" fill="#f8fafa"/>
        <path id="Path_2797" data-name="Path 2797" d="M398.913,522.58l.017-4.559L410.971,517v10.291a11.686,11.686,0,0,1-6.058.093c-3.333-1-5.431-3.992-6-4.8" transform="translate(-284.353 -368.496)"/>
        <path id="Path_2798" data-name="Path 2798" d="M391.464,481.28c.494,5.834,5.174,10.2,10.451,9.754s9.155-5.54,8.66-11.374-5.174-10.2-10.451-9.754-9.155,5.54-8.66,11.374" transform="translate(-279.014 -334.907)" fill="#f8fafa"/>
        <path id="Path_2799" data-name="Path 2799" d="M401.194,490.163a8.793,8.793,0,0,1-6.534-2.741.633.633,0,0,1,.859-.93c2.477,2.289,4.266,2.576,7.1,2.337a8.464,8.464,0,0,0,6.044-3.42,10.487,10.487,0,0,0,2.038-7.27c-.464-5.477-4.854-9.589-9.766-9.176a8.754,8.754,0,0,0-7.238,5.454.633.633,0,1,1-1.16-.508,10.129,10.129,0,0,1,8.291-6.207c5.613-.483,10.612,4.159,11.135,10.331a11.753,11.753,0,0,1-2.293,8.144,9.714,9.714,0,0,1-6.945,3.914c-.535.046-1.044.072-1.534.072" transform="translate(-279.772 -333.334)"/>
        <path id="Path_2800" data-name="Path 2800" d="M400.126,469.9c-5.277.448-9.155,5.54-8.66,11.374a11.819,11.819,0,0,0,.234,1.535l8.018-8.58,10.206,2.437a9.774,9.774,0,0,0-9.8-6.766" transform="translate(-279.014 -334.906)"/>
        <path id="Path_2801" data-name="Path 2801" d="M419.446,515.8a5.141,5.141,0,0,0,7.027-5.311Z" transform="translate(-298.99 -363.858)" fill="#fff"/>
        <path id="Path_2802" data-name="Path 2802" d="M287.789,562.084c-.661,4.174-6.5,8.621-6.5,8.621s-4.18-6.033-3.52-10.207,3.543-7.361,6.309-6.922,4.369,4.334,3.709,8.508" transform="translate(-197.95 -394.537)"/>
        <rect id="Rectangle_830" data-name="Rectangle 830" width="174.555" height="194.279" transform="translate(350.803 287.826)"/>
        <path id="Path_2803" data-name="Path 2803" d="M1195.529,1061.533c-.02-.005-.038-.005-.058-.01.02.005.039.005.058.01" transform="translate(-852.156 -756.61)" fill="#f8fafa"/>
        <rect id="Rectangle_831" data-name="Rectangle 831" width="174.555" height="194.279" transform="translate(342.026 278.965)" fill="#fff"/>
        <path id="Path_2804" data-name="Path 2804" d="M1364.6,1164.527H1188.78V968.981H1364.6Zm-174.555-1.266h173.288V970.248H1190.046Z" transform="translate(-847.387 -690.65)"/>
        <rect id="Rectangle_832" data-name="Rectangle 832" width="13.904" height="59.812" transform="translate(367.182 393.576)" fill="#c1c1c1"/>
        <rect id="Rectangle_833" data-name="Rectangle 833" width="13.904" height="41.469" transform="translate(394.755 411.921)" fill="#c1c1c1"/>
        <rect id="Rectangle_834" data-name="Rectangle 834" width="13.904" height="29.287" transform="translate(422.327 424.104)" fill="#989898"/>
        <rect id="Rectangle_835" data-name="Rectangle 835" width="13.904" height="41.469" transform="translate(449.897 411.921)" fill="#c1c1c1"/>
        <rect id="Rectangle_836" data-name="Rectangle 836" width="13.904" height="53.111" transform="translate(477.467 400.277)" fill="#dbdbdb"/>
        <path id="Path_2805" data-name="Path 2805" d="M1525.048,1159.24,1494.92,1129.1l30.128-30.135a42.624,42.624,0,0,1,0,60.27" transform="translate(-1065.61 -783.3)" fill="#989898"/>
        <path id="Path_2806" data-name="Path 2806" d="M1544.307,1021.807l-30.128,30.135v-42.617a42.47,42.47,0,0,1,30.128,12.482" transform="translate(-1079.338 -719.405)" fill="#31d3f5"/>
        <path id="Path_2807" data-name="Path 2807" d="M1389.161,1098.133l30.128,30.135a42.612,42.612,0,1,1-30.128-72.752Z" transform="translate(-959.851 -752.328)" fill="#c1c1c1"/>
        <path id="Path_2808" data-name="Path 2808" d="M946.541,1517.439H796.077v89.205H946.852Z" transform="translate(-567.46 -1081.568)"/>
        <path id="Path_2809" data-name="Path 2809" d="M921.274,1503.412H770.81v89.205H921.585Z" transform="translate(-549.449 -1071.57)" fill="#fff"/>
        <path id="Path_2810" data-name="Path 2810" d="M920.013,1591.679H769.237a.633.633,0,0,1-.633-.633V1501.84a.633.633,0,0,1,.633-.633H919.7a.634.634,0,0,1,.633.631l.311,89.2a.633.633,0,0,1-.633.636m-150.142-1.267H919.377l-.307-87.939H769.87Z" transform="translate(-547.877 -1069.998)"/>
        <rect id="Rectangle_837" data-name="Rectangle 837" width="12.267" height="25.609" transform="translate(232.278 486.29)" fill="#31d3f5"/>
        <rect id="Rectangle_838" data-name="Rectangle 838" width="12.267" height="45.634" transform="translate(255.451 466.265)" fill="#31d3f5"/>
        <rect id="Rectangle_839" data-name="Rectangle 839" width="12.267" height="37.457" transform="translate(278.625 474.442)" fill="#31d3f5"/>
        <rect id="Rectangle_840" data-name="Rectangle 840" width="12.267" height="46.568" transform="translate(301.798 465.331)" fill="#31d3f5"/>
        <rect id="Rectangle_841" data-name="Rectangle 841" width="12.267" height="57.115" transform="translate(324.972 454.784)" fill="#31d3f5"/>
        <rect id="Rectangle_842" data-name="Rectangle 842" width="12.267" height="70.611" transform="translate(348.145 441.289)" fill="#31d3f5"/>
        <path id="Path_2811" data-name="Path 2811" d="M826.5,1628.161a.63.63,0,0,1-.4-.145l-19.241-15.848a.633.633,0,1,1,.8-.977l18.864,15.537,25.231-18.21a.632.632,0,0,1,.823.071l9.639,9.87,32.654-25.863a.634.634,0,0,1,.866.076l8.985,10.1,30.26-25.762a.633.633,0,1,1,.82.965l-30.731,26.163a.634.634,0,0,1-.883-.061l-9-10.119-32.633,25.847a.633.633,0,0,1-.846-.055l-9.656-9.887-25.185,18.176a.63.63,0,0,1-.37.12" transform="translate(-574.977 -1123.922)" fill="#dbdbdb"/>
        <path id="Path_2812" data-name="Path 2812" d="M1226.482,1586.859a.633.633,0,0,1-.6-.826l2.851-8.957-9.151.833a.634.634,0,0,1-.115-1.262l10.1-.918a.634.634,0,0,1,.661.823l-3.14,9.866a.635.635,0,0,1-.6.441" transform="translate(-868.848 -1123.112)" fill="#dbdbdb"/>
        <path id="Path_2813" data-name="Path 2813" d="M1318.9,95.371a73.129,73.129,0,1,0,73.128-72.943A73.036,73.036,0,0,0,1318.9,95.371" transform="translate(-940.141 -15.986)"/>
        <path id="Path_2814" data-name="Path 2814" d="M1299.613,75.148A73.129,73.129,0,1,0,1372.741,2.2a73.036,73.036,0,0,0-73.128,72.943" transform="translate(-926.391 -1.572)" fill="#31d3f5"/>
        <path id="Path_2815" data-name="Path 2815" d="M1371.169,147.153a73.577,73.577,0,1,1,73.761-73.577,73.753,73.753,0,0,1-73.761,73.577m0-145.887a72.31,72.31,0,1,0,72.495,72.31,72.485,72.485,0,0,0-72.495-72.31" transform="translate(-924.819)"/>
        <path id="Path_2816" data-name="Path 2816" d="M1692.183,132.624a.6.6,0,0,1-.088-.006.633.633,0,0,1-.541-.714,60.871,60.871,0,0,0-29.167-60.631.633.633,0,1,1,.648-1.087,62.137,62.137,0,0,1,29.773,61.891.633.633,0,0,1-.626.547" transform="translate(-1184.764 -49.961)"/>
        <path id="Path_2817" data-name="Path 2817" d="M1670.067,358.934a.633.633,0,0,1-.347-1.164,61.378,61.378,0,0,0,23.981-30.128.633.633,0,1,1,1.19.434,62.655,62.655,0,0,1-24.478,30.755.632.632,0,0,1-.346.1" transform="translate(-1190.006 -233.234)"/>
        <path id="Path_2818" data-name="Path 2818" d="M1417.636,388.5a62.246,62.246,0,0,1-54.966-32.889.633.633,0,1,1,1.116-.6,61.167,61.167,0,0,0,78.73,26.948.633.633,0,0,1,.516,1.157,61.93,61.93,0,0,1-25.4,5.383" transform="translate(-971.286 -252.799)"/>
        <path id="Path_2819" data-name="Path 2819" d="M1339.912,162.477a.633.633,0,0,1-.613-.477,62.115,62.115,0,0,1,16.336-59.24.633.633,0,1,1,.894.9,60.848,60.848,0,0,0-16,58.032.633.633,0,0,1-.458.77.626.626,0,0,1-.156.02" transform="translate(-953.321 -73.111)"/>
        <path id="Path_2820" data-name="Path 2820" d="M1432.668,51.643a.633.633,0,0,1-.354-1.158,62.57,62.57,0,0,1,50.97-8.5.633.633,0,1,1-.327,1.223,61.306,61.306,0,0,0-49.936,8.327.632.632,0,0,1-.353.108" transform="translate(-1020.783 -28.421)"/>
        <path id="Path_2821" data-name="Path 2821" d="M1470.619,199.632V127.853H1496.4q13.849,0,21.071,5.078t7.22,14.74a17.083,17.083,0,0,1-2.563,9.515,14.933,14.933,0,0,1-7.541,5.817,15.129,15.129,0,0,1,8.625,5.521,16.064,16.064,0,0,1,3.007,9.86q0,10.551-6.678,15.85t-19.79,5.4Zm17.3-41.855h9.019q5.668-.048,8.083-2.077a7.369,7.369,0,0,0,2.415-5.983q0-4.548-2.612-6.551t-8.428-2h-8.478Zm0,11.339v17.205h11.336q4.682,0,7.2-2.144a7.508,7.508,0,0,0,2.514-6.039q0-8.972-8.921-9.022Z" transform="translate(-1048.288 -91.128)" fill="#fff"/>
        <path id="Path_2822" data-name="Path 2822" d="M1564.67,373.907h7.274V361.72c-2.429-.1-4.852-.246-7.274-.409Z" transform="translate(-1115.329 -257.528)" fill="#fff"/>
        <path id="Path_2823" data-name="Path 2823" d="M1564.67,100.087v13.4c2.425.069,4.85.137,7.274.163V100.087Z" transform="translate(-1115.329 -71.338)" fill="#fff"/>
        <path id="Path_2824" data-name="Path 2824" d="M1508.676,371.4h7.274V357.916c-2.413-.175-4.836-.34-7.274-.476Z" transform="translate(-1075.415 -254.768)" fill="#fff"/>
        <path id="Path_2825" data-name="Path 2825" d="M1508.676,100.979v13.216c2.425-.165,4.85-.229,7.274-.232V100.979Z" transform="translate(-1075.415 -71.974)" fill="#fff"/>
      </g>
    </g>
    <g id="Group_1819" data-name="Group 1819" transform="translate(214.426 167.911)">
      <g id="Group_1818" data-name="Group 1818" clip-path="url(#clip-path-2)">
        <path id="Path_2826" data-name="Path 2826" d="M784.275,594.76l-9.009-1.908L785.3,554.859l7.182,1.521Z" transform="translate(-767.053 -563.4)" fill="#fff"/>
        <path id="Path_2827" data-name="Path 2827" d="M773.88,592.1a.449.449,0,0,1-.119-.128.455.455,0,0,1-.052-.353l10.031-37.993a.452.452,0,0,1,.53-.326l7.182,1.521a.451.451,0,0,1,.348.536l-8.2,38.381a.451.451,0,0,1-.535.347l-9.009-1.908a.446.446,0,0,1-.173-.077M784.5,554.27l-9.8,37.118,8.1,1.716,8.015-37.5Z" transform="translate(-765.933 -562.279)"/>
      </g>
    </g>
  </g>
</svg>
