<svg xmlns="http://www.w3.org/2000/svg" xmlns:xlink="http://www.w3.org/1999/xlink" width="505" height="505" viewBox="0 0 505 505">
  <defs>
    <clipPath id="clip-path">
      <rect id="Rectangle_908" data-name="Rectangle 908" width="505" height="505" transform="translate(0.032)" fill="none"/>
    </clipPath>
  </defs>
  <g id="Group_1830" data-name="Group 1830" transform="translate(-0.032)">
    <g id="Group_1829" data-name="Group 1829" clip-path="url(#clip-path)">
      <path id="Path_3073" data-name="Path 3073" d="M161.123,1168.415H.608a.608.608,0,1,1,0-1.217H160.514v-14.077H.608a.608.608,0,0,1,0-1.217H161.123a.609.609,0,0,1,.609.609v15.293a.608.608,0,0,1-.609.608" transform="translate(0 -834.009)"/>
      <path id="Path_3074" data-name="Path 3074" d="M161.123,1784.225H.608a.608.608,0,1,1,0-1.217H160.514v-14.076H.608a.608.608,0,1,1,0-1.217H161.123a.609.609,0,0,1,.609.609v15.292a.608.608,0,0,1-.609.609" transform="translate(0 -1279.873)"/>
      <path id="Path_3075" data-name="Path 3075" d="M259.245,697.442v-28.8H245.9v28.8a46.791,46.791,0,0,1-4.116,19.19L234.5,732.84a46.787,46.787,0,0,0-4.116,19.19v39.8a10.685,10.685,0,0,0,10.687,10.684h23.01a10.685,10.685,0,0,0,10.687-10.684v-39.8a46.788,46.788,0,0,0-4.116-19.19l-7.288-16.208a46.791,46.791,0,0,1-4.116-19.19" transform="translate(-166.785 -484.112)" fill="#dfe3e8"/>
      <path id="Path_3076" data-name="Path 3076" d="M241.069,955.478h23.01a10.685,10.685,0,0,0,10.687-10.684V905a46.789,46.789,0,0,0-4.116-19.19l-2.64-5.871a5.128,5.128,0,0,0-3.466,1.5l-.409.41a5.185,5.185,0,0,1-7.342,0l-.41-.41a5.185,5.185,0,0,0-7.342,0l-.409.41a5.186,5.186,0,0,1-7.343,0l-.415-.416a5.146,5.146,0,0,0-3.728-1.51l-2.648,5.889A46.79,46.79,0,0,0,230.382,905v39.8a10.685,10.685,0,0,0,10.687,10.684" transform="translate(-166.785 -637.078)" fill="#b9bec6"/>
      <rect id="Rectangle_887" data-name="Rectangle 887" width="34.163" height="28.171" transform="translate(73.886 276.736)" fill="#fff"/>
      <path id="Path_3077" data-name="Path 3077" d="M262.736,801.524h-23.01a11.306,11.306,0,0,1-11.295-11.292v-39.8a47.092,47.092,0,0,1,4.169-19.439l7.288-16.207a45.881,45.881,0,0,0,4.063-18.94v-28.8a.608.608,0,0,1,.609-.609H257.9a.608.608,0,0,1,.608.609v28.8a45.881,45.881,0,0,0,4.063,18.94l7.288,16.208a47.093,47.093,0,0,1,4.17,19.439v39.8a11.306,11.306,0,0,1-11.3,11.292M245.168,667.651v28.2A47.091,47.091,0,0,1,241,715.286l-7.288,16.207a45.885,45.885,0,0,0-4.062,18.94v39.8a10.088,10.088,0,0,0,10.078,10.075h23.01a10.088,10.088,0,0,0,10.078-10.075v-39.8a45.886,45.886,0,0,0-4.063-18.94l-7.289-16.208a47.088,47.088,0,0,1-4.169-19.438v-28.2Z" transform="translate(-165.373 -482.516)"/>
      <rect id="Rectangle_888" data-name="Rectangle 888" width="18.76" height="32.907" transform="translate(76.478 172.374)" fill="#b9bec6"/>
      <path id="Path_3078" data-name="Path 3078" d="M294.208,656.522h-18.76a.608.608,0,0,1-.609-.608V623.007a.608.608,0,0,1,.609-.609h18.76a.608.608,0,0,1,.609.609v32.907a.608.608,0,0,1-.609.608M276.056,655.3H293.6v-31.69H276.056Z" transform="translate(-198.97 -450.633)"/>
      <path id="Path_3079" data-name="Path 3079" d="M450.553,697.442v-28.8H437.212v28.8a46.791,46.791,0,0,1-4.116,19.19l-7.288,16.207a46.787,46.787,0,0,0-4.116,19.19v39.8a10.685,10.685,0,0,0,10.687,10.684h23.01a10.685,10.685,0,0,0,10.687-10.684v-39.8a46.788,46.788,0,0,0-4.116-19.19l-7.288-16.208a46.791,46.791,0,0,1-4.116-19.19" transform="translate(-305.283 -484.112)" fill="#dfe3e8"/>
      <path id="Path_3080" data-name="Path 3080" d="M432.377,955.478h23.01a10.685,10.685,0,0,0,10.686-10.684V905a46.789,46.789,0,0,0-4.116-19.19l-2.64-5.871a5.128,5.128,0,0,0-3.466,1.5l-.409.41a5.185,5.185,0,0,1-7.342,0l-.409-.41a5.186,5.186,0,0,0-7.342,0l-.409.41a5.186,5.186,0,0,1-7.343,0l-.414-.416a5.147,5.147,0,0,0-3.728-1.51l-2.648,5.889A46.79,46.79,0,0,0,421.69,905v39.8a10.685,10.685,0,0,0,10.687,10.684" transform="translate(-305.283 -637.078)" fill="#b9bec6"/>
      <rect id="Rectangle_889" data-name="Rectangle 889" width="34.163" height="28.171" transform="translate(126.628 276.736)" fill="#020202"/>
      <path id="Path_3081" data-name="Path 3081" d="M453.792,801.524h-23.01a11.306,11.306,0,0,1-11.3-11.292v-39.8a47.089,47.089,0,0,1,4.17-19.439l7.288-16.207a45.884,45.884,0,0,0,4.063-18.94v-28.8a.608.608,0,0,1,.609-.609h13.342a.608.608,0,0,1,.608.609v28.8a45.881,45.881,0,0,0,4.063,18.94l7.288,16.208a47.092,47.092,0,0,1,4.169,19.439v39.8a11.306,11.306,0,0,1-11.295,11.292M436.225,667.651v28.2a47.1,47.1,0,0,1-4.17,19.439l-7.288,16.207a45.885,45.885,0,0,0-4.063,18.94v39.8a10.088,10.088,0,0,0,10.078,10.075h23.01a10.088,10.088,0,0,0,10.078-10.075v-39.8a45.885,45.885,0,0,0-4.062-18.94l-7.289-16.208a47.089,47.089,0,0,1-4.169-19.438v-28.2Z" transform="translate(-303.688 -482.516)"/>
      <rect id="Rectangle_890" data-name="Rectangle 890" width="18.761" height="32.907" transform="translate(129.219 172.374)" fill="#b9bec6"/>
      <path id="Path_3082" data-name="Path 3082" d="M485.265,656.522H466.5a.608.608,0,0,1-.608-.608V623.007a.608.608,0,0,1,.608-.609h18.761a.609.609,0,0,1,.609.609v32.907a.608.608,0,0,1-.609.608M467.113,655.3h17.544v-31.69H467.113Z" transform="translate(-337.286 -450.633)"/>
      <path id="Path_3083" data-name="Path 3083" d="M69.3,697.442v-28.8H55.96v28.8a46.791,46.791,0,0,1-4.116,19.19L44.555,732.84a46.787,46.787,0,0,0-4.116,19.19v39.8a10.685,10.685,0,0,0,10.687,10.684h23.01a10.685,10.685,0,0,0,10.687-10.684v-39.8a46.789,46.789,0,0,0-4.116-19.19l-7.288-16.208a46.79,46.79,0,0,1-4.116-19.19" transform="translate(-29.276 -484.112)" fill="#dfe3e8"/>
      <path id="Path_3084" data-name="Path 3084" d="M51.125,955.478h23.01a10.685,10.685,0,0,0,10.687-10.684V905a46.79,46.79,0,0,0-4.116-19.19l-2.64-5.871a5.127,5.127,0,0,0-3.466,1.5l-.409.41a5.185,5.185,0,0,1-7.342,0l-.41-.41a5.185,5.185,0,0,0-7.342,0l-.409.41a5.186,5.186,0,0,1-7.343,0l-.415-.416a5.146,5.146,0,0,0-3.728-1.51l-2.648,5.889A46.79,46.79,0,0,0,40.438,905v39.8a10.685,10.685,0,0,0,10.687,10.684" transform="translate(-29.275 -637.078)" fill="#b9bec6"/>
      <rect id="Rectangle_891" data-name="Rectangle 891" width="34.163" height="28.171" transform="translate(21.383 276.736)" fill="#020202"/>
      <path id="Path_3085" data-name="Path 3085" d="M72.539,801.524H49.529a11.307,11.307,0,0,1-11.3-11.292v-39.8a47.09,47.09,0,0,1,4.17-19.439l7.288-16.207a45.885,45.885,0,0,0,4.063-18.94v-28.8a.608.608,0,0,1,.608-.609H67.705a.608.608,0,0,1,.608.609v28.8a45.879,45.879,0,0,0,4.063,18.94l7.288,16.208a47.092,47.092,0,0,1,4.169,19.439v39.8a11.306,11.306,0,0,1-11.3,11.292M54.972,667.651v28.2A47.1,47.1,0,0,1,50.8,715.286l-7.288,16.207a45.885,45.885,0,0,0-4.063,18.94v39.8a10.088,10.088,0,0,0,10.078,10.075h23.01a10.088,10.088,0,0,0,10.078-10.075v-39.8a45.885,45.885,0,0,0-4.062-18.94l-7.289-16.208a47.089,47.089,0,0,1-4.17-19.438v-28.2Z" transform="translate(-27.68 -482.516)"/>
      <rect id="Rectangle_892" data-name="Rectangle 892" width="18.761" height="32.907" transform="translate(23.974 172.374)" fill="#020202"/>
      <path id="Path_3086" data-name="Path 3086" d="M104.012,656.522H85.252a.608.608,0,0,1-.609-.608V623.007a.608.608,0,0,1,.609-.609h18.76a.608.608,0,0,1,.609.609v32.907a.608.608,0,0,1-.609.608M85.86,655.3H103.4v-31.69H85.86Z" transform="translate(-61.277 -450.633)"/>
      <path id="Path_3087" data-name="Path 3087" d="M79.841,1281.346v-29.725H67.058v29.725a18.925,18.925,0,0,1-5.541,13.38l-.325.325a18.925,18.925,0,0,0-5.541,13.38v80.148a6.029,6.029,0,0,0,6.03,6.028H85.219a6.029,6.029,0,0,0,6.03-6.028v-80.148a18.925,18.925,0,0,0-5.541-13.38l-.325-.325a18.925,18.925,0,0,1-5.541-13.38" transform="translate(-40.289 -906.207)" fill="#dfe3e8"/>
      <path id="Path_3088" data-name="Path 3088" d="M91.248,1440.179a18.915,18.915,0,0,0-1.178-6.563,5.358,5.358,0,0,0-4.275,1.555l-.423.424a5.394,5.394,0,0,1-7.637,0l-.426-.427a5.394,5.394,0,0,0-7.64,0l-.418.42a5.392,5.392,0,0,1-7.638,0l-.431-.432a5.365,5.365,0,0,0-4.35-1.55,18.914,18.914,0,0,0-1.179,6.564v80.148a6.029,6.029,0,0,0,6.03,6.028H85.219a6.029,6.029,0,0,0,6.029-6.028Z" transform="translate(-40.289 -1037.955)" fill="#b9bec6"/>
      <rect id="Rectangle_893" data-name="Rectangle 893" width="35.597" height="57.512" transform="translate(15.362 408.646)" fill="#fff"/>
      <path id="Path_3089" data-name="Path 3089" d="M83.622,1393.619H60.084a6.645,6.645,0,0,1-6.638-6.637v-80.148a19.408,19.408,0,0,1,5.719-13.81l.325-.325a18.2,18.2,0,0,0,5.363-12.95v-29.725a.608.608,0,0,1,.609-.608H78.245a.608.608,0,0,1,.608.608v29.725a18.2,18.2,0,0,0,5.363,12.95l.325.325a19.406,19.406,0,0,1,5.719,13.81v80.148a6.645,6.645,0,0,1-6.638,6.637M66.071,1250.634v29.116a19.407,19.407,0,0,1-5.719,13.81l-.325.325a18.2,18.2,0,0,0-5.363,12.949v80.148a5.427,5.427,0,0,0,5.421,5.42H83.622a5.426,5.426,0,0,0,5.421-5.42v-80.148a18.2,18.2,0,0,0-5.363-12.949l-.325-.325a19.407,19.407,0,0,1-5.719-13.81v-29.116Z" transform="translate(-38.692 -904.611)"/>
      <rect id="Rectangle_894" data-name="Rectangle 894" width="17.004" height="26.051" transform="translate(24.659 342.98)" fill="#b9bec6"/>
      <path id="Path_3090" data-name="Path 3090" d="M104.737,1267.865h-17a.608.608,0,0,1-.609-.609v-26.051a.608.608,0,0,1,.609-.609h17a.608.608,0,0,1,.608.609v26.051a.608.608,0,0,1-.608.609m-16.4-1.217h15.787v-24.834H88.341Z" transform="translate(-63.073 -898.225)"/>
      <path id="Path_3091" data-name="Path 3091" d="M271.168,1281.346v-29.725H258.385v29.725a18.925,18.925,0,0,1-5.541,13.38l-.325.325a18.925,18.925,0,0,0-5.541,13.38v80.148a6.029,6.029,0,0,0,6.03,6.028h23.538a6.029,6.029,0,0,0,6.029-6.028v-80.148a18.925,18.925,0,0,0-5.541-13.38l-.325-.325a18.925,18.925,0,0,1-5.541-13.38" transform="translate(-178.8 -906.207)" fill="#dfe3e8"/>
      <path id="Path_3092" data-name="Path 3092" d="M282.575,1440.179a18.921,18.921,0,0,0-1.178-6.563,5.358,5.358,0,0,0-4.275,1.555l-.423.424a5.394,5.394,0,0,1-7.637,0l-.426-.427a5.394,5.394,0,0,0-7.64,0l-.418.42a5.392,5.392,0,0,1-7.638,0l-.431-.432a5.365,5.365,0,0,0-4.35-1.55,18.914,18.914,0,0,0-1.179,6.564v80.148a6.029,6.029,0,0,0,6.03,6.028h23.538a6.029,6.029,0,0,0,6.029-6.028Z" transform="translate(-178.8 -1037.955)" fill="#b9bec6"/>
      <rect id="Rectangle_895" data-name="Rectangle 895" width="35.597" height="57.512" transform="translate(68.178 408.646)" fill="#fff"/>
      <path id="Path_3093" data-name="Path 3093" d="M274.95,1393.619H251.411a6.645,6.645,0,0,1-6.638-6.637v-80.148a19.407,19.407,0,0,1,5.719-13.81l.325-.325a18.2,18.2,0,0,0,5.363-12.95v-29.725a.608.608,0,0,1,.609-.608h12.782a.608.608,0,0,1,.608.608v29.725a18.2,18.2,0,0,0,5.364,12.95l.325.325a19.406,19.406,0,0,1,5.719,13.81v80.148a6.645,6.645,0,0,1-6.638,6.637M257.4,1250.634v29.116a19.406,19.406,0,0,1-5.719,13.81l-.325.325a18.2,18.2,0,0,0-5.364,12.949v80.148a5.427,5.427,0,0,0,5.421,5.42H274.95a5.426,5.426,0,0,0,5.421-5.42v-80.148a18.2,18.2,0,0,0-5.363-12.949l-.325-.325a19.407,19.407,0,0,1-5.719-13.81v-29.116Z" transform="translate(-177.203 -904.611)"/>
      <rect id="Rectangle_896" data-name="Rectangle 896" width="17.004" height="26.051" transform="translate(77.475 342.98)" fill="#b9bec6"/>
      <path id="Path_3094" data-name="Path 3094" d="M296.064,1267.865h-17a.608.608,0,0,1-.608-.609v-26.051a.608.608,0,0,1,.608-.609h17a.608.608,0,0,1,.609.609v26.051a.608.608,0,0,1-.609.609m-16.4-1.217h15.787v-24.834H279.668Z" transform="translate(-201.585 -898.225)"/>
      <path id="Path_3095" data-name="Path 3095" d="M462.494,1281.346v-29.725H449.711v29.725a18.925,18.925,0,0,1-5.541,13.38l-.325.325a18.924,18.924,0,0,0-5.541,13.38v80.148a6.029,6.029,0,0,0,6.03,6.028h23.538a6.029,6.029,0,0,0,6.03-6.028v-80.148a18.925,18.925,0,0,0-5.541-13.38l-.325-.325a18.925,18.925,0,0,1-5.541-13.38" transform="translate(-317.31 -906.207)" fill="#dfe3e8"/>
      <path id="Path_3096" data-name="Path 3096" d="M473.9,1440.179a18.922,18.922,0,0,0-1.178-6.563,5.358,5.358,0,0,0-4.275,1.555l-.423.424a5.394,5.394,0,0,1-7.637,0l-.426-.427a5.394,5.394,0,0,0-7.64,0l-.418.42a5.392,5.392,0,0,1-7.638,0l-.431-.432a5.365,5.365,0,0,0-4.35-1.55,18.914,18.914,0,0,0-1.179,6.564v80.148a6.029,6.029,0,0,0,6.03,6.028h23.538a6.029,6.029,0,0,0,6.03-6.028Z" transform="translate(-317.311 -1037.955)" fill="#b9bec6"/>
      <rect id="Rectangle_897" data-name="Rectangle 897" width="35.597" height="57.512" transform="translate(120.994 408.646)" fill="#fff"/>
      <path id="Path_3097" data-name="Path 3097" d="M466.276,1393.619H442.738a6.645,6.645,0,0,1-6.638-6.637v-80.148a19.408,19.408,0,0,1,5.719-13.81l.325-.325a18.2,18.2,0,0,0,5.363-12.95v-29.725a.608.608,0,0,1,.609-.608H460.9a.608.608,0,0,1,.608.608v29.725a18.2,18.2,0,0,0,5.363,12.95l.325.325a19.406,19.406,0,0,1,5.719,13.81v80.148a6.645,6.645,0,0,1-6.638,6.637m-17.552-142.985v29.116a19.407,19.407,0,0,1-5.719,13.81l-.325.325a18.2,18.2,0,0,0-5.363,12.949v80.148a5.427,5.427,0,0,0,5.421,5.42h23.538a5.427,5.427,0,0,0,5.421-5.42v-80.148a18.2,18.2,0,0,0-5.363-12.949l-.325-.325a19.407,19.407,0,0,1-5.719-13.81v-29.116Z" transform="translate(-315.715 -904.611)"/>
      <rect id="Rectangle_898" data-name="Rectangle 898" width="17.004" height="26.051" transform="translate(130.29 342.98)" fill="#b9bec6"/>
      <path id="Path_3098" data-name="Path 3098" d="M487.39,1267.865h-17a.608.608,0,0,1-.609-.609v-26.051a.608.608,0,0,1,.609-.609h17a.608.608,0,0,1,.608.609v26.051a.608.608,0,0,1-.608.609m-16.4-1.217h15.787v-24.834H470.994Z" transform="translate(-340.095 -898.225)"/>
      <path id="Path_3099" data-name="Path 3099" d="M161.123,545.55H.608a.608.608,0,0,1,0-1.217H160.514V530.257H.608a.608.608,0,1,1,0-1.217H161.123a.609.609,0,0,1,.609.609v15.293a.609.609,0,0,1-.609.608" transform="translate(0 -383.039)"/>
      <path id="Path_3100" data-name="Path 3100" d="M79.841,42.627V12.9H67.058V42.627a18.925,18.925,0,0,1-5.541,13.38l-.325.325a18.925,18.925,0,0,0-5.541,13.38v80.148a6.029,6.029,0,0,0,6.03,6.028H85.219a6.029,6.029,0,0,0,6.03-6.028V69.711a18.925,18.925,0,0,0-5.541-13.38l-.325-.325a18.925,18.925,0,0,1-5.541-13.38" transform="translate(-40.289 -9.341)" fill="#dfe3e8"/>
      <path id="Path_3101" data-name="Path 3101" d="M91.248,201.459A18.915,18.915,0,0,0,90.07,194.9a5.357,5.357,0,0,0-4.275,1.555l-.423.424a5.394,5.394,0,0,1-7.637,0l-.426-.427a5.394,5.394,0,0,0-7.64,0l-.418.42a5.392,5.392,0,0,1-7.638,0l-.431-.432a5.365,5.365,0,0,0-4.35-1.55,18.914,18.914,0,0,0-1.179,6.564v80.148a6.029,6.029,0,0,0,6.03,6.028H85.219a6.029,6.029,0,0,0,6.029-6.028Z" transform="translate(-40.289 -141.089)" fill="#b9bec6"/>
      <rect id="Rectangle_899" data-name="Rectangle 899" width="35.597" height="57.512" transform="translate(15.362 66.792)" fill="#fff"/>
      <path id="Path_3102" data-name="Path 3102" d="M83.622,154.9H60.084a6.645,6.645,0,0,1-6.638-6.636V68.115a19.407,19.407,0,0,1,5.719-13.809l.325-.325a18.2,18.2,0,0,0,5.363-12.95V11.307a.608.608,0,0,1,.609-.609H78.245a.608.608,0,0,1,.608.609V41.031a18.2,18.2,0,0,0,5.363,12.95l.325.325a19.4,19.4,0,0,1,5.719,13.809v80.148a6.645,6.645,0,0,1-6.638,6.636M66.071,11.915V41.031a19.407,19.407,0,0,1-5.719,13.81l-.325.325a18.2,18.2,0,0,0-5.363,12.95v80.148a5.427,5.427,0,0,0,5.421,5.42H83.622a5.426,5.426,0,0,0,5.421-5.42V68.115a18.2,18.2,0,0,0-5.363-12.95l-.325-.325a19.407,19.407,0,0,1-5.719-13.81V11.915Z" transform="translate(-38.692 -7.746)"/>
      <rect id="Rectangle_900" data-name="Rectangle 900" width="17.004" height="26.051" transform="translate(24.659 1.126)"/>
      <path id="Path_3103" data-name="Path 3103" d="M104.737,29.144h-17a.608.608,0,0,1-.609-.608V2.485a.608.608,0,0,1,.609-.609h17a.608.608,0,0,1,.608.609V28.536a.608.608,0,0,1-.608.608m-16.4-1.216h15.787V3.093H88.341Z" transform="translate(-63.073 -1.358)"/>
      <path id="Path_3104" data-name="Path 3104" d="M271.168,42.627V12.9H258.385V42.627a18.925,18.925,0,0,1-5.541,13.38l-.325.325a18.925,18.925,0,0,0-5.541,13.38v80.148a6.029,6.029,0,0,0,6.03,6.028h23.538a6.029,6.029,0,0,0,6.029-6.028V69.711a18.925,18.925,0,0,0-5.541-13.38l-.325-.325a18.925,18.925,0,0,1-5.541-13.38" transform="translate(-178.8 -9.341)" fill="#dfe3e8"/>
      <path id="Path_3105" data-name="Path 3105" d="M282.575,201.459A18.921,18.921,0,0,0,281.4,194.9a5.357,5.357,0,0,0-4.275,1.555l-.423.424a5.394,5.394,0,0,1-7.637,0l-.426-.427a5.394,5.394,0,0,0-7.64,0l-.418.42a5.392,5.392,0,0,1-7.638,0l-.431-.432a5.365,5.365,0,0,0-4.35-1.55,18.914,18.914,0,0,0-1.179,6.564v80.148a6.029,6.029,0,0,0,6.03,6.028h23.538a6.029,6.029,0,0,0,6.029-6.028Z" transform="translate(-178.8 -141.089)" fill="#b9bec6"/>
      <rect id="Rectangle_901" data-name="Rectangle 901" width="35.597" height="57.512" transform="translate(68.178 66.792)" fill="#fff"/>
      <path id="Path_3106" data-name="Path 3106" d="M274.95,154.9H251.411a6.645,6.645,0,0,1-6.638-6.636V68.115a19.406,19.406,0,0,1,5.719-13.809l.325-.325a18.2,18.2,0,0,0,5.363-12.95V11.307a.608.608,0,0,1,.609-.609h12.782a.608.608,0,0,1,.608.609V41.031a18.2,18.2,0,0,0,5.364,12.95l.325.325a19.4,19.4,0,0,1,5.719,13.809v80.148a6.645,6.645,0,0,1-6.638,6.636M257.4,11.915V41.031a19.406,19.406,0,0,1-5.719,13.81l-.325.325a18.2,18.2,0,0,0-5.364,12.95v80.148a5.427,5.427,0,0,0,5.421,5.42H274.95a5.426,5.426,0,0,0,5.421-5.42V68.115a18.2,18.2,0,0,0-5.363-12.95l-.325-.325a19.407,19.407,0,0,1-5.719-13.81V11.915Z" transform="translate(-177.203 -7.746)"/>
      <rect id="Rectangle_902" data-name="Rectangle 902" width="17.004" height="26.051" transform="translate(77.475 1.126)"/>
      <path id="Path_3107" data-name="Path 3107" d="M296.064,29.144h-17a.608.608,0,0,1-.608-.608V2.485a.608.608,0,0,1,.608-.609h17a.608.608,0,0,1,.609.609V28.536a.608.608,0,0,1-.609.608m-16.4-1.216h15.787V3.093H279.668Z" transform="translate(-201.585 -1.358)"/>
      <path id="Path_3108" data-name="Path 3108" d="M462.494,42.627V12.9H449.711V42.627a18.925,18.925,0,0,1-5.541,13.38l-.325.325a18.924,18.924,0,0,0-5.541,13.38v80.148a6.029,6.029,0,0,0,6.03,6.028h23.538a6.029,6.029,0,0,0,6.03-6.028V69.711a18.925,18.925,0,0,0-5.541-13.38l-.325-.325a18.925,18.925,0,0,1-5.541-13.38" transform="translate(-317.31 -9.341)" fill="#dfe3e8"/>
      <path id="Path_3109" data-name="Path 3109" d="M473.9,201.459a18.922,18.922,0,0,0-1.178-6.563,5.357,5.357,0,0,0-4.275,1.555l-.423.424a5.394,5.394,0,0,1-7.637,0l-.426-.427a5.394,5.394,0,0,0-7.64,0l-.418.42a5.392,5.392,0,0,1-7.638,0l-.431-.432a5.365,5.365,0,0,0-4.35-1.55,18.914,18.914,0,0,0-1.179,6.564v80.148a6.029,6.029,0,0,0,6.03,6.028h23.538a6.029,6.029,0,0,0,6.03-6.028Z" transform="translate(-317.311 -141.089)" fill="#b9bec6"/>
      <rect id="Rectangle_903" data-name="Rectangle 903" width="35.597" height="57.512" transform="translate(120.994 66.792)" fill="#fff"/>
      <path id="Path_3110" data-name="Path 3110" d="M466.276,154.9H442.738a6.645,6.645,0,0,1-6.638-6.636V68.115a19.407,19.407,0,0,1,5.719-13.809l.325-.325a18.2,18.2,0,0,0,5.363-12.95V11.307a.608.608,0,0,1,.609-.609H460.9a.608.608,0,0,1,.608.609V41.031a18.2,18.2,0,0,0,5.363,12.95l.325.325a19.4,19.4,0,0,1,5.719,13.809v80.148a6.645,6.645,0,0,1-6.638,6.636M448.725,11.915V41.031a19.407,19.407,0,0,1-5.719,13.81l-.325.325a18.2,18.2,0,0,0-5.363,12.95v80.148a5.427,5.427,0,0,0,5.421,5.42h23.538a5.427,5.427,0,0,0,5.421-5.42V68.115a18.2,18.2,0,0,0-5.363-12.95l-.325-.325a19.407,19.407,0,0,1-5.719-13.81V11.915Z" transform="translate(-315.715 -7.746)"/>
      <rect id="Rectangle_904" data-name="Rectangle 904" width="17.004" height="26.051" transform="translate(130.29 1.126)"/>
      <path id="Path_3111" data-name="Path 3111" d="M487.39,29.144h-17a.608.608,0,0,1-.609-.608V2.485a.608.608,0,0,1,.609-.609h17a.608.608,0,0,1,.608.609V28.536a.608.608,0,0,1-.608.608m-16.4-1.216h15.787V3.093H470.994Z" transform="translate(-340.095 -1.358)"/>
      <path id="Path_3112" data-name="Path 3112" d="M1041.6,1423.964l-62.958-129.924v-24H903.3v57.9l46.573,96.026Z" transform="translate(-653.944 -919.54)"/>
      <rect id="Rectangle_905" data-name="Rectangle 905" width="70.766" height="153.901" transform="translate(211.905 350.523)"/>
      <path id="Path_3113" data-name="Path 3113" d="M1022.39,1625.094a.608.608,0,0,1-.609-.608v-47.08a35.019,35.019,0,0,1,13.29-27.55l3.434-2.732a.609.609,0,1,1,.758.952l-3.434,2.731a33.809,33.809,0,0,0-12.831,26.6v47.08a.608.608,0,0,1-.608.608" transform="translate(-739.719 -1120.063)" fill="#fff"/>
      <path id="Path_3114" data-name="Path 3114" d="M766.037,1430.435a.608.608,0,0,1-.609-.608V1278.742a.609.609,0,0,1,1.217,0v151.084a.608.608,0,0,1-.609.608" transform="translate(-554.133 -925.403)"/>
      <path id="Path_3115" data-name="Path 3115" d="M992.688,439.941v27.633a18.336,18.336,0,0,1-18.339,18.334H966.08l-25.644,5v-8.5a24.485,24.485,0,0,1,13-21.624Z" transform="translate(-680.829 -318.529)"/>
      <rect id="Rectangle_906" data-name="Rectangle 906" width="23.837" height="30.016" transform="translate(263.261 179.904)" fill="#dfe3e8"/>
      <path id="Path_3116" data-name="Path 3116" d="M975.913,680.916H952.076a.608.608,0,0,1-.608-.609V650.291a.608.608,0,0,1,.608-.609h23.837a.608.608,0,0,1,.609.609v30.016a.608.608,0,0,1-.609.609M952.685,679.7H975.3V650.9h-22.62Z" transform="translate(-688.816 -470.387)"/>
      <path id="Path_3117" data-name="Path 3117" d="M940.436,573.329c0,11.544,8.47,20.9,18.917,20.9s18.917-9.358,18.917-20.9-8.469-20.9-18.917-20.9-18.917,9.358-18.917,20.9" transform="translate(-680.829 -399.971)" fill="#dfe3e8"/>
      <path id="Path_3118" data-name="Path 3118" d="M957.757,593.242c-10.766,0-19.525-9.65-19.525-21.511s8.759-21.512,19.525-21.512,19.526,9.65,19.526,21.512-8.759,21.511-19.526,21.511m0-41.806c-10.1,0-18.308,9.1-18.308,20.295s8.213,20.294,18.308,20.294,18.309-9.1,18.309-20.294-8.213-20.295-18.309-20.295" transform="translate(-679.233 -398.374)"/>
      <path id="Path_3119" data-name="Path 3119" d="M982.563,618.772a24.951,24.951,0,0,0-.259-3.581l-38.5,14.935c3.594,6.806,10.308,11.4,17.986,11.4,11.452,0,20.768-10.207,20.768-22.753" transform="translate(-683.271 -445.414)"/>
      <path id="Path_3120" data-name="Path 3120" d="M1014.825,639.608a9.224,9.224,0,0,1-13.611,8.034Z" transform="translate(-724.829 -463.093)" fill="#fff"/>
      <path id="Path_3121" data-name="Path 3121" d="M972.558,591.408a.608.608,0,0,1-.272-1.153c6.574-3.27,10.821-10.541,10.821-18.525,0-11.19-8.213-20.294-18.309-20.294-6.481,0-12.349,3.68-15.7,9.845a.609.609,0,1,1-1.07-.581A19.345,19.345,0,0,1,964.8,550.219c10.767,0,19.526,9.65,19.526,21.512,0,8.441-4.513,16.14-11.5,19.614a.607.607,0,0,1-.27.063" transform="translate(-686.274 -398.373)"/>
      <path id="Path_3122" data-name="Path 3122" d="M959.353,552.425c-10.448,0-18.917,9.358-18.917,20.9a23.243,23.243,0,0,0,.2,3.055l12.249-9.034h24.593c-2.328-8.63-9.561-14.924-18.128-14.924" transform="translate(-680.829 -399.97)"/>
      <path id="Path_3123" data-name="Path 3123" d="M1387.367,717.173l15.2,49.14-36.743,11.372-12.307-39.725a68.848,68.848,0,0,1-3.059-18.514l-.059-2.17Z" transform="translate(-977.623 -519.252)" fill="#dfe3e8"/>
      <path id="Path_3124" data-name="Path 3124" d="M1412.942,827.207h-40.276l9.279,30.146,36.744-11.372Z" transform="translate(-993.742 -598.92)"/>
      <path id="Path_3125" data-name="Path 3125" d="M1497.919,765.325a.609.609,0,0,1-.581-.428l-15.2-49.141a.608.608,0,0,1,1.162-.36l15.2,49.141a.608.608,0,0,1-.581.788" transform="translate(-1072.973 -517.656)"/>
      <path id="Path_3126" data-name="Path 3126" d="M1320.251,676.355h22.782a19.537,19.537,0,0,1,11.776,3.948l15.046,11.365-6.508,8.51-13.059-9.855a12.811,12.811,0,0,0-7.718-2.586h-22.319a5.556,5.556,0,0,1-5.557-5.555v-.271a5.556,5.556,0,0,1,5.557-5.555" transform="translate(-951.773 -489.699)" fill="#dfe3e8"/>
      <path id="Path_3127" data-name="Path 3127" d="M1365.02,735.256h14.916a17.617,17.617,0,0,0,14.322-7.357l7.413-10.35h-49.353v5.009a12.7,12.7,0,0,0,12.7,12.7" transform="translate(-979.011 -519.524)" fill="#dfe3e8"/>
      <path id="Path_3128" data-name="Path 3128" d="M1456.975,282.163a28.118,28.118,0,0,1-20.909,26.983l-26.905,7.141a19.541,19.541,0,0,0-13.412,12.373l-5.128-1.812a19.532,19.532,0,0,0-2.656-18.051l-16.441-22.457a28.112,28.112,0,0,1,.7-34.126l.525-.658a12.413,12.413,0,0,1,13.462,2.725l.982.985a12.448,12.448,0,0,0,17.627,0l.983-.985a12.449,12.449,0,0,1,17.627,0l.981.985a12.449,12.449,0,0,0,17.628,0l1-1a12.436,12.436,0,0,1,14.153-2.438Z" transform="translate(-988.985 -181.456)" fill="#31d3f5"/>
      <path id="Path_3129" data-name="Path 3129" d="M1417.234,327.934a.606.606,0,0,1-.491-.249L1400.3,305.227a19.78,19.78,0,0,1-1.252-21.373.609.609,0,0,1,1.06.6,18.559,18.559,0,0,0,1.173,20.055l16.441,22.458a.608.608,0,0,1-.49.968" transform="translate(-1010.997 -205.294)" fill="#fff"/>
      <path id="Path_3130" data-name="Path 3130" d="M1533.637,338.9a.608.608,0,0,1-.156-1.2l20.973-5.566a18.56,18.56,0,0,0,13.772-17.771l.132-19.179,1.217.009-.132,19.178a19.781,19.781,0,0,1-14.676,18.94l-20.973,5.566a.629.629,0,0,1-.157.02" transform="translate(-1109.837 -213.721)"/>
      <path id="Path_3131" data-name="Path 3131" d="M1303.144,325.463a.593.593,0,0,1-.2-.035l-64.369-22.745a.608.608,0,0,1-.371-.776l1.2-3.4a.608.608,0,0,1,.776-.371l19.8,7a6.624,6.624,0,0,0,5.04-.273l.451-.217a16.355,16.355,0,0,0,8.39-9.349l23.574-66.675a18.914,18.914,0,0,0-2.573-17.488l-16.441-22.457a28.784,28.784,0,0,1,.711-34.864l30.555-38.348a.605.605,0,0,1,.679-.194l54.537,19.271a.607.607,0,0,1,.406.578l-.337,49.025a28.791,28.791,0,0,1-21.361,27.568L1316.7,218.85a18.918,18.918,0,0,0-12.995,11.987l-23.573,66.675a16.349,16.349,0,0,0,.65,12.543l.214.452a6.685,6.685,0,0,0,.558.957.608.608,0,0,1-1,.7,7.815,7.815,0,0,1-.661-1.134l-.214-.452a17.553,17.553,0,0,1-.7-13.47l23.574-66.675a20.136,20.136,0,0,1,13.829-12.758l26.905-7.141a27.569,27.569,0,0,0,20.456-26.4l.334-48.592-53.719-18.982-30.285,38.009a27.566,27.566,0,0,0-.682,33.387l16.441,22.457a20.13,20.13,0,0,1,2.739,18.612L1275.007,295.7a17.562,17.562,0,0,1-9.01,10.04l-.451.217a7.84,7.84,0,0,1-5.973.323l-19.226-6.793-.8,2.252,63.222,22.339.8-2.252-8.808-3.113a.608.608,0,1,1,.405-1.147l9.383,3.315a.608.608,0,0,1,.371.776l-1.2,3.4a.609.609,0,0,1-.574.406" transform="translate(-896.371 -83.431)"/>
      <path id="Path_3132" data-name="Path 3132" d="M1405.857,832.89a.6.6,0,0,1-.2-.035l-10.417-3.681a7.747,7.747,0,0,1-3.781-2.87.608.608,0,0,1,1-.7,6.545,6.545,0,0,0,3.191,2.422l10.417,3.681a.608.608,0,0,1-.2,1.182" transform="translate(-1007.265 -597.573)" fill="#fff"/>
      <path id="Path_3133" data-name="Path 3133" d="M1607.457,38.362l-19.874-19.036a1.124,1.124,0,0,1,1.09-1.89l21,6.084a1.124,1.124,0,0,0,1.435-1.014l1.125-19.242a1.124,1.124,0,0,1,2.127-.437l12.092,24.165a1.124,1.124,0,0,0,1.839.251l14.917-16.479a1.124,1.124,0,0,1,1.888,1.143L1637.9,31.425a1.123,1.123,0,0,0,.995,1.51l13.444.719a1.123,1.123,0,0,1,.533,2.076l-15.692,9.745a1.123,1.123,0,0,0-.268,1.677l16.316,19.433a1.124,1.124,0,0,1-1.405,1.706l-22.228-12.3a1.124,1.124,0,0,0-1.648.769l-2.927,15.05a1.124,1.124,0,0,1-2.175.124l-4.465-14.14a1.124,1.124,0,0,0-1.9-.421l-21.5,23.466a1.124,1.124,0,0,1-1.814-1.3L1607.8,52.882a1.124,1.124,0,0,0-.953-1.664l-15.812-.447a1.124,1.124,0,0,1-.478-2.124l16.633-8.472a1.123,1.123,0,0,0,.267-1.813" transform="translate(-1149.076 -1.596)" fill="#dfe3e8"/>
      <path id="Path_3134" data-name="Path 3134" d="M1592.561,80.225a1.746,1.746,0,0,1-1.019-.338,1.693,1.693,0,0,1-.51-2.241l14.639-26.653a.515.515,0,0,0-.437-.763l-15.812-.448a1.732,1.732,0,0,1-.738-3.275l16.633-8.472a.516.516,0,0,0,.123-.832l-19.874-19.036a1.732,1.732,0,0,1,1.68-2.914l21,6.084a.5.5,0,0,0,.441-.074.516.516,0,0,0,.218-.392l1.125-19.242a1.733,1.733,0,0,1,3.279-.674L1625.4,25.124a.516.516,0,0,0,.843.115L1641.16,8.76a1.732,1.732,0,0,1,2.91,1.761l-7.193,19.519a.515.515,0,0,0,.456.692l13.444.719a1.732,1.732,0,0,1,.821,3.2L1635.906,44.4a.515.515,0,0,0-.123.769L1652.1,64.6a1.732,1.732,0,0,1-2.166,2.629l-22.228-12.3a.515.515,0,0,0-.756.352l-2.926,15.05a1.733,1.733,0,0,1-3.353.192L1616.2,56.376a.515.515,0,0,0-.871-.193l-21.5,23.467a1.713,1.713,0,0,1-1.267.575M1586.744,16.4a.505.505,0,0,0-.428.261.5.5,0,0,0,.09.63l19.874,19.036a1.731,1.731,0,0,1-.412,2.794l-16.633,8.472a.516.516,0,0,0,.219.974l15.812.447a1.733,1.733,0,0,1,1.47,2.565L1592.1,78.232a.515.515,0,0,0,.831.6l21.5-23.466a1.733,1.733,0,0,1,2.929.648l4.465,14.141a.516.516,0,0,0,1-.058l2.926-15.049a1.733,1.733,0,0,1,2.54-1.185l22.228,12.3a.516.516,0,0,0,.645-.782l-16.316-19.433a1.731,1.731,0,0,1,.413-2.584l15.692-9.745a.515.515,0,0,0-.245-.952l-13.444-.719a1.733,1.733,0,0,1-1.533-2.328l7.193-19.519a.516.516,0,0,0-.866-.524l-14.917,16.479a1.733,1.733,0,0,1-2.834-.387L1612.218,1.5a.516.516,0,0,0-.976.2l-1.125,19.242a1.732,1.732,0,0,1-2.211,1.563l-21-6.084a.58.58,0,0,0-.162-.024" transform="translate(-1147.479 0)"/>
      <path id="Path_3135" data-name="Path 3135" d="M1358.422,552.638h19.563a22.364,22.364,0,0,1,13.491,4.527l12.588,9.521a10.574,10.574,0,0,1,2.071,14.792l-4.145,5.509-29.162-22.968h-14.406a5.35,5.35,0,0,1-5.351-5.35v-.681a5.351,5.351,0,0,1,5.351-5.35" transform="translate(-979.556 -400.124)" fill="#dfe3e8"/>
      <path id="Path_3136" data-name="Path 3136" d="M1335.737,593.877h22.1a25.065,25.065,0,0,1,15.107,5.064l12.876,9.726a10.574,10.574,0,0,1,2.069,14.807l-3.5,4.639-20.883-22.855h-27.773a5.49,5.49,0,0,1-5.49-5.489v-.4a5.49,5.49,0,0,1,5.49-5.489" transform="translate(-963.033 -429.982)" fill="#dfe3e8"/>
      <path id="Path_3137" data-name="Path 3137" d="M1403.927,581.3a.608.608,0,0,1-.486-.974l.61-.81a9.983,9.983,0,0,0-1.953-13.941l-12.587-9.521a21.883,21.883,0,0,0-13.123-4.4h-19.563a4.748,4.748,0,0,0-4.743,4.742v.681a4.748,4.748,0,0,0,4.743,4.742h14.405a.608.608,0,1,1,0,1.217h-14.405a5.966,5.966,0,0,1-5.96-5.958v-.681a5.966,5.966,0,0,1,5.96-5.958h19.563a23.111,23.111,0,0,1,13.858,4.65l12.587,9.521a11.2,11.2,0,0,1,2.19,15.643l-.61.81a.607.607,0,0,1-.487.242" transform="translate(-977.959 -398.528)"/>
      <path id="Path_3138" data-name="Path 3138" d="M1297.921,635.116h38.223l21.065,15.911a10.241,10.241,0,0,1,2,14.341l-.287.381-.181.241a5.409,5.409,0,0,1-4.322,2.156h-15.161l-5.845-21.649h-35.5a5.515,5.515,0,0,1-5.515-5.514v-.353a5.515,5.515,0,0,1,5.515-5.514" transform="translate(-935.638 -459.841)" fill="#fda4ff"/>
      <path id="Path_3139" data-name="Path 3139" d="M1297.921,635.116h31.88a18.921,18.921,0,0,1,11.4,3.823l16,12.089a10.241,10.241,0,0,1,2,14.341l-.287.381-.181.241a5.409,5.409,0,0,1-4.322,2.156h-15.161l-3.422-12.674c-.913-7.143-6.235-8.975-11.722-8.975h-26.2a5.515,5.515,0,0,1-5.515-5.514v-.353a5.515,5.515,0,0,1,5.515-5.514" transform="translate(-935.638 -459.841)" fill="#dfe3e8"/>
      <path id="Path_3140" data-name="Path 3140" d="M1334.968,674.586h-7.79a.608.608,0,1,1,0-1.217h7.79a17.154,17.154,0,0,0,13.826-7.1.878.878,0,0,1,.152-.179.61.61,0,0,1,.4-.147h3.486a4.826,4.826,0,0,0,3.836-1.913l.469-.622a9.647,9.647,0,0,0-1.884-13.49l-16-12.088a18.422,18.422,0,0,0-11.038-3.7h-31.88a4.912,4.912,0,0,0-4.907,4.905v.354a4.912,4.912,0,0,0,4.907,4.905h24.306a.608.608,0,1,1,0,1.216h-24.306a6.129,6.129,0,0,1-6.124-6.122v-.354a6.129,6.129,0,0,1,6.124-6.122h31.88a19.642,19.642,0,0,1,11.771,3.946l16,12.088a10.865,10.865,0,0,1,2.123,15.193l-.469.622a6.047,6.047,0,0,1-4.807,2.4h-3.179a18.381,18.381,0,0,1-14.682,7.427" transform="translate(-934.043 -458.246)"/>
      <path id="Path_3141" data-name="Path 3141" d="M1385.772,623.181a.609.609,0,0,1-.485-.975l.524-.695a9.979,9.979,0,0,0-1.951-13.955l-12.876-9.726a24.6,24.6,0,0,0-14.74-4.941h-22.1a4.887,4.887,0,0,0-4.882,4.88v.4a4.887,4.887,0,0,0,4.882,4.881H1352.6a.608.608,0,1,1,0,1.217H1334.14a6.105,6.105,0,0,1-6.1-6.1v-.4a6.105,6.105,0,0,1,6.1-6.1h22.1a25.824,25.824,0,0,1,15.474,5.187l12.876,9.726a11.2,11.2,0,0,1,2.189,15.659l-.525.695a.606.606,0,0,1-.486.242" transform="translate(-961.436 -428.387)"/>
      <path id="Path_3142" data-name="Path 3142" d="M1354.3,693.564a.6.6,0,0,1-.366-.123l-5.989-4.519a10.837,10.837,0,0,0-6.49-2.174h-22.8a6.171,6.171,0,0,1-6.165-6.164v-.271a6.171,6.171,0,0,1,6.165-6.163h22.783a20.266,20.266,0,0,1,12.142,4.07l5.383,4.066a.608.608,0,0,1-.734.971l-5.383-4.066a19.041,19.041,0,0,0-11.409-3.824h-22.783a4.953,4.953,0,0,0-4.948,4.946v.271a4.953,4.953,0,0,0,4.948,4.947h22.8a12.059,12.059,0,0,1,7.223,2.42l5.989,4.52a.608.608,0,0,1-.367,1.094" transform="translate(-950.178 -488.102)"/>
      <path id="Path_3143" data-name="Path 3143" d="M1364.231,776.967a.609.609,0,0,1-.581-.428l-12.307-39.726a69.452,69.452,0,0,1-3.087-18.677l-.058-2.171a.609.609,0,0,1,.592-.625.625.625,0,0,1,.625.592l.058,2.171a68.25,68.25,0,0,0,3.032,18.35l12.307,39.726a.609.609,0,0,1-.581.788" transform="translate(-976.028 -517.925)"/>
      <path id="Path_3144" data-name="Path 3144" d="M950.24,896.091l-75.613-60.851v81.767H835.96l-15.737-15.678-15.8,15.678H752.6l.1-155.825a66.061,66.061,0,0,1,37.846-11.9l23.185-.006h26.746a36.057,36.057,0,0,1,20.058,6.1l.061.042c.833.56,1.649,1.162,2.44,1.795l63.959,51.347-7.388-23.873,51.4-15.9,28.943,93.557c9.158,29.61-25.566,53.179-49.713,33.747" transform="translate(-544.846 -542.495)" fill="#fff"/>
      <path id="Path_3145" data-name="Path 3145" d="M873.032,916.021H834.364a.606.606,0,0,1-.43-.178l-15.308-15.251-15.369,15.252a.609.609,0,0,1-.429.176H751a.608.608,0,0,1-.609-.609l.1-155.825a.609.609,0,0,1,.26-.5,66.355,66.355,0,0,1,38.165-12.009h.03l49.931-.006a36.541,36.541,0,0,1,20.4,6.2l.06.042c.823.553,1.658,1.166,2.482,1.825l62.41,50.1-6.8-21.974a.607.607,0,0,1,.4-.761l51.4-15.9a.608.608,0,0,1,.761.4l28.943,93.558a32.024,32.024,0,0,1-50.676,34.4L873.64,834.916v80.5a.608.608,0,0,1-.609.608M834.615,914.8h37.807V833.645a.608.608,0,0,1,.99-.474l75.612,60.851a30.807,30.807,0,0,0,48.75-33.093l-28.764-92.976L918.77,783.49l7.208,23.291a.608.608,0,0,1-.962.654l-63.958-51.348c-.8-.636-1.605-1.231-2.4-1.763l-.057-.04a35.33,35.33,0,0,0-19.722-5.995l-49.932.006h-.029a65.129,65.129,0,0,0-37.209,11.61l-.1,154.9h50.965l15.62-15.5a.609.609,0,0,1,.858,0Z" transform="translate(-543.249 -540.9)"/>
      <path id="Path_3146" data-name="Path 3146" d="M1475.49,1203.5c23,16.053,53.962-4.459,48.7-31.553-.819-.04-1.643-.062-2.473-.062a49.609,49.609,0,0,0-46.229,31.615" transform="translate(-1068.182 -848.476)"/>
      <path id="Path_3147" data-name="Path 3147" d="M1435.058,856.2a.608.608,0,0,1-.2-.035l-14.069-4.971a.608.608,0,1,1,.405-1.147l13.5,4.768.8-2.252-8.808-3.113a.608.608,0,1,1,.405-1.147l9.383,3.315a.608.608,0,0,1,.371.776l-1.2,3.4a.608.608,0,0,1-.574.406" transform="translate(-1028.284 -614.172)"/>
      <path id="Path_3148" data-name="Path 3148" d="M1386.557,843.635a.606.606,0,0,1-.2-.035l-13.129-4.639a.608.608,0,1,1,.405-1.147l13.129,4.64a.608.608,0,0,1-.2,1.182" transform="translate(-993.853 -606.573)" fill="#fff"/>
      <path id="Path_3149" data-name="Path 3149" d="M1026.608,755.356a36.057,36.057,0,0,0-20.058-6.1H982l25.383-.006a33.17,33.17,0,0,1,19.224,6.1" transform="translate(-710.92 -542.48)" fill="#fff"/>
      <path id="Path_3150" data-name="Path 3150" d="M1025.011,754.368a.609.609,0,0,1-.338-.1,35.325,35.325,0,0,0-19.719-5.993H980.4a.608.608,0,1,1,0-1.217l25.382-.007a33.713,33.713,0,0,1,19.576,6.214.609.609,0,0,1-.352,1.1" transform="translate(-709.324 -540.883)"/>
      <path id="Path_3151" data-name="Path 3151" d="M994.82,795.7a.608.608,0,0,1-.609-.608v-8.325a.609.609,0,0,1,1.217,0v8.325a.608.608,0,0,1-.608.608" transform="translate(-719.759 -569.199)"/>
      <path id="Path_3152" data-name="Path 3152" d="M994.82,1112.131a.608.608,0,0,1-.609-.609v-64.285a.609.609,0,0,1,1.217,0v64.285a.608.608,0,0,1-.608.609" transform="translate(-719.759 -757.787)"/>
      <path id="Path_3153" data-name="Path 3153" d="M1048.635,1219.724a.608.608,0,1,1,0-1.217,16.621,16.621,0,0,0,16.6-16.6v-14.491h-32.567a.608.608,0,1,1,0-1.217h33.176a.608.608,0,0,1,.608.609v15.1a17.839,17.839,0,0,1-17.821,17.817" transform="translate(-747.162 -858.839)"/>
      <path id="Path_3154" data-name="Path 3154" d="M868.2,732.227V691.294l35.328,20.466Z" transform="translate(-628.537 -500.515)"/>
      <path id="Path_3155" data-name="Path 3155" d="M1031.432,732.227V691.294L996.1,711.761Z" transform="translate(-721.13 -500.515)"/>
      <path id="Path_3156" data-name="Path 3156" d="M980.2,739.691a9.823,9.823,0,1,1-9.823-9.82,9.822,9.822,0,0,1,9.823,9.82" transform="translate(-695.397 -528.446)"/>
      <path id="Path_3157" data-name="Path 3157" d="M1124.985,844.764l5.357-1.522a18.286,18.286,0,0,0,8.783-5.57l12.74-14.605a5.1,5.1,0,0,1,7.994,6.315l-12.617,17.659a13.116,13.116,0,0,1-3.81,3.553l-8.053,4.944Z" transform="translate(-814.433 -594.657)" fill="#dfe3e8"/>
      <path id="Path_3158" data-name="Path 3158" d="M975.038,796.118a5.722,5.722,0,0,0-6.955-3.758l-9.925,3.063-.181-.516a6.416,6.416,0,0,0-7.331-4.161l-18.9,3.842a25.7,25.7,0,0,1-14.025-.794l-8.8-3.047,11.668-15.24a5.48,5.48,0,0,0-.922-7.605l-.489-.393a5.484,5.484,0,0,0-7.561.668l-3.848,4.4a57.932,57.932,0,0,1-11.442,10.054c-3.732,2.493-8.121,5.5-10.111,7.133a14.575,14.575,0,0,0-5.03,15.646l-28.982,16.635,17.268,28.782L907.4,829.063l64.335-25.88a5.717,5.717,0,0,0,3.305-7.065" transform="translate(-616.955 -554.823)" fill="#dfe3e8"/>
      <path id="Path_3159" data-name="Path 3159" d="M868.71,934.339l-16.5,9.372,17.268,28.782,22.49-12.807Z" transform="translate(-616.954 -676.486)"/>
      <path id="Path_3160" data-name="Path 3160" d="M1094.292,834.5l5.031-2.386a18.283,18.283,0,0,0,7.741-6.945l10.15-16.51a5.1,5.1,0,0,1,8.929,4.907l-9.524,19.5a13.107,13.107,0,0,1-3.17,4.133l-7.124,6.207Z" transform="translate(-792.213 -583.73)" fill="#dfe3e8"/>
      <path id="Path_3161" data-name="Path 3161" d="M1142.84,822.459a.608.608,0,0,1-.518-.927l9.079-14.769a5.708,5.708,0,0,1,9.994,5.492l-2.222,4.629a.608.608,0,0,1-1.1-.527l2.224-4.632a4.492,4.492,0,0,0-7.862-4.325l-9.079,14.769a.606.606,0,0,1-.518.29" transform="translate(-826.919 -582.154)"/>
      <path id="Path_3162" data-name="Path 3162" d="M867.878,849.827a.608.608,0,0,1-.522-.3L850.088,820.75a.608.608,0,0,1,.22-.841c9.1-5.2,25.866-14.807,28.578-16.393a15.232,15.232,0,0,1,5.35-15.83c2.055-1.69,6.659-4.83,10.158-7.168a57.355,57.355,0,0,0,11.322-9.95l3.848-4.4a6.077,6.077,0,0,1,8.4-.741l.49.392a6.123,6.123,0,0,1,1.023,8.449l-11.155,14.571,8,2.772a29.106,29.106,0,0,0,14.793.69.608.608,0,0,1,.266,1.187,30.417,30.417,0,0,1-15.457-.727l-8.8-3.047a.608.608,0,0,1-.284-.945l11.667-15.24a4.9,4.9,0,0,0-.819-6.76l-.49-.393a4.864,4.864,0,0,0-6.721.593l-3.849,4.4a58.579,58.579,0,0,1-11.562,10.16c-4.985,3.33-8.465,5.784-10.062,7.1a13.872,13.872,0,0,0-4.831,15.009c.136.463.136.463-1.522,1.422-.791.458-1.923,1.11-3.283,1.891-2.717,1.562-6.34,3.64-9.963,5.716-6.074,3.481-12.149,6.957-13.957,7.992l16.641,27.737,37.4-21.469a.609.609,0,0,1,.076-.037l64.336-25.88a5.112,5.112,0,0,0-3.262-9.672l-9.906,3.057a.608.608,0,1,1-.359-1.162l9.925-3.063a6.329,6.329,0,0,1,4.056,11.969L906.067,828l-37.886,21.745a.609.609,0,0,1-.3.081" transform="translate(-615.359 -553.212)"/>
      <path id="Path_3163" data-name="Path 3163" d="M1063.625,870.055a43.851,43.851,0,0,1-14.381-2.438l-9.649-3.612a.608.608,0,1,1,.427-1.14l9.635,3.606a42.447,42.447,0,0,0,26.629.436l26.992-8.362a.608.608,0,1,1,.36,1.162l-26.992,8.362a43.959,43.959,0,0,1-13.021,1.984" transform="translate(-752.329 -621.591)"/>
      <path id="Path_3164" data-name="Path 3164" d="M1039.807,859.311a.6.6,0,0,1-.366-.123.608.608,0,0,1-.119-.852l4.62-6.111a.608.608,0,0,1,.971.733l-4.62,6.111a.607.607,0,0,1-.486.242" transform="translate(-752.329 -616.858)"/>
      <path id="Path_3165" data-name="Path 3165" d="M1168.064,834.306a.608.608,0,0,1-.494-.962l4.206-5.887a4.491,4.491,0,0,0-7.04-5.561l-3.564,4.121a17.687,17.687,0,0,1-10.059,5.788l-8.261,1.559a.608.608,0,1,1-.226-1.2l8.261-1.559a16.461,16.461,0,0,0,9.363-5.388l3.566-4.123a5.708,5.708,0,0,1,8.95,7.067l-4.206,5.887a.608.608,0,0,1-.5.255" transform="translate(-826.846 -593.086)"/>
      <path id="Path_3166" data-name="Path 3166" d="M570.7,795.988l-14.5,8.249v-51.2a66.021,66.021,0,0,0-37.757,21.131l-65.1,73.24c-24.1,27.117,8.3,67.1,39.837,49.157l98.792-56.183-24.172-42.451Z" transform="translate(-322.137 -545.221)" fill="#fff"/>
      <path id="Path_3167" data-name="Path 3167" d="M487.591,1170.576a49.611,49.611,0,0,0-40.1-42.667c-10.535,24.221,13.9,52.1,40.1,42.667" transform="translate(-322.148 -816.636)"/>
      <path id="Path_3168" data-name="Path 3168" d="M475.488,897.362c-10.306,0-19.37-5.285-25.128-12.39-8.689-10.722-11.761-27.949.963-42.264l65.1-73.24A66.688,66.688,0,0,1,566.225,747.1h.031l13.966.006a.608.608,0,1,1,0,1.217l-13.967-.006h-.031a65.466,65.466,0,0,0-48.9,21.958l-65.1,73.24c-12.25,13.783-9.292,30.368-.927,40.69s23.981,16.655,40.008,7.535l98-55.914-23.574-41.4-73.026,40.055a.608.608,0,1,1-.585-1.067l73.551-40.343a.609.609,0,0,1,.822.232l24.172,42.451a.609.609,0,0,1-.227.83L491.916,892.8a32.988,32.988,0,0,1-16.428,4.565" transform="translate(-320.559 -540.921)"/>
      <path id="Path_3169" data-name="Path 3169" d="M844.64,1187.416H811.464a.608.608,0,1,1,0-1.217H844.64a.608.608,0,1,1,0,1.217" transform="translate(-587.019 -858.839)"/>
      <path id="Path_3170" data-name="Path 3170" d="M1145.059,204.937h-.03a1.682,1.682,0,0,1-1.634-1.32l-3.517-15.192a.488.488,0,0,0-.737-.3l-15.545,9.823a1.706,1.706,0,0,1-2.323-2.4l9.28-13.654a.488.488,0,0,0-.238-.734l-15.93-5.752a1.7,1.7,0,0,1,.291-3.284l16.9-2.9a.489.489,0,0,0,.333-.74l-8.738-14.045a1.706,1.706,0,0,1,2.354-2.347l14.9,9.3a.489.489,0,0,0,.74-.331l3.093-17.68a1.706,1.706,0,0,1,3.3-.235l5.428,16.639a.488.488,0,0,0,.7.277l9.069-4.932a1.706,1.706,0,0,1,2.471,1.908l-2.12,8.56a.489.489,0,0,0,.475.606h0l10.419-.05h.01a1.705,1.705,0,0,1,.98,3.1l-14.58,10.25a.487.487,0,0,0-.129.665l9.728,15.021a1.706,1.706,0,0,1-2.249,2.424l-16.433-8.964a.481.481,0,0,0-.427-.02.486.486,0,0,0-.279.323l-3.913,14.712a1.682,1.682,0,0,1-1.647,1.267m-5.657-18.108a1.705,1.705,0,0,1,1.662,1.321l3.517,15.192a.47.47,0,0,0,.468.378.483.483,0,0,0,.48-.363l3.913-14.712a1.707,1.707,0,0,1,2.466-1.059l16.433,8.964a.489.489,0,0,0,.644-.7l-9.728-15.02a1.7,1.7,0,0,1,.45-2.322l14.58-10.25a.489.489,0,0,0-.281-.888h0l-10.419.05h-.009a1.705,1.705,0,0,1-1.656-2.115l2.12-8.56a.488.488,0,0,0-.708-.546l-9.069,4.932a1.706,1.706,0,0,1-2.437-.97l-5.428-16.639a.488.488,0,0,0-.945.067l-3.093,17.681a1.707,1.707,0,0,1-2.585,1.152l-14.9-9.3a.489.489,0,0,0-.674.673l8.738,14.045a1.706,1.706,0,0,1-1.16,2.581l-16.9,2.9a.489.489,0,0,0-.083.941l15.929,5.752a1.706,1.706,0,0,1,.832,2.562l-9.28,13.654a.488.488,0,0,0,.666.687l15.545-9.823a1.71,1.71,0,0,1,.911-.263" transform="translate(-805.943 -102.792)"/>
      <path id="Path_3171" data-name="Path 3171" d="M638.442,391.119a26.552,26.552,0,0,1,5.65,11.121,26.55,26.55,0,0,1,5.651-11.121A26.546,26.546,0,0,1,644.092,380a26.549,26.549,0,0,1-5.65,11.121" transform="translate(-462.2 -275.129)" fill="#31d3f5"/>
      <path id="Path_3172" data-name="Path 3172" d="M679.38,130.115a26.552,26.552,0,0,1,5.65,11.121,26.549,26.549,0,0,1,5.651-11.121,26.545,26.545,0,0,1-5.651-11.121,26.549,26.549,0,0,1-5.65,11.121" transform="translate(-491.837 -86.155)" fill="#31d3f5"/>
      <path id="Path_3173" data-name="Path 3173" d="M745.827,233.021a49.065,49.065,0,0,1,10.442,20.551,49.063,49.063,0,0,1,10.441-20.551,49.059,49.059,0,0,1-10.441-20.551,49.061,49.061,0,0,1-10.442,20.551" transform="translate(-539.942 -153.834)" fill="#31d3f5"/>
      <path id="Path_3174" data-name="Path 3174" d="M1332.881,1580.569l-13.894-22.886L1293.531,1566l29.368-79.257,39.35,14.573Z" transform="translate(-936.452 -1076.438)" fill="#31d3f5"/>
      <path id="Path_3175" data-name="Path 3175" d="M1614.551,1548.748l-25.608-7.829-13.458,23.145-30.866-78.686,39.066-15.316Z" transform="translate(-1118.227 -1064.364)" fill="#31d3f5"/>
      <path id="Path_3176" data-name="Path 3176" d="M1329.121,1132.12l16.592,19.719,22.379-12.785,4.507,25.371,25.775.115-8.786,24.225,22.264,12.983-19.724,16.588,12.788,22.373-25.378,4.506-.115,25.768-24.231-8.783-12.986,22.258-16.592-19.719-22.379,12.785-4.507-25.371-25.775-.114,8.786-24.225-22.264-12.983,19.724-16.588-12.788-22.373,25.378-4.506.115-25.768,24.231,8.783Z" transform="translate(-911.798 -819.684)" fill="#dfe3e8"/>
      <path id="Path_3177" data-name="Path 3177" d="M1340.611,1283.465a.609.609,0,0,1-.466-.217l-16.265-19.33-21.938,12.533a.609.609,0,0,1-.9-.422l-4.419-24.871-25.267-.112a.609.609,0,0,1-.57-.816l8.613-23.748-21.825-12.727a.609.609,0,0,1-.085-.991l19.335-16.26-12.536-21.932a.609.609,0,0,1,.422-.9l24.878-4.417.112-25.26a.608.608,0,0,1,.816-.569l23.755,8.61,12.73-21.82a.61.61,0,0,1,.474-.3.594.594,0,0,1,.518.214l16.266,19.33,21.938-12.533a.608.608,0,0,1,.9.422l4.419,24.871,25.267.112a.609.609,0,0,1,.57.816l-8.613,23.748,21.826,12.727a.609.609,0,0,1,.085.991l-19.335,16.261,12.536,21.932a.608.608,0,0,1-.422.9l-24.877,4.418-.112,25.26a.608.608,0,0,1-.816.569l-23.754-8.61-12.73,21.82a.61.61,0,0,1-.474.3l-.052,0m-16.593-20.936a.608.608,0,0,1,.467.217l16.036,19.057,12.551-21.512a.61.61,0,0,1,.733-.266l23.419,8.489.111-24.9a.609.609,0,0,1,.5-.6l24.527-4.355-12.359-21.623a.608.608,0,0,1,.137-.767l19.063-16.032-21.518-12.548a.609.609,0,0,1-.265-.733l8.492-23.412-24.911-.111a.609.609,0,0,1-.6-.5l-4.356-24.52-21.628,12.356a.609.609,0,0,1-.768-.137l-16.036-19.057-12.551,21.512a.609.609,0,0,1-.733.265l-23.419-8.489-.111,24.9a.609.609,0,0,1-.5.6l-24.528,4.355,12.36,21.623a.608.608,0,0,1-.137.768l-19.062,16.032,21.517,12.548a.609.609,0,0,1,.266.733l-8.491,23.413,24.911.111a.609.609,0,0,1,.6.5l4.356,24.52,21.629-12.356a.606.606,0,0,1,.3-.08" transform="translate(-910.202 -818.086)"/>
      <path id="Path_3178" data-name="Path 3178" d="M1414.105,1333.056a46.35,46.35,0,1,1,4.036-.173q-2.025.174-4.036.173m.112-91.253q-1.929,0-3.885.167a45.008,45.008,0,1,0,3.885-.167" transform="translate(-990.318 -898.217)"/>
      <rect id="Rectangle_907" data-name="Rectangle 907" width="2.371" height="16.581" transform="translate(405.959 365.925)"/>
      <path id="Path_3179" data-name="Path 3179" d="M1491.727,1340.129l.877-1.848a8.548,8.548,0,0,0,5.478,1.919c2.869,0,4.1-1.113,4.1-2.558,0-4.05-10.054-1.492-10.054-7.651,0-2.558,1.991-4.738,6.354-4.738a9.776,9.776,0,0,1,5.336,1.469l-.783,1.895a8.576,8.576,0,0,0-4.553-1.35c-2.822,0-4.031,1.184-4.031,2.629,0,4.051,10.054,1.516,10.054,7.6,0,2.534-2.04,4.714-6.426,4.714a9.858,9.858,0,0,1-6.354-2.084" transform="translate(-1079.936 -959.518)"/>
      <path id="Path_3180" data-name="Path 3180" d="M1545.659,1333.733c0-4.856,3.746-8.48,8.844-8.48,5.051,0,8.8,3.6,8.8,8.48s-3.746,8.48-8.8,8.48c-5.1,0-8.844-3.624-8.844-8.48m15.27,0a6.45,6.45,0,1,0-6.426,6.372,6.228,6.228,0,0,0,6.426-6.372" transform="translate(-1118.98 -959.518)"/>
      <path id="Path_3181" data-name="Path 3181" d="M1453.326,1427.916c0,5.661-3.2,8.693-7.849,8.693a8,8,0,0,1-4.126-.971l.9-1.848a5.843,5.843,0,0,0,3.2.782c3.367,0,5.5-2.108,5.5-6.253v-.592a5.542,5.542,0,0,1-4.79,2.179c-3.3,0-5.667-1.966-5.667-5.021,0-3.2,2.561-5.235,5.857-5.235,4.458,0,6.971,2.985,6.971,8.267m-2.917-3.151c0-1.705-1.375-3.2-3.96-3.2-2.158,0-3.652,1.255-3.652,3.221,0,1.942,1.447,3.2,3.77,3.2,2.276,0,3.841-1.4,3.841-3.221" transform="translate(-1042.849 -1027.863)"/>
      <path id="Path_3182" data-name="Path 3182" d="M1495.2,1428.129c0-5.4,2.892-8.48,6.781-8.48,3.865,0,6.758,3.08,6.758,8.48s-2.892,8.48-6.758,8.48c-3.889,0-6.781-3.08-6.781-8.48m11.168,0c0-4.24-1.8-6.372-4.387-6.372-2.608,0-4.41,2.132-4.41,6.372s1.8,6.372,4.41,6.372c2.585,0,4.387-2.132,4.387-6.372" transform="translate(-1082.454 -1027.863)"/>
      <path id="Path_3183" data-name="Path 3183" d="M1552.485,1428.129c0-5.4,2.892-8.48,6.781-8.48,3.865,0,6.758,3.08,6.758,8.48s-2.892,8.48-6.758,8.48c-3.889,0-6.781-3.08-6.781-8.48m11.168,0c0-4.24-1.8-6.372-4.387-6.372-2.608,0-4.41,2.132-4.41,6.372s1.8,6.372,4.41,6.372c2.585,0,4.387-2.132,4.387-6.372" transform="translate(-1123.922 -1027.863)"/>
      <path id="Path_3184" data-name="Path 3184" d="M1612.168,1420.336v16.581h-2.347V1422.4h-3.747v-2.061Z" transform="translate(-1162.718 -1028.361)"/>
    </g>
  </g>
</svg>
