<svg id="Group_1833" data-name="Group 1833" xmlns="http://www.w3.org/2000/svg" xmlns:xlink="http://www.w3.org/1999/xlink" width="613" height="615" viewBox="0 0 613 615">
  <defs>
    <clipPath id="clip-path">
      <rect id="Rectangle_921" data-name="Rectangle 921" width="613" height="615" fill="none"/>
    </clipPath>
  </defs>
  <rect id="Rectangle_909" data-name="Rectangle 909" width="158.885" height="143.046" transform="translate(190.423 103.956)" fill="#fff"/>
  <rect id="Rectangle_910" data-name="Rectangle 910" width="21.667" height="51.488" transform="translate(288.063 192.842)" fill="#31d3f5"/>
  <g id="Group_1832" data-name="Group 1832">
    <g id="Group_1831" data-name="Group 1831" clip-path="url(#clip-path)">
      <path id="Path_3185" data-name="Path 3185" d="M888.193,626.37a.552.552,0,0,1-.552-.552V575.139a.552.552,0,0,1,1.1,0v50.679a.552.552,0,0,1-.552.552" transform="translate(-589.296 -381.488)"/>
      <path id="Path_3186" data-name="Path 3186" d="M877.69,651.092H856.149a.552.552,0,0,1,0-1.1H877.69a.552.552,0,1,1,0,1.1" transform="translate(-568.023 -431.549)"/>
      <path id="Path_3187" data-name="Path 3187" d="M778.172,625.31H756.5V577.844l21.67-4.022Z" transform="translate(-502.234 -380.98)" fill="#31d3f5"/>
      <path id="Path_3188" data-name="Path 3188" d="M787.648,628.755a.552.552,0,0,1-.552-.552V578.73a.552.552,0,0,1,1.1,0V628.2a.552.552,0,0,1-.552.552" transform="translate(-522.546 -383.872)"/>
      <path id="Path_3189" data-name="Path 3189" d="M777.145,651.092H755.6a.552.552,0,0,1,0-1.1h21.541a.552.552,0,0,1,0,1.1" transform="translate(-501.272 -431.549)"/>
      <path id="Path_3190" data-name="Path 3190" d="M967.293,625.31h-21.67V573.822l21.67,4.022Z" transform="translate(-627.79 -380.98)" fill="#31d3f5"/>
      <path id="Path_3191" data-name="Path 3191" d="M976.769,628.755a.552.552,0,0,1-.552-.552V578.73a.552.552,0,0,1,1.1,0V628.2a.552.552,0,0,1-.552.552" transform="translate(-648.101 -383.872)"/>
      <path id="Path_3192" data-name="Path 3192" d="M966.265,651.092H944.724a.552.552,0,0,1,0-1.1h21.541a.552.552,0,0,1,0,1.1" transform="translate(-626.827 -431.549)"/>
      <path id="Path_3193" data-name="Path 3193" d="M724.339,451.838H565.434a.552.552,0,0,1-.552-.552V308.24a.552.552,0,0,1,.552-.552H724.339a.552.552,0,0,1,.552.552V451.285a.552.552,0,0,1-.552.552m-158.353-1.1h157.8V308.792h-157.8Z" transform="translate(-375.02 -204.285)" fill="#c1c1c1"/>
      <path id="Path_3194" data-name="Path 3194" d="M839.566,510.479H750.22l3.99-23.935h81.366Z" transform="translate(-498.064 -323.033)" fill="#c1c1c1"/>
      <rect id="Rectangle_911" data-name="Rectangle 911" width="58.709" height="7.405" transform="translate(190.414 241.019)" fill="#fff"/>
      <path id="Path_3195" data-name="Path 3195" d="M624.143,724.043H565.434a.552.552,0,0,1-.552-.552v-7.4a.552.552,0,0,1,.552-.552h58.708a.552.552,0,0,1,.552.552v7.4a.552.552,0,0,1-.552.552m-58.156-1.1h57.6v-6.3h-57.6Z" transform="translate(-375.02 -475.068)"/>
      <rect id="Rectangle_912" data-name="Rectangle 912" width="50.662" height="5.597" transform="translate(194.437 235.586)" fill="#fff"/>
      <path id="Path_3196" data-name="Path 3196" d="M628.066,706.069H577.4a.552.552,0,0,1-.552-.552v-5.6a.552.552,0,0,1,.552-.552h50.663a.552.552,0,0,1,.552.552v5.6a.552.552,0,0,1-.552.552m-50.11-1.1h49.558v-4.492H577.955Z" transform="translate(-382.966 -464.334)"/>
      <rect id="Rectangle_913" data-name="Rectangle 913" width="42.616" height="4.159" transform="translate(198.461 231.392)" fill="#fff"/>
      <path id="Path_3197" data-name="Path 3197" d="M631.989,692.152H589.373a.552.552,0,0,1-.552-.552v-4.16a.552.552,0,0,1,.552-.552h42.616a.552.552,0,0,1,.552.552v4.16a.552.552,0,0,1-.552.552m-42.064-1.1h41.512v-3.055H589.925Z" transform="translate(-390.913 -456.049)"/>
      <path id="Path_3198" data-name="Path 3198" d="M714.262,240.072H534.07l8.046-48.272h164.1Z" transform="translate(-354.564 -127.343)" fill="#c1c1c1"/>
      <path id="Path_3199" data-name="Path 3199" d="M713.171,239.534H532.978a.552.552,0,0,1-.544-.643l8.046-48.272a.552.552,0,0,1,.545-.461h164.1a.552.552,0,0,1,.544.461l8.046,48.272a.552.552,0,0,1-.544.643m-179.541-1.1H712.519l-7.862-47.167H541.492Z" transform="translate(-353.473 -126.252)"/>
      <path id="Path_3200" data-name="Path 3200" d="M657.958,250.346a.552.552,0,0,1-.552-.552V236.82a12.424,12.424,0,0,0-24.848,0v12.974a.552.552,0,0,1-1.1,0V236.82a13.528,13.528,0,0,1,27.056,0v12.974a.552.552,0,0,1-.552.552" transform="translate(-419.216 -148.252)"/>
      <path id="Path_3201" data-name="Path 3201" d="M664.151,261.208H648.662V249.442a7.744,7.744,0,0,1,15.489,0Z" transform="translate(-430.641 -160.472)" fill="#31d3f5"/>
      <path id="Path_3202" data-name="Path 3202" d="M663.061,260.67H647.572a.552.552,0,0,1-.552-.552V248.351a8.3,8.3,0,0,1,16.593,0v11.766a.552.552,0,0,1-.552.552m-14.936-1.1h14.384V248.351a7.192,7.192,0,0,0-14.384,0Z" transform="translate(-429.55 -159.381)"/>
      <path id="Path_3203" data-name="Path 3203" d="M670.612,260.517a.552.552,0,0,1-.552-.552V240.607a.552.552,0,0,1,1.1,0v19.358a.552.552,0,0,1-.552.552" transform="translate(-444.846 -159.381)"/>
      <path id="Path_3204" data-name="Path 3204" d="M662.731,269.961H647.8a.552.552,0,1,1,0-1.1h14.935a.552.552,0,1,1,0,1.1" transform="translate(-429.699 -178.503)"/>
      <path id="Path_3205" data-name="Path 3205" d="M921.291,250.346a.552.552,0,0,1-.552-.552V236.82a12.424,12.424,0,0,0-24.848,0v12.974a.552.552,0,0,1-1.1,0V236.82a13.528,13.528,0,0,1,27.056,0v12.974a.552.552,0,0,1-.552.552" transform="translate(-594.041 -148.252)"/>
      <path id="Path_3206" data-name="Path 3206" d="M927.486,261.208H912V249.442a7.744,7.744,0,0,1,15.489,0Z" transform="translate(-605.466 -160.472)" fill="#31d3f5"/>
      <path id="Path_3207" data-name="Path 3207" d="M926.394,260.67H910.905a.552.552,0,0,1-.552-.552V248.351a8.3,8.3,0,0,1,16.593,0v11.766a.552.552,0,0,1-.552.552m-14.936-1.1h14.384V248.351a7.192,7.192,0,0,0-14.384,0Z" transform="translate(-604.375 -159.381)"/>
      <path id="Path_3208" data-name="Path 3208" d="M933.947,260.517a.552.552,0,0,1-.552-.552V240.607a.552.552,0,0,1,1.1,0v19.358a.552.552,0,0,1-.552.552" transform="translate(-619.672 -159.381)"/>
      <path id="Path_3209" data-name="Path 3209" d="M926.065,269.961H911.13a.552.552,0,1,1,0-1.1h14.935a.552.552,0,1,1,0,1.1" transform="translate(-604.524 -178.503)"/>
      <rect id="Rectangle_914" data-name="Rectangle 914" width="28.909" height="51.18" transform="translate(205.045 180.106)" fill="#c1c1c1"/>
      <path id="Path_3210" data-name="Path 3210" d="M637.874,586.567H608.965a.552.552,0,0,1-.552-.552v-51.18a.552.552,0,0,1,.552-.552h28.909a.552.552,0,0,1,.552.552v51.18a.552.552,0,0,1-.552.552m-28.357-1.1h27.8V535.387h-27.8Z" transform="translate(-403.92 -354.729)"/>
      <rect id="Rectangle_915" data-name="Rectangle 915" width="10.746" height="19.025" transform="translate(214.127 188.139)" fill="#31d3f5"/>
      <path id="Path_3211" data-name="Path 3211" d="M651.97,578.9a.552.552,0,0,1-.552-.552V559.626a.552.552,0,0,1,1.1,0v18.726a.552.552,0,0,1-.552.552" transform="translate(-432.47 -371.188)"/>
      <path id="Path_3212" data-name="Path 3212" d="M646.761,588.039H636.079a.552.552,0,1,1,0-1.1h10.682a.552.552,0,1,1,0,1.1" transform="translate(-421.92 -389.686)"/>
      <rect id="Rectangle_916" data-name="Rectangle 916" width="22.951" height="40.633" transform="translate(208.384 119.494)" fill="#31d3f5"/>
      <path id="Path_3213" data-name="Path 3213" d="M653.039,396.922a.552.552,0,0,1-.552-.552V356.376a.552.552,0,1,1,1.1,0V396.37a.552.552,0,0,1-.552.552" transform="translate(-433.18 -236.244)"/>
      <path id="Path_3214" data-name="Path 3214" d="M641.914,416.431H619.1a.552.552,0,1,1,0-1.1h22.814a.552.552,0,1,1,0,1.1" transform="translate(-410.647 -275.75)"/>
      <rect id="Rectangle_917" data-name="Rectangle 917" width="22.951" height="40.633" transform="translate(255.856 119.494)" fill="#31d3f5"/>
      <path id="Path_3215" data-name="Path 3215" d="M794.281,396.922a.552.552,0,0,1-.552-.552V356.376a.552.552,0,0,1,1.1,0V396.37a.552.552,0,0,1-.552.552" transform="translate(-526.949 -236.244)"/>
      <path id="Path_3216" data-name="Path 3216" d="M783.156,416.431H760.341a.552.552,0,1,1,0-1.1h22.814a.552.552,0,1,1,0,1.1" transform="translate(-504.417 -275.75)"/>
      <rect id="Rectangle_918" data-name="Rectangle 918" width="22.951" height="40.633" transform="translate(285.628 119.494)" fill="#31d3f5"/>
      <path id="Path_3217" data-name="Path 3217" d="M882.857,396.922a.552.552,0,0,1-.552-.552V356.376a.552.552,0,0,1,1.1,0V396.37a.552.552,0,0,1-.552.552" transform="translate(-585.754 -236.244)"/>
      <path id="Path_3218" data-name="Path 3218" d="M871.732,416.431H848.917a.552.552,0,1,1,0-1.1h22.815a.552.552,0,1,1,0,1.1" transform="translate(-563.221 -275.75)"/>
      <rect id="Rectangle_919" data-name="Rectangle 919" width="22.951" height="40.633" transform="translate(315.399 119.494)" fill="#31d3f5"/>
      <path id="Path_3219" data-name="Path 3219" d="M971.432,396.922a.552.552,0,0,1-.552-.552V356.376a.552.552,0,1,1,1.1,0V396.37a.552.552,0,0,1-.552.552" transform="translate(-644.558 -236.244)"/>
      <path id="Path_3220" data-name="Path 3220" d="M960.308,416.431H937.493a.552.552,0,1,1,0-1.1h22.815a.552.552,0,1,1,0,1.1" transform="translate(-622.026 -275.75)"/>
      <path id="Path_3221" data-name="Path 3221" d="M905.993,48.168h-461.5V38.942A35.664,35.664,0,0,1,480.158,3.281H870.327a35.664,35.664,0,0,1,35.666,35.661Z" transform="translate(-295.094 -2.178)" fill="#c1c1c1"/>
      <path id="Path_3222" data-name="Path 3222" d="M905.177,136.849h-460.5a.746.746,0,0,1,0-1.492h460.5a.746.746,0,0,1,0,1.492" transform="translate(-294.72 -89.868)"/>
      <path id="Path_3223" data-name="Path 3223" d="M869.546,306.041H478.108a35.873,35.873,0,0,1-35.835-35.831V35.831A35.873,35.873,0,0,1,478.108,0H869.546a35.873,35.873,0,0,1,35.835,35.831V270.21a35.873,35.873,0,0,1-35.835,35.831M478.108,1.492a34.38,34.38,0,0,0-34.343,34.339V270.21a34.38,34.38,0,0,0,34.343,34.339H869.546a34.38,34.38,0,0,0,34.343-34.339V35.831A34.38,34.38,0,0,0,869.546,1.492Z" transform="translate(-293.621)"/>
      <path id="Path_3224" data-name="Path 3224" d="M904.748,776.625H443.362a.746.746,0,0,1,0-1.492H904.748a.746.746,0,0,1,0,1.492" transform="translate(-293.849 -514.638)"/>
      <path id="Path_3225" data-name="Path 3225" d="M1054.107,988.04H899.029a.746.746,0,0,1-.735-.871l13.722-80.33a.746.746,0,0,1,.735-.62h127.634a.746.746,0,0,1,.735.62l13.723,80.33a.745.745,0,0,1-.735.871m-154.193-1.492h153.309l-13.467-78.838H913.38Z" transform="translate(-596.361 -601.67)"/>
      <path id="Path_3226" data-name="Path 3226" d="M1018.307,1162.349H821.43a8.551,8.551,0,1,1,0-17.1h196.877a8.551,8.551,0,1,1,0,17.1M821.43,1146.74a7.059,7.059,0,1,0,0,14.118h196.877a7.059,7.059,0,1,0,0-14.118Z" transform="translate(-539.662 -760.37)"/>
      <path id="Path_3227" data-name="Path 3227" d="M1117.406,845.5a6.961,6.961,0,1,1,6.982-6.961,6.979,6.979,0,0,1-6.982,6.961m0-12.429a5.469,5.469,0,1,0,5.49,5.469,5.486,5.486,0,0,0-5.49-5.469" transform="translate(-737.2 -552.113)"/>
      <path id="Path_3228" data-name="Path 3228" d="M1250.21,1233.849h-83.539s-4.154-76.654,25.8-77.53,38.912,14.65,49.843,38.765,7.9,38.765,7.9,38.765" transform="translate(-774.412 -767.696)"/>
      <path id="Path_3229" data-name="Path 3229" d="M1533,741.384H1449.46s-4.153-76.654,25.8-77.53,38.912,14.649,49.843,38.765,7.9,38.765,7.9,38.765" transform="translate(-962.153 -440.732)"/>
      <path id="Path_3230" data-name="Path 3230" d="M1128.53,518.166c30.824-32.207,26.617-112.419,38.094-145.612,8.231-23.8,39.8-32.027,40.648,7.013.789,36.471,14.756,46.011,28.2,46.339,9.872.241,14.07-11.389,15.6-17.586a25.768,25.768,0,0,0,.754-6.28l-.648-213.386H1126.575V352.648l-92.8-.032c-9.56-.344-20.277,7.087-24.446,19.146-11.477,33.193-7.587,122.855-7.587,159.6l43.293,10.991,48.727-26.654Z" transform="translate(-664.626 -125.254)" fill="#31d3f5"/>
      <path id="Path_3231" data-name="Path 3231" d="M706.947,1034.726c58.187-34.379,32.044-107.98,43.521-141.173,8.23-23.8,42.1-33.2,42.1,3.279s14.627,40.322,28.072,40.651c9.872.241,14.07-11.389,15.6-17.586a25.794,25.794,0,0,0,.753-6.28l-.648-204.074H711.744V873.536L581.781,873.5c-9.56-.344-20.276,7.087-24.446,19.146-11.477,33.193,9.3,100.057-42.973,141.912Z" transform="translate(-341.481 -471.089)" fill="#31d3f5"/>
      <path id="Path_3232" data-name="Path 3232" d="M1003.414,1196.317a.746.746,0,0,1,0-1.492l90.231-.227h0a.746.746,0,0,1,0,1.492l-90.231.227Z" transform="translate(-665.662 -793.135)" fill="#31d3f5"/>
      <path id="Path_3233" data-name="Path 3233" d="M1432.663,675.94h0l-59.738-.034a.746.746,0,0,1,0-1.492h0l59.739.034a.746.746,0,0,1,0,1.492" transform="translate(-910.977 -447.767)" fill="#31d3f5"/>
      <path id="Path_3234" data-name="Path 3234" d="M1545.213,266.437h-40.661a.746.746,0,1,1,0-1.492h40.661a.746.746,0,1,1,0,1.492" transform="translate(-998.362 -175.906)"/>
      <path id="Path_3235" data-name="Path 3235" d="M1522.656,322.421h-81.562a.746.746,0,1,1,0-1.492h81.562a.746.746,0,0,1,0,1.492" transform="translate(-956.233 -213.076)"/>
      <path id="Path_3236" data-name="Path 3236" d="M1522.656,378.4h-81.562a.746.746,0,1,1,0-1.492h81.562a.746.746,0,0,1,0,1.492" transform="translate(-956.233 -250.244)"/>
      <path id="Path_3237" data-name="Path 3237" d="M1522.656,434.388h-81.562a.746.746,0,1,1,0-1.492h81.562a.746.746,0,0,1,0,1.492" transform="translate(-956.233 -287.415)"/>
      <path id="Path_3238" data-name="Path 3238" d="M1516.434,490.37h-81.562a.746.746,0,1,1,0-1.492h81.562a.746.746,0,1,1,0,1.492" transform="translate(-952.103 -324.583)"/>
      <path id="Path_3239" data-name="Path 3239" d="M1478.89,546.355h-44.017a.746.746,0,1,1,0-1.492h44.017a.746.746,0,1,1,0,1.492" transform="translate(-952.103 -361.753)"/>
      <path id="Path_3240" data-name="Path 3240" d="M1193.073,809.726H1098.1a.746.746,0,1,1,0-1.492h94.974a.746.746,0,1,1,0,1.492" transform="translate(-728.522 -536.614)"/>
      <path id="Path_3241" data-name="Path 3241" d="M1193.073,865.71H1098.1a.746.746,0,1,1,0-1.492h94.974a.746.746,0,1,1,0,1.492" transform="translate(-728.522 -573.784)"/>
      <path id="Path_3242" data-name="Path 3242" d="M1193.073,921.693H1098.1a.746.746,0,1,1,0-1.492h94.974a.746.746,0,1,1,0,1.492" transform="translate(-728.522 -610.953)"/>
      <path id="Path_3243" data-name="Path 3243" d="M1193.073,977.677H1098.1a.746.746,0,1,1,0-1.492h94.974a.746.746,0,1,1,0,1.492" transform="translate(-728.522 -648.123)"/>
      <path id="Path_3244" data-name="Path 3244" d="M1191.356,1033.659h-94.974a.746.746,0,1,1,0-1.492h94.974a.746.746,0,1,1,0,1.492" transform="translate(-727.382 -685.291)"/>
      <path id="Path_3245" data-name="Path 3245" d="M1277.557,1089.644H1226.3a.746.746,0,1,1,0-1.492h51.256a.746.746,0,0,1,0,1.492" transform="translate(-813.634 -722.462)"/>
      <path id="Path_3246" data-name="Path 3246" d="M864.2,1298.019H754.828a.746.746,0,0,1,0-1.492H864.2a.746.746,0,1,1,0,1.492" transform="translate(-500.628 -860.809)"/>
      <path id="Path_3247" data-name="Path 3247" d="M864.2,1353.873H754.828a.746.746,0,1,1,0-1.492H864.2a.746.746,0,1,1,0,1.492" transform="translate(-500.628 -897.892)"/>
      <path id="Path_3248" data-name="Path 3248" d="M865.078,1409.728H755.708a.746.746,0,0,1,0-1.492h109.37a.746.746,0,1,1,0,1.492" transform="translate(-501.212 -934.976)"/>
      <path id="Path_3249" data-name="Path 3249" d="M853.957,1465.582H744.587a.746.746,0,0,1,0-1.492h109.37a.746.746,0,1,1,0,1.492" transform="translate(-493.829 -972.06)"/>
      <path id="Path_3250" data-name="Path 3250" d="M760.449,1521.434H707.927a.746.746,0,1,1,0-1.492h52.522a.746.746,0,1,1,0,1.492" transform="translate(-469.491 -1009.142)"/>
      <rect id="Rectangle_920" data-name="Rectangle 920" width="27.321" height="62.893" transform="translate(98.842 377.376)" fill="#f8fafa"/>
      <path id="Path_3251" data-name="Path 3251" d="M294.077,1071.028c0,14.421,10.723,26.111,23.949,26.111s23.949-11.69,23.949-26.111-10.723-26.111-23.949-26.111-23.949,11.69-23.949,26.111" transform="translate(-195.235 -693.756)" fill="#f8fafa"/>
      <path id="Path_3252" data-name="Path 3252" d="M349.858,1156.157a11.207,11.207,0,0,0,18.387-5.378Z" transform="translate(-232.267 -764.042)" fill="#fff"/>
      <path id="Path_3253" data-name="Path 3253" d="M320.071,1099.266a22.25,22.25,0,0,1-7.165-1.181.746.746,0,1,1,.479-1.413,20.76,20.76,0,0,0,6.685,1.1c12.429,0,22.54-11.055,22.54-24.642s-10.112-24.643-22.541-24.643c-11.609,0-21.249,9.509-22.423,22.116a.756.756,0,0,1-.812.674.747.747,0,0,1-.674-.812c1.247-13.379,11.526-23.469,23.909-23.47,13.252,0,24.033,11.724,24.033,26.135s-10.781,26.134-24.032,26.134" transform="translate(-196.616 -695.137)"/>
      <path id="Path_3254" data-name="Path 3254" d="M318.911,1061.575l22.617,11.086c.046-.659.092-1.319.092-1.992,0-14.223-10.575-25.752-23.621-25.752s-24.457,12.1-24.457,26.322a28.458,28.458,0,0,0,.152,2.85Z" transform="translate(-194.88 -693.756)"/>
      <path id="Path_3255" data-name="Path 3255" d="M257.487,1009.3A17.664,17.664,0,1,1,235.7,997.114a17.579,17.579,0,0,1,21.784,12.186" transform="translate(-147.915 -661.582)"/>
      <path id="Path_3256" data-name="Path 3256" d="M175.526,963.443a17.664,17.664,0,1,1-21.784-12.186,17.579,17.579,0,0,1,21.784,12.186" transform="translate(-93.501 -631.136)"/>
      <path id="Path_3257" data-name="Path 3257" d="M93.565,917.586A17.664,17.664,0,1,1,71.782,905.4a17.579,17.579,0,0,1,21.784,12.186" transform="translate(-39.089 -600.689)"/>
      <path id="Path_3258" data-name="Path 3258" d="M781.5,1064.853a7.908,7.908,0,0,0-10.434-3.233l-12.634,6.807-.384-.651A8.868,8.868,0,0,0,747,1064.1l-24.587,10.262a35.514,35.514,0,0,1-19.225,2.677l-12.745-1.776,11.736-23.778a7.572,7.572,0,0,0-3.286-10.062l-.768-.4a7.577,7.577,0,0,0-10.07,2.928l-4.038,7a80.064,80.064,0,0,1-12.825,16.7c-4.39,4.376-9.532,9.619-11.79,12.367a20.237,20.237,0,0,0-2.061,23.566l-46.667,64.705-23.876-18.68-30.886,41.658,43.883,32.512a20.975,20.975,0,0,0,29.454-4.523l64.063-88.175,85.6-55.758a7.9,7.9,0,0,0,2.589-10.461" transform="translate(-369.063 -690.597)" fill="#f8fafa"/>
      <path id="Path_3259" data-name="Path 3259" d="M610.167,1227.158a21.549,21.549,0,0,1-12.882-4.273L552.8,1189.929l31.786-42.873,23.868,18.674,45.93-63.681a21.081,21.081,0,0,1,2.373-24c2.331-2.838,7.725-8.321,11.839-12.422a79.331,79.331,0,0,0,12.706-16.54l4.037-7a8.307,8.307,0,0,1,11.062-3.216l.769.4a8.366,8.366,0,0,1,3.608,11.054L689.5,1073.183l11.722,1.633a34.716,34.716,0,0,0,18.821-2.621l24.6-10.268a9.654,9.654,0,0,1,11.984,3.987l.02.033,12-6.466a8.65,8.65,0,0,1,8.607,14.975l-85.489,55.683L627.787,1218.2a21.566,21.566,0,0,1-14.272,8.7,22.025,22.025,0,0,1-3.348.256m-55.277-37.539,43.284,32.068a20.23,20.23,0,0,0,28.407-4.362l64.143-88.286,85.719-55.833a7.158,7.158,0,0,0-7.106-12.4l-13.245,7.136-.748-1.27a8.156,8.156,0,0,0-10.124-3.368l-24.587,10.262a36.258,36.258,0,0,1-19.614,2.727l-13.769-1.919,12.193-24.7a6.865,6.865,0,0,0-2.961-9.071l-.769-.4a6.814,6.814,0,0,0-9.079,2.639l-4.037,7a80.829,80.829,0,0,1-12.945,16.85c-4.091,4.077-9.448,9.522-11.74,12.313a19.6,19.6,0,0,0-2.013,22.684l.282.429-47.422,65.751-23.884-18.687Z" transform="translate(-367 -689.114)"/>
      <path id="Path_3260" data-name="Path 3260" d="M1042.416,1107.738l6.854-3.5a25.256,25.256,0,0,0,10.415-9.9l13.36-23.206a7.047,7.047,0,0,1,12.527,6.421L1073.2,1104.87a18.115,18.115,0,0,1-4.214,5.835l-9.593,8.855Z" transform="translate(-692.05 -708.82)" fill="#f8fafa"/>
      <path id="Path_3261" data-name="Path 3261" d="M1107.887,1110a.746.746,0,0,1-.507-1.293,17.282,17.282,0,0,0,4.041-5.6L1123.8,1075.8a6.3,6.3,0,0,0-11.2-5.74l-10.183,17.863a.746.746,0,1,1-1.3-.738l10.186-17.866a7.793,7.793,0,0,1,13.855,7.1l-12.376,27.312a18.772,18.772,0,0,1-4.387,6.075.743.743,0,0,1-.506.2" transform="translate(-730.955 -707.366)"/>
      <path id="Path_3262" data-name="Path 3262" d="M994.961,1134.364l6.181-4.581a25.256,25.256,0,0,0,8.634-11.484l9.339-25.094a7.047,7.047,0,0,1,13.417,4.262l-7.69,28.981a18.114,18.114,0,0,1-3.19,6.451l-7.787,8.024Z" transform="translate(-660.545 -722.769)" fill="#f8fafa"/>
      <path id="Path_3263" data-name="Path 3263" d="M972.175,1137.482a.746.746,0,0,1-.4-1.376l13.345-8.416a24.425,24.425,0,0,0,8.332-11.114l9.339-25.094a7.793,7.793,0,0,1,14.838,4.713l-6,25.424c-1.337,5.663-4.637,9.859-8.131,14.3l-.223.283a.746.746,0,0,1-1.173-.922l.223-.283c3.39-4.309,6.591-8.38,7.851-13.722l6-25.443a6.3,6.3,0,0,0-11.992-3.831l-9.339,25.094a25.947,25.947,0,0,1-8.889,11.824l-13.392,8.447a.737.737,0,0,1-.4.115" transform="translate(-644.922 -721.305)"/>
      <path id="Path_3264" data-name="Path 3264" d="M939.114,1154.309a.746.746,0,0,1-.666-1.081l5.236-10.423a.746.746,0,0,1,1.333.67l-5.236,10.423a.747.747,0,0,1-.667.411" transform="translate(-622.974 -758.475)"/>
      <path id="Path_3265" data-name="Path 3265" d="M72.86,1283.884H63.866a54,54,0,0,0-52.652,41.989L0,1375.069H72.86Z" transform="translate(0 -852.415)" fill="#c1c1c1"/>
      <path id="Path_3266" data-name="Path 3266" d="M433.8,1283.884H392.166v71.548h59.073l39.33-43.288-23.2-17.184a56.4,56.4,0,0,0-33.566-11.076" transform="translate(-260.355 -852.415)" fill="#c1c1c1"/>
      <path id="Path_3267" data-name="Path 3267" d="M298.476,1283.884H183.87v182.785H348.057Z" transform="translate(-122.069 -852.415)" fill="#c1c1c1"/>
      <path id="Path_3268" data-name="Path 3268" d="M347.558,1599.033H181.65v-92.346a.746.746,0,1,1,1.492,0v90.854H345.608l-31.051-114.475a.746.746,0,1,1,1.439-.39Z" transform="translate(-120.596 -984.033)"/>
      <path id="Path_3269" data-name="Path 3269" d="M25.446,1604.853v-46.741H78.693v20.273a10.233,10.233,0,0,0,10.239,10.231l87.576-.026v47.965l-119.319.022a31.731,31.731,0,0,1-31.744-31.725" transform="translate(-16.893 -1034.484)" fill="#f8fafa"/>
      <path id="Path_3270" data-name="Path 3270" d="M25.445,1586.917v-28.805H78.693v17a52.3,52.3,0,0,1-12.222-1.744c-5.662-1.744-11.218-2.553-16.671,4.9-7.145,9.763-16.318,10.826-24.355,8.654" transform="translate(-16.893 -1034.484)"/>
      <path id="Path_3271" data-name="Path 3271" d="M454.788,1679.15l5.207,5.623a8.132,8.132,0,0,1,.631,10.281l-5.113,7.1-12.393-13.822H365.267v-16.285h73.25a22.175,22.175,0,0,1,16.271,7.108" transform="translate(-242.497 -1110.126)" fill="#f8fafa"/>
      <path id="Path_3272" data-name="Path 3272" d="M452.389,1644.1l2.946,3.181a8.133,8.133,0,0,1,.631,10.281l-5.114,7.1-12.393-13.822H365.267V1639.5H377.69c5.138,0,14.305-4.956,25.9-4.956h26.935a29.8,29.8,0,0,1,21.861,9.55" transform="translate(-242.497 -1085.233)" fill="#f8fafa"/>
      <path id="Path_3273" data-name="Path 3273" d="M520.762,1713.94l6.246,6.746a8.132,8.132,0,0,1,.631,10.281l-5.114,7.1-12.393-13.822H461.9v-16.288h45.156a18.68,18.68,0,0,1,13.707,5.988" transform="translate(-306.65 -1133.968)" fill="#f8fafa"/>
      <path id="Path_3274" data-name="Path 3274" d="M465.391,1748.995l6.516,7.038a7.473,7.473,0,1,1-11.052,10.063l-3.537-3.945a8.912,8.912,0,0,0-6.634-2.962h-40.5c-10.589,0-18.043-.606-28.245-16.3l69.5.012a19.011,19.011,0,0,1,13.95,6.094" transform="translate(-253.565 -1157.163)" fill="#f8fafa"/>
      <path id="Path_3275" data-name="Path 3275" d="M575.954,1693.673a.746.746,0,0,1-.6-1.182c1.931-2.678,1.557-5.925-1-8.684l-5.207-5.623a21.494,21.494,0,0,0-15.724-6.869H539.09a.746.746,0,1,1,0-1.492h14.331a22.99,22.99,0,0,1,16.819,7.347l5.206,5.623c3.028,3.27,3.455,7.32,1.114,10.571a.747.747,0,0,1-.606.309" transform="translate(-357.401 -1108.653)"/>
      <path id="Path_3276" data-name="Path 3276" d="M576.137,1733a.746.746,0,0,1-.6-1.182l1.991-2.763a7.408,7.408,0,0,0-.573-9.337l-6.246-6.747a17.99,17.99,0,0,0-13.16-5.748H538.7a.746.746,0,1,1,0-1.492h18.847a19.486,19.486,0,0,1,14.254,6.226l6.246,6.746a8.9,8.9,0,0,1,.689,11.224l-1.991,2.763a.747.747,0,0,1-.606.309" transform="translate(-357.141 -1132.495)"/>
      <path id="Path_3277" data-name="Path 3277" d="M473.839,1767.876a8.181,8.181,0,0,1-6.114-2.733l-3.537-3.944a8.175,8.175,0,0,0-6.079-2.714H413.315a24.227,24.227,0,0,1-20.064-10.64.746.746,0,1,1,1.234-.838,22.738,22.738,0,0,0,18.83,9.986H458.11a9.668,9.668,0,0,1,7.189,3.209l3.537,3.944a6.728,6.728,0,1,0,9.949-9.058l-6.516-7.037a18.318,18.318,0,0,0-13.4-5.856H443.181a.746.746,0,0,1,0-1.492h15.684a19.813,19.813,0,0,1,14.5,6.333l6.516,7.037a8.218,8.218,0,0,1-5.594,13.789q-.224.012-.446.012" transform="translate(-260.99 -1155.714)"/>
      <path id="Path_3278" data-name="Path 3278" d="M55.708,1635.851a32.476,32.476,0,0,1-32.482-32.471v-47.487H77.965v21.019a9.487,9.487,0,0,0,9.489,9.485h60.832a43.048,43.048,0,0,0,12.1-2.071,61.249,61.249,0,0,1,17.927-2.745H203.45a30.627,30.627,0,0,1,22.408,9.789l2.946,3.182a8.838,8.838,0,0,1,1.524,9.8.746.746,0,1,1-1.35-.634,7.354,7.354,0,0,0-1.268-8.157l-2.946-3.182a29.131,29.131,0,0,0-21.313-9.311H178.312a59.978,59.978,0,0,0-17.53,2.691,44.24,44.24,0,0,1-12.5,2.125H87.454a10.979,10.979,0,0,1-10.981-10.977v-19.527H24.718v46a30.985,30.985,0,0,0,30.991,30.979h127.5a.746.746,0,0,1,0,1.492H55.708Z" transform="translate(-15.42 -1033.011)"/>
      <path id="Path_3279" data-name="Path 3279" d="M1703.99,1482.261a.745.745,0,0,1-.7-1.013c.191-.5,4.808-12.321,15.651-19.831s23.537-7.676,24.072-7.68h.005a.745.745,0,0,1,.7,1.012c-.19.5-4.807,12.322-15.65,19.831s-23.538,7.676-24.072,7.679Zm37.877-26.977c-3.372.228-13.468,1.4-22.073,7.36s-13.252,15-14.648,18.07c3.372-.229,13.467-1.4,22.072-7.36s13.252-15,14.649-18.071m-14.224,18.684h0Z" transform="translate(-1130.767 -965.187)"/>
      <path id="Path_3280" data-name="Path 3280" d="M1703.587,1580.4a.746.746,0,0,1-.746-.746V1536.1a.746.746,0,1,1,1.492,0v43.551a.746.746,0,0,1-.746.746" transform="translate(-1130.5 -1019.376)"/>
      <path id="Path_3281" data-name="Path 3281" d="M1514.3,1310.187c10.918,19.428,30.535,29.132,30.535,29.132s1.916-21.8-9-41.224-30.534-29.132-30.534-29.132-1.916,21.8,9,41.224" transform="translate(-999.268 -842.508)" fill="#c1c1c1"/>
      <path id="Path_3282" data-name="Path 3282" d="M1621.712,1541.679a.745.745,0,0,1-.746-.745v-64.092a.746.746,0,0,1,1.492,0v64.092a.746.746,0,0,1-.746.745" transform="translate(-1076.144 -980.031)"/>
      <path id="Path_3283" data-name="Path 3283" d="M1698.317,1228.421c-15.29,27.208-42.761,40.8-42.761,40.8s-2.683-30.523,12.607-57.731,42.761-40.8,42.761-40.8,2.683,30.523-12.607,57.731" transform="translate(-1098.987 -777.261)" fill="#c1c1c1"/>
      <path id="Path_3284" data-name="Path 3284" d="M1654.44,1532.152a.746.746,0,0,1-.746-.746V1462.4a.746.746,0,0,1,1.492,0v69.009a.746.746,0,0,1-.746.746" transform="translate(-1097.872 -970.441)"/>
      <path id="Path_3285" data-name="Path 3285" d="M1589.965,1705.491h-10.856a30.925,30.925,0,0,1-30.926-30.922v-29.742h72.709v29.742a30.925,30.925,0,0,1-30.926,30.922" transform="translate(-1027.823 -1092.057)" fill="#fff"/>
      <path id="Path_3286" data-name="Path 3286" d="M1588.492,1704.763h-10.856a31.706,31.706,0,0,1-31.673-31.668v-29.741a.746.746,0,0,1,.746-.746h72.709a.746.746,0,0,1,.746.746v29.741a31.707,31.707,0,0,1-31.673,31.668m-41.037-60.664v29a30.212,30.212,0,0,0,30.181,30.177h10.856a30.213,30.213,0,0,0,30.181-30.177v-29Z" transform="translate(-1026.35 -1090.583)"/>
      <path id="Path_3287" data-name="Path 3287" d="M1548.182,1674.573a31.024,31.024,0,0,0,.644,6.3c10.018-.031,20.263-4.143,28.76-15.755,8.953-12.236,18.075-10.907,27.372-8.044a75.748,75.748,0,0,0,15.934,2.625v-14.867h-72.709Z" transform="translate(-1027.823 -1092.057)"/>
      <path id="Path_3288" data-name="Path 3288" d="M731.164,429.5a34.664,34.664,0,1,1,34.668-34.664A34.7,34.7,0,0,1,731.164,429.5m0-67.836a33.172,33.172,0,1,0,33.176,33.172,33.212,33.212,0,0,0-33.176-33.172" transform="translate(-462.397 -239.133)"/>
      <path id="Path_3289" data-name="Path 3289" d="M686.675,407.531a57.184,57.184,0,1,1,57.191-57.185,57.253,57.253,0,0,1-57.191,57.185m0-112.877a55.693,55.693,0,1,0,55.7,55.692,55.759,55.759,0,0,0-55.7-55.692" transform="translate(-417.908 -194.64)"/>
      <path id="Path_3290" data-name="Path 3290" d="M784.247,432.142a15.784,15.784,0,1,0-15.784,15.782,15.783,15.783,0,0,0,15.784-15.782" transform="translate(-499.696 -276.436)"/>
      <path id="Path_3291" data-name="Path 3291" d="M795.567,393.806a2.062,2.062,0,0,1-2.062-2.062V248.883a2.062,2.062,0,1,1,4.125,0v142.86a2.062,2.062,0,0,1-2.062,2.062" transform="translate(-526.8 -163.873)"/>
      <path id="Path_3292" data-name="Path 3292" d="M725.9,463.493H583.019a2.062,2.062,0,1,1,0-4.125H725.9a2.062,2.062,0,1,1,0,4.125" transform="translate(-385.692 -304.991)"/>
      <path id="Path_3293" data-name="Path 3293" d="M547.512,239.945a2.062,2.062,0,0,1-2.063-2.062V194.261a2.062,2.062,0,0,1,2.063-2.062h40.748a2.062,2.062,0,1,1,0,4.125H549.574v41.559a2.062,2.062,0,0,1-2.062,2.062" transform="translate(-362.118 -127.608)"/>
      <path id="Path_3294" data-name="Path 3294" d="M957.8,241.35a2.062,2.062,0,0,1-2.062-2.062v-38.68H914.177a2.062,2.062,0,1,1,0-4.125H957.8a2.062,2.062,0,0,1,2.062,2.062v40.743a2.062,2.062,0,0,1-2.062,2.062" transform="translate(-605.544 -130.452)"/>
      <path id="Path_3295" data-name="Path 3295" d="M588.259,624.13H547.511a2.063,2.063,0,0,1-2.062-2.062V578.446a2.063,2.063,0,0,1,4.125,0v41.559h38.685a2.062,2.062,0,1,1,0,4.125" transform="translate(-362.118 -382.681)"/>
      <path id="Path_3296" data-name="Path 3296" d="M957.8,625.535H914.177a2.062,2.062,0,1,1,0-4.125h41.565V582.73a2.062,2.062,0,0,1,4.125,0v40.743a2.062,2.062,0,0,1-2.062,2.062" transform="translate(-605.544 -385.525)"/>
      <path id="Path_3297" data-name="Path 3297" d="M170.894,594.348a27.536,27.536,0,0,1,5.874-11.54,27.529,27.529,0,0,1-5.874-11.54,27.53,27.53,0,0,1-5.874,11.54,27.537,27.537,0,0,1,5.874,11.54" transform="translate(-109.555 -379.284)" fill="#c1c1c1"/>
      <path id="Path_3298" data-name="Path 3298" d="M112.737,402.126a27.534,27.534,0,0,1,5.874-11.54,27.531,27.531,0,0,1-5.874-11.54,27.532,27.532,0,0,1-5.874,11.54,27.535,27.535,0,0,1,5.874,11.54" transform="translate(-70.945 -251.662)" fill="#c1c1c1"/>
      <path id="Path_3299" data-name="Path 3299" d="M225.956,453.376a44.057,44.057,0,0,1,9.4,18.462,44.046,44.046,0,0,1,9.4-18.462,44.042,44.042,0,0,1-9.4-18.462,44.052,44.052,0,0,1-9.4,18.462" transform="translate(-150.01 -288.754)" fill="#c1c1c1"/>
    </g>
  </g>
</svg>
